G04 #@! TF.FileFunction,Copper,L2,Bot,Signal*
%FSLAX45Y45*%
G04 Gerber Fmt 4.5, Leading zero omitted, Abs format (unit mm)*
G04 Created by KiCad (PCBNEW 4.0.2-stable) date 2017/02/21 9:17:19*
%MOMM*%
G01*
G04 APERTURE LIST*
%ADD10C,0.100000*%
%ADD11C,1.600000*%
%ADD12R,1.700000X1.700000*%
%ADD13O,1.700000X1.700000*%
%ADD14C,1.500000*%
%ADD15C,3.000000*%
%ADD16C,1.397000*%
%ADD17R,1.800000X1.800000*%
%ADD18C,1.800000*%
%ADD19R,1.350000X1.350000*%
%ADD20O,1.350000X1.350000*%
%ADD21C,1.400000*%
%ADD22O,1.400000X1.400000*%
%ADD23R,1.600000X1.600000*%
%ADD24O,2.032000X2.540000*%
%ADD25C,0.600000*%
%ADD26C,0.250000*%
%ADD27C,1.000000*%
%ADD28C,0.254000*%
G04 APERTURE END LIST*
D10*
D11*
X18900000Y-3900000D03*
X18700000Y-3900000D03*
X18500000Y-3900000D03*
X18300000Y-3900000D03*
X18100000Y-3900000D03*
X17900000Y-3900000D03*
X17700000Y-3900000D03*
X17500000Y-3900000D03*
X17300000Y-3900000D03*
X17100000Y-3900000D03*
X17100000Y-6100000D03*
X17300000Y-6100000D03*
X17500000Y-6100000D03*
X17700000Y-6100000D03*
X17900000Y-6100000D03*
X18100000Y-6100000D03*
X18300000Y-6100000D03*
X18500000Y-6100000D03*
X18700000Y-6100000D03*
X18900000Y-6100000D03*
D12*
X19700000Y-6050000D03*
D13*
X19700000Y-5796000D03*
X19700000Y-5542000D03*
X19700000Y-5288000D03*
D12*
X13500000Y-6800000D03*
D13*
X13500000Y-7054000D03*
X13500000Y-7308000D03*
D12*
X14300000Y-6800000D03*
D13*
X14300000Y-7054000D03*
X14300000Y-7308000D03*
D12*
X15500000Y-6800000D03*
D13*
X15500000Y-7054000D03*
X15500000Y-7308000D03*
D12*
X15900000Y-6800000D03*
D13*
X15900000Y-7054000D03*
X15900000Y-7308000D03*
D12*
X16300000Y-6800000D03*
D13*
X16300000Y-7054000D03*
X16300000Y-7308000D03*
D12*
X16700000Y-6800000D03*
D13*
X16700000Y-7054000D03*
X16700000Y-7308000D03*
D12*
X17500000Y-6800000D03*
D13*
X17500000Y-7054000D03*
X17500000Y-7308000D03*
D12*
X17900000Y-6800000D03*
D13*
X17900000Y-7054000D03*
X17900000Y-7308000D03*
D14*
X13800000Y-5411000D03*
X13800000Y-5157000D03*
X13800000Y-4954000D03*
X13800000Y-4700000D03*
D15*
X13533000Y-5716000D03*
X13533000Y-4344000D03*
D16*
X14181000Y-2646000D03*
X14181000Y-3154000D03*
X13419000Y-2646000D03*
X13419000Y-3154000D03*
D12*
X20200000Y-7300000D03*
D13*
X19946000Y-7300000D03*
D12*
X19113500Y-5143500D03*
D13*
X19113500Y-5397500D03*
X19113500Y-5651500D03*
X19113500Y-5905500D03*
D17*
X19650000Y-3400000D03*
D18*
X19904000Y-3400000D03*
D19*
X12800000Y-6030000D03*
D20*
X12800000Y-6230000D03*
X12800000Y-6430000D03*
X12800000Y-6630000D03*
D19*
X13300000Y-3500000D03*
D20*
X13300000Y-3700000D03*
X13300000Y-3900000D03*
X13300000Y-4100000D03*
D19*
X12800000Y-3500000D03*
D20*
X12800000Y-3700000D03*
X12800000Y-3900000D03*
X12800000Y-4100000D03*
D19*
X16060000Y-3320000D03*
D20*
X16260000Y-3320000D03*
X16460000Y-3320000D03*
X16660000Y-3320000D03*
D12*
X17300000Y-5600000D03*
D13*
X17300000Y-5346000D03*
X17300000Y-5092000D03*
X17300000Y-4838000D03*
X17300000Y-4584000D03*
X17300000Y-4330000D03*
D17*
X18600000Y-7200000D03*
D18*
X18346000Y-7200000D03*
D17*
X18600000Y-6600000D03*
D18*
X18346000Y-6600000D03*
D11*
X21450000Y-2650000D03*
X21250000Y-2650000D03*
X21050000Y-2650000D03*
X20850000Y-2650000D03*
X20650000Y-2650000D03*
X20450000Y-2650000D03*
X20250000Y-2650000D03*
X20050000Y-2650000D03*
X19850000Y-2650000D03*
X19650000Y-2650000D03*
X19650000Y-4850000D03*
X19850000Y-4850000D03*
X20050000Y-4850000D03*
X20250000Y-4850000D03*
X20450000Y-4850000D03*
X20650000Y-4850000D03*
X20850000Y-4850000D03*
X21050000Y-4850000D03*
X21250000Y-4850000D03*
X21450000Y-4850000D03*
D17*
X19700000Y-6800000D03*
D18*
X19954000Y-6800000D03*
D12*
X15240000Y-3800000D03*
D13*
X15494000Y-3800000D03*
X15748000Y-3800000D03*
X16002000Y-3800000D03*
X16256000Y-3800000D03*
X16510000Y-3800000D03*
D17*
X19650000Y-4200000D03*
D18*
X19904000Y-4200000D03*
D12*
X16900000Y-2800000D03*
D13*
X16900000Y-3054000D03*
D11*
X18554000Y-2700000D03*
X18300000Y-2700000D03*
X18046000Y-2700000D03*
X17700000Y-3100000D03*
X17950000Y-3100000D03*
X16760000Y-4400000D03*
X16760000Y-4650000D03*
X16400000Y-2700000D03*
X16400000Y-2950000D03*
X15240000Y-3460000D03*
X15490000Y-3460000D03*
X15200000Y-4425000D03*
X14950000Y-4425000D03*
D21*
X20450000Y-3400000D03*
D22*
X20196000Y-3400000D03*
D21*
X20450000Y-4200000D03*
D22*
X20196000Y-4200000D03*
D21*
X15960000Y-4180000D03*
D22*
X16214000Y-4180000D03*
D21*
X18800000Y-6350000D03*
D22*
X19054000Y-6350000D03*
D21*
X18150000Y-7000000D03*
D22*
X18150000Y-6746000D03*
D21*
X15500000Y-4180000D03*
D22*
X15754000Y-4180000D03*
D21*
X19700000Y-6350000D03*
D22*
X19954000Y-6350000D03*
D21*
X17500000Y-3600000D03*
D22*
X17754000Y-3600000D03*
D21*
X13500000Y-6100000D03*
D22*
X13500000Y-6354000D03*
D21*
X13800000Y-6100000D03*
D22*
X13800000Y-6354000D03*
D21*
X14280000Y-4000000D03*
D22*
X14280000Y-3746000D03*
D21*
X14060000Y-4000000D03*
D22*
X14060000Y-3746000D03*
D21*
X17500000Y-3400000D03*
D22*
X17754000Y-3400000D03*
D21*
X17200000Y-3100000D03*
D22*
X17454000Y-3100000D03*
D21*
X14300000Y-3480000D03*
D22*
X14046000Y-3480000D03*
D21*
X17200000Y-2800000D03*
D22*
X17454000Y-2800000D03*
D21*
X20825000Y-5400000D03*
D22*
X20571000Y-5400000D03*
D11*
X14541500Y-5080000D03*
X14291500Y-5080000D03*
X14541500Y-5588000D03*
X14291500Y-5588000D03*
D23*
X18600000Y-3400000D03*
D11*
X18350000Y-3400000D03*
D23*
X14700000Y-3100000D03*
D11*
X14700000Y-2850000D03*
D24*
X15700000Y-2800000D03*
X15446000Y-2800000D03*
X15954000Y-2800000D03*
D12*
X16310000Y-5790000D03*
D13*
X16310000Y-6044000D03*
X16310000Y-6298000D03*
D21*
X15240000Y-5980000D03*
D22*
X14986000Y-5980000D03*
D21*
X15600000Y-6280000D03*
D22*
X15854000Y-6280000D03*
D21*
X15600000Y-6040000D03*
D22*
X15854000Y-6040000D03*
D12*
X14500000Y-6300000D03*
D13*
X14754000Y-6300000D03*
X15008000Y-6300000D03*
X15262000Y-6300000D03*
D12*
X13900000Y-6800000D03*
D13*
X13900000Y-7054000D03*
X13900000Y-7308000D03*
D12*
X14700000Y-6800000D03*
D13*
X14700000Y-7054000D03*
X14700000Y-7308000D03*
D12*
X15100000Y-6800000D03*
D13*
X15100000Y-7054000D03*
X15100000Y-7308000D03*
D12*
X17100000Y-6800000D03*
D13*
X17100000Y-7054000D03*
X17100000Y-7308000D03*
D14*
X15113000Y-5588000D03*
X15113000Y-5344000D03*
X15113000Y-5100000D03*
D25*
X16300000Y-5200000D03*
X15720000Y-4960000D03*
X15960000Y-4460000D03*
X15880000Y-4440000D03*
X15800000Y-4460000D03*
X16380000Y-3910000D03*
X16380000Y-4580000D03*
X16540000Y-4800000D03*
X16560000Y-4720000D03*
X15440000Y-5120000D03*
X21050000Y-2950000D03*
X21450000Y-2850000D03*
X15440000Y-4880000D03*
D26*
X17900000Y-7054000D02*
X17906000Y-7054000D01*
X17906000Y-7054000D02*
X18090000Y-6870000D01*
X19054000Y-6456000D02*
X19054000Y-6350000D01*
X18640000Y-6870000D02*
X19054000Y-6456000D01*
X18090000Y-6870000D02*
X18640000Y-6870000D01*
D27*
X14280000Y-4000000D02*
X14775000Y-4000000D01*
X14775000Y-4000000D02*
X15200000Y-4425000D01*
D26*
X16260000Y-3320000D02*
X16380000Y-3200000D01*
X17560000Y-2960000D02*
X17700000Y-3100000D01*
X17120000Y-2960000D02*
X17560000Y-2960000D01*
X17060000Y-3020000D02*
X17120000Y-2960000D01*
X17060000Y-3120000D02*
X17060000Y-3020000D01*
X16980000Y-3200000D02*
X17060000Y-3120000D01*
X16780000Y-3200000D02*
X16980000Y-3200000D01*
X16780000Y-3200000D02*
X16780000Y-3200000D01*
X16380000Y-3200000D02*
X16780000Y-3200000D01*
D27*
X14300000Y-3480000D02*
X14380000Y-3480000D01*
X14400000Y-4000000D02*
X14280000Y-4000000D01*
X14500000Y-3900000D02*
X14400000Y-4000000D01*
X14500000Y-3600000D02*
X14500000Y-3900000D01*
X14380000Y-3480000D02*
X14500000Y-3600000D01*
X14060000Y-4000000D02*
X14280000Y-4000000D01*
X13800000Y-4700000D02*
X14000000Y-4500000D01*
X14050000Y-4450000D02*
X14050000Y-4010000D01*
X14000000Y-4500000D02*
X14050000Y-4450000D01*
X14050000Y-4010000D02*
X14060000Y-4000000D01*
D26*
X12800000Y-6230000D02*
X13070000Y-6230000D01*
X13070000Y-6230000D02*
X13271500Y-6028500D01*
X13800000Y-6100000D02*
X13500000Y-6100000D01*
X13500000Y-6100000D02*
X13271500Y-5871500D01*
X13271500Y-5871500D02*
X13300000Y-5900000D01*
X13300000Y-5900000D02*
X13271500Y-5900000D01*
D27*
X13300000Y-3700000D02*
X12800000Y-3700000D01*
X14060000Y-4000000D02*
X13600000Y-4000000D01*
X13600000Y-4000000D02*
X13300000Y-3700000D01*
D26*
X15200000Y-4440000D02*
X15720000Y-4960000D01*
X15720000Y-4960000D02*
X15960000Y-5200000D01*
X15960000Y-5200000D02*
X16300000Y-5200000D01*
X15874000Y-7054000D02*
X15900000Y-7054000D01*
D27*
X13800000Y-4700000D02*
X13651500Y-4700000D01*
X13651500Y-4700000D02*
X13271500Y-5080000D01*
X13271500Y-6159500D02*
X13271500Y-6921500D01*
X13404000Y-7054000D02*
X13500000Y-7054000D01*
X13271500Y-6921500D02*
X13404000Y-7054000D01*
X13271500Y-6028500D02*
X13271500Y-6159500D01*
X13271500Y-5080000D02*
X13271500Y-5900000D01*
X13271500Y-5900000D02*
X13271500Y-6028500D01*
D26*
X16310000Y-6298000D02*
X16328000Y-6298000D01*
X16328000Y-6298000D02*
X16500000Y-6470000D01*
X16500000Y-7108000D02*
X16300000Y-7308000D01*
X16500000Y-6470000D02*
X16500000Y-7108000D01*
X15600000Y-6040000D02*
X15730000Y-6170000D01*
X16140000Y-6290000D02*
X16302000Y-6290000D01*
X16020000Y-6170000D02*
X16140000Y-6290000D01*
X15730000Y-6170000D02*
X16020000Y-6170000D01*
X16302000Y-6290000D02*
X16310000Y-6298000D01*
X16760000Y-4400000D02*
X16980000Y-4400000D01*
X17050000Y-4330000D02*
X17300000Y-4330000D01*
X16980000Y-4400000D02*
X17050000Y-4330000D01*
X15008000Y-6300000D02*
X15008000Y-6382000D01*
X15008000Y-6382000D02*
X14900000Y-6490000D01*
X14900000Y-6490000D02*
X14900000Y-7108000D01*
X14900000Y-7108000D02*
X15100000Y-7308000D01*
X16060000Y-3320000D02*
X16060000Y-3604000D01*
X16060000Y-3604000D02*
X16256000Y-3800000D01*
X17950000Y-3100000D02*
X17950000Y-3050000D01*
X17950000Y-3050000D02*
X17600000Y-3400000D01*
X17600000Y-3400000D02*
X17500000Y-3400000D01*
X16060000Y-3320000D02*
X16020000Y-3320000D01*
X16020000Y-3320000D02*
X15700000Y-3000000D01*
X15700000Y-3000000D02*
X15700000Y-2800000D01*
X14700000Y-2850000D02*
X14950000Y-2850000D01*
X15700000Y-3000000D02*
X15700000Y-2800000D01*
X15600000Y-3100000D02*
X15700000Y-3000000D01*
X15200000Y-3100000D02*
X15600000Y-3100000D01*
X14950000Y-2850000D02*
X15200000Y-3100000D01*
X14181000Y-2646000D02*
X14496000Y-2646000D01*
X14496000Y-2646000D02*
X14700000Y-2850000D01*
X17950000Y-3100000D02*
X17950000Y-3050000D01*
X17300000Y-4330000D02*
X17300000Y-4320000D01*
X14291500Y-5588000D02*
X13977000Y-5588000D01*
X13977000Y-5588000D02*
X13800000Y-5411000D01*
X14291500Y-5080000D02*
X14291500Y-5588000D01*
X14555500Y-5344000D02*
X14291500Y-5080000D01*
X15113000Y-5344000D02*
X14555500Y-5344000D01*
X15490000Y-3460000D02*
X15490000Y-3390000D01*
X15490000Y-3390000D02*
X15400000Y-3300000D01*
X14327000Y-3300000D02*
X14181000Y-3154000D01*
X15400000Y-3300000D02*
X14327000Y-3300000D01*
X15960000Y-4460000D02*
X15960000Y-4500000D01*
X15370000Y-3580000D02*
X15490000Y-3460000D01*
X15370000Y-4210000D02*
X15370000Y-3580000D01*
X15720000Y-4560000D02*
X15370000Y-4210000D01*
X15900000Y-4560000D02*
X15720000Y-4560000D01*
X15960000Y-4500000D02*
X15900000Y-4560000D01*
X16982000Y-4520000D02*
X17300000Y-4838000D01*
X16660000Y-4520000D02*
X16982000Y-4520000D01*
X16600000Y-4460000D02*
X16660000Y-4520000D01*
X15960000Y-4460000D02*
X16600000Y-4460000D01*
X15880000Y-4370000D02*
X15880000Y-4360000D01*
X15880000Y-4370000D02*
X15880000Y-4440000D01*
X16094000Y-4300000D02*
X16214000Y-4180000D01*
X15940000Y-4300000D02*
X16094000Y-4300000D01*
X15880000Y-4360000D02*
X15940000Y-4300000D01*
X15754000Y-4180000D02*
X15754000Y-4066000D01*
X16760000Y-3980000D02*
X17140000Y-3600000D01*
X17140000Y-3600000D02*
X17500000Y-3600000D01*
X15840000Y-3980000D02*
X16280000Y-3980000D01*
X16280000Y-3980000D02*
X16760000Y-3980000D01*
X15754000Y-4066000D02*
X15840000Y-3980000D01*
X15800000Y-4460000D02*
X15800000Y-4380000D01*
X15754000Y-4334000D02*
X15754000Y-4180000D01*
X15800000Y-4380000D02*
X15754000Y-4334000D01*
X17320000Y-3240000D02*
X17120000Y-3240000D01*
X16880000Y-3480000D02*
X17120000Y-3240000D01*
X16610000Y-3480000D02*
X16880000Y-3480000D01*
X16380000Y-3710000D02*
X16610000Y-3480000D01*
X16380000Y-3910000D02*
X16380000Y-3710000D01*
X17320000Y-3240000D02*
X17454000Y-3106000D01*
X17454000Y-3100000D02*
X17454000Y-3106000D01*
X15854000Y-6040000D02*
X16040000Y-6040000D01*
X16740000Y-5940000D02*
X16740000Y-4800000D01*
X16510000Y-6170000D02*
X16740000Y-5940000D01*
X16170000Y-6170000D02*
X16510000Y-6170000D01*
X16040000Y-6040000D02*
X16170000Y-6170000D01*
X16520000Y-4580000D02*
X16380000Y-4580000D01*
X16740000Y-4800000D02*
X16520000Y-4580000D01*
X15113000Y-5100000D02*
X14561500Y-5100000D01*
X14561500Y-5100000D02*
X14541500Y-5080000D01*
X14553500Y-5092000D02*
X14541500Y-5080000D01*
X16310000Y-5790000D02*
X16310000Y-5670000D01*
X16540000Y-5440000D02*
X16540000Y-4800000D01*
X16310000Y-5670000D02*
X16540000Y-5440000D01*
X15270000Y-5980000D02*
X15430000Y-5980000D01*
X15240000Y-5980000D02*
X15270000Y-5980000D01*
X16640000Y-5730000D02*
X16640000Y-4800000D01*
X16450000Y-5920000D02*
X16640000Y-5730000D01*
X15490000Y-5920000D02*
X16450000Y-5920000D01*
X15430000Y-5980000D02*
X15490000Y-5920000D01*
X16640000Y-4800000D02*
X16560000Y-4720000D01*
X15275000Y-5825000D02*
X14600000Y-5825000D01*
X15440000Y-5660000D02*
X15275000Y-5825000D01*
X15440000Y-5120000D02*
X15440000Y-5660000D01*
X13646000Y-6500000D02*
X13500000Y-6354000D01*
X13925000Y-6500000D02*
X13646000Y-6500000D01*
X14600000Y-5825000D02*
X13925000Y-6500000D01*
X20571000Y-5400000D02*
X20571000Y-6675000D01*
X20571000Y-6675000D02*
X19946000Y-7300000D01*
X20475000Y-5400000D02*
X20250000Y-5400000D01*
X20138000Y-5288000D02*
X19700000Y-5288000D01*
X20250000Y-5400000D02*
X20138000Y-5288000D01*
X20475000Y-5400000D02*
X20475000Y-5400000D01*
X20475000Y-5400000D02*
X20571000Y-5400000D01*
X21100000Y-2900000D02*
X21050000Y-2950000D01*
X21150000Y-2850000D02*
X21100000Y-2900000D01*
X21450000Y-2850000D02*
X21150000Y-2850000D01*
X19700000Y-5542000D02*
X19742000Y-5542000D01*
X19742000Y-5542000D02*
X19954000Y-5754000D01*
X19954000Y-5754000D02*
X19954000Y-6350000D01*
X13800000Y-6354000D02*
X13946000Y-6354000D01*
X15350000Y-4970000D02*
X15440000Y-4880000D01*
X15350000Y-5575000D02*
X15350000Y-4970000D01*
X15200000Y-5725000D02*
X15350000Y-5575000D01*
X14575000Y-5725000D02*
X15200000Y-5725000D01*
X13946000Y-6354000D02*
X14575000Y-5725000D01*
X15113000Y-5588000D02*
X14541500Y-5588000D01*
X18700000Y-3900000D02*
X18700000Y-5100000D01*
X18997500Y-5397500D02*
X19113500Y-5397500D01*
X18700000Y-5100000D02*
X18997500Y-5397500D01*
X15960000Y-4180000D02*
X16060000Y-4080000D01*
X18540000Y-4060000D02*
X18700000Y-3900000D01*
X16080000Y-4060000D02*
X18540000Y-4060000D01*
X16060000Y-4080000D02*
X16080000Y-4060000D01*
X15494000Y-3800000D02*
X15494000Y-4174000D01*
X15494000Y-4174000D02*
X15500000Y-4180000D01*
X15494000Y-3800000D02*
X15494000Y-3814000D01*
X14986000Y-5980000D02*
X14710000Y-5980000D01*
X14500000Y-6190000D02*
X14500000Y-6300000D01*
X14710000Y-5980000D02*
X14500000Y-6190000D01*
X14754000Y-6300000D02*
X14754000Y-6296000D01*
X14754000Y-6296000D02*
X14910000Y-6140000D01*
X14910000Y-6140000D02*
X15460000Y-6140000D01*
X15460000Y-6140000D02*
X15600000Y-6280000D01*
D28*
G36*
X13322738Y-2574204D02*
X13299729Y-2580729D01*
X13283830Y-2631340D01*
X13288509Y-2684183D01*
X13299729Y-2711271D01*
X13322738Y-2717796D01*
X13394534Y-2646000D01*
X13393120Y-2644586D01*
X13417586Y-2620120D01*
X13419000Y-2621534D01*
X13420414Y-2620120D01*
X13444880Y-2644586D01*
X13443466Y-2646000D01*
X13515262Y-2717796D01*
X13538271Y-2711271D01*
X13554170Y-2660660D01*
X13549491Y-2607817D01*
X13538271Y-2580729D01*
X13515262Y-2574204D01*
X13518466Y-2571000D01*
X14081534Y-2571000D01*
X14084738Y-2574204D01*
X14061729Y-2580729D01*
X14045830Y-2631340D01*
X14050509Y-2684183D01*
X14061729Y-2711271D01*
X14084738Y-2717796D01*
X14156534Y-2646000D01*
X14155120Y-2644586D01*
X14179586Y-2620120D01*
X14181000Y-2621534D01*
X14182414Y-2620120D01*
X14206880Y-2644586D01*
X14205466Y-2646000D01*
X14277262Y-2717796D01*
X14300271Y-2711271D01*
X14316170Y-2660660D01*
X14311491Y-2607817D01*
X14300271Y-2580729D01*
X14277262Y-2574204D01*
X14280466Y-2571000D01*
X16336429Y-2571000D01*
X16318820Y-2578276D01*
X16278418Y-2618608D01*
X16256525Y-2671331D01*
X16256475Y-2728419D01*
X16278276Y-2781180D01*
X16318608Y-2821582D01*
X16327619Y-2825324D01*
X16320815Y-2846349D01*
X16400000Y-2925534D01*
X16479185Y-2846349D01*
X16472391Y-2825356D01*
X16481180Y-2821724D01*
X16521582Y-2781392D01*
X16543475Y-2728669D01*
X16543525Y-2671581D01*
X16521724Y-2618820D01*
X16481392Y-2578418D01*
X16463529Y-2571000D01*
X17982429Y-2571000D01*
X17964820Y-2578276D01*
X17924418Y-2618608D01*
X17902525Y-2671331D01*
X17902475Y-2728419D01*
X17924276Y-2781180D01*
X17964608Y-2821582D01*
X18017331Y-2843475D01*
X18074419Y-2843525D01*
X18127180Y-2821724D01*
X18145285Y-2803650D01*
X18220815Y-2803650D01*
X18228600Y-2827707D01*
X18282906Y-2845309D01*
X18339815Y-2840790D01*
X18371400Y-2827707D01*
X18379185Y-2803650D01*
X18300000Y-2724466D01*
X18220815Y-2803650D01*
X18145285Y-2803650D01*
X18167582Y-2781392D01*
X18172013Y-2770723D01*
X18172293Y-2771400D01*
X18196350Y-2779185D01*
X18275534Y-2700000D01*
X18196350Y-2620815D01*
X18172293Y-2628600D01*
X18172061Y-2629316D01*
X18167724Y-2618820D01*
X18127392Y-2578418D01*
X18109529Y-2571000D01*
X18231722Y-2571000D01*
X18228600Y-2572293D01*
X18220815Y-2596350D01*
X18300000Y-2675534D01*
X18379185Y-2596350D01*
X18371400Y-2572293D01*
X18367410Y-2571000D01*
X18490429Y-2571000D01*
X18472820Y-2578276D01*
X18432418Y-2618608D01*
X18427987Y-2629277D01*
X18427707Y-2628600D01*
X18403651Y-2620815D01*
X18324466Y-2700000D01*
X18403651Y-2779185D01*
X18427707Y-2771400D01*
X18427939Y-2770684D01*
X18432276Y-2781180D01*
X18472608Y-2821582D01*
X18525331Y-2843475D01*
X18582419Y-2843525D01*
X18635180Y-2821724D01*
X18675582Y-2781392D01*
X18697475Y-2728669D01*
X18697525Y-2671581D01*
X18675724Y-2618820D01*
X18635392Y-2578418D01*
X18617529Y-2571000D01*
X19287300Y-2571000D01*
X19287300Y-2625445D01*
X19286520Y-2627324D01*
X19286480Y-2672478D01*
X19287300Y-2674461D01*
X19287300Y-2775445D01*
X19286520Y-2777324D01*
X19286480Y-2822477D01*
X19287300Y-2824461D01*
X19287300Y-2925445D01*
X19286520Y-2927324D01*
X19286480Y-2972477D01*
X19287300Y-2974461D01*
X19287300Y-3075445D01*
X19286520Y-3077324D01*
X19286480Y-3122477D01*
X19287300Y-3124461D01*
X19287300Y-3225445D01*
X19286520Y-3227324D01*
X19286480Y-3272477D01*
X19287300Y-3274461D01*
X19287300Y-3375445D01*
X19286520Y-3377324D01*
X19286480Y-3422477D01*
X19287300Y-3424461D01*
X19287300Y-3525445D01*
X19286520Y-3527324D01*
X19286480Y-3572477D01*
X19287300Y-3574461D01*
X19287300Y-3675445D01*
X19286520Y-3677324D01*
X19286480Y-3722477D01*
X19287300Y-3724461D01*
X19287300Y-3825445D01*
X19286520Y-3827324D01*
X19286480Y-3872477D01*
X19287300Y-3874461D01*
X19287300Y-3975445D01*
X19286520Y-3977324D01*
X19286511Y-3987300D01*
X19015664Y-3987300D01*
X19021582Y-3981392D01*
X19043475Y-3928669D01*
X19043525Y-3871581D01*
X19021724Y-3818820D01*
X18981392Y-3778418D01*
X18928669Y-3756525D01*
X18871581Y-3756475D01*
X18818820Y-3778276D01*
X18800003Y-3797060D01*
X18781392Y-3778418D01*
X18728669Y-3756525D01*
X18671581Y-3756475D01*
X18618820Y-3778276D01*
X18600003Y-3797060D01*
X18581392Y-3778418D01*
X18528669Y-3756525D01*
X18471581Y-3756475D01*
X18418820Y-3778276D01*
X18400003Y-3797060D01*
X18381392Y-3778418D01*
X18328669Y-3756525D01*
X18271581Y-3756475D01*
X18218820Y-3778276D01*
X18200003Y-3797060D01*
X18181392Y-3778418D01*
X18128669Y-3756525D01*
X18071581Y-3756475D01*
X18018820Y-3778276D01*
X18000003Y-3797060D01*
X17981392Y-3778418D01*
X17928669Y-3756525D01*
X17871581Y-3756475D01*
X17818820Y-3778276D01*
X17800003Y-3797060D01*
X17781392Y-3778418D01*
X17728669Y-3756525D01*
X17671581Y-3756475D01*
X17618820Y-3778276D01*
X17600003Y-3797060D01*
X17581392Y-3778418D01*
X17528669Y-3756525D01*
X17471581Y-3756475D01*
X17418820Y-3778276D01*
X17400003Y-3797060D01*
X17381392Y-3778418D01*
X17328669Y-3756525D01*
X17271581Y-3756475D01*
X17218820Y-3778276D01*
X17201815Y-3795251D01*
X17191049Y-3784485D01*
X17179185Y-3796349D01*
X17171400Y-3772293D01*
X17117094Y-3754691D01*
X17090693Y-3756787D01*
X17171480Y-3676000D01*
X17387235Y-3676000D01*
X17424280Y-3713110D01*
X17473329Y-3733477D01*
X17526438Y-3733523D01*
X17575523Y-3713242D01*
X17613110Y-3675720D01*
X17626522Y-3643421D01*
X17628047Y-3651088D01*
X17656986Y-3694399D01*
X17700296Y-3723338D01*
X17751385Y-3733500D01*
X17756615Y-3733500D01*
X17807704Y-3723338D01*
X17851014Y-3694399D01*
X17879953Y-3651088D01*
X17890115Y-3600000D01*
X17879953Y-3548912D01*
X17851014Y-3505601D01*
X17848095Y-3503650D01*
X18270815Y-3503650D01*
X18278600Y-3527707D01*
X18332906Y-3545309D01*
X18389815Y-3540790D01*
X18421400Y-3527707D01*
X18429185Y-3503650D01*
X18350000Y-3424466D01*
X18270815Y-3503650D01*
X17848095Y-3503650D01*
X17842631Y-3500000D01*
X17851014Y-3494399D01*
X17879953Y-3451088D01*
X17890115Y-3400000D01*
X17886715Y-3382906D01*
X18204691Y-3382906D01*
X18209210Y-3439815D01*
X18222293Y-3471400D01*
X18246350Y-3479185D01*
X18325534Y-3400000D01*
X18374466Y-3400000D01*
X18453651Y-3479185D01*
X18455256Y-3478665D01*
X18455256Y-3480000D01*
X18459684Y-3503532D01*
X18473591Y-3525144D01*
X18494811Y-3539643D01*
X18520000Y-3544744D01*
X18680000Y-3544744D01*
X18703532Y-3540316D01*
X18725144Y-3526409D01*
X18739643Y-3505189D01*
X18744744Y-3480000D01*
X18744744Y-3320000D01*
X18740316Y-3296468D01*
X18726409Y-3274856D01*
X18705189Y-3260357D01*
X18680000Y-3255256D01*
X18520000Y-3255256D01*
X18496468Y-3259684D01*
X18474856Y-3273591D01*
X18460357Y-3294811D01*
X18455256Y-3320000D01*
X18455256Y-3321335D01*
X18453651Y-3320815D01*
X18374466Y-3400000D01*
X18325534Y-3400000D01*
X18246350Y-3320815D01*
X18222293Y-3328600D01*
X18204691Y-3382906D01*
X17886715Y-3382906D01*
X17879953Y-3348912D01*
X17851014Y-3305601D01*
X17837168Y-3296349D01*
X18270815Y-3296349D01*
X18350000Y-3375534D01*
X18429185Y-3296349D01*
X18421400Y-3272293D01*
X18367094Y-3254691D01*
X18310185Y-3259210D01*
X18278600Y-3272293D01*
X18270815Y-3296349D01*
X17837168Y-3296349D01*
X17807704Y-3276662D01*
X17756615Y-3266500D01*
X17751385Y-3266500D01*
X17700296Y-3276662D01*
X17656986Y-3305601D01*
X17628047Y-3348912D01*
X17627158Y-3353379D01*
X17619395Y-3334638D01*
X17596371Y-3328095D01*
X17524466Y-3400000D01*
X17596371Y-3471905D01*
X17619395Y-3465362D01*
X17626432Y-3442972D01*
X17628047Y-3451088D01*
X17656986Y-3494399D01*
X17665369Y-3500000D01*
X17656986Y-3505601D01*
X17628047Y-3548912D01*
X17626517Y-3556604D01*
X17613242Y-3524477D01*
X17575720Y-3486890D01*
X17552983Y-3477449D01*
X17500000Y-3424466D01*
X17447024Y-3477442D01*
X17424477Y-3486758D01*
X17387170Y-3524000D01*
X17140000Y-3524000D01*
X17110916Y-3529785D01*
X17086260Y-3546260D01*
X16728520Y-3904000D01*
X16612479Y-3904000D01*
X16626717Y-3891814D01*
X16652968Y-3840160D01*
X16641615Y-3817300D01*
X16527300Y-3817300D01*
X16527300Y-3819300D01*
X16492700Y-3819300D01*
X16492700Y-3817300D01*
X16490700Y-3817300D01*
X16490700Y-3782700D01*
X16492700Y-3782700D01*
X16492700Y-3780700D01*
X16527300Y-3780700D01*
X16527300Y-3782700D01*
X16641615Y-3782700D01*
X16652968Y-3759840D01*
X16626717Y-3708186D01*
X16582696Y-3670509D01*
X16550159Y-3657033D01*
X16530657Y-3666823D01*
X16641480Y-3556000D01*
X16880000Y-3556000D01*
X16909084Y-3550215D01*
X16933740Y-3533740D01*
X17082176Y-3385304D01*
X17364680Y-3385304D01*
X17369357Y-3438207D01*
X17380605Y-3465362D01*
X17403629Y-3471905D01*
X17475534Y-3400000D01*
X17403629Y-3328095D01*
X17380605Y-3334638D01*
X17364680Y-3385304D01*
X17082176Y-3385304D01*
X17151480Y-3316000D01*
X17320000Y-3316000D01*
X17349084Y-3310215D01*
X17358940Y-3303629D01*
X17428095Y-3303629D01*
X17500000Y-3375534D01*
X17571905Y-3303629D01*
X17565362Y-3280605D01*
X17514696Y-3264680D01*
X17461793Y-3269357D01*
X17434638Y-3280605D01*
X17428095Y-3303629D01*
X17358940Y-3303629D01*
X17373740Y-3293740D01*
X17436868Y-3230612D01*
X17451385Y-3233500D01*
X17456615Y-3233500D01*
X17507704Y-3223338D01*
X17551014Y-3194399D01*
X17571234Y-3164138D01*
X17578276Y-3181180D01*
X17618608Y-3221582D01*
X17671331Y-3243475D01*
X17728419Y-3243525D01*
X17781180Y-3221724D01*
X17799285Y-3203650D01*
X17870815Y-3203650D01*
X17878600Y-3227707D01*
X17932906Y-3245309D01*
X17989815Y-3240790D01*
X18021400Y-3227707D01*
X18029185Y-3203650D01*
X17950000Y-3124466D01*
X17870815Y-3203650D01*
X17799285Y-3203650D01*
X17821582Y-3181392D01*
X17825324Y-3172381D01*
X17846350Y-3179185D01*
X17925534Y-3100000D01*
X17974466Y-3100000D01*
X18053651Y-3179185D01*
X18077707Y-3171400D01*
X18095309Y-3117094D01*
X18090790Y-3060185D01*
X18084194Y-3044262D01*
X18776461Y-3044262D01*
X18810416Y-3126437D01*
X18873232Y-3189364D01*
X18955348Y-3223461D01*
X19044262Y-3223539D01*
X19126437Y-3189584D01*
X19189364Y-3126768D01*
X19223461Y-3044652D01*
X19223539Y-2955738D01*
X19189585Y-2873563D01*
X19126768Y-2810636D01*
X19044652Y-2776539D01*
X18955738Y-2776461D01*
X18873563Y-2810415D01*
X18810636Y-2873232D01*
X18776539Y-2955348D01*
X18776461Y-3044262D01*
X18084194Y-3044262D01*
X18077707Y-3028600D01*
X18053651Y-3020815D01*
X17974466Y-3100000D01*
X17925534Y-3100000D01*
X17846350Y-3020815D01*
X17825356Y-3027609D01*
X17821724Y-3018820D01*
X17799293Y-2996349D01*
X17870815Y-2996349D01*
X17950000Y-3075534D01*
X18029185Y-2996349D01*
X18021400Y-2972293D01*
X17967094Y-2954691D01*
X17910185Y-2959210D01*
X17878600Y-2972293D01*
X17870815Y-2996349D01*
X17799293Y-2996349D01*
X17781392Y-2978418D01*
X17728669Y-2956525D01*
X17671581Y-2956475D01*
X17666185Y-2958705D01*
X17613740Y-2906260D01*
X17589084Y-2889785D01*
X17560000Y-2884000D01*
X17557962Y-2884000D01*
X17579953Y-2851088D01*
X17590115Y-2800000D01*
X17579953Y-2748912D01*
X17551014Y-2705601D01*
X17507704Y-2676662D01*
X17456615Y-2666500D01*
X17451385Y-2666500D01*
X17400296Y-2676662D01*
X17356986Y-2705601D01*
X17328047Y-2748912D01*
X17326517Y-2756605D01*
X17313242Y-2724477D01*
X17275720Y-2686890D01*
X17226671Y-2666523D01*
X17173562Y-2666477D01*
X17124477Y-2686758D01*
X17086890Y-2724280D01*
X17066523Y-2773329D01*
X17066477Y-2826438D01*
X17086758Y-2875523D01*
X17099326Y-2888112D01*
X17090916Y-2889785D01*
X17066260Y-2906260D01*
X17011840Y-2960680D01*
X17000055Y-2946911D01*
X17008532Y-2945316D01*
X17030144Y-2931409D01*
X17044643Y-2910189D01*
X17049744Y-2885000D01*
X17049744Y-2715000D01*
X17045316Y-2691468D01*
X17031409Y-2669856D01*
X17010189Y-2655357D01*
X16985000Y-2650256D01*
X16815000Y-2650256D01*
X16791468Y-2654684D01*
X16769856Y-2668591D01*
X16755357Y-2689811D01*
X16750256Y-2715000D01*
X16750256Y-2885000D01*
X16754684Y-2908532D01*
X16768591Y-2930144D01*
X16789811Y-2944643D01*
X16800103Y-2946727D01*
X16770509Y-2981303D01*
X16757033Y-3013841D01*
X16768508Y-3036700D01*
X16882700Y-3036700D01*
X16882700Y-3034700D01*
X16917300Y-3034700D01*
X16917300Y-3036700D01*
X16919300Y-3036700D01*
X16919300Y-3071300D01*
X16917300Y-3071300D01*
X16917300Y-3073300D01*
X16882700Y-3073300D01*
X16882700Y-3071300D01*
X16768508Y-3071300D01*
X16757033Y-3094159D01*
X16769392Y-3124000D01*
X16380000Y-3124000D01*
X16350916Y-3129785D01*
X16326260Y-3146260D01*
X16281758Y-3190762D01*
X16260000Y-3186434D01*
X16209868Y-3196405D01*
X16180699Y-3215896D01*
X16163470Y-3198667D01*
X16140131Y-3189000D01*
X16093175Y-3189000D01*
X16077300Y-3204875D01*
X16077300Y-3302700D01*
X16079300Y-3302700D01*
X16079300Y-3337300D01*
X16077300Y-3337300D01*
X16077300Y-3435125D01*
X16093175Y-3451000D01*
X16140131Y-3451000D01*
X16163470Y-3441333D01*
X16180699Y-3424104D01*
X16209868Y-3443595D01*
X16260000Y-3453566D01*
X16310131Y-3443595D01*
X16352631Y-3415197D01*
X16360000Y-3404169D01*
X16367369Y-3415197D01*
X16409868Y-3443595D01*
X16460000Y-3453566D01*
X16510131Y-3443595D01*
X16552631Y-3415197D01*
X16560000Y-3404169D01*
X16567369Y-3415197D01*
X16570092Y-3417017D01*
X16556260Y-3426260D01*
X16326260Y-3656260D01*
X16319331Y-3666630D01*
X16296159Y-3657033D01*
X16273300Y-3668508D01*
X16273300Y-3782700D01*
X16275300Y-3782700D01*
X16275300Y-3817300D01*
X16273300Y-3817300D01*
X16273300Y-3819300D01*
X16238700Y-3819300D01*
X16238700Y-3817300D01*
X16236700Y-3817300D01*
X16236700Y-3782700D01*
X16238700Y-3782700D01*
X16238700Y-3668508D01*
X16215841Y-3657033D01*
X16183303Y-3670509D01*
X16139283Y-3708186D01*
X16129986Y-3726479D01*
X16107005Y-3692085D01*
X16058828Y-3659895D01*
X16002000Y-3648591D01*
X15945171Y-3659895D01*
X15896995Y-3692085D01*
X15875000Y-3725003D01*
X15853005Y-3692085D01*
X15804828Y-3659895D01*
X15748000Y-3648591D01*
X15691171Y-3659895D01*
X15642995Y-3692085D01*
X15621000Y-3725003D01*
X15599005Y-3692085D01*
X15550828Y-3659895D01*
X15494000Y-3648591D01*
X15446000Y-3658138D01*
X15446000Y-3611480D01*
X15456155Y-3601326D01*
X15461331Y-3603475D01*
X15518419Y-3603525D01*
X15571180Y-3581724D01*
X15611582Y-3541392D01*
X15633475Y-3488669D01*
X15633525Y-3431581D01*
X15611724Y-3378820D01*
X15586124Y-3353175D01*
X15929000Y-3353175D01*
X15929000Y-3400131D01*
X15938667Y-3423470D01*
X15956530Y-3441333D01*
X15979869Y-3451000D01*
X16026825Y-3451000D01*
X16042700Y-3435125D01*
X16042700Y-3337300D01*
X15944875Y-3337300D01*
X15929000Y-3353175D01*
X15586124Y-3353175D01*
X15571392Y-3338418D01*
X15527794Y-3320314D01*
X15453740Y-3246260D01*
X15444176Y-3239869D01*
X15929000Y-3239869D01*
X15929000Y-3286825D01*
X15944875Y-3302700D01*
X16042700Y-3302700D01*
X16042700Y-3204875D01*
X16026825Y-3189000D01*
X15979869Y-3189000D01*
X15956530Y-3198667D01*
X15938667Y-3216530D01*
X15929000Y-3239869D01*
X15444176Y-3239869D01*
X15429084Y-3229785D01*
X15400000Y-3224000D01*
X14826790Y-3224000D01*
X14839643Y-3205189D01*
X14844744Y-3180000D01*
X14844744Y-3053650D01*
X16320815Y-3053650D01*
X16328600Y-3077707D01*
X16382906Y-3095309D01*
X16439815Y-3090790D01*
X16471400Y-3077707D01*
X16479185Y-3053650D01*
X16400000Y-2974466D01*
X16320815Y-3053650D01*
X14844744Y-3053650D01*
X14844744Y-3020000D01*
X14840316Y-2996468D01*
X14826409Y-2974856D01*
X14805189Y-2960357D01*
X14780000Y-2955256D01*
X14778665Y-2955256D01*
X14779185Y-2953650D01*
X14700000Y-2874466D01*
X14620815Y-2953650D01*
X14621335Y-2955256D01*
X14620000Y-2955256D01*
X14596468Y-2959684D01*
X14574856Y-2973591D01*
X14560357Y-2994811D01*
X14555256Y-3020000D01*
X14555256Y-3180000D01*
X14559684Y-3203532D01*
X14572855Y-3224000D01*
X14358480Y-3224000D01*
X14314327Y-3179847D01*
X14314373Y-3127591D01*
X14294115Y-3078562D01*
X14256635Y-3041017D01*
X14207641Y-3020673D01*
X14154591Y-3020627D01*
X14105562Y-3040885D01*
X14068017Y-3078365D01*
X14047673Y-3127359D01*
X14047627Y-3180409D01*
X14067885Y-3229438D01*
X14105365Y-3266983D01*
X14154359Y-3287327D01*
X14206892Y-3287373D01*
X14268209Y-3348689D01*
X14224477Y-3366758D01*
X14186890Y-3404280D01*
X14173478Y-3436579D01*
X14171953Y-3428912D01*
X14143014Y-3385601D01*
X14099704Y-3356662D01*
X14048615Y-3346500D01*
X14043385Y-3346500D01*
X13992296Y-3356662D01*
X13948986Y-3385601D01*
X13920047Y-3428912D01*
X13909885Y-3480000D01*
X13920047Y-3531088D01*
X13948986Y-3574399D01*
X13992296Y-3603338D01*
X14042604Y-3613345D01*
X14008912Y-3620047D01*
X13965601Y-3648986D01*
X13936662Y-3692296D01*
X13926500Y-3743385D01*
X13926500Y-3748615D01*
X13936662Y-3799704D01*
X13965601Y-3843014D01*
X14008912Y-3871953D01*
X14016604Y-3873483D01*
X13985102Y-3886500D01*
X13647013Y-3886500D01*
X13426875Y-3666362D01*
X13423595Y-3649868D01*
X13404104Y-3620699D01*
X13421333Y-3603470D01*
X13431000Y-3580131D01*
X13431000Y-3533175D01*
X13415125Y-3517300D01*
X13317300Y-3517300D01*
X13317300Y-3519300D01*
X13282700Y-3519300D01*
X13282700Y-3517300D01*
X13184875Y-3517300D01*
X13169000Y-3533175D01*
X13169000Y-3580131D01*
X13171638Y-3586500D01*
X12928362Y-3586500D01*
X12931000Y-3580131D01*
X12931000Y-3533175D01*
X12915125Y-3517300D01*
X12817300Y-3517300D01*
X12817300Y-3519300D01*
X12782700Y-3519300D01*
X12782700Y-3517300D01*
X12684875Y-3517300D01*
X12669000Y-3533175D01*
X12669000Y-3580131D01*
X12678667Y-3603470D01*
X12695896Y-3620699D01*
X12676405Y-3649868D01*
X12666434Y-3700000D01*
X12676405Y-3750131D01*
X12704803Y-3792631D01*
X12715831Y-3800000D01*
X12704803Y-3807369D01*
X12676405Y-3849868D01*
X12666434Y-3900000D01*
X12676405Y-3950131D01*
X12704803Y-3992631D01*
X12715831Y-4000000D01*
X12704803Y-4007369D01*
X12676405Y-4049868D01*
X12666434Y-4100000D01*
X12676405Y-4150131D01*
X12704803Y-4192631D01*
X12747302Y-4221028D01*
X12797434Y-4231000D01*
X12802566Y-4231000D01*
X12852698Y-4221028D01*
X12895197Y-4192631D01*
X12923595Y-4150131D01*
X12933566Y-4100000D01*
X12923595Y-4049868D01*
X12895197Y-4007369D01*
X12884169Y-4000000D01*
X12895197Y-3992631D01*
X12923595Y-3950131D01*
X12933566Y-3900000D01*
X12923595Y-3849868D01*
X12899294Y-3813500D01*
X13200706Y-3813500D01*
X13176405Y-3849868D01*
X13166434Y-3900000D01*
X13176405Y-3950131D01*
X13204803Y-3992631D01*
X13215831Y-4000000D01*
X13204803Y-4007369D01*
X13176405Y-4049868D01*
X13166434Y-4100000D01*
X13176405Y-4150131D01*
X13204803Y-4192631D01*
X13247302Y-4221028D01*
X13297434Y-4231000D01*
X13302566Y-4231000D01*
X13352698Y-4221028D01*
X13356600Y-4218421D01*
X13352109Y-4222904D01*
X13319537Y-4301346D01*
X13319463Y-4386282D01*
X13351898Y-4464780D01*
X13411904Y-4524891D01*
X13490346Y-4557463D01*
X13575281Y-4557537D01*
X13653780Y-4525102D01*
X13713891Y-4465096D01*
X13746463Y-4386654D01*
X13746537Y-4301719D01*
X13714102Y-4223220D01*
X13654096Y-4163109D01*
X13575654Y-4130537D01*
X13490718Y-4130463D01*
X13416149Y-4161274D01*
X13423595Y-4150131D01*
X13433566Y-4100000D01*
X13423595Y-4049868D01*
X13395197Y-4007369D01*
X13384169Y-4000000D01*
X13395197Y-3992631D01*
X13409986Y-3970499D01*
X13519743Y-4080257D01*
X13556565Y-4104860D01*
X13600000Y-4113500D01*
X13936500Y-4113500D01*
X13936500Y-4402987D01*
X13778006Y-4561481D01*
X13772571Y-4561476D01*
X13721648Y-4582517D01*
X13717658Y-4586500D01*
X13651500Y-4586500D01*
X13608065Y-4595140D01*
X13571243Y-4619743D01*
X13191243Y-4999743D01*
X13166640Y-5036565D01*
X13158000Y-5080000D01*
X13158000Y-6034520D01*
X13038520Y-6154000D01*
X12906310Y-6154000D01*
X12904104Y-6150699D01*
X12921333Y-6133470D01*
X12931000Y-6110131D01*
X12931000Y-6063175D01*
X12915125Y-6047300D01*
X12817300Y-6047300D01*
X12817300Y-6049300D01*
X12782700Y-6049300D01*
X12782700Y-6047300D01*
X12684875Y-6047300D01*
X12669000Y-6063175D01*
X12669000Y-6110131D01*
X12678667Y-6133470D01*
X12695896Y-6150699D01*
X12676405Y-6179868D01*
X12666434Y-6230000D01*
X12676405Y-6280131D01*
X12704803Y-6322631D01*
X12715831Y-6330000D01*
X12704803Y-6337369D01*
X12676405Y-6379868D01*
X12666434Y-6430000D01*
X12676405Y-6480131D01*
X12704803Y-6522631D01*
X12715831Y-6530000D01*
X12704803Y-6537369D01*
X12676405Y-6579868D01*
X12666434Y-6630000D01*
X12676405Y-6680131D01*
X12704803Y-6722631D01*
X12747302Y-6751028D01*
X12797434Y-6761000D01*
X12802566Y-6761000D01*
X12852698Y-6751028D01*
X12895197Y-6722631D01*
X12923595Y-6680131D01*
X12933566Y-6630000D01*
X12923595Y-6579868D01*
X12895197Y-6537369D01*
X12884169Y-6530000D01*
X12895197Y-6522631D01*
X12923595Y-6480131D01*
X12933566Y-6430000D01*
X12923595Y-6379868D01*
X12895197Y-6337369D01*
X12884169Y-6330000D01*
X12895197Y-6322631D01*
X12906310Y-6306000D01*
X13070000Y-6306000D01*
X13099084Y-6300215D01*
X13123740Y-6283740D01*
X13158000Y-6249480D01*
X13158000Y-6841923D01*
X13126768Y-6810636D01*
X13044652Y-6776539D01*
X12955738Y-6776461D01*
X12873563Y-6810415D01*
X12810636Y-6873232D01*
X12776539Y-6955348D01*
X12776461Y-7044262D01*
X12810415Y-7126437D01*
X12873232Y-7189364D01*
X12955348Y-7223461D01*
X13044262Y-7223539D01*
X13126437Y-7189584D01*
X13189364Y-7126768D01*
X13223461Y-7044652D01*
X13223470Y-7033984D01*
X13323743Y-7134257D01*
X13360565Y-7158860D01*
X13404000Y-7167500D01*
X13404798Y-7167500D01*
X13426479Y-7181986D01*
X13408186Y-7191283D01*
X13370509Y-7235303D01*
X13357033Y-7267841D01*
X13368508Y-7290700D01*
X13482700Y-7290700D01*
X13482700Y-7288700D01*
X13517300Y-7288700D01*
X13517300Y-7290700D01*
X13631492Y-7290700D01*
X13642967Y-7267841D01*
X13629491Y-7235303D01*
X13591814Y-7191283D01*
X13573521Y-7181986D01*
X13607915Y-7159005D01*
X13640105Y-7110828D01*
X13651409Y-7054000D01*
X13748591Y-7054000D01*
X13759895Y-7110828D01*
X13792085Y-7159005D01*
X13826479Y-7181986D01*
X13808186Y-7191283D01*
X13770509Y-7235303D01*
X13757033Y-7267841D01*
X13768508Y-7290700D01*
X13882700Y-7290700D01*
X13882700Y-7288700D01*
X13917300Y-7288700D01*
X13917300Y-7290700D01*
X14031492Y-7290700D01*
X14042967Y-7267841D01*
X14029491Y-7235303D01*
X13991814Y-7191283D01*
X13973521Y-7181986D01*
X14007915Y-7159005D01*
X14040105Y-7110828D01*
X14051409Y-7054000D01*
X14148591Y-7054000D01*
X14159895Y-7110828D01*
X14192085Y-7159005D01*
X14226479Y-7181986D01*
X14208186Y-7191283D01*
X14170509Y-7235303D01*
X14157033Y-7267841D01*
X14168508Y-7290700D01*
X14282700Y-7290700D01*
X14282700Y-7288700D01*
X14317300Y-7288700D01*
X14317300Y-7290700D01*
X14431492Y-7290700D01*
X14442967Y-7267841D01*
X14429491Y-7235303D01*
X14391814Y-7191283D01*
X14373521Y-7181986D01*
X14407915Y-7159005D01*
X14440105Y-7110828D01*
X14451409Y-7054000D01*
X14548591Y-7054000D01*
X14559895Y-7110828D01*
X14592085Y-7159005D01*
X14626479Y-7181986D01*
X14608186Y-7191283D01*
X14570509Y-7235303D01*
X14557033Y-7267841D01*
X14568508Y-7290700D01*
X14682700Y-7290700D01*
X14682700Y-7288700D01*
X14717300Y-7288700D01*
X14717300Y-7290700D01*
X14831492Y-7290700D01*
X14842967Y-7267841D01*
X14829491Y-7235303D01*
X14791814Y-7191283D01*
X14773521Y-7181986D01*
X14807915Y-7159005D01*
X14840105Y-7110828D01*
X14851409Y-7054000D01*
X14948591Y-7054000D01*
X14959895Y-7110828D01*
X14992085Y-7159005D01*
X15026479Y-7181986D01*
X15008186Y-7191283D01*
X14970509Y-7235303D01*
X14957033Y-7267841D01*
X14968508Y-7290700D01*
X15082700Y-7290700D01*
X15082700Y-7288700D01*
X15117300Y-7288700D01*
X15117300Y-7290700D01*
X15231492Y-7290700D01*
X15242967Y-7267841D01*
X15229491Y-7235303D01*
X15191814Y-7191283D01*
X15173521Y-7181986D01*
X15207915Y-7159005D01*
X15240105Y-7110828D01*
X15251409Y-7054000D01*
X15348591Y-7054000D01*
X15359895Y-7110828D01*
X15392085Y-7159005D01*
X15426479Y-7181986D01*
X15408186Y-7191283D01*
X15370509Y-7235303D01*
X15357033Y-7267841D01*
X15368508Y-7290700D01*
X15482700Y-7290700D01*
X15482700Y-7288700D01*
X15517300Y-7288700D01*
X15517300Y-7290700D01*
X15631492Y-7290700D01*
X15642967Y-7267841D01*
X15629491Y-7235303D01*
X15591814Y-7191283D01*
X15573521Y-7181986D01*
X15607915Y-7159005D01*
X15640105Y-7110828D01*
X15651409Y-7054000D01*
X15748591Y-7054000D01*
X15759895Y-7110828D01*
X15792085Y-7159005D01*
X15826479Y-7181986D01*
X15808186Y-7191283D01*
X15770509Y-7235303D01*
X15757033Y-7267841D01*
X15768508Y-7290700D01*
X15882700Y-7290700D01*
X15882700Y-7288700D01*
X15917300Y-7288700D01*
X15917300Y-7290700D01*
X16031492Y-7290700D01*
X16042967Y-7267841D01*
X16029491Y-7235303D01*
X15991814Y-7191283D01*
X15973521Y-7181986D01*
X16007915Y-7159005D01*
X16040105Y-7110828D01*
X16051409Y-7054000D01*
X16148591Y-7054000D01*
X16159895Y-7110828D01*
X16192085Y-7159005D01*
X16226479Y-7181986D01*
X16208186Y-7191283D01*
X16170509Y-7235303D01*
X16157033Y-7267841D01*
X16168508Y-7290700D01*
X16282700Y-7290700D01*
X16282700Y-7288700D01*
X16317300Y-7288700D01*
X16317300Y-7290700D01*
X16431492Y-7290700D01*
X16442967Y-7267841D01*
X16429491Y-7235303D01*
X16391814Y-7191283D01*
X16373521Y-7181986D01*
X16407915Y-7159005D01*
X16440105Y-7110828D01*
X16451409Y-7054000D01*
X16548591Y-7054000D01*
X16559895Y-7110828D01*
X16592085Y-7159005D01*
X16626479Y-7181986D01*
X16608186Y-7191283D01*
X16570509Y-7235303D01*
X16557033Y-7267841D01*
X16568508Y-7290700D01*
X16682700Y-7290700D01*
X16682700Y-7288700D01*
X16717300Y-7288700D01*
X16717300Y-7290700D01*
X16831492Y-7290700D01*
X16842967Y-7267841D01*
X16829491Y-7235303D01*
X16791814Y-7191283D01*
X16773521Y-7181986D01*
X16807915Y-7159005D01*
X16840105Y-7110828D01*
X16851409Y-7054000D01*
X16948591Y-7054000D01*
X16959895Y-7110828D01*
X16992085Y-7159005D01*
X17026479Y-7181986D01*
X17008186Y-7191283D01*
X16970509Y-7235303D01*
X16957033Y-7267841D01*
X16968508Y-7290700D01*
X17082700Y-7290700D01*
X17082700Y-7288700D01*
X17117300Y-7288700D01*
X17117300Y-7290700D01*
X17231492Y-7290700D01*
X17242967Y-7267841D01*
X17229491Y-7235303D01*
X17191814Y-7191283D01*
X17173521Y-7181986D01*
X17207915Y-7159005D01*
X17240105Y-7110828D01*
X17251409Y-7054000D01*
X17348591Y-7054000D01*
X17359895Y-7110828D01*
X17392085Y-7159005D01*
X17426479Y-7181986D01*
X17408186Y-7191283D01*
X17370509Y-7235303D01*
X17357033Y-7267841D01*
X17368508Y-7290700D01*
X17482700Y-7290700D01*
X17482700Y-7288700D01*
X17517300Y-7288700D01*
X17517300Y-7290700D01*
X17631492Y-7290700D01*
X17642967Y-7267841D01*
X17629491Y-7235303D01*
X17591814Y-7191283D01*
X17573521Y-7181986D01*
X17607915Y-7159005D01*
X17640105Y-7110828D01*
X17651409Y-7054000D01*
X17640105Y-6997171D01*
X17607915Y-6948995D01*
X17603755Y-6946215D01*
X17608532Y-6945316D01*
X17630144Y-6931409D01*
X17644643Y-6910189D01*
X17649744Y-6885000D01*
X17649744Y-6715000D01*
X17645316Y-6691468D01*
X17631409Y-6669856D01*
X17610189Y-6655357D01*
X17585000Y-6650256D01*
X17415000Y-6650256D01*
X17391468Y-6654684D01*
X17369856Y-6668591D01*
X17355357Y-6689811D01*
X17350256Y-6715000D01*
X17350256Y-6885000D01*
X17354684Y-6908532D01*
X17368591Y-6930144D01*
X17389811Y-6944643D01*
X17396554Y-6946009D01*
X17392085Y-6948995D01*
X17359895Y-6997171D01*
X17348591Y-7054000D01*
X17251409Y-7054000D01*
X17240105Y-6997171D01*
X17207915Y-6948995D01*
X17203755Y-6946215D01*
X17208532Y-6945316D01*
X17230144Y-6931409D01*
X17244643Y-6910189D01*
X17249744Y-6885000D01*
X17249744Y-6715000D01*
X17245316Y-6691468D01*
X17231409Y-6669856D01*
X17210189Y-6655357D01*
X17185000Y-6650256D01*
X17015000Y-6650256D01*
X16991468Y-6654684D01*
X16969856Y-6668591D01*
X16955357Y-6689811D01*
X16950256Y-6715000D01*
X16950256Y-6885000D01*
X16954684Y-6908532D01*
X16968591Y-6930144D01*
X16989811Y-6944643D01*
X16996554Y-6946009D01*
X16992085Y-6948995D01*
X16959895Y-6997171D01*
X16948591Y-7054000D01*
X16851409Y-7054000D01*
X16840105Y-6997171D01*
X16807915Y-6948995D01*
X16803755Y-6946215D01*
X16808532Y-6945316D01*
X16830144Y-6931409D01*
X16844643Y-6910189D01*
X16849744Y-6885000D01*
X16849744Y-6715000D01*
X16845316Y-6691468D01*
X16831409Y-6669856D01*
X16810189Y-6655357D01*
X16785000Y-6650256D01*
X16615000Y-6650256D01*
X16591468Y-6654684D01*
X16569856Y-6668591D01*
X16555357Y-6689811D01*
X16550256Y-6715000D01*
X16550256Y-6885000D01*
X16554684Y-6908532D01*
X16568591Y-6930144D01*
X16589811Y-6944643D01*
X16596554Y-6946009D01*
X16592085Y-6948995D01*
X16559895Y-6997171D01*
X16548591Y-7054000D01*
X16451409Y-7054000D01*
X16440105Y-6997171D01*
X16407915Y-6948995D01*
X16403755Y-6946215D01*
X16408532Y-6945316D01*
X16430144Y-6931409D01*
X16444643Y-6910189D01*
X16449744Y-6885000D01*
X16449744Y-6715000D01*
X16445316Y-6691468D01*
X16431409Y-6669856D01*
X16410189Y-6655357D01*
X16385000Y-6650256D01*
X16215000Y-6650256D01*
X16191468Y-6654684D01*
X16169856Y-6668591D01*
X16155357Y-6689811D01*
X16150256Y-6715000D01*
X16150256Y-6885000D01*
X16154684Y-6908532D01*
X16168591Y-6930144D01*
X16189811Y-6944643D01*
X16196554Y-6946009D01*
X16192085Y-6948995D01*
X16159895Y-6997171D01*
X16148591Y-7054000D01*
X16051409Y-7054000D01*
X16040105Y-6997171D01*
X16007915Y-6948995D01*
X16003755Y-6946215D01*
X16008532Y-6945316D01*
X16030144Y-6931409D01*
X16044643Y-6910189D01*
X16049744Y-6885000D01*
X16049744Y-6715000D01*
X16045316Y-6691468D01*
X16031409Y-6669856D01*
X16010189Y-6655357D01*
X15985000Y-6650256D01*
X15815000Y-6650256D01*
X15791468Y-6654684D01*
X15769856Y-6668591D01*
X15755357Y-6689811D01*
X15750256Y-6715000D01*
X15750256Y-6885000D01*
X15754684Y-6908532D01*
X15768591Y-6930144D01*
X15789811Y-6944643D01*
X15796554Y-6946009D01*
X15792085Y-6948995D01*
X15759895Y-6997171D01*
X15748591Y-7054000D01*
X15651409Y-7054000D01*
X15640105Y-6997171D01*
X15607915Y-6948995D01*
X15603755Y-6946215D01*
X15608532Y-6945316D01*
X15630144Y-6931409D01*
X15644643Y-6910189D01*
X15649744Y-6885000D01*
X15649744Y-6715000D01*
X15645316Y-6691468D01*
X15631409Y-6669856D01*
X15610189Y-6655357D01*
X15585000Y-6650256D01*
X15415000Y-6650256D01*
X15391468Y-6654684D01*
X15369856Y-6668591D01*
X15355357Y-6689811D01*
X15350256Y-6715000D01*
X15350256Y-6885000D01*
X15354684Y-6908532D01*
X15368591Y-6930144D01*
X15389811Y-6944643D01*
X15396554Y-6946009D01*
X15392085Y-6948995D01*
X15359895Y-6997171D01*
X15348591Y-7054000D01*
X15251409Y-7054000D01*
X15240105Y-6997171D01*
X15207915Y-6948995D01*
X15203755Y-6946215D01*
X15208532Y-6945316D01*
X15230144Y-6931409D01*
X15244643Y-6910189D01*
X15249744Y-6885000D01*
X15249744Y-6715000D01*
X15245316Y-6691468D01*
X15231409Y-6669856D01*
X15210189Y-6655357D01*
X15185000Y-6650256D01*
X15015000Y-6650256D01*
X14991468Y-6654684D01*
X14969856Y-6668591D01*
X14955357Y-6689811D01*
X14950256Y-6715000D01*
X14950256Y-6885000D01*
X14954684Y-6908532D01*
X14968591Y-6930144D01*
X14989811Y-6944643D01*
X14996554Y-6946009D01*
X14992085Y-6948995D01*
X14959895Y-6997171D01*
X14948591Y-7054000D01*
X14851409Y-7054000D01*
X14840105Y-6997171D01*
X14807915Y-6948995D01*
X14803755Y-6946215D01*
X14808532Y-6945316D01*
X14830144Y-6931409D01*
X14844643Y-6910189D01*
X14849744Y-6885000D01*
X14849744Y-6715000D01*
X14845316Y-6691468D01*
X14831409Y-6669856D01*
X14810189Y-6655357D01*
X14785000Y-6650256D01*
X14615000Y-6650256D01*
X14591468Y-6654684D01*
X14569856Y-6668591D01*
X14555357Y-6689811D01*
X14550256Y-6715000D01*
X14550256Y-6885000D01*
X14554684Y-6908532D01*
X14568591Y-6930144D01*
X14589811Y-6944643D01*
X14596554Y-6946009D01*
X14592085Y-6948995D01*
X14559895Y-6997171D01*
X14548591Y-7054000D01*
X14451409Y-7054000D01*
X14440105Y-6997171D01*
X14407915Y-6948995D01*
X14403755Y-6946215D01*
X14408532Y-6945316D01*
X14430144Y-6931409D01*
X14444643Y-6910189D01*
X14449744Y-6885000D01*
X14449744Y-6715000D01*
X14445316Y-6691468D01*
X14431409Y-6669856D01*
X14410189Y-6655357D01*
X14385000Y-6650256D01*
X14215000Y-6650256D01*
X14191468Y-6654684D01*
X14169856Y-6668591D01*
X14155357Y-6689811D01*
X14150256Y-6715000D01*
X14150256Y-6885000D01*
X14154684Y-6908532D01*
X14168591Y-6930144D01*
X14189811Y-6944643D01*
X14196554Y-6946009D01*
X14192085Y-6948995D01*
X14159895Y-6997171D01*
X14148591Y-7054000D01*
X14051409Y-7054000D01*
X14040105Y-6997171D01*
X14007915Y-6948995D01*
X14003755Y-6946215D01*
X14008532Y-6945316D01*
X14030144Y-6931409D01*
X14044643Y-6910189D01*
X14049744Y-6885000D01*
X14049744Y-6715000D01*
X14045316Y-6691468D01*
X14031409Y-6669856D01*
X14010189Y-6655357D01*
X13985000Y-6650256D01*
X13815000Y-6650256D01*
X13791468Y-6654684D01*
X13769856Y-6668591D01*
X13755357Y-6689811D01*
X13750256Y-6715000D01*
X13750256Y-6885000D01*
X13754684Y-6908532D01*
X13768591Y-6930144D01*
X13789811Y-6944643D01*
X13796554Y-6946009D01*
X13792085Y-6948995D01*
X13759895Y-6997171D01*
X13748591Y-7054000D01*
X13651409Y-7054000D01*
X13640105Y-6997171D01*
X13607915Y-6948995D01*
X13603755Y-6946215D01*
X13608532Y-6945316D01*
X13630144Y-6931409D01*
X13644643Y-6910189D01*
X13649744Y-6885000D01*
X13649744Y-6715000D01*
X13645316Y-6691468D01*
X13631409Y-6669856D01*
X13610189Y-6655357D01*
X13585000Y-6650256D01*
X13415000Y-6650256D01*
X13391468Y-6654684D01*
X13385000Y-6658846D01*
X13385000Y-6420182D01*
X13405601Y-6451014D01*
X13448912Y-6479953D01*
X13500000Y-6490115D01*
X13523884Y-6485364D01*
X13592260Y-6553740D01*
X13616916Y-6570215D01*
X13646000Y-6576000D01*
X13925000Y-6576000D01*
X13954084Y-6570215D01*
X13978740Y-6553740D01*
X14631480Y-5901000D01*
X14878697Y-5901000D01*
X14876692Y-5904000D01*
X14710000Y-5904000D01*
X14686536Y-5908667D01*
X14680916Y-5909785D01*
X14656260Y-5926260D01*
X14446260Y-6136260D01*
X14436908Y-6150256D01*
X14415000Y-6150256D01*
X14391468Y-6154684D01*
X14369856Y-6168591D01*
X14355357Y-6189811D01*
X14350256Y-6215000D01*
X14350256Y-6385000D01*
X14354684Y-6408532D01*
X14368591Y-6430144D01*
X14389811Y-6444643D01*
X14415000Y-6449744D01*
X14585000Y-6449744D01*
X14608532Y-6445316D01*
X14630144Y-6431409D01*
X14644643Y-6410189D01*
X14646009Y-6403446D01*
X14648995Y-6407915D01*
X14697171Y-6440105D01*
X14754000Y-6451409D01*
X14810828Y-6440105D01*
X14859005Y-6407915D01*
X14881986Y-6373521D01*
X14891283Y-6391814D01*
X14935303Y-6429491D01*
X14967841Y-6442967D01*
X14990700Y-6431492D01*
X14990700Y-6317300D01*
X14988700Y-6317300D01*
X14988700Y-6282700D01*
X14990700Y-6282700D01*
X14990700Y-6280700D01*
X15025300Y-6280700D01*
X15025300Y-6282700D01*
X15027300Y-6282700D01*
X15027300Y-6317300D01*
X15025300Y-6317300D01*
X15025300Y-6431492D01*
X15048159Y-6442967D01*
X15080696Y-6429491D01*
X15124717Y-6391814D01*
X15134013Y-6373521D01*
X15156995Y-6407915D01*
X15205171Y-6440105D01*
X15262000Y-6451409D01*
X15318828Y-6440105D01*
X15367005Y-6407915D01*
X15399196Y-6359738D01*
X15410500Y-6302909D01*
X15410500Y-6297091D01*
X15399196Y-6240262D01*
X15382985Y-6216000D01*
X15428520Y-6216000D01*
X15466523Y-6254003D01*
X15466477Y-6306438D01*
X15486758Y-6355523D01*
X15524280Y-6393110D01*
X15573329Y-6413477D01*
X15626438Y-6413523D01*
X15675523Y-6393242D01*
X15713110Y-6355720D01*
X15726522Y-6323421D01*
X15728047Y-6331088D01*
X15756986Y-6374399D01*
X15800296Y-6403338D01*
X15851385Y-6413500D01*
X15856615Y-6413500D01*
X15907704Y-6403338D01*
X15951014Y-6374399D01*
X15975228Y-6338159D01*
X16167033Y-6338159D01*
X16180509Y-6370696D01*
X16218186Y-6414717D01*
X16269840Y-6440968D01*
X16292700Y-6429615D01*
X16292700Y-6315300D01*
X16327300Y-6315300D01*
X16327300Y-6429615D01*
X16350160Y-6440968D01*
X16401814Y-6414717D01*
X16439491Y-6370696D01*
X16452967Y-6338159D01*
X16441492Y-6315300D01*
X16327300Y-6315300D01*
X16292700Y-6315300D01*
X16178508Y-6315300D01*
X16167033Y-6338159D01*
X15975228Y-6338159D01*
X15979953Y-6331088D01*
X15990115Y-6280000D01*
X15979953Y-6228912D01*
X15951014Y-6185601D01*
X15912699Y-6160000D01*
X15951014Y-6134399D01*
X15963308Y-6116000D01*
X16008520Y-6116000D01*
X16116260Y-6223740D01*
X16140916Y-6240215D01*
X16170000Y-6246000D01*
X16171937Y-6246000D01*
X16167033Y-6257841D01*
X16178508Y-6280700D01*
X16292700Y-6280700D01*
X16292700Y-6278700D01*
X16327300Y-6278700D01*
X16327300Y-6280700D01*
X16441492Y-6280700D01*
X16452967Y-6257841D01*
X16448063Y-6246000D01*
X16510000Y-6246000D01*
X16539084Y-6240215D01*
X16563740Y-6223740D01*
X16793740Y-5993740D01*
X16810215Y-5969084D01*
X16816000Y-5940000D01*
X16816000Y-4800000D01*
X16812715Y-4783486D01*
X16841180Y-4771724D01*
X16881582Y-4731392D01*
X16903475Y-4678669D01*
X16903525Y-4621581D01*
X16892955Y-4596000D01*
X16950520Y-4596000D01*
X17155879Y-4801359D01*
X17148591Y-4838000D01*
X17159895Y-4894829D01*
X17192085Y-4943005D01*
X17225003Y-4965000D01*
X17192085Y-4986995D01*
X17159895Y-5035172D01*
X17148591Y-5092000D01*
X17159895Y-5148829D01*
X17192085Y-5197005D01*
X17225003Y-5219000D01*
X17192085Y-5240995D01*
X17159895Y-5289172D01*
X17148591Y-5346000D01*
X17159895Y-5402829D01*
X17192085Y-5451005D01*
X17196245Y-5453785D01*
X17191468Y-5454684D01*
X17169856Y-5468591D01*
X17155357Y-5489811D01*
X17150256Y-5515000D01*
X17150256Y-5685000D01*
X17154684Y-5708532D01*
X17168591Y-5730144D01*
X17189811Y-5744643D01*
X17215000Y-5749744D01*
X17385000Y-5749744D01*
X17408532Y-5745316D01*
X17430144Y-5731409D01*
X17444643Y-5710189D01*
X17449744Y-5685000D01*
X17449744Y-5515000D01*
X17445316Y-5491468D01*
X17431409Y-5469856D01*
X17410189Y-5455357D01*
X17403446Y-5453991D01*
X17407915Y-5451005D01*
X17440105Y-5402829D01*
X17451409Y-5346000D01*
X17440105Y-5289172D01*
X17407915Y-5240995D01*
X17374997Y-5219000D01*
X17407915Y-5197005D01*
X17440105Y-5148829D01*
X17451409Y-5092000D01*
X17440105Y-5035172D01*
X17407915Y-4986995D01*
X17374997Y-4965000D01*
X17407915Y-4943005D01*
X17440105Y-4894829D01*
X17451409Y-4838000D01*
X17440105Y-4781172D01*
X17407915Y-4732995D01*
X17374997Y-4711000D01*
X17407915Y-4689005D01*
X17440105Y-4640829D01*
X17451409Y-4584000D01*
X17440105Y-4527172D01*
X17407915Y-4478995D01*
X17373521Y-4456014D01*
X17391814Y-4446717D01*
X17429491Y-4402697D01*
X17442967Y-4370159D01*
X17431492Y-4347300D01*
X17317300Y-4347300D01*
X17317300Y-4349300D01*
X17282700Y-4349300D01*
X17282700Y-4347300D01*
X17168508Y-4347300D01*
X17157033Y-4370159D01*
X17170509Y-4402697D01*
X17208186Y-4446717D01*
X17226479Y-4456014D01*
X17192085Y-4478995D01*
X17159895Y-4527172D01*
X17149402Y-4579922D01*
X17035740Y-4466260D01*
X17011084Y-4449785D01*
X16982000Y-4444000D01*
X16896588Y-4444000D01*
X16905309Y-4417094D01*
X16900790Y-4360185D01*
X16887707Y-4328600D01*
X16863651Y-4320815D01*
X16784466Y-4400000D01*
X16785880Y-4401414D01*
X16761414Y-4425880D01*
X16760000Y-4424466D01*
X16758586Y-4425880D01*
X16734120Y-4401414D01*
X16735534Y-4400000D01*
X16656349Y-4320815D01*
X16632293Y-4328600D01*
X16614691Y-4382906D01*
X16615015Y-4386987D01*
X16600000Y-4384000D01*
X16016246Y-4384000D01*
X16013033Y-4380781D01*
X16001519Y-4376000D01*
X16094000Y-4376000D01*
X16123084Y-4370215D01*
X16147740Y-4353740D01*
X16191863Y-4309617D01*
X16211385Y-4313500D01*
X16216615Y-4313500D01*
X16267704Y-4303338D01*
X16278162Y-4296350D01*
X16680815Y-4296350D01*
X16760000Y-4375534D01*
X16839185Y-4296350D01*
X16837079Y-4289841D01*
X17157033Y-4289841D01*
X17168508Y-4312700D01*
X17282700Y-4312700D01*
X17282700Y-4198385D01*
X17317300Y-4198385D01*
X17317300Y-4312700D01*
X17431492Y-4312700D01*
X17442967Y-4289841D01*
X17429491Y-4257304D01*
X17391814Y-4213283D01*
X17340160Y-4187032D01*
X17317300Y-4198385D01*
X17282700Y-4198385D01*
X17259840Y-4187032D01*
X17208186Y-4213283D01*
X17170509Y-4257304D01*
X17157033Y-4289841D01*
X16837079Y-4289841D01*
X16831400Y-4272293D01*
X16777094Y-4254691D01*
X16720185Y-4259210D01*
X16688600Y-4272293D01*
X16680815Y-4296350D01*
X16278162Y-4296350D01*
X16311014Y-4274399D01*
X16339953Y-4231088D01*
X16350115Y-4180000D01*
X16341363Y-4136000D01*
X17487300Y-4136000D01*
X17487300Y-5956489D01*
X17471581Y-5956475D01*
X17418820Y-5978276D01*
X17400003Y-5997060D01*
X17381392Y-5978418D01*
X17328669Y-5956525D01*
X17271581Y-5956475D01*
X17218820Y-5978276D01*
X17200003Y-5997060D01*
X17181392Y-5978418D01*
X17128669Y-5956525D01*
X17071581Y-5956475D01*
X17018820Y-5978276D01*
X16978418Y-6018608D01*
X16956525Y-6071331D01*
X16956475Y-6128419D01*
X16978276Y-6181180D01*
X17018608Y-6221582D01*
X17071331Y-6243475D01*
X17128419Y-6243525D01*
X17181180Y-6221724D01*
X17199997Y-6202940D01*
X17218608Y-6221582D01*
X17271331Y-6243475D01*
X17328419Y-6243525D01*
X17381180Y-6221724D01*
X17399997Y-6202940D01*
X17418608Y-6221582D01*
X17471331Y-6243475D01*
X17528419Y-6243525D01*
X17581180Y-6221724D01*
X17599997Y-6202940D01*
X17618608Y-6221582D01*
X17671331Y-6243475D01*
X17728419Y-6243525D01*
X17781180Y-6221724D01*
X17799997Y-6202940D01*
X17818608Y-6221582D01*
X17871331Y-6243475D01*
X17928419Y-6243525D01*
X17981180Y-6221724D01*
X17999997Y-6202940D01*
X18018608Y-6221582D01*
X18071331Y-6243475D01*
X18128419Y-6243525D01*
X18181180Y-6221724D01*
X18199997Y-6202940D01*
X18218608Y-6221582D01*
X18271331Y-6243475D01*
X18328419Y-6243525D01*
X18381180Y-6221724D01*
X18399997Y-6202940D01*
X18418608Y-6221582D01*
X18471331Y-6243475D01*
X18528419Y-6243525D01*
X18581180Y-6221724D01*
X18599997Y-6202940D01*
X18618608Y-6221582D01*
X18671331Y-6243475D01*
X18717708Y-6243515D01*
X18686890Y-6274280D01*
X18666523Y-6323329D01*
X18666477Y-6376438D01*
X18686758Y-6425523D01*
X18711272Y-6450079D01*
X18702631Y-6446500D01*
X18633175Y-6446500D01*
X18617300Y-6462375D01*
X18617300Y-6582700D01*
X18737625Y-6582700D01*
X18753500Y-6566825D01*
X18753500Y-6497369D01*
X18743833Y-6474030D01*
X18739043Y-6469240D01*
X18773329Y-6483477D01*
X18826438Y-6483523D01*
X18875523Y-6463242D01*
X18913110Y-6425720D01*
X18926522Y-6393421D01*
X18928047Y-6401088D01*
X18956986Y-6444399D01*
X18957666Y-6444853D01*
X18753500Y-6649020D01*
X18753500Y-6633175D01*
X18737625Y-6617300D01*
X18617300Y-6617300D01*
X18617300Y-6737625D01*
X18633175Y-6753500D01*
X18649020Y-6753500D01*
X18608520Y-6794000D01*
X18274472Y-6794000D01*
X18283500Y-6748615D01*
X18283500Y-6743385D01*
X18282822Y-6739973D01*
X18315333Y-6753473D01*
X18376399Y-6753526D01*
X18432837Y-6730207D01*
X18450584Y-6712491D01*
X18456167Y-6725970D01*
X18474030Y-6743833D01*
X18497369Y-6753500D01*
X18566825Y-6753500D01*
X18582700Y-6737625D01*
X18582700Y-6617300D01*
X18580700Y-6617300D01*
X18580700Y-6582700D01*
X18582700Y-6582700D01*
X18582700Y-6462375D01*
X18566825Y-6446500D01*
X18497369Y-6446500D01*
X18474030Y-6456167D01*
X18456167Y-6474030D01*
X18450588Y-6487499D01*
X18433064Y-6469945D01*
X18376667Y-6446527D01*
X18315601Y-6446473D01*
X18259163Y-6469793D01*
X18215945Y-6512936D01*
X18192527Y-6569333D01*
X18192484Y-6618335D01*
X18150000Y-6609885D01*
X18098912Y-6620047D01*
X18055601Y-6648986D01*
X18036436Y-6677668D01*
X18031409Y-6669856D01*
X18010189Y-6655357D01*
X17985000Y-6650256D01*
X17815000Y-6650256D01*
X17791468Y-6654684D01*
X17769856Y-6668591D01*
X17755357Y-6689811D01*
X17750256Y-6715000D01*
X17750256Y-6885000D01*
X17754684Y-6908532D01*
X17768591Y-6930144D01*
X17789811Y-6944643D01*
X17796554Y-6946009D01*
X17792085Y-6948995D01*
X17759895Y-6997171D01*
X17748591Y-7054000D01*
X17759895Y-7110828D01*
X17792085Y-7159005D01*
X17826479Y-7181986D01*
X17808186Y-7191283D01*
X17770509Y-7235303D01*
X17757033Y-7267841D01*
X17768508Y-7290700D01*
X17882700Y-7290700D01*
X17882700Y-7288700D01*
X17917300Y-7288700D01*
X17917300Y-7290700D01*
X18031492Y-7290700D01*
X18042967Y-7267841D01*
X18029491Y-7235303D01*
X17991814Y-7191283D01*
X17973521Y-7181986D01*
X18007915Y-7159005D01*
X18040105Y-7110828D01*
X18045405Y-7084185D01*
X18074280Y-7113110D01*
X18123329Y-7133477D01*
X18176438Y-7133523D01*
X18213808Y-7118082D01*
X18192527Y-7169333D01*
X18192474Y-7230399D01*
X18215793Y-7286837D01*
X18258936Y-7330055D01*
X18315333Y-7353473D01*
X18376399Y-7353526D01*
X18432837Y-7330207D01*
X18450584Y-7312491D01*
X18456167Y-7325970D01*
X18474030Y-7343833D01*
X18497369Y-7353500D01*
X18566825Y-7353500D01*
X18582700Y-7337625D01*
X18582700Y-7217300D01*
X18617300Y-7217300D01*
X18617300Y-7337625D01*
X18633175Y-7353500D01*
X18702631Y-7353500D01*
X18725970Y-7343833D01*
X18743833Y-7325970D01*
X18753500Y-7302631D01*
X18753500Y-7233175D01*
X18737625Y-7217300D01*
X18617300Y-7217300D01*
X18582700Y-7217300D01*
X18580700Y-7217300D01*
X18580700Y-7182700D01*
X18582700Y-7182700D01*
X18582700Y-7062375D01*
X18617300Y-7062375D01*
X18617300Y-7182700D01*
X18737625Y-7182700D01*
X18753500Y-7166825D01*
X18753500Y-7097369D01*
X18743833Y-7074030D01*
X18725970Y-7056167D01*
X18702631Y-7046500D01*
X18633175Y-7046500D01*
X18617300Y-7062375D01*
X18582700Y-7062375D01*
X18566825Y-7046500D01*
X18497369Y-7046500D01*
X18474030Y-7056167D01*
X18456167Y-7074030D01*
X18450588Y-7087499D01*
X18433064Y-7069945D01*
X18376667Y-7046527D01*
X18315601Y-7046473D01*
X18266898Y-7066597D01*
X18276173Y-7044262D01*
X18776461Y-7044262D01*
X18810416Y-7126437D01*
X18873232Y-7189364D01*
X18955348Y-7223461D01*
X19044262Y-7223539D01*
X19126437Y-7189584D01*
X19189364Y-7126768D01*
X19223461Y-7044652D01*
X19223539Y-6955738D01*
X19189585Y-6873563D01*
X19126768Y-6810636D01*
X19044652Y-6776539D01*
X18955738Y-6776461D01*
X18873563Y-6810415D01*
X18810636Y-6873232D01*
X18776539Y-6955348D01*
X18776461Y-7044262D01*
X18276173Y-7044262D01*
X18283477Y-7026671D01*
X18283523Y-6973562D01*
X18272135Y-6946000D01*
X18640000Y-6946000D01*
X18669084Y-6940215D01*
X18693740Y-6923740D01*
X19107740Y-6509740D01*
X19124215Y-6485084D01*
X19129440Y-6458814D01*
X19151014Y-6444399D01*
X19179953Y-6401088D01*
X19190115Y-6350000D01*
X19179953Y-6298912D01*
X19151014Y-6255601D01*
X19107704Y-6226662D01*
X19056615Y-6216500D01*
X19051385Y-6216500D01*
X19000296Y-6226662D01*
X18956986Y-6255601D01*
X18928047Y-6298912D01*
X18926517Y-6306604D01*
X18913242Y-6274477D01*
X18882303Y-6243485D01*
X18928419Y-6243525D01*
X18981180Y-6221724D01*
X19021582Y-6181392D01*
X19043475Y-6128669D01*
X19043525Y-6071581D01*
X19023134Y-6022231D01*
X19053762Y-6042696D01*
X19110591Y-6054000D01*
X19116409Y-6054000D01*
X19173238Y-6042696D01*
X19218130Y-6012700D01*
X19287300Y-6012700D01*
X19287300Y-6075445D01*
X19286520Y-6077324D01*
X19286480Y-6122477D01*
X19287300Y-6124461D01*
X19287300Y-6225445D01*
X19286520Y-6227324D01*
X19286480Y-6272477D01*
X19287300Y-6274461D01*
X19287300Y-6375445D01*
X19286520Y-6377324D01*
X19286480Y-6422477D01*
X19287300Y-6424461D01*
X19287300Y-6525445D01*
X19286520Y-6527324D01*
X19286480Y-6572477D01*
X19287300Y-6574461D01*
X19287300Y-6675445D01*
X19286520Y-6677324D01*
X19286480Y-6722477D01*
X19287300Y-6724461D01*
X19287300Y-6825445D01*
X19286520Y-6827324D01*
X19286480Y-6872477D01*
X19287300Y-6874461D01*
X19287300Y-6975445D01*
X19286520Y-6977324D01*
X19286480Y-7022477D01*
X19287300Y-7024461D01*
X19287300Y-7125445D01*
X19286520Y-7127324D01*
X19286480Y-7172477D01*
X19287300Y-7174461D01*
X19287300Y-7275445D01*
X19286520Y-7277324D01*
X19286480Y-7322477D01*
X19287300Y-7324461D01*
X19287300Y-7425445D01*
X19286520Y-7427324D01*
X19286518Y-7429000D01*
X17983386Y-7429000D01*
X17991814Y-7424717D01*
X18029491Y-7380696D01*
X18042967Y-7348159D01*
X18031492Y-7325300D01*
X17917300Y-7325300D01*
X17917300Y-7327300D01*
X17882700Y-7327300D01*
X17882700Y-7325300D01*
X17768508Y-7325300D01*
X17757033Y-7348159D01*
X17770509Y-7380696D01*
X17808186Y-7424717D01*
X17816614Y-7429000D01*
X17583386Y-7429000D01*
X17591814Y-7424717D01*
X17629491Y-7380696D01*
X17642967Y-7348159D01*
X17631492Y-7325300D01*
X17517300Y-7325300D01*
X17517300Y-7327300D01*
X17482700Y-7327300D01*
X17482700Y-7325300D01*
X17368508Y-7325300D01*
X17357033Y-7348159D01*
X17370509Y-7380696D01*
X17408186Y-7424717D01*
X17416614Y-7429000D01*
X17183386Y-7429000D01*
X17191814Y-7424717D01*
X17229491Y-7380696D01*
X17242967Y-7348159D01*
X17231492Y-7325300D01*
X17117300Y-7325300D01*
X17117300Y-7327300D01*
X17082700Y-7327300D01*
X17082700Y-7325300D01*
X16968508Y-7325300D01*
X16957033Y-7348159D01*
X16970509Y-7380696D01*
X17008186Y-7424717D01*
X17016614Y-7429000D01*
X16783386Y-7429000D01*
X16791814Y-7424717D01*
X16829491Y-7380696D01*
X16842967Y-7348159D01*
X16831492Y-7325300D01*
X16717300Y-7325300D01*
X16717300Y-7327300D01*
X16682700Y-7327300D01*
X16682700Y-7325300D01*
X16568508Y-7325300D01*
X16557033Y-7348159D01*
X16570509Y-7380696D01*
X16608186Y-7424717D01*
X16616614Y-7429000D01*
X16383386Y-7429000D01*
X16391814Y-7424717D01*
X16429491Y-7380696D01*
X16442967Y-7348159D01*
X16431492Y-7325300D01*
X16317300Y-7325300D01*
X16317300Y-7327300D01*
X16282700Y-7327300D01*
X16282700Y-7325300D01*
X16168508Y-7325300D01*
X16157033Y-7348159D01*
X16170509Y-7380696D01*
X16208186Y-7424717D01*
X16216614Y-7429000D01*
X15983386Y-7429000D01*
X15991814Y-7424717D01*
X16029491Y-7380696D01*
X16042967Y-7348159D01*
X16031492Y-7325300D01*
X15917300Y-7325300D01*
X15917300Y-7327300D01*
X15882700Y-7327300D01*
X15882700Y-7325300D01*
X15768508Y-7325300D01*
X15757033Y-7348159D01*
X15770509Y-7380696D01*
X15808186Y-7424717D01*
X15816614Y-7429000D01*
X15583386Y-7429000D01*
X15591814Y-7424717D01*
X15629491Y-7380696D01*
X15642967Y-7348159D01*
X15631492Y-7325300D01*
X15517300Y-7325300D01*
X15517300Y-7327300D01*
X15482700Y-7327300D01*
X15482700Y-7325300D01*
X15368508Y-7325300D01*
X15357033Y-7348159D01*
X15370509Y-7380696D01*
X15408186Y-7424717D01*
X15416614Y-7429000D01*
X15183386Y-7429000D01*
X15191814Y-7424717D01*
X15229491Y-7380696D01*
X15242967Y-7348159D01*
X15231492Y-7325300D01*
X15117300Y-7325300D01*
X15117300Y-7327300D01*
X15082700Y-7327300D01*
X15082700Y-7325300D01*
X14968508Y-7325300D01*
X14957033Y-7348159D01*
X14970509Y-7380696D01*
X15008186Y-7424717D01*
X15016614Y-7429000D01*
X14783386Y-7429000D01*
X14791814Y-7424717D01*
X14829491Y-7380696D01*
X14842967Y-7348159D01*
X14831492Y-7325300D01*
X14717300Y-7325300D01*
X14717300Y-7327300D01*
X14682700Y-7327300D01*
X14682700Y-7325300D01*
X14568508Y-7325300D01*
X14557033Y-7348159D01*
X14570509Y-7380696D01*
X14608186Y-7424717D01*
X14616614Y-7429000D01*
X14383386Y-7429000D01*
X14391814Y-7424717D01*
X14429491Y-7380696D01*
X14442967Y-7348159D01*
X14431492Y-7325300D01*
X14317300Y-7325300D01*
X14317300Y-7327300D01*
X14282700Y-7327300D01*
X14282700Y-7325300D01*
X14168508Y-7325300D01*
X14157033Y-7348159D01*
X14170509Y-7380696D01*
X14208186Y-7424717D01*
X14216614Y-7429000D01*
X13983386Y-7429000D01*
X13991814Y-7424717D01*
X14029491Y-7380696D01*
X14042967Y-7348159D01*
X14031492Y-7325300D01*
X13917300Y-7325300D01*
X13917300Y-7327300D01*
X13882700Y-7327300D01*
X13882700Y-7325300D01*
X13768508Y-7325300D01*
X13757033Y-7348159D01*
X13770509Y-7380696D01*
X13808186Y-7424717D01*
X13816614Y-7429000D01*
X13583386Y-7429000D01*
X13591814Y-7424717D01*
X13629491Y-7380696D01*
X13642967Y-7348159D01*
X13631492Y-7325300D01*
X13517300Y-7325300D01*
X13517300Y-7327300D01*
X13482700Y-7327300D01*
X13482700Y-7325300D01*
X13368508Y-7325300D01*
X13357033Y-7348159D01*
X13370509Y-7380696D01*
X13408186Y-7424717D01*
X13416614Y-7429000D01*
X12571000Y-7429000D01*
X12571000Y-5949869D01*
X12669000Y-5949869D01*
X12669000Y-5996825D01*
X12684875Y-6012700D01*
X12782700Y-6012700D01*
X12782700Y-5914875D01*
X12817300Y-5914875D01*
X12817300Y-6012700D01*
X12915125Y-6012700D01*
X12931000Y-5996825D01*
X12931000Y-5949869D01*
X12921333Y-5926530D01*
X12903470Y-5908667D01*
X12880131Y-5899000D01*
X12833175Y-5899000D01*
X12817300Y-5914875D01*
X12782700Y-5914875D01*
X12766825Y-5899000D01*
X12719869Y-5899000D01*
X12696530Y-5908667D01*
X12678667Y-5926530D01*
X12669000Y-5949869D01*
X12571000Y-5949869D01*
X12571000Y-3419869D01*
X12669000Y-3419869D01*
X12669000Y-3466825D01*
X12684875Y-3482700D01*
X12782700Y-3482700D01*
X12782700Y-3384875D01*
X12817300Y-3384875D01*
X12817300Y-3482700D01*
X12915125Y-3482700D01*
X12931000Y-3466825D01*
X12931000Y-3419869D01*
X13169000Y-3419869D01*
X13169000Y-3466825D01*
X13184875Y-3482700D01*
X13282700Y-3482700D01*
X13282700Y-3384875D01*
X13317300Y-3384875D01*
X13317300Y-3482700D01*
X13415125Y-3482700D01*
X13431000Y-3466825D01*
X13431000Y-3419869D01*
X13421333Y-3396530D01*
X13403470Y-3378667D01*
X13380131Y-3369000D01*
X13333175Y-3369000D01*
X13317300Y-3384875D01*
X13282700Y-3384875D01*
X13266825Y-3369000D01*
X13219869Y-3369000D01*
X13196530Y-3378667D01*
X13178667Y-3396530D01*
X13169000Y-3419869D01*
X12931000Y-3419869D01*
X12921333Y-3396530D01*
X12903470Y-3378667D01*
X12880131Y-3369000D01*
X12833175Y-3369000D01*
X12817300Y-3384875D01*
X12782700Y-3384875D01*
X12766825Y-3369000D01*
X12719869Y-3369000D01*
X12696530Y-3378667D01*
X12678667Y-3396530D01*
X12669000Y-3419869D01*
X12571000Y-3419869D01*
X12571000Y-3044262D01*
X12776461Y-3044262D01*
X12810415Y-3126437D01*
X12873232Y-3189364D01*
X12955348Y-3223461D01*
X13044262Y-3223539D01*
X13126437Y-3189584D01*
X13135629Y-3180409D01*
X13285627Y-3180409D01*
X13305885Y-3229438D01*
X13343365Y-3266983D01*
X13392359Y-3287327D01*
X13445409Y-3287373D01*
X13494438Y-3267115D01*
X13531983Y-3229635D01*
X13552327Y-3180641D01*
X13552373Y-3127591D01*
X13532115Y-3078562D01*
X13494635Y-3041017D01*
X13445641Y-3020673D01*
X13392591Y-3020627D01*
X13343562Y-3040885D01*
X13306017Y-3078365D01*
X13285673Y-3127359D01*
X13285627Y-3180409D01*
X13135629Y-3180409D01*
X13189364Y-3126768D01*
X13223461Y-3044652D01*
X13223539Y-2955738D01*
X13189584Y-2873563D01*
X13148999Y-2832906D01*
X14554691Y-2832906D01*
X14559210Y-2889815D01*
X14572293Y-2921400D01*
X14596349Y-2929185D01*
X14675534Y-2850000D01*
X14724466Y-2850000D01*
X14803650Y-2929185D01*
X14827707Y-2921400D01*
X14845309Y-2867094D01*
X14840790Y-2810185D01*
X14827707Y-2778600D01*
X14803813Y-2770868D01*
X15280900Y-2770868D01*
X15280900Y-2829132D01*
X15293467Y-2892313D01*
X15329257Y-2945875D01*
X15382819Y-2981665D01*
X15446000Y-2994232D01*
X15509181Y-2981665D01*
X15562743Y-2945875D01*
X15574346Y-2928511D01*
X15596155Y-2954550D01*
X15653483Y-2984459D01*
X15657228Y-2984863D01*
X15682700Y-2973619D01*
X15682700Y-2817300D01*
X15680700Y-2817300D01*
X15680700Y-2782700D01*
X15682700Y-2782700D01*
X15682700Y-2626381D01*
X15717300Y-2626381D01*
X15717300Y-2782700D01*
X15719300Y-2782700D01*
X15719300Y-2817300D01*
X15717300Y-2817300D01*
X15717300Y-2973619D01*
X15742772Y-2984863D01*
X15746517Y-2984459D01*
X15803845Y-2954550D01*
X15825654Y-2928511D01*
X15837257Y-2945875D01*
X15890819Y-2981665D01*
X15954000Y-2994232D01*
X16017181Y-2981665D01*
X16070743Y-2945875D01*
X16079409Y-2932906D01*
X16254691Y-2932906D01*
X16259210Y-2989815D01*
X16272293Y-3021400D01*
X16296349Y-3029185D01*
X16375534Y-2950000D01*
X16424466Y-2950000D01*
X16503650Y-3029185D01*
X16527707Y-3021400D01*
X16545309Y-2967094D01*
X16540790Y-2910185D01*
X16527707Y-2878600D01*
X16503650Y-2870815D01*
X16424466Y-2950000D01*
X16375534Y-2950000D01*
X16296349Y-2870815D01*
X16272293Y-2878600D01*
X16254691Y-2932906D01*
X16079409Y-2932906D01*
X16106532Y-2892313D01*
X16119100Y-2829132D01*
X16119100Y-2770868D01*
X16106532Y-2707687D01*
X16070743Y-2654125D01*
X16017181Y-2618335D01*
X15954000Y-2605768D01*
X15890819Y-2618335D01*
X15837257Y-2654125D01*
X15825654Y-2671489D01*
X15803845Y-2645450D01*
X15746517Y-2615541D01*
X15742772Y-2615137D01*
X15717300Y-2626381D01*
X15682700Y-2626381D01*
X15657228Y-2615137D01*
X15653483Y-2615541D01*
X15596155Y-2645450D01*
X15574346Y-2671489D01*
X15562743Y-2654125D01*
X15509181Y-2618335D01*
X15446000Y-2605768D01*
X15382819Y-2618335D01*
X15329257Y-2654125D01*
X15293467Y-2707687D01*
X15280900Y-2770868D01*
X14803813Y-2770868D01*
X14803650Y-2770815D01*
X14724466Y-2850000D01*
X14675534Y-2850000D01*
X14596349Y-2770815D01*
X14572293Y-2778600D01*
X14554691Y-2832906D01*
X13148999Y-2832906D01*
X13126768Y-2810636D01*
X13044652Y-2776539D01*
X12955738Y-2776461D01*
X12873563Y-2810415D01*
X12810636Y-2873232D01*
X12776539Y-2955348D01*
X12776461Y-3044262D01*
X12571000Y-3044262D01*
X12571000Y-2742262D01*
X13347204Y-2742262D01*
X13353729Y-2765271D01*
X13404340Y-2781170D01*
X13457183Y-2776491D01*
X13484271Y-2765271D01*
X13490796Y-2742262D01*
X14109204Y-2742262D01*
X14115729Y-2765271D01*
X14166340Y-2781170D01*
X14219183Y-2776491D01*
X14246271Y-2765271D01*
X14251637Y-2746350D01*
X14620815Y-2746350D01*
X14700000Y-2825534D01*
X14779185Y-2746350D01*
X14771400Y-2722293D01*
X14717094Y-2704691D01*
X14660185Y-2709210D01*
X14628600Y-2722293D01*
X14620815Y-2746350D01*
X14251637Y-2746350D01*
X14252796Y-2742262D01*
X14181000Y-2670466D01*
X14109204Y-2742262D01*
X13490796Y-2742262D01*
X13419000Y-2670466D01*
X13347204Y-2742262D01*
X12571000Y-2742262D01*
X12571000Y-2571000D01*
X13319534Y-2571000D01*
X13322738Y-2574204D01*
X13322738Y-2574204D01*
G37*
X13322738Y-2574204D02*
X13299729Y-2580729D01*
X13283830Y-2631340D01*
X13288509Y-2684183D01*
X13299729Y-2711271D01*
X13322738Y-2717796D01*
X13394534Y-2646000D01*
X13393120Y-2644586D01*
X13417586Y-2620120D01*
X13419000Y-2621534D01*
X13420414Y-2620120D01*
X13444880Y-2644586D01*
X13443466Y-2646000D01*
X13515262Y-2717796D01*
X13538271Y-2711271D01*
X13554170Y-2660660D01*
X13549491Y-2607817D01*
X13538271Y-2580729D01*
X13515262Y-2574204D01*
X13518466Y-2571000D01*
X14081534Y-2571000D01*
X14084738Y-2574204D01*
X14061729Y-2580729D01*
X14045830Y-2631340D01*
X14050509Y-2684183D01*
X14061729Y-2711271D01*
X14084738Y-2717796D01*
X14156534Y-2646000D01*
X14155120Y-2644586D01*
X14179586Y-2620120D01*
X14181000Y-2621534D01*
X14182414Y-2620120D01*
X14206880Y-2644586D01*
X14205466Y-2646000D01*
X14277262Y-2717796D01*
X14300271Y-2711271D01*
X14316170Y-2660660D01*
X14311491Y-2607817D01*
X14300271Y-2580729D01*
X14277262Y-2574204D01*
X14280466Y-2571000D01*
X16336429Y-2571000D01*
X16318820Y-2578276D01*
X16278418Y-2618608D01*
X16256525Y-2671331D01*
X16256475Y-2728419D01*
X16278276Y-2781180D01*
X16318608Y-2821582D01*
X16327619Y-2825324D01*
X16320815Y-2846349D01*
X16400000Y-2925534D01*
X16479185Y-2846349D01*
X16472391Y-2825356D01*
X16481180Y-2821724D01*
X16521582Y-2781392D01*
X16543475Y-2728669D01*
X16543525Y-2671581D01*
X16521724Y-2618820D01*
X16481392Y-2578418D01*
X16463529Y-2571000D01*
X17982429Y-2571000D01*
X17964820Y-2578276D01*
X17924418Y-2618608D01*
X17902525Y-2671331D01*
X17902475Y-2728419D01*
X17924276Y-2781180D01*
X17964608Y-2821582D01*
X18017331Y-2843475D01*
X18074419Y-2843525D01*
X18127180Y-2821724D01*
X18145285Y-2803650D01*
X18220815Y-2803650D01*
X18228600Y-2827707D01*
X18282906Y-2845309D01*
X18339815Y-2840790D01*
X18371400Y-2827707D01*
X18379185Y-2803650D01*
X18300000Y-2724466D01*
X18220815Y-2803650D01*
X18145285Y-2803650D01*
X18167582Y-2781392D01*
X18172013Y-2770723D01*
X18172293Y-2771400D01*
X18196350Y-2779185D01*
X18275534Y-2700000D01*
X18196350Y-2620815D01*
X18172293Y-2628600D01*
X18172061Y-2629316D01*
X18167724Y-2618820D01*
X18127392Y-2578418D01*
X18109529Y-2571000D01*
X18231722Y-2571000D01*
X18228600Y-2572293D01*
X18220815Y-2596350D01*
X18300000Y-2675534D01*
X18379185Y-2596350D01*
X18371400Y-2572293D01*
X18367410Y-2571000D01*
X18490429Y-2571000D01*
X18472820Y-2578276D01*
X18432418Y-2618608D01*
X18427987Y-2629277D01*
X18427707Y-2628600D01*
X18403651Y-2620815D01*
X18324466Y-2700000D01*
X18403651Y-2779185D01*
X18427707Y-2771400D01*
X18427939Y-2770684D01*
X18432276Y-2781180D01*
X18472608Y-2821582D01*
X18525331Y-2843475D01*
X18582419Y-2843525D01*
X18635180Y-2821724D01*
X18675582Y-2781392D01*
X18697475Y-2728669D01*
X18697525Y-2671581D01*
X18675724Y-2618820D01*
X18635392Y-2578418D01*
X18617529Y-2571000D01*
X19287300Y-2571000D01*
X19287300Y-2625445D01*
X19286520Y-2627324D01*
X19286480Y-2672478D01*
X19287300Y-2674461D01*
X19287300Y-2775445D01*
X19286520Y-2777324D01*
X19286480Y-2822477D01*
X19287300Y-2824461D01*
X19287300Y-2925445D01*
X19286520Y-2927324D01*
X19286480Y-2972477D01*
X19287300Y-2974461D01*
X19287300Y-3075445D01*
X19286520Y-3077324D01*
X19286480Y-3122477D01*
X19287300Y-3124461D01*
X19287300Y-3225445D01*
X19286520Y-3227324D01*
X19286480Y-3272477D01*
X19287300Y-3274461D01*
X19287300Y-3375445D01*
X19286520Y-3377324D01*
X19286480Y-3422477D01*
X19287300Y-3424461D01*
X19287300Y-3525445D01*
X19286520Y-3527324D01*
X19286480Y-3572477D01*
X19287300Y-3574461D01*
X19287300Y-3675445D01*
X19286520Y-3677324D01*
X19286480Y-3722477D01*
X19287300Y-3724461D01*
X19287300Y-3825445D01*
X19286520Y-3827324D01*
X19286480Y-3872477D01*
X19287300Y-3874461D01*
X19287300Y-3975445D01*
X19286520Y-3977324D01*
X19286511Y-3987300D01*
X19015664Y-3987300D01*
X19021582Y-3981392D01*
X19043475Y-3928669D01*
X19043525Y-3871581D01*
X19021724Y-3818820D01*
X18981392Y-3778418D01*
X18928669Y-3756525D01*
X18871581Y-3756475D01*
X18818820Y-3778276D01*
X18800003Y-3797060D01*
X18781392Y-3778418D01*
X18728669Y-3756525D01*
X18671581Y-3756475D01*
X18618820Y-3778276D01*
X18600003Y-3797060D01*
X18581392Y-3778418D01*
X18528669Y-3756525D01*
X18471581Y-3756475D01*
X18418820Y-3778276D01*
X18400003Y-3797060D01*
X18381392Y-3778418D01*
X18328669Y-3756525D01*
X18271581Y-3756475D01*
X18218820Y-3778276D01*
X18200003Y-3797060D01*
X18181392Y-3778418D01*
X18128669Y-3756525D01*
X18071581Y-3756475D01*
X18018820Y-3778276D01*
X18000003Y-3797060D01*
X17981392Y-3778418D01*
X17928669Y-3756525D01*
X17871581Y-3756475D01*
X17818820Y-3778276D01*
X17800003Y-3797060D01*
X17781392Y-3778418D01*
X17728669Y-3756525D01*
X17671581Y-3756475D01*
X17618820Y-3778276D01*
X17600003Y-3797060D01*
X17581392Y-3778418D01*
X17528669Y-3756525D01*
X17471581Y-3756475D01*
X17418820Y-3778276D01*
X17400003Y-3797060D01*
X17381392Y-3778418D01*
X17328669Y-3756525D01*
X17271581Y-3756475D01*
X17218820Y-3778276D01*
X17201815Y-3795251D01*
X17191049Y-3784485D01*
X17179185Y-3796349D01*
X17171400Y-3772293D01*
X17117094Y-3754691D01*
X17090693Y-3756787D01*
X17171480Y-3676000D01*
X17387235Y-3676000D01*
X17424280Y-3713110D01*
X17473329Y-3733477D01*
X17526438Y-3733523D01*
X17575523Y-3713242D01*
X17613110Y-3675720D01*
X17626522Y-3643421D01*
X17628047Y-3651088D01*
X17656986Y-3694399D01*
X17700296Y-3723338D01*
X17751385Y-3733500D01*
X17756615Y-3733500D01*
X17807704Y-3723338D01*
X17851014Y-3694399D01*
X17879953Y-3651088D01*
X17890115Y-3600000D01*
X17879953Y-3548912D01*
X17851014Y-3505601D01*
X17848095Y-3503650D01*
X18270815Y-3503650D01*
X18278600Y-3527707D01*
X18332906Y-3545309D01*
X18389815Y-3540790D01*
X18421400Y-3527707D01*
X18429185Y-3503650D01*
X18350000Y-3424466D01*
X18270815Y-3503650D01*
X17848095Y-3503650D01*
X17842631Y-3500000D01*
X17851014Y-3494399D01*
X17879953Y-3451088D01*
X17890115Y-3400000D01*
X17886715Y-3382906D01*
X18204691Y-3382906D01*
X18209210Y-3439815D01*
X18222293Y-3471400D01*
X18246350Y-3479185D01*
X18325534Y-3400000D01*
X18374466Y-3400000D01*
X18453651Y-3479185D01*
X18455256Y-3478665D01*
X18455256Y-3480000D01*
X18459684Y-3503532D01*
X18473591Y-3525144D01*
X18494811Y-3539643D01*
X18520000Y-3544744D01*
X18680000Y-3544744D01*
X18703532Y-3540316D01*
X18725144Y-3526409D01*
X18739643Y-3505189D01*
X18744744Y-3480000D01*
X18744744Y-3320000D01*
X18740316Y-3296468D01*
X18726409Y-3274856D01*
X18705189Y-3260357D01*
X18680000Y-3255256D01*
X18520000Y-3255256D01*
X18496468Y-3259684D01*
X18474856Y-3273591D01*
X18460357Y-3294811D01*
X18455256Y-3320000D01*
X18455256Y-3321335D01*
X18453651Y-3320815D01*
X18374466Y-3400000D01*
X18325534Y-3400000D01*
X18246350Y-3320815D01*
X18222293Y-3328600D01*
X18204691Y-3382906D01*
X17886715Y-3382906D01*
X17879953Y-3348912D01*
X17851014Y-3305601D01*
X17837168Y-3296349D01*
X18270815Y-3296349D01*
X18350000Y-3375534D01*
X18429185Y-3296349D01*
X18421400Y-3272293D01*
X18367094Y-3254691D01*
X18310185Y-3259210D01*
X18278600Y-3272293D01*
X18270815Y-3296349D01*
X17837168Y-3296349D01*
X17807704Y-3276662D01*
X17756615Y-3266500D01*
X17751385Y-3266500D01*
X17700296Y-3276662D01*
X17656986Y-3305601D01*
X17628047Y-3348912D01*
X17627158Y-3353379D01*
X17619395Y-3334638D01*
X17596371Y-3328095D01*
X17524466Y-3400000D01*
X17596371Y-3471905D01*
X17619395Y-3465362D01*
X17626432Y-3442972D01*
X17628047Y-3451088D01*
X17656986Y-3494399D01*
X17665369Y-3500000D01*
X17656986Y-3505601D01*
X17628047Y-3548912D01*
X17626517Y-3556604D01*
X17613242Y-3524477D01*
X17575720Y-3486890D01*
X17552983Y-3477449D01*
X17500000Y-3424466D01*
X17447024Y-3477442D01*
X17424477Y-3486758D01*
X17387170Y-3524000D01*
X17140000Y-3524000D01*
X17110916Y-3529785D01*
X17086260Y-3546260D01*
X16728520Y-3904000D01*
X16612479Y-3904000D01*
X16626717Y-3891814D01*
X16652968Y-3840160D01*
X16641615Y-3817300D01*
X16527300Y-3817300D01*
X16527300Y-3819300D01*
X16492700Y-3819300D01*
X16492700Y-3817300D01*
X16490700Y-3817300D01*
X16490700Y-3782700D01*
X16492700Y-3782700D01*
X16492700Y-3780700D01*
X16527300Y-3780700D01*
X16527300Y-3782700D01*
X16641615Y-3782700D01*
X16652968Y-3759840D01*
X16626717Y-3708186D01*
X16582696Y-3670509D01*
X16550159Y-3657033D01*
X16530657Y-3666823D01*
X16641480Y-3556000D01*
X16880000Y-3556000D01*
X16909084Y-3550215D01*
X16933740Y-3533740D01*
X17082176Y-3385304D01*
X17364680Y-3385304D01*
X17369357Y-3438207D01*
X17380605Y-3465362D01*
X17403629Y-3471905D01*
X17475534Y-3400000D01*
X17403629Y-3328095D01*
X17380605Y-3334638D01*
X17364680Y-3385304D01*
X17082176Y-3385304D01*
X17151480Y-3316000D01*
X17320000Y-3316000D01*
X17349084Y-3310215D01*
X17358940Y-3303629D01*
X17428095Y-3303629D01*
X17500000Y-3375534D01*
X17571905Y-3303629D01*
X17565362Y-3280605D01*
X17514696Y-3264680D01*
X17461793Y-3269357D01*
X17434638Y-3280605D01*
X17428095Y-3303629D01*
X17358940Y-3303629D01*
X17373740Y-3293740D01*
X17436868Y-3230612D01*
X17451385Y-3233500D01*
X17456615Y-3233500D01*
X17507704Y-3223338D01*
X17551014Y-3194399D01*
X17571234Y-3164138D01*
X17578276Y-3181180D01*
X17618608Y-3221582D01*
X17671331Y-3243475D01*
X17728419Y-3243525D01*
X17781180Y-3221724D01*
X17799285Y-3203650D01*
X17870815Y-3203650D01*
X17878600Y-3227707D01*
X17932906Y-3245309D01*
X17989815Y-3240790D01*
X18021400Y-3227707D01*
X18029185Y-3203650D01*
X17950000Y-3124466D01*
X17870815Y-3203650D01*
X17799285Y-3203650D01*
X17821582Y-3181392D01*
X17825324Y-3172381D01*
X17846350Y-3179185D01*
X17925534Y-3100000D01*
X17974466Y-3100000D01*
X18053651Y-3179185D01*
X18077707Y-3171400D01*
X18095309Y-3117094D01*
X18090790Y-3060185D01*
X18084194Y-3044262D01*
X18776461Y-3044262D01*
X18810416Y-3126437D01*
X18873232Y-3189364D01*
X18955348Y-3223461D01*
X19044262Y-3223539D01*
X19126437Y-3189584D01*
X19189364Y-3126768D01*
X19223461Y-3044652D01*
X19223539Y-2955738D01*
X19189585Y-2873563D01*
X19126768Y-2810636D01*
X19044652Y-2776539D01*
X18955738Y-2776461D01*
X18873563Y-2810415D01*
X18810636Y-2873232D01*
X18776539Y-2955348D01*
X18776461Y-3044262D01*
X18084194Y-3044262D01*
X18077707Y-3028600D01*
X18053651Y-3020815D01*
X17974466Y-3100000D01*
X17925534Y-3100000D01*
X17846350Y-3020815D01*
X17825356Y-3027609D01*
X17821724Y-3018820D01*
X17799293Y-2996349D01*
X17870815Y-2996349D01*
X17950000Y-3075534D01*
X18029185Y-2996349D01*
X18021400Y-2972293D01*
X17967094Y-2954691D01*
X17910185Y-2959210D01*
X17878600Y-2972293D01*
X17870815Y-2996349D01*
X17799293Y-2996349D01*
X17781392Y-2978418D01*
X17728669Y-2956525D01*
X17671581Y-2956475D01*
X17666185Y-2958705D01*
X17613740Y-2906260D01*
X17589084Y-2889785D01*
X17560000Y-2884000D01*
X17557962Y-2884000D01*
X17579953Y-2851088D01*
X17590115Y-2800000D01*
X17579953Y-2748912D01*
X17551014Y-2705601D01*
X17507704Y-2676662D01*
X17456615Y-2666500D01*
X17451385Y-2666500D01*
X17400296Y-2676662D01*
X17356986Y-2705601D01*
X17328047Y-2748912D01*
X17326517Y-2756605D01*
X17313242Y-2724477D01*
X17275720Y-2686890D01*
X17226671Y-2666523D01*
X17173562Y-2666477D01*
X17124477Y-2686758D01*
X17086890Y-2724280D01*
X17066523Y-2773329D01*
X17066477Y-2826438D01*
X17086758Y-2875523D01*
X17099326Y-2888112D01*
X17090916Y-2889785D01*
X17066260Y-2906260D01*
X17011840Y-2960680D01*
X17000055Y-2946911D01*
X17008532Y-2945316D01*
X17030144Y-2931409D01*
X17044643Y-2910189D01*
X17049744Y-2885000D01*
X17049744Y-2715000D01*
X17045316Y-2691468D01*
X17031409Y-2669856D01*
X17010189Y-2655357D01*
X16985000Y-2650256D01*
X16815000Y-2650256D01*
X16791468Y-2654684D01*
X16769856Y-2668591D01*
X16755357Y-2689811D01*
X16750256Y-2715000D01*
X16750256Y-2885000D01*
X16754684Y-2908532D01*
X16768591Y-2930144D01*
X16789811Y-2944643D01*
X16800103Y-2946727D01*
X16770509Y-2981303D01*
X16757033Y-3013841D01*
X16768508Y-3036700D01*
X16882700Y-3036700D01*
X16882700Y-3034700D01*
X16917300Y-3034700D01*
X16917300Y-3036700D01*
X16919300Y-3036700D01*
X16919300Y-3071300D01*
X16917300Y-3071300D01*
X16917300Y-3073300D01*
X16882700Y-3073300D01*
X16882700Y-3071300D01*
X16768508Y-3071300D01*
X16757033Y-3094159D01*
X16769392Y-3124000D01*
X16380000Y-3124000D01*
X16350916Y-3129785D01*
X16326260Y-3146260D01*
X16281758Y-3190762D01*
X16260000Y-3186434D01*
X16209868Y-3196405D01*
X16180699Y-3215896D01*
X16163470Y-3198667D01*
X16140131Y-3189000D01*
X16093175Y-3189000D01*
X16077300Y-3204875D01*
X16077300Y-3302700D01*
X16079300Y-3302700D01*
X16079300Y-3337300D01*
X16077300Y-3337300D01*
X16077300Y-3435125D01*
X16093175Y-3451000D01*
X16140131Y-3451000D01*
X16163470Y-3441333D01*
X16180699Y-3424104D01*
X16209868Y-3443595D01*
X16260000Y-3453566D01*
X16310131Y-3443595D01*
X16352631Y-3415197D01*
X16360000Y-3404169D01*
X16367369Y-3415197D01*
X16409868Y-3443595D01*
X16460000Y-3453566D01*
X16510131Y-3443595D01*
X16552631Y-3415197D01*
X16560000Y-3404169D01*
X16567369Y-3415197D01*
X16570092Y-3417017D01*
X16556260Y-3426260D01*
X16326260Y-3656260D01*
X16319331Y-3666630D01*
X16296159Y-3657033D01*
X16273300Y-3668508D01*
X16273300Y-3782700D01*
X16275300Y-3782700D01*
X16275300Y-3817300D01*
X16273300Y-3817300D01*
X16273300Y-3819300D01*
X16238700Y-3819300D01*
X16238700Y-3817300D01*
X16236700Y-3817300D01*
X16236700Y-3782700D01*
X16238700Y-3782700D01*
X16238700Y-3668508D01*
X16215841Y-3657033D01*
X16183303Y-3670509D01*
X16139283Y-3708186D01*
X16129986Y-3726479D01*
X16107005Y-3692085D01*
X16058828Y-3659895D01*
X16002000Y-3648591D01*
X15945171Y-3659895D01*
X15896995Y-3692085D01*
X15875000Y-3725003D01*
X15853005Y-3692085D01*
X15804828Y-3659895D01*
X15748000Y-3648591D01*
X15691171Y-3659895D01*
X15642995Y-3692085D01*
X15621000Y-3725003D01*
X15599005Y-3692085D01*
X15550828Y-3659895D01*
X15494000Y-3648591D01*
X15446000Y-3658138D01*
X15446000Y-3611480D01*
X15456155Y-3601326D01*
X15461331Y-3603475D01*
X15518419Y-3603525D01*
X15571180Y-3581724D01*
X15611582Y-3541392D01*
X15633475Y-3488669D01*
X15633525Y-3431581D01*
X15611724Y-3378820D01*
X15586124Y-3353175D01*
X15929000Y-3353175D01*
X15929000Y-3400131D01*
X15938667Y-3423470D01*
X15956530Y-3441333D01*
X15979869Y-3451000D01*
X16026825Y-3451000D01*
X16042700Y-3435125D01*
X16042700Y-3337300D01*
X15944875Y-3337300D01*
X15929000Y-3353175D01*
X15586124Y-3353175D01*
X15571392Y-3338418D01*
X15527794Y-3320314D01*
X15453740Y-3246260D01*
X15444176Y-3239869D01*
X15929000Y-3239869D01*
X15929000Y-3286825D01*
X15944875Y-3302700D01*
X16042700Y-3302700D01*
X16042700Y-3204875D01*
X16026825Y-3189000D01*
X15979869Y-3189000D01*
X15956530Y-3198667D01*
X15938667Y-3216530D01*
X15929000Y-3239869D01*
X15444176Y-3239869D01*
X15429084Y-3229785D01*
X15400000Y-3224000D01*
X14826790Y-3224000D01*
X14839643Y-3205189D01*
X14844744Y-3180000D01*
X14844744Y-3053650D01*
X16320815Y-3053650D01*
X16328600Y-3077707D01*
X16382906Y-3095309D01*
X16439815Y-3090790D01*
X16471400Y-3077707D01*
X16479185Y-3053650D01*
X16400000Y-2974466D01*
X16320815Y-3053650D01*
X14844744Y-3053650D01*
X14844744Y-3020000D01*
X14840316Y-2996468D01*
X14826409Y-2974856D01*
X14805189Y-2960357D01*
X14780000Y-2955256D01*
X14778665Y-2955256D01*
X14779185Y-2953650D01*
X14700000Y-2874466D01*
X14620815Y-2953650D01*
X14621335Y-2955256D01*
X14620000Y-2955256D01*
X14596468Y-2959684D01*
X14574856Y-2973591D01*
X14560357Y-2994811D01*
X14555256Y-3020000D01*
X14555256Y-3180000D01*
X14559684Y-3203532D01*
X14572855Y-3224000D01*
X14358480Y-3224000D01*
X14314327Y-3179847D01*
X14314373Y-3127591D01*
X14294115Y-3078562D01*
X14256635Y-3041017D01*
X14207641Y-3020673D01*
X14154591Y-3020627D01*
X14105562Y-3040885D01*
X14068017Y-3078365D01*
X14047673Y-3127359D01*
X14047627Y-3180409D01*
X14067885Y-3229438D01*
X14105365Y-3266983D01*
X14154359Y-3287327D01*
X14206892Y-3287373D01*
X14268209Y-3348689D01*
X14224477Y-3366758D01*
X14186890Y-3404280D01*
X14173478Y-3436579D01*
X14171953Y-3428912D01*
X14143014Y-3385601D01*
X14099704Y-3356662D01*
X14048615Y-3346500D01*
X14043385Y-3346500D01*
X13992296Y-3356662D01*
X13948986Y-3385601D01*
X13920047Y-3428912D01*
X13909885Y-3480000D01*
X13920047Y-3531088D01*
X13948986Y-3574399D01*
X13992296Y-3603338D01*
X14042604Y-3613345D01*
X14008912Y-3620047D01*
X13965601Y-3648986D01*
X13936662Y-3692296D01*
X13926500Y-3743385D01*
X13926500Y-3748615D01*
X13936662Y-3799704D01*
X13965601Y-3843014D01*
X14008912Y-3871953D01*
X14016604Y-3873483D01*
X13985102Y-3886500D01*
X13647013Y-3886500D01*
X13426875Y-3666362D01*
X13423595Y-3649868D01*
X13404104Y-3620699D01*
X13421333Y-3603470D01*
X13431000Y-3580131D01*
X13431000Y-3533175D01*
X13415125Y-3517300D01*
X13317300Y-3517300D01*
X13317300Y-3519300D01*
X13282700Y-3519300D01*
X13282700Y-3517300D01*
X13184875Y-3517300D01*
X13169000Y-3533175D01*
X13169000Y-3580131D01*
X13171638Y-3586500D01*
X12928362Y-3586500D01*
X12931000Y-3580131D01*
X12931000Y-3533175D01*
X12915125Y-3517300D01*
X12817300Y-3517300D01*
X12817300Y-3519300D01*
X12782700Y-3519300D01*
X12782700Y-3517300D01*
X12684875Y-3517300D01*
X12669000Y-3533175D01*
X12669000Y-3580131D01*
X12678667Y-3603470D01*
X12695896Y-3620699D01*
X12676405Y-3649868D01*
X12666434Y-3700000D01*
X12676405Y-3750131D01*
X12704803Y-3792631D01*
X12715831Y-3800000D01*
X12704803Y-3807369D01*
X12676405Y-3849868D01*
X12666434Y-3900000D01*
X12676405Y-3950131D01*
X12704803Y-3992631D01*
X12715831Y-4000000D01*
X12704803Y-4007369D01*
X12676405Y-4049868D01*
X12666434Y-4100000D01*
X12676405Y-4150131D01*
X12704803Y-4192631D01*
X12747302Y-4221028D01*
X12797434Y-4231000D01*
X12802566Y-4231000D01*
X12852698Y-4221028D01*
X12895197Y-4192631D01*
X12923595Y-4150131D01*
X12933566Y-4100000D01*
X12923595Y-4049868D01*
X12895197Y-4007369D01*
X12884169Y-4000000D01*
X12895197Y-3992631D01*
X12923595Y-3950131D01*
X12933566Y-3900000D01*
X12923595Y-3849868D01*
X12899294Y-3813500D01*
X13200706Y-3813500D01*
X13176405Y-3849868D01*
X13166434Y-3900000D01*
X13176405Y-3950131D01*
X13204803Y-3992631D01*
X13215831Y-4000000D01*
X13204803Y-4007369D01*
X13176405Y-4049868D01*
X13166434Y-4100000D01*
X13176405Y-4150131D01*
X13204803Y-4192631D01*
X13247302Y-4221028D01*
X13297434Y-4231000D01*
X13302566Y-4231000D01*
X13352698Y-4221028D01*
X13356600Y-4218421D01*
X13352109Y-4222904D01*
X13319537Y-4301346D01*
X13319463Y-4386282D01*
X13351898Y-4464780D01*
X13411904Y-4524891D01*
X13490346Y-4557463D01*
X13575281Y-4557537D01*
X13653780Y-4525102D01*
X13713891Y-4465096D01*
X13746463Y-4386654D01*
X13746537Y-4301719D01*
X13714102Y-4223220D01*
X13654096Y-4163109D01*
X13575654Y-4130537D01*
X13490718Y-4130463D01*
X13416149Y-4161274D01*
X13423595Y-4150131D01*
X13433566Y-4100000D01*
X13423595Y-4049868D01*
X13395197Y-4007369D01*
X13384169Y-4000000D01*
X13395197Y-3992631D01*
X13409986Y-3970499D01*
X13519743Y-4080257D01*
X13556565Y-4104860D01*
X13600000Y-4113500D01*
X13936500Y-4113500D01*
X13936500Y-4402987D01*
X13778006Y-4561481D01*
X13772571Y-4561476D01*
X13721648Y-4582517D01*
X13717658Y-4586500D01*
X13651500Y-4586500D01*
X13608065Y-4595140D01*
X13571243Y-4619743D01*
X13191243Y-4999743D01*
X13166640Y-5036565D01*
X13158000Y-5080000D01*
X13158000Y-6034520D01*
X13038520Y-6154000D01*
X12906310Y-6154000D01*
X12904104Y-6150699D01*
X12921333Y-6133470D01*
X12931000Y-6110131D01*
X12931000Y-6063175D01*
X12915125Y-6047300D01*
X12817300Y-6047300D01*
X12817300Y-6049300D01*
X12782700Y-6049300D01*
X12782700Y-6047300D01*
X12684875Y-6047300D01*
X12669000Y-6063175D01*
X12669000Y-6110131D01*
X12678667Y-6133470D01*
X12695896Y-6150699D01*
X12676405Y-6179868D01*
X12666434Y-6230000D01*
X12676405Y-6280131D01*
X12704803Y-6322631D01*
X12715831Y-6330000D01*
X12704803Y-6337369D01*
X12676405Y-6379868D01*
X12666434Y-6430000D01*
X12676405Y-6480131D01*
X12704803Y-6522631D01*
X12715831Y-6530000D01*
X12704803Y-6537369D01*
X12676405Y-6579868D01*
X12666434Y-6630000D01*
X12676405Y-6680131D01*
X12704803Y-6722631D01*
X12747302Y-6751028D01*
X12797434Y-6761000D01*
X12802566Y-6761000D01*
X12852698Y-6751028D01*
X12895197Y-6722631D01*
X12923595Y-6680131D01*
X12933566Y-6630000D01*
X12923595Y-6579868D01*
X12895197Y-6537369D01*
X12884169Y-6530000D01*
X12895197Y-6522631D01*
X12923595Y-6480131D01*
X12933566Y-6430000D01*
X12923595Y-6379868D01*
X12895197Y-6337369D01*
X12884169Y-6330000D01*
X12895197Y-6322631D01*
X12906310Y-6306000D01*
X13070000Y-6306000D01*
X13099084Y-6300215D01*
X13123740Y-6283740D01*
X13158000Y-6249480D01*
X13158000Y-6841923D01*
X13126768Y-6810636D01*
X13044652Y-6776539D01*
X12955738Y-6776461D01*
X12873563Y-6810415D01*
X12810636Y-6873232D01*
X12776539Y-6955348D01*
X12776461Y-7044262D01*
X12810415Y-7126437D01*
X12873232Y-7189364D01*
X12955348Y-7223461D01*
X13044262Y-7223539D01*
X13126437Y-7189584D01*
X13189364Y-7126768D01*
X13223461Y-7044652D01*
X13223470Y-7033984D01*
X13323743Y-7134257D01*
X13360565Y-7158860D01*
X13404000Y-7167500D01*
X13404798Y-7167500D01*
X13426479Y-7181986D01*
X13408186Y-7191283D01*
X13370509Y-7235303D01*
X13357033Y-7267841D01*
X13368508Y-7290700D01*
X13482700Y-7290700D01*
X13482700Y-7288700D01*
X13517300Y-7288700D01*
X13517300Y-7290700D01*
X13631492Y-7290700D01*
X13642967Y-7267841D01*
X13629491Y-7235303D01*
X13591814Y-7191283D01*
X13573521Y-7181986D01*
X13607915Y-7159005D01*
X13640105Y-7110828D01*
X13651409Y-7054000D01*
X13748591Y-7054000D01*
X13759895Y-7110828D01*
X13792085Y-7159005D01*
X13826479Y-7181986D01*
X13808186Y-7191283D01*
X13770509Y-7235303D01*
X13757033Y-7267841D01*
X13768508Y-7290700D01*
X13882700Y-7290700D01*
X13882700Y-7288700D01*
X13917300Y-7288700D01*
X13917300Y-7290700D01*
X14031492Y-7290700D01*
X14042967Y-7267841D01*
X14029491Y-7235303D01*
X13991814Y-7191283D01*
X13973521Y-7181986D01*
X14007915Y-7159005D01*
X14040105Y-7110828D01*
X14051409Y-7054000D01*
X14148591Y-7054000D01*
X14159895Y-7110828D01*
X14192085Y-7159005D01*
X14226479Y-7181986D01*
X14208186Y-7191283D01*
X14170509Y-7235303D01*
X14157033Y-7267841D01*
X14168508Y-7290700D01*
X14282700Y-7290700D01*
X14282700Y-7288700D01*
X14317300Y-7288700D01*
X14317300Y-7290700D01*
X14431492Y-7290700D01*
X14442967Y-7267841D01*
X14429491Y-7235303D01*
X14391814Y-7191283D01*
X14373521Y-7181986D01*
X14407915Y-7159005D01*
X14440105Y-7110828D01*
X14451409Y-7054000D01*
X14548591Y-7054000D01*
X14559895Y-7110828D01*
X14592085Y-7159005D01*
X14626479Y-7181986D01*
X14608186Y-7191283D01*
X14570509Y-7235303D01*
X14557033Y-7267841D01*
X14568508Y-7290700D01*
X14682700Y-7290700D01*
X14682700Y-7288700D01*
X14717300Y-7288700D01*
X14717300Y-7290700D01*
X14831492Y-7290700D01*
X14842967Y-7267841D01*
X14829491Y-7235303D01*
X14791814Y-7191283D01*
X14773521Y-7181986D01*
X14807915Y-7159005D01*
X14840105Y-7110828D01*
X14851409Y-7054000D01*
X14948591Y-7054000D01*
X14959895Y-7110828D01*
X14992085Y-7159005D01*
X15026479Y-7181986D01*
X15008186Y-7191283D01*
X14970509Y-7235303D01*
X14957033Y-7267841D01*
X14968508Y-7290700D01*
X15082700Y-7290700D01*
X15082700Y-7288700D01*
X15117300Y-7288700D01*
X15117300Y-7290700D01*
X15231492Y-7290700D01*
X15242967Y-7267841D01*
X15229491Y-7235303D01*
X15191814Y-7191283D01*
X15173521Y-7181986D01*
X15207915Y-7159005D01*
X15240105Y-7110828D01*
X15251409Y-7054000D01*
X15348591Y-7054000D01*
X15359895Y-7110828D01*
X15392085Y-7159005D01*
X15426479Y-7181986D01*
X15408186Y-7191283D01*
X15370509Y-7235303D01*
X15357033Y-7267841D01*
X15368508Y-7290700D01*
X15482700Y-7290700D01*
X15482700Y-7288700D01*
X15517300Y-7288700D01*
X15517300Y-7290700D01*
X15631492Y-7290700D01*
X15642967Y-7267841D01*
X15629491Y-7235303D01*
X15591814Y-7191283D01*
X15573521Y-7181986D01*
X15607915Y-7159005D01*
X15640105Y-7110828D01*
X15651409Y-7054000D01*
X15748591Y-7054000D01*
X15759895Y-7110828D01*
X15792085Y-7159005D01*
X15826479Y-7181986D01*
X15808186Y-7191283D01*
X15770509Y-7235303D01*
X15757033Y-7267841D01*
X15768508Y-7290700D01*
X15882700Y-7290700D01*
X15882700Y-7288700D01*
X15917300Y-7288700D01*
X15917300Y-7290700D01*
X16031492Y-7290700D01*
X16042967Y-7267841D01*
X16029491Y-7235303D01*
X15991814Y-7191283D01*
X15973521Y-7181986D01*
X16007915Y-7159005D01*
X16040105Y-7110828D01*
X16051409Y-7054000D01*
X16148591Y-7054000D01*
X16159895Y-7110828D01*
X16192085Y-7159005D01*
X16226479Y-7181986D01*
X16208186Y-7191283D01*
X16170509Y-7235303D01*
X16157033Y-7267841D01*
X16168508Y-7290700D01*
X16282700Y-7290700D01*
X16282700Y-7288700D01*
X16317300Y-7288700D01*
X16317300Y-7290700D01*
X16431492Y-7290700D01*
X16442967Y-7267841D01*
X16429491Y-7235303D01*
X16391814Y-7191283D01*
X16373521Y-7181986D01*
X16407915Y-7159005D01*
X16440105Y-7110828D01*
X16451409Y-7054000D01*
X16548591Y-7054000D01*
X16559895Y-7110828D01*
X16592085Y-7159005D01*
X16626479Y-7181986D01*
X16608186Y-7191283D01*
X16570509Y-7235303D01*
X16557033Y-7267841D01*
X16568508Y-7290700D01*
X16682700Y-7290700D01*
X16682700Y-7288700D01*
X16717300Y-7288700D01*
X16717300Y-7290700D01*
X16831492Y-7290700D01*
X16842967Y-7267841D01*
X16829491Y-7235303D01*
X16791814Y-7191283D01*
X16773521Y-7181986D01*
X16807915Y-7159005D01*
X16840105Y-7110828D01*
X16851409Y-7054000D01*
X16948591Y-7054000D01*
X16959895Y-7110828D01*
X16992085Y-7159005D01*
X17026479Y-7181986D01*
X17008186Y-7191283D01*
X16970509Y-7235303D01*
X16957033Y-7267841D01*
X16968508Y-7290700D01*
X17082700Y-7290700D01*
X17082700Y-7288700D01*
X17117300Y-7288700D01*
X17117300Y-7290700D01*
X17231492Y-7290700D01*
X17242967Y-7267841D01*
X17229491Y-7235303D01*
X17191814Y-7191283D01*
X17173521Y-7181986D01*
X17207915Y-7159005D01*
X17240105Y-7110828D01*
X17251409Y-7054000D01*
X17348591Y-7054000D01*
X17359895Y-7110828D01*
X17392085Y-7159005D01*
X17426479Y-7181986D01*
X17408186Y-7191283D01*
X17370509Y-7235303D01*
X17357033Y-7267841D01*
X17368508Y-7290700D01*
X17482700Y-7290700D01*
X17482700Y-7288700D01*
X17517300Y-7288700D01*
X17517300Y-7290700D01*
X17631492Y-7290700D01*
X17642967Y-7267841D01*
X17629491Y-7235303D01*
X17591814Y-7191283D01*
X17573521Y-7181986D01*
X17607915Y-7159005D01*
X17640105Y-7110828D01*
X17651409Y-7054000D01*
X17640105Y-6997171D01*
X17607915Y-6948995D01*
X17603755Y-6946215D01*
X17608532Y-6945316D01*
X17630144Y-6931409D01*
X17644643Y-6910189D01*
X17649744Y-6885000D01*
X17649744Y-6715000D01*
X17645316Y-6691468D01*
X17631409Y-6669856D01*
X17610189Y-6655357D01*
X17585000Y-6650256D01*
X17415000Y-6650256D01*
X17391468Y-6654684D01*
X17369856Y-6668591D01*
X17355357Y-6689811D01*
X17350256Y-6715000D01*
X17350256Y-6885000D01*
X17354684Y-6908532D01*
X17368591Y-6930144D01*
X17389811Y-6944643D01*
X17396554Y-6946009D01*
X17392085Y-6948995D01*
X17359895Y-6997171D01*
X17348591Y-7054000D01*
X17251409Y-7054000D01*
X17240105Y-6997171D01*
X17207915Y-6948995D01*
X17203755Y-6946215D01*
X17208532Y-6945316D01*
X17230144Y-6931409D01*
X17244643Y-6910189D01*
X17249744Y-6885000D01*
X17249744Y-6715000D01*
X17245316Y-6691468D01*
X17231409Y-6669856D01*
X17210189Y-6655357D01*
X17185000Y-6650256D01*
X17015000Y-6650256D01*
X16991468Y-6654684D01*
X16969856Y-6668591D01*
X16955357Y-6689811D01*
X16950256Y-6715000D01*
X16950256Y-6885000D01*
X16954684Y-6908532D01*
X16968591Y-6930144D01*
X16989811Y-6944643D01*
X16996554Y-6946009D01*
X16992085Y-6948995D01*
X16959895Y-6997171D01*
X16948591Y-7054000D01*
X16851409Y-7054000D01*
X16840105Y-6997171D01*
X16807915Y-6948995D01*
X16803755Y-6946215D01*
X16808532Y-6945316D01*
X16830144Y-6931409D01*
X16844643Y-6910189D01*
X16849744Y-6885000D01*
X16849744Y-6715000D01*
X16845316Y-6691468D01*
X16831409Y-6669856D01*
X16810189Y-6655357D01*
X16785000Y-6650256D01*
X16615000Y-6650256D01*
X16591468Y-6654684D01*
X16569856Y-6668591D01*
X16555357Y-6689811D01*
X16550256Y-6715000D01*
X16550256Y-6885000D01*
X16554684Y-6908532D01*
X16568591Y-6930144D01*
X16589811Y-6944643D01*
X16596554Y-6946009D01*
X16592085Y-6948995D01*
X16559895Y-6997171D01*
X16548591Y-7054000D01*
X16451409Y-7054000D01*
X16440105Y-6997171D01*
X16407915Y-6948995D01*
X16403755Y-6946215D01*
X16408532Y-6945316D01*
X16430144Y-6931409D01*
X16444643Y-6910189D01*
X16449744Y-6885000D01*
X16449744Y-6715000D01*
X16445316Y-6691468D01*
X16431409Y-6669856D01*
X16410189Y-6655357D01*
X16385000Y-6650256D01*
X16215000Y-6650256D01*
X16191468Y-6654684D01*
X16169856Y-6668591D01*
X16155357Y-6689811D01*
X16150256Y-6715000D01*
X16150256Y-6885000D01*
X16154684Y-6908532D01*
X16168591Y-6930144D01*
X16189811Y-6944643D01*
X16196554Y-6946009D01*
X16192085Y-6948995D01*
X16159895Y-6997171D01*
X16148591Y-7054000D01*
X16051409Y-7054000D01*
X16040105Y-6997171D01*
X16007915Y-6948995D01*
X16003755Y-6946215D01*
X16008532Y-6945316D01*
X16030144Y-6931409D01*
X16044643Y-6910189D01*
X16049744Y-6885000D01*
X16049744Y-6715000D01*
X16045316Y-6691468D01*
X16031409Y-6669856D01*
X16010189Y-6655357D01*
X15985000Y-6650256D01*
X15815000Y-6650256D01*
X15791468Y-6654684D01*
X15769856Y-6668591D01*
X15755357Y-6689811D01*
X15750256Y-6715000D01*
X15750256Y-6885000D01*
X15754684Y-6908532D01*
X15768591Y-6930144D01*
X15789811Y-6944643D01*
X15796554Y-6946009D01*
X15792085Y-6948995D01*
X15759895Y-6997171D01*
X15748591Y-7054000D01*
X15651409Y-7054000D01*
X15640105Y-6997171D01*
X15607915Y-6948995D01*
X15603755Y-6946215D01*
X15608532Y-6945316D01*
X15630144Y-6931409D01*
X15644643Y-6910189D01*
X15649744Y-6885000D01*
X15649744Y-6715000D01*
X15645316Y-6691468D01*
X15631409Y-6669856D01*
X15610189Y-6655357D01*
X15585000Y-6650256D01*
X15415000Y-6650256D01*
X15391468Y-6654684D01*
X15369856Y-6668591D01*
X15355357Y-6689811D01*
X15350256Y-6715000D01*
X15350256Y-6885000D01*
X15354684Y-6908532D01*
X15368591Y-6930144D01*
X15389811Y-6944643D01*
X15396554Y-6946009D01*
X15392085Y-6948995D01*
X15359895Y-6997171D01*
X15348591Y-7054000D01*
X15251409Y-7054000D01*
X15240105Y-6997171D01*
X15207915Y-6948995D01*
X15203755Y-6946215D01*
X15208532Y-6945316D01*
X15230144Y-6931409D01*
X15244643Y-6910189D01*
X15249744Y-6885000D01*
X15249744Y-6715000D01*
X15245316Y-6691468D01*
X15231409Y-6669856D01*
X15210189Y-6655357D01*
X15185000Y-6650256D01*
X15015000Y-6650256D01*
X14991468Y-6654684D01*
X14969856Y-6668591D01*
X14955357Y-6689811D01*
X14950256Y-6715000D01*
X14950256Y-6885000D01*
X14954684Y-6908532D01*
X14968591Y-6930144D01*
X14989811Y-6944643D01*
X14996554Y-6946009D01*
X14992085Y-6948995D01*
X14959895Y-6997171D01*
X14948591Y-7054000D01*
X14851409Y-7054000D01*
X14840105Y-6997171D01*
X14807915Y-6948995D01*
X14803755Y-6946215D01*
X14808532Y-6945316D01*
X14830144Y-6931409D01*
X14844643Y-6910189D01*
X14849744Y-6885000D01*
X14849744Y-6715000D01*
X14845316Y-6691468D01*
X14831409Y-6669856D01*
X14810189Y-6655357D01*
X14785000Y-6650256D01*
X14615000Y-6650256D01*
X14591468Y-6654684D01*
X14569856Y-6668591D01*
X14555357Y-6689811D01*
X14550256Y-6715000D01*
X14550256Y-6885000D01*
X14554684Y-6908532D01*
X14568591Y-6930144D01*
X14589811Y-6944643D01*
X14596554Y-6946009D01*
X14592085Y-6948995D01*
X14559895Y-6997171D01*
X14548591Y-7054000D01*
X14451409Y-7054000D01*
X14440105Y-6997171D01*
X14407915Y-6948995D01*
X14403755Y-6946215D01*
X14408532Y-6945316D01*
X14430144Y-6931409D01*
X14444643Y-6910189D01*
X14449744Y-6885000D01*
X14449744Y-6715000D01*
X14445316Y-6691468D01*
X14431409Y-6669856D01*
X14410189Y-6655357D01*
X14385000Y-6650256D01*
X14215000Y-6650256D01*
X14191468Y-6654684D01*
X14169856Y-6668591D01*
X14155357Y-6689811D01*
X14150256Y-6715000D01*
X14150256Y-6885000D01*
X14154684Y-6908532D01*
X14168591Y-6930144D01*
X14189811Y-6944643D01*
X14196554Y-6946009D01*
X14192085Y-6948995D01*
X14159895Y-6997171D01*
X14148591Y-7054000D01*
X14051409Y-7054000D01*
X14040105Y-6997171D01*
X14007915Y-6948995D01*
X14003755Y-6946215D01*
X14008532Y-6945316D01*
X14030144Y-6931409D01*
X14044643Y-6910189D01*
X14049744Y-6885000D01*
X14049744Y-6715000D01*
X14045316Y-6691468D01*
X14031409Y-6669856D01*
X14010189Y-6655357D01*
X13985000Y-6650256D01*
X13815000Y-6650256D01*
X13791468Y-6654684D01*
X13769856Y-6668591D01*
X13755357Y-6689811D01*
X13750256Y-6715000D01*
X13750256Y-6885000D01*
X13754684Y-6908532D01*
X13768591Y-6930144D01*
X13789811Y-6944643D01*
X13796554Y-6946009D01*
X13792085Y-6948995D01*
X13759895Y-6997171D01*
X13748591Y-7054000D01*
X13651409Y-7054000D01*
X13640105Y-6997171D01*
X13607915Y-6948995D01*
X13603755Y-6946215D01*
X13608532Y-6945316D01*
X13630144Y-6931409D01*
X13644643Y-6910189D01*
X13649744Y-6885000D01*
X13649744Y-6715000D01*
X13645316Y-6691468D01*
X13631409Y-6669856D01*
X13610189Y-6655357D01*
X13585000Y-6650256D01*
X13415000Y-6650256D01*
X13391468Y-6654684D01*
X13385000Y-6658846D01*
X13385000Y-6420182D01*
X13405601Y-6451014D01*
X13448912Y-6479953D01*
X13500000Y-6490115D01*
X13523884Y-6485364D01*
X13592260Y-6553740D01*
X13616916Y-6570215D01*
X13646000Y-6576000D01*
X13925000Y-6576000D01*
X13954084Y-6570215D01*
X13978740Y-6553740D01*
X14631480Y-5901000D01*
X14878697Y-5901000D01*
X14876692Y-5904000D01*
X14710000Y-5904000D01*
X14686536Y-5908667D01*
X14680916Y-5909785D01*
X14656260Y-5926260D01*
X14446260Y-6136260D01*
X14436908Y-6150256D01*
X14415000Y-6150256D01*
X14391468Y-6154684D01*
X14369856Y-6168591D01*
X14355357Y-6189811D01*
X14350256Y-6215000D01*
X14350256Y-6385000D01*
X14354684Y-6408532D01*
X14368591Y-6430144D01*
X14389811Y-6444643D01*
X14415000Y-6449744D01*
X14585000Y-6449744D01*
X14608532Y-6445316D01*
X14630144Y-6431409D01*
X14644643Y-6410189D01*
X14646009Y-6403446D01*
X14648995Y-6407915D01*
X14697171Y-6440105D01*
X14754000Y-6451409D01*
X14810828Y-6440105D01*
X14859005Y-6407915D01*
X14881986Y-6373521D01*
X14891283Y-6391814D01*
X14935303Y-6429491D01*
X14967841Y-6442967D01*
X14990700Y-6431492D01*
X14990700Y-6317300D01*
X14988700Y-6317300D01*
X14988700Y-6282700D01*
X14990700Y-6282700D01*
X14990700Y-6280700D01*
X15025300Y-6280700D01*
X15025300Y-6282700D01*
X15027300Y-6282700D01*
X15027300Y-6317300D01*
X15025300Y-6317300D01*
X15025300Y-6431492D01*
X15048159Y-6442967D01*
X15080696Y-6429491D01*
X15124717Y-6391814D01*
X15134013Y-6373521D01*
X15156995Y-6407915D01*
X15205171Y-6440105D01*
X15262000Y-6451409D01*
X15318828Y-6440105D01*
X15367005Y-6407915D01*
X15399196Y-6359738D01*
X15410500Y-6302909D01*
X15410500Y-6297091D01*
X15399196Y-6240262D01*
X15382985Y-6216000D01*
X15428520Y-6216000D01*
X15466523Y-6254003D01*
X15466477Y-6306438D01*
X15486758Y-6355523D01*
X15524280Y-6393110D01*
X15573329Y-6413477D01*
X15626438Y-6413523D01*
X15675523Y-6393242D01*
X15713110Y-6355720D01*
X15726522Y-6323421D01*
X15728047Y-6331088D01*
X15756986Y-6374399D01*
X15800296Y-6403338D01*
X15851385Y-6413500D01*
X15856615Y-6413500D01*
X15907704Y-6403338D01*
X15951014Y-6374399D01*
X15975228Y-6338159D01*
X16167033Y-6338159D01*
X16180509Y-6370696D01*
X16218186Y-6414717D01*
X16269840Y-6440968D01*
X16292700Y-6429615D01*
X16292700Y-6315300D01*
X16327300Y-6315300D01*
X16327300Y-6429615D01*
X16350160Y-6440968D01*
X16401814Y-6414717D01*
X16439491Y-6370696D01*
X16452967Y-6338159D01*
X16441492Y-6315300D01*
X16327300Y-6315300D01*
X16292700Y-6315300D01*
X16178508Y-6315300D01*
X16167033Y-6338159D01*
X15975228Y-6338159D01*
X15979953Y-6331088D01*
X15990115Y-6280000D01*
X15979953Y-6228912D01*
X15951014Y-6185601D01*
X15912699Y-6160000D01*
X15951014Y-6134399D01*
X15963308Y-6116000D01*
X16008520Y-6116000D01*
X16116260Y-6223740D01*
X16140916Y-6240215D01*
X16170000Y-6246000D01*
X16171937Y-6246000D01*
X16167033Y-6257841D01*
X16178508Y-6280700D01*
X16292700Y-6280700D01*
X16292700Y-6278700D01*
X16327300Y-6278700D01*
X16327300Y-6280700D01*
X16441492Y-6280700D01*
X16452967Y-6257841D01*
X16448063Y-6246000D01*
X16510000Y-6246000D01*
X16539084Y-6240215D01*
X16563740Y-6223740D01*
X16793740Y-5993740D01*
X16810215Y-5969084D01*
X16816000Y-5940000D01*
X16816000Y-4800000D01*
X16812715Y-4783486D01*
X16841180Y-4771724D01*
X16881582Y-4731392D01*
X16903475Y-4678669D01*
X16903525Y-4621581D01*
X16892955Y-4596000D01*
X16950520Y-4596000D01*
X17155879Y-4801359D01*
X17148591Y-4838000D01*
X17159895Y-4894829D01*
X17192085Y-4943005D01*
X17225003Y-4965000D01*
X17192085Y-4986995D01*
X17159895Y-5035172D01*
X17148591Y-5092000D01*
X17159895Y-5148829D01*
X17192085Y-5197005D01*
X17225003Y-5219000D01*
X17192085Y-5240995D01*
X17159895Y-5289172D01*
X17148591Y-5346000D01*
X17159895Y-5402829D01*
X17192085Y-5451005D01*
X17196245Y-5453785D01*
X17191468Y-5454684D01*
X17169856Y-5468591D01*
X17155357Y-5489811D01*
X17150256Y-5515000D01*
X17150256Y-5685000D01*
X17154684Y-5708532D01*
X17168591Y-5730144D01*
X17189811Y-5744643D01*
X17215000Y-5749744D01*
X17385000Y-5749744D01*
X17408532Y-5745316D01*
X17430144Y-5731409D01*
X17444643Y-5710189D01*
X17449744Y-5685000D01*
X17449744Y-5515000D01*
X17445316Y-5491468D01*
X17431409Y-5469856D01*
X17410189Y-5455357D01*
X17403446Y-5453991D01*
X17407915Y-5451005D01*
X17440105Y-5402829D01*
X17451409Y-5346000D01*
X17440105Y-5289172D01*
X17407915Y-5240995D01*
X17374997Y-5219000D01*
X17407915Y-5197005D01*
X17440105Y-5148829D01*
X17451409Y-5092000D01*
X17440105Y-5035172D01*
X17407915Y-4986995D01*
X17374997Y-4965000D01*
X17407915Y-4943005D01*
X17440105Y-4894829D01*
X17451409Y-4838000D01*
X17440105Y-4781172D01*
X17407915Y-4732995D01*
X17374997Y-4711000D01*
X17407915Y-4689005D01*
X17440105Y-4640829D01*
X17451409Y-4584000D01*
X17440105Y-4527172D01*
X17407915Y-4478995D01*
X17373521Y-4456014D01*
X17391814Y-4446717D01*
X17429491Y-4402697D01*
X17442967Y-4370159D01*
X17431492Y-4347300D01*
X17317300Y-4347300D01*
X17317300Y-4349300D01*
X17282700Y-4349300D01*
X17282700Y-4347300D01*
X17168508Y-4347300D01*
X17157033Y-4370159D01*
X17170509Y-4402697D01*
X17208186Y-4446717D01*
X17226479Y-4456014D01*
X17192085Y-4478995D01*
X17159895Y-4527172D01*
X17149402Y-4579922D01*
X17035740Y-4466260D01*
X17011084Y-4449785D01*
X16982000Y-4444000D01*
X16896588Y-4444000D01*
X16905309Y-4417094D01*
X16900790Y-4360185D01*
X16887707Y-4328600D01*
X16863651Y-4320815D01*
X16784466Y-4400000D01*
X16785880Y-4401414D01*
X16761414Y-4425880D01*
X16760000Y-4424466D01*
X16758586Y-4425880D01*
X16734120Y-4401414D01*
X16735534Y-4400000D01*
X16656349Y-4320815D01*
X16632293Y-4328600D01*
X16614691Y-4382906D01*
X16615015Y-4386987D01*
X16600000Y-4384000D01*
X16016246Y-4384000D01*
X16013033Y-4380781D01*
X16001519Y-4376000D01*
X16094000Y-4376000D01*
X16123084Y-4370215D01*
X16147740Y-4353740D01*
X16191863Y-4309617D01*
X16211385Y-4313500D01*
X16216615Y-4313500D01*
X16267704Y-4303338D01*
X16278162Y-4296350D01*
X16680815Y-4296350D01*
X16760000Y-4375534D01*
X16839185Y-4296350D01*
X16837079Y-4289841D01*
X17157033Y-4289841D01*
X17168508Y-4312700D01*
X17282700Y-4312700D01*
X17282700Y-4198385D01*
X17317300Y-4198385D01*
X17317300Y-4312700D01*
X17431492Y-4312700D01*
X17442967Y-4289841D01*
X17429491Y-4257304D01*
X17391814Y-4213283D01*
X17340160Y-4187032D01*
X17317300Y-4198385D01*
X17282700Y-4198385D01*
X17259840Y-4187032D01*
X17208186Y-4213283D01*
X17170509Y-4257304D01*
X17157033Y-4289841D01*
X16837079Y-4289841D01*
X16831400Y-4272293D01*
X16777094Y-4254691D01*
X16720185Y-4259210D01*
X16688600Y-4272293D01*
X16680815Y-4296350D01*
X16278162Y-4296350D01*
X16311014Y-4274399D01*
X16339953Y-4231088D01*
X16350115Y-4180000D01*
X16341363Y-4136000D01*
X17487300Y-4136000D01*
X17487300Y-5956489D01*
X17471581Y-5956475D01*
X17418820Y-5978276D01*
X17400003Y-5997060D01*
X17381392Y-5978418D01*
X17328669Y-5956525D01*
X17271581Y-5956475D01*
X17218820Y-5978276D01*
X17200003Y-5997060D01*
X17181392Y-5978418D01*
X17128669Y-5956525D01*
X17071581Y-5956475D01*
X17018820Y-5978276D01*
X16978418Y-6018608D01*
X16956525Y-6071331D01*
X16956475Y-6128419D01*
X16978276Y-6181180D01*
X17018608Y-6221582D01*
X17071331Y-6243475D01*
X17128419Y-6243525D01*
X17181180Y-6221724D01*
X17199997Y-6202940D01*
X17218608Y-6221582D01*
X17271331Y-6243475D01*
X17328419Y-6243525D01*
X17381180Y-6221724D01*
X17399997Y-6202940D01*
X17418608Y-6221582D01*
X17471331Y-6243475D01*
X17528419Y-6243525D01*
X17581180Y-6221724D01*
X17599997Y-6202940D01*
X17618608Y-6221582D01*
X17671331Y-6243475D01*
X17728419Y-6243525D01*
X17781180Y-6221724D01*
X17799997Y-6202940D01*
X17818608Y-6221582D01*
X17871331Y-6243475D01*
X17928419Y-6243525D01*
X17981180Y-6221724D01*
X17999997Y-6202940D01*
X18018608Y-6221582D01*
X18071331Y-6243475D01*
X18128419Y-6243525D01*
X18181180Y-6221724D01*
X18199997Y-6202940D01*
X18218608Y-6221582D01*
X18271331Y-6243475D01*
X18328419Y-6243525D01*
X18381180Y-6221724D01*
X18399997Y-6202940D01*
X18418608Y-6221582D01*
X18471331Y-6243475D01*
X18528419Y-6243525D01*
X18581180Y-6221724D01*
X18599997Y-6202940D01*
X18618608Y-6221582D01*
X18671331Y-6243475D01*
X18717708Y-6243515D01*
X18686890Y-6274280D01*
X18666523Y-6323329D01*
X18666477Y-6376438D01*
X18686758Y-6425523D01*
X18711272Y-6450079D01*
X18702631Y-6446500D01*
X18633175Y-6446500D01*
X18617300Y-6462375D01*
X18617300Y-6582700D01*
X18737625Y-6582700D01*
X18753500Y-6566825D01*
X18753500Y-6497369D01*
X18743833Y-6474030D01*
X18739043Y-6469240D01*
X18773329Y-6483477D01*
X18826438Y-6483523D01*
X18875523Y-6463242D01*
X18913110Y-6425720D01*
X18926522Y-6393421D01*
X18928047Y-6401088D01*
X18956986Y-6444399D01*
X18957666Y-6444853D01*
X18753500Y-6649020D01*
X18753500Y-6633175D01*
X18737625Y-6617300D01*
X18617300Y-6617300D01*
X18617300Y-6737625D01*
X18633175Y-6753500D01*
X18649020Y-6753500D01*
X18608520Y-6794000D01*
X18274472Y-6794000D01*
X18283500Y-6748615D01*
X18283500Y-6743385D01*
X18282822Y-6739973D01*
X18315333Y-6753473D01*
X18376399Y-6753526D01*
X18432837Y-6730207D01*
X18450584Y-6712491D01*
X18456167Y-6725970D01*
X18474030Y-6743833D01*
X18497369Y-6753500D01*
X18566825Y-6753500D01*
X18582700Y-6737625D01*
X18582700Y-6617300D01*
X18580700Y-6617300D01*
X18580700Y-6582700D01*
X18582700Y-6582700D01*
X18582700Y-6462375D01*
X18566825Y-6446500D01*
X18497369Y-6446500D01*
X18474030Y-6456167D01*
X18456167Y-6474030D01*
X18450588Y-6487499D01*
X18433064Y-6469945D01*
X18376667Y-6446527D01*
X18315601Y-6446473D01*
X18259163Y-6469793D01*
X18215945Y-6512936D01*
X18192527Y-6569333D01*
X18192484Y-6618335D01*
X18150000Y-6609885D01*
X18098912Y-6620047D01*
X18055601Y-6648986D01*
X18036436Y-6677668D01*
X18031409Y-6669856D01*
X18010189Y-6655357D01*
X17985000Y-6650256D01*
X17815000Y-6650256D01*
X17791468Y-6654684D01*
X17769856Y-6668591D01*
X17755357Y-6689811D01*
X17750256Y-6715000D01*
X17750256Y-6885000D01*
X17754684Y-6908532D01*
X17768591Y-6930144D01*
X17789811Y-6944643D01*
X17796554Y-6946009D01*
X17792085Y-6948995D01*
X17759895Y-6997171D01*
X17748591Y-7054000D01*
X17759895Y-7110828D01*
X17792085Y-7159005D01*
X17826479Y-7181986D01*
X17808186Y-7191283D01*
X17770509Y-7235303D01*
X17757033Y-7267841D01*
X17768508Y-7290700D01*
X17882700Y-7290700D01*
X17882700Y-7288700D01*
X17917300Y-7288700D01*
X17917300Y-7290700D01*
X18031492Y-7290700D01*
X18042967Y-7267841D01*
X18029491Y-7235303D01*
X17991814Y-7191283D01*
X17973521Y-7181986D01*
X18007915Y-7159005D01*
X18040105Y-7110828D01*
X18045405Y-7084185D01*
X18074280Y-7113110D01*
X18123329Y-7133477D01*
X18176438Y-7133523D01*
X18213808Y-7118082D01*
X18192527Y-7169333D01*
X18192474Y-7230399D01*
X18215793Y-7286837D01*
X18258936Y-7330055D01*
X18315333Y-7353473D01*
X18376399Y-7353526D01*
X18432837Y-7330207D01*
X18450584Y-7312491D01*
X18456167Y-7325970D01*
X18474030Y-7343833D01*
X18497369Y-7353500D01*
X18566825Y-7353500D01*
X18582700Y-7337625D01*
X18582700Y-7217300D01*
X18617300Y-7217300D01*
X18617300Y-7337625D01*
X18633175Y-7353500D01*
X18702631Y-7353500D01*
X18725970Y-7343833D01*
X18743833Y-7325970D01*
X18753500Y-7302631D01*
X18753500Y-7233175D01*
X18737625Y-7217300D01*
X18617300Y-7217300D01*
X18582700Y-7217300D01*
X18580700Y-7217300D01*
X18580700Y-7182700D01*
X18582700Y-7182700D01*
X18582700Y-7062375D01*
X18617300Y-7062375D01*
X18617300Y-7182700D01*
X18737625Y-7182700D01*
X18753500Y-7166825D01*
X18753500Y-7097369D01*
X18743833Y-7074030D01*
X18725970Y-7056167D01*
X18702631Y-7046500D01*
X18633175Y-7046500D01*
X18617300Y-7062375D01*
X18582700Y-7062375D01*
X18566825Y-7046500D01*
X18497369Y-7046500D01*
X18474030Y-7056167D01*
X18456167Y-7074030D01*
X18450588Y-7087499D01*
X18433064Y-7069945D01*
X18376667Y-7046527D01*
X18315601Y-7046473D01*
X18266898Y-7066597D01*
X18276173Y-7044262D01*
X18776461Y-7044262D01*
X18810416Y-7126437D01*
X18873232Y-7189364D01*
X18955348Y-7223461D01*
X19044262Y-7223539D01*
X19126437Y-7189584D01*
X19189364Y-7126768D01*
X19223461Y-7044652D01*
X19223539Y-6955738D01*
X19189585Y-6873563D01*
X19126768Y-6810636D01*
X19044652Y-6776539D01*
X18955738Y-6776461D01*
X18873563Y-6810415D01*
X18810636Y-6873232D01*
X18776539Y-6955348D01*
X18776461Y-7044262D01*
X18276173Y-7044262D01*
X18283477Y-7026671D01*
X18283523Y-6973562D01*
X18272135Y-6946000D01*
X18640000Y-6946000D01*
X18669084Y-6940215D01*
X18693740Y-6923740D01*
X19107740Y-6509740D01*
X19124215Y-6485084D01*
X19129440Y-6458814D01*
X19151014Y-6444399D01*
X19179953Y-6401088D01*
X19190115Y-6350000D01*
X19179953Y-6298912D01*
X19151014Y-6255601D01*
X19107704Y-6226662D01*
X19056615Y-6216500D01*
X19051385Y-6216500D01*
X19000296Y-6226662D01*
X18956986Y-6255601D01*
X18928047Y-6298912D01*
X18926517Y-6306604D01*
X18913242Y-6274477D01*
X18882303Y-6243485D01*
X18928419Y-6243525D01*
X18981180Y-6221724D01*
X19021582Y-6181392D01*
X19043475Y-6128669D01*
X19043525Y-6071581D01*
X19023134Y-6022231D01*
X19053762Y-6042696D01*
X19110591Y-6054000D01*
X19116409Y-6054000D01*
X19173238Y-6042696D01*
X19218130Y-6012700D01*
X19287300Y-6012700D01*
X19287300Y-6075445D01*
X19286520Y-6077324D01*
X19286480Y-6122477D01*
X19287300Y-6124461D01*
X19287300Y-6225445D01*
X19286520Y-6227324D01*
X19286480Y-6272477D01*
X19287300Y-6274461D01*
X19287300Y-6375445D01*
X19286520Y-6377324D01*
X19286480Y-6422477D01*
X19287300Y-6424461D01*
X19287300Y-6525445D01*
X19286520Y-6527324D01*
X19286480Y-6572477D01*
X19287300Y-6574461D01*
X19287300Y-6675445D01*
X19286520Y-6677324D01*
X19286480Y-6722477D01*
X19287300Y-6724461D01*
X19287300Y-6825445D01*
X19286520Y-6827324D01*
X19286480Y-6872477D01*
X19287300Y-6874461D01*
X19287300Y-6975445D01*
X19286520Y-6977324D01*
X19286480Y-7022477D01*
X19287300Y-7024461D01*
X19287300Y-7125445D01*
X19286520Y-7127324D01*
X19286480Y-7172477D01*
X19287300Y-7174461D01*
X19287300Y-7275445D01*
X19286520Y-7277324D01*
X19286480Y-7322477D01*
X19287300Y-7324461D01*
X19287300Y-7425445D01*
X19286520Y-7427324D01*
X19286518Y-7429000D01*
X17983386Y-7429000D01*
X17991814Y-7424717D01*
X18029491Y-7380696D01*
X18042967Y-7348159D01*
X18031492Y-7325300D01*
X17917300Y-7325300D01*
X17917300Y-7327300D01*
X17882700Y-7327300D01*
X17882700Y-7325300D01*
X17768508Y-7325300D01*
X17757033Y-7348159D01*
X17770509Y-7380696D01*
X17808186Y-7424717D01*
X17816614Y-7429000D01*
X17583386Y-7429000D01*
X17591814Y-7424717D01*
X17629491Y-7380696D01*
X17642967Y-7348159D01*
X17631492Y-7325300D01*
X17517300Y-7325300D01*
X17517300Y-7327300D01*
X17482700Y-7327300D01*
X17482700Y-7325300D01*
X17368508Y-7325300D01*
X17357033Y-7348159D01*
X17370509Y-7380696D01*
X17408186Y-7424717D01*
X17416614Y-7429000D01*
X17183386Y-7429000D01*
X17191814Y-7424717D01*
X17229491Y-7380696D01*
X17242967Y-7348159D01*
X17231492Y-7325300D01*
X17117300Y-7325300D01*
X17117300Y-7327300D01*
X17082700Y-7327300D01*
X17082700Y-7325300D01*
X16968508Y-7325300D01*
X16957033Y-7348159D01*
X16970509Y-7380696D01*
X17008186Y-7424717D01*
X17016614Y-7429000D01*
X16783386Y-7429000D01*
X16791814Y-7424717D01*
X16829491Y-7380696D01*
X16842967Y-7348159D01*
X16831492Y-7325300D01*
X16717300Y-7325300D01*
X16717300Y-7327300D01*
X16682700Y-7327300D01*
X16682700Y-7325300D01*
X16568508Y-7325300D01*
X16557033Y-7348159D01*
X16570509Y-7380696D01*
X16608186Y-7424717D01*
X16616614Y-7429000D01*
X16383386Y-7429000D01*
X16391814Y-7424717D01*
X16429491Y-7380696D01*
X16442967Y-7348159D01*
X16431492Y-7325300D01*
X16317300Y-7325300D01*
X16317300Y-7327300D01*
X16282700Y-7327300D01*
X16282700Y-7325300D01*
X16168508Y-7325300D01*
X16157033Y-7348159D01*
X16170509Y-7380696D01*
X16208186Y-7424717D01*
X16216614Y-7429000D01*
X15983386Y-7429000D01*
X15991814Y-7424717D01*
X16029491Y-7380696D01*
X16042967Y-7348159D01*
X16031492Y-7325300D01*
X15917300Y-7325300D01*
X15917300Y-7327300D01*
X15882700Y-7327300D01*
X15882700Y-7325300D01*
X15768508Y-7325300D01*
X15757033Y-7348159D01*
X15770509Y-7380696D01*
X15808186Y-7424717D01*
X15816614Y-7429000D01*
X15583386Y-7429000D01*
X15591814Y-7424717D01*
X15629491Y-7380696D01*
X15642967Y-7348159D01*
X15631492Y-7325300D01*
X15517300Y-7325300D01*
X15517300Y-7327300D01*
X15482700Y-7327300D01*
X15482700Y-7325300D01*
X15368508Y-7325300D01*
X15357033Y-7348159D01*
X15370509Y-7380696D01*
X15408186Y-7424717D01*
X15416614Y-7429000D01*
X15183386Y-7429000D01*
X15191814Y-7424717D01*
X15229491Y-7380696D01*
X15242967Y-7348159D01*
X15231492Y-7325300D01*
X15117300Y-7325300D01*
X15117300Y-7327300D01*
X15082700Y-7327300D01*
X15082700Y-7325300D01*
X14968508Y-7325300D01*
X14957033Y-7348159D01*
X14970509Y-7380696D01*
X15008186Y-7424717D01*
X15016614Y-7429000D01*
X14783386Y-7429000D01*
X14791814Y-7424717D01*
X14829491Y-7380696D01*
X14842967Y-7348159D01*
X14831492Y-7325300D01*
X14717300Y-7325300D01*
X14717300Y-7327300D01*
X14682700Y-7327300D01*
X14682700Y-7325300D01*
X14568508Y-7325300D01*
X14557033Y-7348159D01*
X14570509Y-7380696D01*
X14608186Y-7424717D01*
X14616614Y-7429000D01*
X14383386Y-7429000D01*
X14391814Y-7424717D01*
X14429491Y-7380696D01*
X14442967Y-7348159D01*
X14431492Y-7325300D01*
X14317300Y-7325300D01*
X14317300Y-7327300D01*
X14282700Y-7327300D01*
X14282700Y-7325300D01*
X14168508Y-7325300D01*
X14157033Y-7348159D01*
X14170509Y-7380696D01*
X14208186Y-7424717D01*
X14216614Y-7429000D01*
X13983386Y-7429000D01*
X13991814Y-7424717D01*
X14029491Y-7380696D01*
X14042967Y-7348159D01*
X14031492Y-7325300D01*
X13917300Y-7325300D01*
X13917300Y-7327300D01*
X13882700Y-7327300D01*
X13882700Y-7325300D01*
X13768508Y-7325300D01*
X13757033Y-7348159D01*
X13770509Y-7380696D01*
X13808186Y-7424717D01*
X13816614Y-7429000D01*
X13583386Y-7429000D01*
X13591814Y-7424717D01*
X13629491Y-7380696D01*
X13642967Y-7348159D01*
X13631492Y-7325300D01*
X13517300Y-7325300D01*
X13517300Y-7327300D01*
X13482700Y-7327300D01*
X13482700Y-7325300D01*
X13368508Y-7325300D01*
X13357033Y-7348159D01*
X13370509Y-7380696D01*
X13408186Y-7424717D01*
X13416614Y-7429000D01*
X12571000Y-7429000D01*
X12571000Y-5949869D01*
X12669000Y-5949869D01*
X12669000Y-5996825D01*
X12684875Y-6012700D01*
X12782700Y-6012700D01*
X12782700Y-5914875D01*
X12817300Y-5914875D01*
X12817300Y-6012700D01*
X12915125Y-6012700D01*
X12931000Y-5996825D01*
X12931000Y-5949869D01*
X12921333Y-5926530D01*
X12903470Y-5908667D01*
X12880131Y-5899000D01*
X12833175Y-5899000D01*
X12817300Y-5914875D01*
X12782700Y-5914875D01*
X12766825Y-5899000D01*
X12719869Y-5899000D01*
X12696530Y-5908667D01*
X12678667Y-5926530D01*
X12669000Y-5949869D01*
X12571000Y-5949869D01*
X12571000Y-3419869D01*
X12669000Y-3419869D01*
X12669000Y-3466825D01*
X12684875Y-3482700D01*
X12782700Y-3482700D01*
X12782700Y-3384875D01*
X12817300Y-3384875D01*
X12817300Y-3482700D01*
X12915125Y-3482700D01*
X12931000Y-3466825D01*
X12931000Y-3419869D01*
X13169000Y-3419869D01*
X13169000Y-3466825D01*
X13184875Y-3482700D01*
X13282700Y-3482700D01*
X13282700Y-3384875D01*
X13317300Y-3384875D01*
X13317300Y-3482700D01*
X13415125Y-3482700D01*
X13431000Y-3466825D01*
X13431000Y-3419869D01*
X13421333Y-3396530D01*
X13403470Y-3378667D01*
X13380131Y-3369000D01*
X13333175Y-3369000D01*
X13317300Y-3384875D01*
X13282700Y-3384875D01*
X13266825Y-3369000D01*
X13219869Y-3369000D01*
X13196530Y-3378667D01*
X13178667Y-3396530D01*
X13169000Y-3419869D01*
X12931000Y-3419869D01*
X12921333Y-3396530D01*
X12903470Y-3378667D01*
X12880131Y-3369000D01*
X12833175Y-3369000D01*
X12817300Y-3384875D01*
X12782700Y-3384875D01*
X12766825Y-3369000D01*
X12719869Y-3369000D01*
X12696530Y-3378667D01*
X12678667Y-3396530D01*
X12669000Y-3419869D01*
X12571000Y-3419869D01*
X12571000Y-3044262D01*
X12776461Y-3044262D01*
X12810415Y-3126437D01*
X12873232Y-3189364D01*
X12955348Y-3223461D01*
X13044262Y-3223539D01*
X13126437Y-3189584D01*
X13135629Y-3180409D01*
X13285627Y-3180409D01*
X13305885Y-3229438D01*
X13343365Y-3266983D01*
X13392359Y-3287327D01*
X13445409Y-3287373D01*
X13494438Y-3267115D01*
X13531983Y-3229635D01*
X13552327Y-3180641D01*
X13552373Y-3127591D01*
X13532115Y-3078562D01*
X13494635Y-3041017D01*
X13445641Y-3020673D01*
X13392591Y-3020627D01*
X13343562Y-3040885D01*
X13306017Y-3078365D01*
X13285673Y-3127359D01*
X13285627Y-3180409D01*
X13135629Y-3180409D01*
X13189364Y-3126768D01*
X13223461Y-3044652D01*
X13223539Y-2955738D01*
X13189584Y-2873563D01*
X13148999Y-2832906D01*
X14554691Y-2832906D01*
X14559210Y-2889815D01*
X14572293Y-2921400D01*
X14596349Y-2929185D01*
X14675534Y-2850000D01*
X14724466Y-2850000D01*
X14803650Y-2929185D01*
X14827707Y-2921400D01*
X14845309Y-2867094D01*
X14840790Y-2810185D01*
X14827707Y-2778600D01*
X14803813Y-2770868D01*
X15280900Y-2770868D01*
X15280900Y-2829132D01*
X15293467Y-2892313D01*
X15329257Y-2945875D01*
X15382819Y-2981665D01*
X15446000Y-2994232D01*
X15509181Y-2981665D01*
X15562743Y-2945875D01*
X15574346Y-2928511D01*
X15596155Y-2954550D01*
X15653483Y-2984459D01*
X15657228Y-2984863D01*
X15682700Y-2973619D01*
X15682700Y-2817300D01*
X15680700Y-2817300D01*
X15680700Y-2782700D01*
X15682700Y-2782700D01*
X15682700Y-2626381D01*
X15717300Y-2626381D01*
X15717300Y-2782700D01*
X15719300Y-2782700D01*
X15719300Y-2817300D01*
X15717300Y-2817300D01*
X15717300Y-2973619D01*
X15742772Y-2984863D01*
X15746517Y-2984459D01*
X15803845Y-2954550D01*
X15825654Y-2928511D01*
X15837257Y-2945875D01*
X15890819Y-2981665D01*
X15954000Y-2994232D01*
X16017181Y-2981665D01*
X16070743Y-2945875D01*
X16079409Y-2932906D01*
X16254691Y-2932906D01*
X16259210Y-2989815D01*
X16272293Y-3021400D01*
X16296349Y-3029185D01*
X16375534Y-2950000D01*
X16424466Y-2950000D01*
X16503650Y-3029185D01*
X16527707Y-3021400D01*
X16545309Y-2967094D01*
X16540790Y-2910185D01*
X16527707Y-2878600D01*
X16503650Y-2870815D01*
X16424466Y-2950000D01*
X16375534Y-2950000D01*
X16296349Y-2870815D01*
X16272293Y-2878600D01*
X16254691Y-2932906D01*
X16079409Y-2932906D01*
X16106532Y-2892313D01*
X16119100Y-2829132D01*
X16119100Y-2770868D01*
X16106532Y-2707687D01*
X16070743Y-2654125D01*
X16017181Y-2618335D01*
X15954000Y-2605768D01*
X15890819Y-2618335D01*
X15837257Y-2654125D01*
X15825654Y-2671489D01*
X15803845Y-2645450D01*
X15746517Y-2615541D01*
X15742772Y-2615137D01*
X15717300Y-2626381D01*
X15682700Y-2626381D01*
X15657228Y-2615137D01*
X15653483Y-2615541D01*
X15596155Y-2645450D01*
X15574346Y-2671489D01*
X15562743Y-2654125D01*
X15509181Y-2618335D01*
X15446000Y-2605768D01*
X15382819Y-2618335D01*
X15329257Y-2654125D01*
X15293467Y-2707687D01*
X15280900Y-2770868D01*
X14803813Y-2770868D01*
X14803650Y-2770815D01*
X14724466Y-2850000D01*
X14675534Y-2850000D01*
X14596349Y-2770815D01*
X14572293Y-2778600D01*
X14554691Y-2832906D01*
X13148999Y-2832906D01*
X13126768Y-2810636D01*
X13044652Y-2776539D01*
X12955738Y-2776461D01*
X12873563Y-2810415D01*
X12810636Y-2873232D01*
X12776539Y-2955348D01*
X12776461Y-3044262D01*
X12571000Y-3044262D01*
X12571000Y-2742262D01*
X13347204Y-2742262D01*
X13353729Y-2765271D01*
X13404340Y-2781170D01*
X13457183Y-2776491D01*
X13484271Y-2765271D01*
X13490796Y-2742262D01*
X14109204Y-2742262D01*
X14115729Y-2765271D01*
X14166340Y-2781170D01*
X14219183Y-2776491D01*
X14246271Y-2765271D01*
X14251637Y-2746350D01*
X14620815Y-2746350D01*
X14700000Y-2825534D01*
X14779185Y-2746350D01*
X14771400Y-2722293D01*
X14717094Y-2704691D01*
X14660185Y-2709210D01*
X14628600Y-2722293D01*
X14620815Y-2746350D01*
X14251637Y-2746350D01*
X14252796Y-2742262D01*
X14181000Y-2670466D01*
X14109204Y-2742262D01*
X13490796Y-2742262D01*
X13419000Y-2670466D01*
X13347204Y-2742262D01*
X12571000Y-2742262D01*
X12571000Y-2571000D01*
X13319534Y-2571000D01*
X13322738Y-2574204D01*
G36*
X14253329Y-4133477D02*
X14306438Y-4133523D01*
X14354898Y-4113500D01*
X14727987Y-4113500D01*
X14902062Y-4287575D01*
X14878600Y-4297293D01*
X14870815Y-4321350D01*
X14950000Y-4400534D01*
X14951414Y-4399120D01*
X14975880Y-4423586D01*
X14974466Y-4425000D01*
X15053650Y-4504185D01*
X15074644Y-4497391D01*
X15078276Y-4506180D01*
X15118608Y-4546582D01*
X15171331Y-4568475D01*
X15221038Y-4568518D01*
X15439019Y-4786499D01*
X15421483Y-4786484D01*
X15387106Y-4800688D01*
X15360781Y-4826967D01*
X15346516Y-4861320D01*
X15346512Y-4866008D01*
X15296260Y-4916260D01*
X15279785Y-4940916D01*
X15274000Y-4970000D01*
X15274000Y-5543520D01*
X15251519Y-5566001D01*
X15251524Y-5560572D01*
X15230483Y-5509649D01*
X15191556Y-5470654D01*
X15181685Y-5466555D01*
X15188546Y-5444012D01*
X15113000Y-5368466D01*
X15037454Y-5444012D01*
X15044306Y-5466527D01*
X15034648Y-5470517D01*
X14995654Y-5509444D01*
X14994592Y-5512000D01*
X14665365Y-5512000D01*
X14663224Y-5506820D01*
X14622892Y-5466418D01*
X14570169Y-5444525D01*
X14513081Y-5444475D01*
X14460320Y-5466276D01*
X14419918Y-5506608D01*
X14416176Y-5515619D01*
X14395150Y-5508815D01*
X14315966Y-5588000D01*
X14395150Y-5667185D01*
X14416144Y-5660391D01*
X14419776Y-5669180D01*
X14460108Y-5709582D01*
X14476239Y-5716281D01*
X13914520Y-6278000D01*
X13908440Y-6278000D01*
X13894399Y-6256986D01*
X13851088Y-6228047D01*
X13843395Y-6226516D01*
X13875523Y-6213242D01*
X13913110Y-6175720D01*
X13933477Y-6126671D01*
X13933523Y-6073562D01*
X13913242Y-6024477D01*
X13875720Y-5986890D01*
X13826671Y-5966523D01*
X13773562Y-5966477D01*
X13724477Y-5986758D01*
X13687170Y-6024000D01*
X13612765Y-6024000D01*
X13575720Y-5986890D01*
X13526671Y-5966523D01*
X13473957Y-5966477D01*
X13385000Y-5877520D01*
X13385000Y-5869940D01*
X13411904Y-5896891D01*
X13490346Y-5929463D01*
X13575281Y-5929537D01*
X13653780Y-5897102D01*
X13713891Y-5837096D01*
X13746463Y-5758654D01*
X13746521Y-5691650D01*
X14212315Y-5691650D01*
X14220100Y-5715707D01*
X14274406Y-5733309D01*
X14331315Y-5728790D01*
X14362900Y-5715707D01*
X14370685Y-5691650D01*
X14291500Y-5612466D01*
X14212315Y-5691650D01*
X13746521Y-5691650D01*
X13746537Y-5673718D01*
X13714102Y-5595220D01*
X13689830Y-5570906D01*
X14146191Y-5570906D01*
X14150710Y-5627815D01*
X14163793Y-5659400D01*
X14187849Y-5667185D01*
X14267034Y-5588000D01*
X14187849Y-5508815D01*
X14163793Y-5516600D01*
X14146191Y-5570906D01*
X13689830Y-5570906D01*
X13654096Y-5535109D01*
X13596064Y-5511012D01*
X13724454Y-5511012D01*
X13731618Y-5534552D01*
X13784105Y-5551316D01*
X13839011Y-5546718D01*
X13868382Y-5534552D01*
X13875546Y-5511012D01*
X13800000Y-5435466D01*
X13724454Y-5511012D01*
X13596064Y-5511012D01*
X13575654Y-5502537D01*
X13490718Y-5502463D01*
X13412220Y-5534898D01*
X13385000Y-5562071D01*
X13385000Y-5395105D01*
X13659684Y-5395105D01*
X13664282Y-5450011D01*
X13676448Y-5479382D01*
X13699988Y-5486546D01*
X13775534Y-5411000D01*
X13824466Y-5411000D01*
X13900012Y-5486546D01*
X13907230Y-5484350D01*
X14212315Y-5484350D01*
X14291500Y-5563534D01*
X14370685Y-5484350D01*
X14362900Y-5460293D01*
X14308594Y-5442691D01*
X14251685Y-5447210D01*
X14220100Y-5460293D01*
X14212315Y-5484350D01*
X13907230Y-5484350D01*
X13923552Y-5479382D01*
X13940316Y-5426895D01*
X13935718Y-5371989D01*
X13923552Y-5342618D01*
X13900012Y-5335454D01*
X13824466Y-5411000D01*
X13775534Y-5411000D01*
X13699988Y-5335454D01*
X13676448Y-5342618D01*
X13659684Y-5395105D01*
X13385000Y-5395105D01*
X13385000Y-5127013D01*
X13698513Y-4813500D01*
X13717604Y-4813500D01*
X13721444Y-4817346D01*
X13744687Y-4826998D01*
X13721648Y-4836517D01*
X13682654Y-4875444D01*
X13661524Y-4926330D01*
X13661476Y-4981429D01*
X13682517Y-5032352D01*
X13705631Y-5055506D01*
X13682654Y-5078444D01*
X13661524Y-5129330D01*
X13661476Y-5184429D01*
X13682517Y-5235352D01*
X13721444Y-5274346D01*
X13742320Y-5283015D01*
X13731618Y-5287448D01*
X13724454Y-5310988D01*
X13800000Y-5386534D01*
X13858429Y-5328105D01*
X14972684Y-5328105D01*
X14977282Y-5383011D01*
X14989448Y-5412382D01*
X15012988Y-5419546D01*
X15088534Y-5344000D01*
X15137466Y-5344000D01*
X15213012Y-5419546D01*
X15236552Y-5412382D01*
X15253316Y-5359895D01*
X15248718Y-5304989D01*
X15236552Y-5275618D01*
X15213012Y-5268454D01*
X15137466Y-5344000D01*
X15088534Y-5344000D01*
X15012988Y-5268454D01*
X14989448Y-5275618D01*
X14972684Y-5328105D01*
X13858429Y-5328105D01*
X13875546Y-5310988D01*
X13868382Y-5287448D01*
X13856308Y-5283591D01*
X13878351Y-5274483D01*
X13917346Y-5235556D01*
X13938476Y-5184670D01*
X13938477Y-5183651D01*
X14212315Y-5183651D01*
X14220100Y-5207707D01*
X14274406Y-5225309D01*
X14331315Y-5220790D01*
X14362900Y-5207707D01*
X14370685Y-5183651D01*
X14291500Y-5104466D01*
X14212315Y-5183651D01*
X13938477Y-5183651D01*
X13938524Y-5129572D01*
X13917483Y-5078649D01*
X13901768Y-5062906D01*
X14146191Y-5062906D01*
X14150710Y-5119815D01*
X14163793Y-5151400D01*
X14187849Y-5159185D01*
X14267034Y-5080000D01*
X14315966Y-5080000D01*
X14395150Y-5159185D01*
X14416144Y-5152391D01*
X14419776Y-5161180D01*
X14460108Y-5201582D01*
X14512831Y-5223475D01*
X14569919Y-5223525D01*
X14622680Y-5201724D01*
X14648449Y-5176000D01*
X14994545Y-5176000D01*
X14995517Y-5178352D01*
X15034444Y-5217346D01*
X15044315Y-5221445D01*
X15037454Y-5243988D01*
X15113000Y-5319534D01*
X15188546Y-5243988D01*
X15181694Y-5221474D01*
X15191351Y-5217483D01*
X15230346Y-5178556D01*
X15251476Y-5127670D01*
X15251524Y-5072572D01*
X15230483Y-5021649D01*
X15191556Y-4982654D01*
X15140670Y-4961524D01*
X15085571Y-4961476D01*
X15034648Y-4982517D01*
X14995654Y-5021444D01*
X14994592Y-5024000D01*
X14673628Y-5024000D01*
X14663224Y-4998820D01*
X14622892Y-4958418D01*
X14570169Y-4936525D01*
X14513081Y-4936475D01*
X14460320Y-4958276D01*
X14419918Y-4998608D01*
X14416176Y-5007619D01*
X14395150Y-5000815D01*
X14315966Y-5080000D01*
X14267034Y-5080000D01*
X14187849Y-5000815D01*
X14163793Y-5008600D01*
X14146191Y-5062906D01*
X13901768Y-5062906D01*
X13894369Y-5055494D01*
X13917346Y-5032556D01*
X13938476Y-4981670D01*
X13938480Y-4976350D01*
X14212315Y-4976350D01*
X14291500Y-5055534D01*
X14370685Y-4976350D01*
X14362900Y-4952293D01*
X14308594Y-4934691D01*
X14251685Y-4939210D01*
X14220100Y-4952293D01*
X14212315Y-4976350D01*
X13938480Y-4976350D01*
X13938524Y-4926572D01*
X13917483Y-4875649D01*
X13878556Y-4836654D01*
X13855313Y-4827002D01*
X13878351Y-4817483D01*
X13917346Y-4778556D01*
X13938476Y-4727670D01*
X13938481Y-4722032D01*
X14130257Y-4530257D01*
X14131330Y-4528651D01*
X14870815Y-4528651D01*
X14878600Y-4552707D01*
X14932906Y-4570309D01*
X14989815Y-4565790D01*
X15021400Y-4552707D01*
X15029185Y-4528651D01*
X14950000Y-4449466D01*
X14870815Y-4528651D01*
X14131330Y-4528651D01*
X14137110Y-4520000D01*
X14154860Y-4493435D01*
X14163500Y-4450000D01*
X14163500Y-4407906D01*
X14804691Y-4407906D01*
X14809210Y-4464815D01*
X14822293Y-4496400D01*
X14846349Y-4504185D01*
X14925534Y-4425000D01*
X14846349Y-4345815D01*
X14822293Y-4353600D01*
X14804691Y-4407906D01*
X14163500Y-4407906D01*
X14163500Y-4113500D01*
X14205219Y-4113500D01*
X14253329Y-4133477D01*
X14253329Y-4133477D01*
G37*
X14253329Y-4133477D02*
X14306438Y-4133523D01*
X14354898Y-4113500D01*
X14727987Y-4113500D01*
X14902062Y-4287575D01*
X14878600Y-4297293D01*
X14870815Y-4321350D01*
X14950000Y-4400534D01*
X14951414Y-4399120D01*
X14975880Y-4423586D01*
X14974466Y-4425000D01*
X15053650Y-4504185D01*
X15074644Y-4497391D01*
X15078276Y-4506180D01*
X15118608Y-4546582D01*
X15171331Y-4568475D01*
X15221038Y-4568518D01*
X15439019Y-4786499D01*
X15421483Y-4786484D01*
X15387106Y-4800688D01*
X15360781Y-4826967D01*
X15346516Y-4861320D01*
X15346512Y-4866008D01*
X15296260Y-4916260D01*
X15279785Y-4940916D01*
X15274000Y-4970000D01*
X15274000Y-5543520D01*
X15251519Y-5566001D01*
X15251524Y-5560572D01*
X15230483Y-5509649D01*
X15191556Y-5470654D01*
X15181685Y-5466555D01*
X15188546Y-5444012D01*
X15113000Y-5368466D01*
X15037454Y-5444012D01*
X15044306Y-5466527D01*
X15034648Y-5470517D01*
X14995654Y-5509444D01*
X14994592Y-5512000D01*
X14665365Y-5512000D01*
X14663224Y-5506820D01*
X14622892Y-5466418D01*
X14570169Y-5444525D01*
X14513081Y-5444475D01*
X14460320Y-5466276D01*
X14419918Y-5506608D01*
X14416176Y-5515619D01*
X14395150Y-5508815D01*
X14315966Y-5588000D01*
X14395150Y-5667185D01*
X14416144Y-5660391D01*
X14419776Y-5669180D01*
X14460108Y-5709582D01*
X14476239Y-5716281D01*
X13914520Y-6278000D01*
X13908440Y-6278000D01*
X13894399Y-6256986D01*
X13851088Y-6228047D01*
X13843395Y-6226516D01*
X13875523Y-6213242D01*
X13913110Y-6175720D01*
X13933477Y-6126671D01*
X13933523Y-6073562D01*
X13913242Y-6024477D01*
X13875720Y-5986890D01*
X13826671Y-5966523D01*
X13773562Y-5966477D01*
X13724477Y-5986758D01*
X13687170Y-6024000D01*
X13612765Y-6024000D01*
X13575720Y-5986890D01*
X13526671Y-5966523D01*
X13473957Y-5966477D01*
X13385000Y-5877520D01*
X13385000Y-5869940D01*
X13411904Y-5896891D01*
X13490346Y-5929463D01*
X13575281Y-5929537D01*
X13653780Y-5897102D01*
X13713891Y-5837096D01*
X13746463Y-5758654D01*
X13746521Y-5691650D01*
X14212315Y-5691650D01*
X14220100Y-5715707D01*
X14274406Y-5733309D01*
X14331315Y-5728790D01*
X14362900Y-5715707D01*
X14370685Y-5691650D01*
X14291500Y-5612466D01*
X14212315Y-5691650D01*
X13746521Y-5691650D01*
X13746537Y-5673718D01*
X13714102Y-5595220D01*
X13689830Y-5570906D01*
X14146191Y-5570906D01*
X14150710Y-5627815D01*
X14163793Y-5659400D01*
X14187849Y-5667185D01*
X14267034Y-5588000D01*
X14187849Y-5508815D01*
X14163793Y-5516600D01*
X14146191Y-5570906D01*
X13689830Y-5570906D01*
X13654096Y-5535109D01*
X13596064Y-5511012D01*
X13724454Y-5511012D01*
X13731618Y-5534552D01*
X13784105Y-5551316D01*
X13839011Y-5546718D01*
X13868382Y-5534552D01*
X13875546Y-5511012D01*
X13800000Y-5435466D01*
X13724454Y-5511012D01*
X13596064Y-5511012D01*
X13575654Y-5502537D01*
X13490718Y-5502463D01*
X13412220Y-5534898D01*
X13385000Y-5562071D01*
X13385000Y-5395105D01*
X13659684Y-5395105D01*
X13664282Y-5450011D01*
X13676448Y-5479382D01*
X13699988Y-5486546D01*
X13775534Y-5411000D01*
X13824466Y-5411000D01*
X13900012Y-5486546D01*
X13907230Y-5484350D01*
X14212315Y-5484350D01*
X14291500Y-5563534D01*
X14370685Y-5484350D01*
X14362900Y-5460293D01*
X14308594Y-5442691D01*
X14251685Y-5447210D01*
X14220100Y-5460293D01*
X14212315Y-5484350D01*
X13907230Y-5484350D01*
X13923552Y-5479382D01*
X13940316Y-5426895D01*
X13935718Y-5371989D01*
X13923552Y-5342618D01*
X13900012Y-5335454D01*
X13824466Y-5411000D01*
X13775534Y-5411000D01*
X13699988Y-5335454D01*
X13676448Y-5342618D01*
X13659684Y-5395105D01*
X13385000Y-5395105D01*
X13385000Y-5127013D01*
X13698513Y-4813500D01*
X13717604Y-4813500D01*
X13721444Y-4817346D01*
X13744687Y-4826998D01*
X13721648Y-4836517D01*
X13682654Y-4875444D01*
X13661524Y-4926330D01*
X13661476Y-4981429D01*
X13682517Y-5032352D01*
X13705631Y-5055506D01*
X13682654Y-5078444D01*
X13661524Y-5129330D01*
X13661476Y-5184429D01*
X13682517Y-5235352D01*
X13721444Y-5274346D01*
X13742320Y-5283015D01*
X13731618Y-5287448D01*
X13724454Y-5310988D01*
X13800000Y-5386534D01*
X13858429Y-5328105D01*
X14972684Y-5328105D01*
X14977282Y-5383011D01*
X14989448Y-5412382D01*
X15012988Y-5419546D01*
X15088534Y-5344000D01*
X15137466Y-5344000D01*
X15213012Y-5419546D01*
X15236552Y-5412382D01*
X15253316Y-5359895D01*
X15248718Y-5304989D01*
X15236552Y-5275618D01*
X15213012Y-5268454D01*
X15137466Y-5344000D01*
X15088534Y-5344000D01*
X15012988Y-5268454D01*
X14989448Y-5275618D01*
X14972684Y-5328105D01*
X13858429Y-5328105D01*
X13875546Y-5310988D01*
X13868382Y-5287448D01*
X13856308Y-5283591D01*
X13878351Y-5274483D01*
X13917346Y-5235556D01*
X13938476Y-5184670D01*
X13938477Y-5183651D01*
X14212315Y-5183651D01*
X14220100Y-5207707D01*
X14274406Y-5225309D01*
X14331315Y-5220790D01*
X14362900Y-5207707D01*
X14370685Y-5183651D01*
X14291500Y-5104466D01*
X14212315Y-5183651D01*
X13938477Y-5183651D01*
X13938524Y-5129572D01*
X13917483Y-5078649D01*
X13901768Y-5062906D01*
X14146191Y-5062906D01*
X14150710Y-5119815D01*
X14163793Y-5151400D01*
X14187849Y-5159185D01*
X14267034Y-5080000D01*
X14315966Y-5080000D01*
X14395150Y-5159185D01*
X14416144Y-5152391D01*
X14419776Y-5161180D01*
X14460108Y-5201582D01*
X14512831Y-5223475D01*
X14569919Y-5223525D01*
X14622680Y-5201724D01*
X14648449Y-5176000D01*
X14994545Y-5176000D01*
X14995517Y-5178352D01*
X15034444Y-5217346D01*
X15044315Y-5221445D01*
X15037454Y-5243988D01*
X15113000Y-5319534D01*
X15188546Y-5243988D01*
X15181694Y-5221474D01*
X15191351Y-5217483D01*
X15230346Y-5178556D01*
X15251476Y-5127670D01*
X15251524Y-5072572D01*
X15230483Y-5021649D01*
X15191556Y-4982654D01*
X15140670Y-4961524D01*
X15085571Y-4961476D01*
X15034648Y-4982517D01*
X14995654Y-5021444D01*
X14994592Y-5024000D01*
X14673628Y-5024000D01*
X14663224Y-4998820D01*
X14622892Y-4958418D01*
X14570169Y-4936525D01*
X14513081Y-4936475D01*
X14460320Y-4958276D01*
X14419918Y-4998608D01*
X14416176Y-5007619D01*
X14395150Y-5000815D01*
X14315966Y-5080000D01*
X14267034Y-5080000D01*
X14187849Y-5000815D01*
X14163793Y-5008600D01*
X14146191Y-5062906D01*
X13901768Y-5062906D01*
X13894369Y-5055494D01*
X13917346Y-5032556D01*
X13938476Y-4981670D01*
X13938480Y-4976350D01*
X14212315Y-4976350D01*
X14291500Y-5055534D01*
X14370685Y-4976350D01*
X14362900Y-4952293D01*
X14308594Y-4934691D01*
X14251685Y-4939210D01*
X14220100Y-4952293D01*
X14212315Y-4976350D01*
X13938480Y-4976350D01*
X13938524Y-4926572D01*
X13917483Y-4875649D01*
X13878556Y-4836654D01*
X13855313Y-4827002D01*
X13878351Y-4817483D01*
X13917346Y-4778556D01*
X13938476Y-4727670D01*
X13938481Y-4722032D01*
X14130257Y-4530257D01*
X14131330Y-4528651D01*
X14870815Y-4528651D01*
X14878600Y-4552707D01*
X14932906Y-4570309D01*
X14989815Y-4565790D01*
X15021400Y-4552707D01*
X15029185Y-4528651D01*
X14950000Y-4449466D01*
X14870815Y-4528651D01*
X14131330Y-4528651D01*
X14137110Y-4520000D01*
X14154860Y-4493435D01*
X14163500Y-4450000D01*
X14163500Y-4407906D01*
X14804691Y-4407906D01*
X14809210Y-4464815D01*
X14822293Y-4496400D01*
X14846349Y-4504185D01*
X14925534Y-4425000D01*
X14846349Y-4345815D01*
X14822293Y-4353600D01*
X14804691Y-4407906D01*
X14163500Y-4407906D01*
X14163500Y-4113500D01*
X14205219Y-4113500D01*
X14253329Y-4133477D01*
G36*
X15625880Y-6038586D02*
X15624466Y-6040000D01*
X15696371Y-6111905D01*
X15719395Y-6105362D01*
X15726432Y-6082972D01*
X15728047Y-6091088D01*
X15756986Y-6134399D01*
X15795301Y-6160000D01*
X15756986Y-6185601D01*
X15728047Y-6228912D01*
X15726516Y-6236604D01*
X15713242Y-6204477D01*
X15675720Y-6166890D01*
X15661511Y-6160990D01*
X15665362Y-6159395D01*
X15671905Y-6136371D01*
X15600000Y-6064466D01*
X15598586Y-6065880D01*
X15574120Y-6041414D01*
X15575534Y-6040000D01*
X15574120Y-6038586D01*
X15598586Y-6014120D01*
X15600000Y-6015534D01*
X15601414Y-6014120D01*
X15625880Y-6038586D01*
X15625880Y-6038586D01*
G37*
X15625880Y-6038586D02*
X15624466Y-6040000D01*
X15696371Y-6111905D01*
X15719395Y-6105362D01*
X15726432Y-6082972D01*
X15728047Y-6091088D01*
X15756986Y-6134399D01*
X15795301Y-6160000D01*
X15756986Y-6185601D01*
X15728047Y-6228912D01*
X15726516Y-6236604D01*
X15713242Y-6204477D01*
X15675720Y-6166890D01*
X15661511Y-6160990D01*
X15665362Y-6159395D01*
X15671905Y-6136371D01*
X15600000Y-6064466D01*
X15598586Y-6065880D01*
X15574120Y-6041414D01*
X15575534Y-6040000D01*
X15574120Y-6038586D01*
X15598586Y-6014120D01*
X15600000Y-6015534D01*
X15601414Y-6014120D01*
X15625880Y-6038586D01*
G36*
X17125880Y-3898586D02*
X17124466Y-3900000D01*
X17125880Y-3901414D01*
X17101414Y-3925880D01*
X17100000Y-3924466D01*
X17098586Y-3925880D01*
X17074120Y-3901414D01*
X17075534Y-3900000D01*
X17074120Y-3898586D01*
X17098586Y-3874120D01*
X17100000Y-3875534D01*
X17101414Y-3874120D01*
X17125880Y-3898586D01*
X17125880Y-3898586D01*
G37*
X17125880Y-3898586D02*
X17124466Y-3900000D01*
X17125880Y-3901414D01*
X17101414Y-3925880D01*
X17100000Y-3924466D01*
X17098586Y-3925880D01*
X17074120Y-3901414D01*
X17075534Y-3900000D01*
X17074120Y-3898586D01*
X17098586Y-3874120D01*
X17100000Y-3875534D01*
X17101414Y-3874120D01*
X17125880Y-3898586D01*
G36*
X17225880Y-3098586D02*
X17224466Y-3100000D01*
X17225880Y-3101414D01*
X17201414Y-3125880D01*
X17200000Y-3124466D01*
X17198586Y-3125880D01*
X17174120Y-3101414D01*
X17175534Y-3100000D01*
X17174120Y-3098586D01*
X17198586Y-3074120D01*
X17200000Y-3075534D01*
X17201414Y-3074120D01*
X17225880Y-3098586D01*
X17225880Y-3098586D01*
G37*
X17225880Y-3098586D02*
X17224466Y-3100000D01*
X17225880Y-3101414D01*
X17201414Y-3125880D01*
X17200000Y-3124466D01*
X17198586Y-3125880D01*
X17174120Y-3101414D01*
X17175534Y-3100000D01*
X17174120Y-3098586D01*
X17198586Y-3074120D01*
X17200000Y-3075534D01*
X17201414Y-3074120D01*
X17225880Y-3098586D01*
M02*
