G04 #@! TF.FileFunction,Profile,NP*
%FSLAX45Y45*%
G04 Gerber Fmt 4.5, Leading zero omitted, Abs format (unit mm)*
G04 Created by KiCad (PCBNEW 4.0.5) date 02/17/17 17:53:29*
%MOMM*%
%LPD*%
G01*
G04 APERTURE LIST*
%ADD10C,0.100000*%
%ADD11C,0.150000*%
G04 APERTURE END LIST*
D10*
D11*
X22370000Y-5120000D02*
X22150000Y-5120000D01*
X22150000Y-4980000D02*
X22370000Y-4980000D01*
X21700000Y-4980000D02*
G75*
G03X21700000Y-5120000I0J-70000D01*
G01*
X21700000Y-5120000D02*
X22150000Y-5120000D01*
X21700000Y-4980000D02*
X22150000Y-4980000D01*
X22370000Y-5120000D02*
G75*
G03X22370000Y-4980000I0J70000D01*
G01*
X21450000Y-5120000D02*
G75*
G03X21450000Y-4980000I0J70000D01*
G01*
X21000000Y-4980000D02*
X21450000Y-4980000D01*
X21000000Y-5120000D02*
X21450000Y-5120000D01*
X21000000Y-4980000D02*
G75*
G03X21000000Y-5120000I0J-70000D01*
G01*
X20300000Y-4980000D02*
G75*
G03X20300000Y-5120000I0J-70000D01*
G01*
X20300000Y-5120000D02*
X20750000Y-5120000D01*
X20300000Y-4980000D02*
X20750000Y-4980000D01*
X20750000Y-5120000D02*
G75*
G03X20750000Y-4980000I0J70000D01*
G01*
X20050000Y-5120000D02*
G75*
G03X20050000Y-4980000I0J70000D01*
G01*
X19600000Y-4980000D02*
X20050000Y-4980000D01*
X19600000Y-5120000D02*
X20050000Y-5120000D01*
X19600000Y-4980000D02*
G75*
G03X19600000Y-5120000I0J-70000D01*
G01*
X19470000Y-5450000D02*
G75*
G03X19330000Y-5450000I-70000J0D01*
G01*
X19330000Y-5450000D02*
X19330000Y-5900000D01*
X19470000Y-5450000D02*
X19470000Y-5900000D01*
X19330000Y-5900000D02*
G75*
G03X19470000Y-5900000I70000J0D01*
G01*
X19330000Y-6600000D02*
G75*
G03X19470000Y-6600000I70000J0D01*
G01*
X19470000Y-6150000D02*
X19470000Y-6600000D01*
X19330000Y-6150000D02*
X19330000Y-6600000D01*
X19470000Y-6150000D02*
G75*
G03X19330000Y-6150000I-70000J0D01*
G01*
X19330000Y-7300000D02*
G75*
G03X19470000Y-7300000I70000J0D01*
G01*
X19470000Y-6850000D02*
X19470000Y-7300000D01*
X19330000Y-6850000D02*
X19330000Y-7300000D01*
X19470000Y-6850000D02*
G75*
G03X19330000Y-6850000I-70000J0D01*
G01*
X19470000Y-4050000D02*
G75*
G03X19330000Y-4050000I-70000J0D01*
G01*
X19330000Y-4050000D02*
X19330000Y-4500000D01*
X19470000Y-4050000D02*
X19470000Y-4500000D01*
X19330000Y-4500000D02*
G75*
G03X19470000Y-4500000I70000J0D01*
G01*
X19330000Y-5200000D02*
G75*
G03X19470000Y-5200000I70000J0D01*
G01*
X19470000Y-4750000D02*
X19470000Y-5200000D01*
X19330000Y-4750000D02*
X19330000Y-5200000D01*
X19470000Y-4750000D02*
G75*
G03X19330000Y-4750000I-70000J0D01*
G01*
X19470000Y-3350000D02*
G75*
G03X19330000Y-3350000I-70000J0D01*
G01*
X19330000Y-3350000D02*
X19330000Y-3800000D01*
X19470000Y-3350000D02*
X19470000Y-3800000D01*
X19330000Y-3800000D02*
G75*
G03X19470000Y-3800000I70000J0D01*
G01*
X19330000Y-3100000D02*
G75*
G03X19470000Y-3100000I70000J0D01*
G01*
X19470000Y-2650000D02*
X19470000Y-3100000D01*
X19330000Y-2650000D02*
X19330000Y-3100000D01*
X19470000Y-2650000D02*
G75*
G03X19330000Y-2650000I-70000J0D01*
G01*
X22500000Y-7500000D02*
X22500000Y-2500000D01*
X22500000Y-2500000D02*
X12500000Y-2500000D01*
X12500000Y-7500000D02*
X22500000Y-7500000D01*
X12500000Y-2500000D02*
X12500000Y-7500000D01*
M02*
