G04 #@! TF.FileFunction,Copper,L1,Top,Signal*
%FSLAX45Y45*%
G04 Gerber Fmt 4.5, Leading zero omitted, Abs format (unit mm)*
G04 Created by KiCad (PCBNEW 4.0.2-stable) date 2017/02/21 9:17:18*
%MOMM*%
G01*
G04 APERTURE LIST*
%ADD10C,0.100000*%
%ADD11C,1.600000*%
%ADD12R,1.700000X1.700000*%
%ADD13O,1.700000X1.700000*%
%ADD14R,1.200000X0.600000*%
%ADD15R,0.600000X1.200000*%
%ADD16C,1.500000*%
%ADD17C,3.000000*%
%ADD18C,1.397000*%
%ADD19R,1.800000X1.800000*%
%ADD20C,1.800000*%
%ADD21R,1.350000X1.350000*%
%ADD22O,1.350000X1.350000*%
%ADD23R,2.000000X1.000000*%
%ADD24R,1.000000X2.000000*%
%ADD25C,1.400000*%
%ADD26O,1.400000X1.400000*%
%ADD27R,1.600000X1.600000*%
%ADD28O,2.032000X2.540000*%
%ADD29R,0.800000X1.500000*%
%ADD30R,1.500000X0.800000*%
%ADD31C,1.000000*%
%ADD32C,0.600000*%
%ADD33C,0.250000*%
%ADD34C,1.000000*%
%ADD35C,0.254000*%
G04 APERTURE END LIST*
D10*
D11*
X18900000Y-3900000D03*
X18700000Y-3900000D03*
X18500000Y-3900000D03*
X18300000Y-3900000D03*
X18100000Y-3900000D03*
X17900000Y-3900000D03*
X17700000Y-3900000D03*
X17500000Y-3900000D03*
X17300000Y-3900000D03*
X17100000Y-3900000D03*
X17100000Y-6100000D03*
X17300000Y-6100000D03*
X17500000Y-6100000D03*
X17700000Y-6100000D03*
X17900000Y-6100000D03*
X18100000Y-6100000D03*
X18300000Y-6100000D03*
X18500000Y-6100000D03*
X18700000Y-6100000D03*
X18900000Y-6100000D03*
D12*
X19700000Y-6050000D03*
D13*
X19700000Y-5796000D03*
X19700000Y-5542000D03*
X19700000Y-5288000D03*
D12*
X13500000Y-6800000D03*
D13*
X13500000Y-7054000D03*
X13500000Y-7308000D03*
D12*
X14300000Y-6800000D03*
D13*
X14300000Y-7054000D03*
X14300000Y-7308000D03*
D12*
X15500000Y-6800000D03*
D13*
X15500000Y-7054000D03*
X15500000Y-7308000D03*
D12*
X15900000Y-6800000D03*
D13*
X15900000Y-7054000D03*
X15900000Y-7308000D03*
D12*
X16300000Y-6800000D03*
D13*
X16300000Y-7054000D03*
X16300000Y-7308000D03*
D12*
X16700000Y-6800000D03*
D13*
X16700000Y-7054000D03*
X16700000Y-7308000D03*
D12*
X17500000Y-6800000D03*
D13*
X17500000Y-7054000D03*
X17500000Y-7308000D03*
D12*
X17900000Y-6800000D03*
D13*
X17900000Y-7054000D03*
X17900000Y-7308000D03*
D14*
X15575000Y-4720000D03*
X15575000Y-4800000D03*
X15575000Y-4880000D03*
X15575000Y-4960000D03*
X15575000Y-5040000D03*
X15575000Y-5120000D03*
X15575000Y-5200000D03*
X15575000Y-5280000D03*
D15*
X15720000Y-5425000D03*
X15800000Y-5425000D03*
X15880000Y-5425000D03*
X15960000Y-5425000D03*
X16040000Y-5425000D03*
X16120000Y-5425000D03*
X16200000Y-5425000D03*
X16280000Y-5425000D03*
D14*
X16425000Y-5280000D03*
X16425000Y-5200000D03*
X16425000Y-5120000D03*
X16425000Y-5040000D03*
X16425000Y-4960000D03*
X16425000Y-4880000D03*
X16425000Y-4800000D03*
X16425000Y-4720000D03*
D15*
X16280000Y-4575000D03*
X16200000Y-4575000D03*
X16120000Y-4575000D03*
X16040000Y-4575000D03*
X15960000Y-4575000D03*
X15880000Y-4575000D03*
X15800000Y-4575000D03*
X15720000Y-4575000D03*
D16*
X13800000Y-5411000D03*
X13800000Y-5157000D03*
X13800000Y-4954000D03*
X13800000Y-4700000D03*
D17*
X13533000Y-5716000D03*
X13533000Y-4344000D03*
D18*
X14181000Y-2646000D03*
X14181000Y-3154000D03*
X13419000Y-2646000D03*
X13419000Y-3154000D03*
D12*
X20200000Y-7300000D03*
D13*
X19946000Y-7300000D03*
D12*
X19113500Y-5143500D03*
D13*
X19113500Y-5397500D03*
X19113500Y-5651500D03*
X19113500Y-5905500D03*
D19*
X19650000Y-3400000D03*
D20*
X19904000Y-3400000D03*
D21*
X12800000Y-6030000D03*
D22*
X12800000Y-6230000D03*
X12800000Y-6430000D03*
X12800000Y-6630000D03*
D21*
X13300000Y-3500000D03*
D22*
X13300000Y-3700000D03*
X13300000Y-3900000D03*
X13300000Y-4100000D03*
D21*
X12800000Y-3500000D03*
D22*
X12800000Y-3700000D03*
X12800000Y-3900000D03*
X12800000Y-4100000D03*
D21*
X16060000Y-3320000D03*
D22*
X16260000Y-3320000D03*
X16460000Y-3320000D03*
X16660000Y-3320000D03*
D12*
X17300000Y-5600000D03*
D13*
X17300000Y-5346000D03*
X17300000Y-5092000D03*
X17300000Y-4838000D03*
X17300000Y-4584000D03*
X17300000Y-4330000D03*
D19*
X18600000Y-7200000D03*
D20*
X18346000Y-7200000D03*
D19*
X18600000Y-6600000D03*
D20*
X18346000Y-6600000D03*
D11*
X21450000Y-2650000D03*
X21250000Y-2650000D03*
X21050000Y-2650000D03*
X20850000Y-2650000D03*
X20650000Y-2650000D03*
X20450000Y-2650000D03*
X20250000Y-2650000D03*
X20050000Y-2650000D03*
X19850000Y-2650000D03*
X19650000Y-2650000D03*
X19650000Y-4850000D03*
X19850000Y-4850000D03*
X20050000Y-4850000D03*
X20250000Y-4850000D03*
X20450000Y-4850000D03*
X20650000Y-4850000D03*
X20850000Y-4850000D03*
X21050000Y-4850000D03*
X21250000Y-4850000D03*
X21450000Y-4850000D03*
D19*
X19700000Y-6800000D03*
D20*
X19954000Y-6800000D03*
D23*
X20325000Y-6475000D03*
X20325000Y-6625000D03*
X20325000Y-6775000D03*
X20325000Y-6925000D03*
X20325000Y-6325000D03*
X20325000Y-6175000D03*
X20325000Y-6025000D03*
X20325000Y-5875000D03*
D24*
X22300000Y-7150000D03*
X22150000Y-7150000D03*
X22000000Y-7150000D03*
X21850000Y-7150000D03*
X21250000Y-7150000D03*
X21400000Y-7150000D03*
X21550000Y-7150000D03*
X21700000Y-7150000D03*
X21100000Y-7150000D03*
X20950000Y-7150000D03*
X20800000Y-7150000D03*
X20650000Y-7150000D03*
X20500000Y-7150000D03*
X20500000Y-5650000D03*
X20650000Y-5650000D03*
X20800000Y-5650000D03*
X20950000Y-5650000D03*
X21100000Y-5650000D03*
X21700000Y-5650000D03*
X21550000Y-5650000D03*
X21400000Y-5650000D03*
X21250000Y-5650000D03*
X21850000Y-5650000D03*
X22000000Y-5650000D03*
X22150000Y-5650000D03*
X22300000Y-5650000D03*
D12*
X15240000Y-3800000D03*
D13*
X15494000Y-3800000D03*
X15748000Y-3800000D03*
X16002000Y-3800000D03*
X16256000Y-3800000D03*
X16510000Y-3800000D03*
D19*
X19650000Y-4200000D03*
D20*
X19904000Y-4200000D03*
D12*
X16900000Y-2800000D03*
D13*
X16900000Y-3054000D03*
D11*
X18554000Y-2700000D03*
X18300000Y-2700000D03*
X18046000Y-2700000D03*
X17700000Y-3100000D03*
X17950000Y-3100000D03*
X16760000Y-4400000D03*
X16760000Y-4650000D03*
X16400000Y-2700000D03*
X16400000Y-2950000D03*
X15240000Y-3460000D03*
X15490000Y-3460000D03*
X15200000Y-4425000D03*
X14950000Y-4425000D03*
D25*
X20450000Y-3400000D03*
D26*
X20196000Y-3400000D03*
D25*
X20450000Y-4200000D03*
D26*
X20196000Y-4200000D03*
D25*
X15960000Y-4180000D03*
D26*
X16214000Y-4180000D03*
D25*
X18800000Y-6350000D03*
D26*
X19054000Y-6350000D03*
D25*
X18150000Y-7000000D03*
D26*
X18150000Y-6746000D03*
D25*
X15500000Y-4180000D03*
D26*
X15754000Y-4180000D03*
D25*
X19700000Y-6350000D03*
D26*
X19954000Y-6350000D03*
D25*
X17500000Y-3600000D03*
D26*
X17754000Y-3600000D03*
D25*
X13500000Y-6100000D03*
D26*
X13500000Y-6354000D03*
D25*
X13800000Y-6100000D03*
D26*
X13800000Y-6354000D03*
D25*
X14280000Y-4000000D03*
D26*
X14280000Y-3746000D03*
D25*
X14060000Y-4000000D03*
D26*
X14060000Y-3746000D03*
D25*
X17500000Y-3400000D03*
D26*
X17754000Y-3400000D03*
D25*
X17200000Y-3100000D03*
D26*
X17454000Y-3100000D03*
D25*
X14300000Y-3480000D03*
D26*
X14046000Y-3480000D03*
D25*
X17200000Y-2800000D03*
D26*
X17454000Y-2800000D03*
D25*
X20825000Y-5400000D03*
D26*
X20571000Y-5400000D03*
D11*
X14541500Y-5080000D03*
X14291500Y-5080000D03*
X14541500Y-5588000D03*
X14291500Y-5588000D03*
D27*
X18600000Y-3400000D03*
D11*
X18350000Y-3400000D03*
D27*
X14700000Y-3100000D03*
D11*
X14700000Y-2850000D03*
D28*
X15700000Y-2800000D03*
X15446000Y-2800000D03*
X15954000Y-2800000D03*
D12*
X16310000Y-5790000D03*
D13*
X16310000Y-6044000D03*
X16310000Y-6298000D03*
D25*
X15240000Y-5980000D03*
D26*
X14986000Y-5980000D03*
D25*
X15600000Y-6280000D03*
D26*
X15854000Y-6280000D03*
D25*
X15600000Y-6040000D03*
D26*
X15854000Y-6040000D03*
D12*
X14500000Y-6300000D03*
D13*
X14754000Y-6300000D03*
X15008000Y-6300000D03*
X15262000Y-6300000D03*
D12*
X13900000Y-6800000D03*
D13*
X13900000Y-7054000D03*
X13900000Y-7308000D03*
D12*
X14700000Y-6800000D03*
D13*
X14700000Y-7054000D03*
X14700000Y-7308000D03*
D12*
X15100000Y-6800000D03*
D13*
X15100000Y-7054000D03*
X15100000Y-7308000D03*
D12*
X17100000Y-6800000D03*
D13*
X17100000Y-7054000D03*
X17100000Y-7308000D03*
D16*
X15113000Y-5588000D03*
X15113000Y-5344000D03*
X15113000Y-5100000D03*
D29*
X20937000Y-4278500D03*
X21057000Y-4278500D03*
X21177000Y-4278500D03*
X21297000Y-4278500D03*
X21417000Y-4278500D03*
X21537000Y-4278500D03*
X21657000Y-4278500D03*
X21777000Y-4278500D03*
X21777000Y-3178500D03*
X21657000Y-3178500D03*
X21537000Y-3178500D03*
X21417000Y-3178500D03*
X21297000Y-3178500D03*
X21177000Y-3178500D03*
X21057000Y-3178500D03*
X20937000Y-3178500D03*
D30*
X20707000Y-3428500D03*
X20707000Y-3548500D03*
X20707000Y-3668500D03*
X20707000Y-3788500D03*
X20707000Y-3908500D03*
X20707000Y-4028500D03*
D31*
X20687000Y-3153500D03*
X20687000Y-4303500D03*
D32*
X16300000Y-5200000D03*
X15720000Y-4960000D03*
X15960000Y-4460000D03*
X15880000Y-4440000D03*
X15800000Y-4460000D03*
X16380000Y-3910000D03*
X16380000Y-4580000D03*
X16540000Y-4800000D03*
X16560000Y-4720000D03*
X15440000Y-5120000D03*
X21050000Y-2950000D03*
X21450000Y-2850000D03*
X15440000Y-4880000D03*
D33*
X19113500Y-5905500D02*
X19113500Y-6290500D01*
X19113500Y-6290500D02*
X19054000Y-6350000D01*
X16310000Y-6044000D02*
X16310000Y-6090000D01*
X16310000Y-6090000D02*
X16870000Y-6650000D01*
X16870000Y-6650000D02*
X16870000Y-6890000D01*
X16870000Y-6890000D02*
X16703000Y-7057000D01*
D34*
X14300000Y-7054000D02*
X14700000Y-7054000D01*
X15100000Y-7054000D02*
X15156000Y-7054000D01*
X15156000Y-7054000D02*
X15280000Y-6930000D01*
X15280000Y-6930000D02*
X15280000Y-6318000D01*
X15280000Y-6318000D02*
X15262000Y-6300000D01*
X15100000Y-7054000D02*
X14700000Y-7054000D01*
X14300000Y-7054000D02*
X13900000Y-7054000D01*
X15500000Y-7054000D02*
X15100000Y-7054000D01*
X15900000Y-7054000D02*
X15500000Y-7054000D01*
X16300000Y-7054000D02*
X15900000Y-7054000D01*
X16700000Y-7054000D02*
X16300000Y-7054000D01*
X17100000Y-7054000D02*
X16700000Y-7054000D01*
X17500000Y-7054000D02*
X17100000Y-7054000D01*
X17900000Y-7054000D02*
X17500000Y-7054000D01*
X13500000Y-7054000D02*
X13900000Y-7054000D01*
D33*
X15446000Y-2800000D02*
X15446000Y-3046000D01*
X16002000Y-3602000D02*
X16002000Y-3800000D01*
X15446000Y-3046000D02*
X16002000Y-3602000D01*
D34*
X14700000Y-3100000D02*
X14680000Y-3100000D01*
X14680000Y-3100000D02*
X14300000Y-3480000D01*
X15446000Y-2800000D02*
X15300000Y-2800000D01*
X15000000Y-3100000D02*
X14700000Y-3100000D01*
X15300000Y-2800000D02*
X15000000Y-3100000D01*
D33*
X16002000Y-3578000D02*
X16002000Y-3800000D01*
X16260000Y-3320000D02*
X16002000Y-3578000D01*
X16300000Y-5200000D02*
X16425000Y-5200000D01*
X15575000Y-4960000D02*
X15720000Y-4960000D01*
X16425000Y-5200000D02*
X17088500Y-5200000D01*
X17145000Y-4762500D02*
X17323500Y-4584000D01*
X17145000Y-5143500D02*
X17145000Y-4762500D01*
X17088500Y-5200000D02*
X17145000Y-5143500D01*
X17323500Y-4584000D02*
X17300000Y-4584000D01*
X18046000Y-2700000D02*
X18046000Y-2754000D01*
X18046000Y-2754000D02*
X17700000Y-3100000D01*
X17500000Y-3400000D02*
X17360000Y-3400000D01*
X17100000Y-3660000D02*
X17100000Y-3900000D01*
X17360000Y-3400000D02*
X17100000Y-3660000D01*
X17200000Y-3100000D02*
X17500000Y-3400000D01*
X16900000Y-3054000D02*
X17154000Y-3054000D01*
X17154000Y-3054000D02*
X17200000Y-3100000D01*
X16400000Y-2950000D02*
X16796000Y-2950000D01*
X16796000Y-2950000D02*
X16900000Y-3054000D01*
X16380000Y-2950000D02*
X16290000Y-2950000D01*
X16060000Y-3180000D02*
X16060000Y-3320000D01*
X16290000Y-2950000D02*
X16060000Y-3180000D01*
X17900000Y-7308000D02*
X17500000Y-7308000D01*
X13300000Y-3500000D02*
X12800000Y-3500000D01*
X14950000Y-4425000D02*
X14775000Y-4425000D01*
X14291500Y-4908500D02*
X14291500Y-5080000D01*
X14775000Y-4425000D02*
X14291500Y-4908500D01*
X12800000Y-6030000D02*
X12695000Y-6030000D01*
X12695000Y-6030000D02*
X12650000Y-6075000D01*
X12650000Y-6075000D02*
X12650000Y-7150000D01*
X12650000Y-7150000D02*
X12808000Y-7308000D01*
X12808000Y-7308000D02*
X13500000Y-7308000D01*
X12800000Y-6030000D02*
X12850000Y-6030000D01*
X12850000Y-6030000D02*
X13280000Y-5600000D01*
X13800000Y-5411000D02*
X13771000Y-5411000D01*
X13771000Y-5411000D02*
X12610000Y-4250000D01*
X12610000Y-4250000D02*
X12610000Y-3690000D01*
X12610000Y-3690000D02*
X12800000Y-3500000D01*
X16256000Y-3800000D02*
X16510000Y-3800000D01*
X17100000Y-4130000D02*
X17300000Y-4330000D01*
X17100000Y-3900000D02*
X17100000Y-4130000D01*
X19113500Y-5651500D02*
X19113500Y-5653500D01*
X19113500Y-5653500D02*
X19260000Y-5800000D01*
X19260000Y-5800000D02*
X19260000Y-6390000D01*
X19260000Y-6390000D02*
X19050000Y-6600000D01*
X19050000Y-6600000D02*
X18600000Y-6600000D01*
X13900000Y-7308000D02*
X13500000Y-7308000D01*
X14300000Y-7308000D02*
X13900000Y-7308000D01*
X15500000Y-7308000D02*
X15100000Y-7308000D01*
X15900000Y-7308000D02*
X15500000Y-7308000D01*
X16300000Y-7308000D02*
X15900000Y-7308000D01*
X16700000Y-7308000D02*
X16300000Y-7308000D01*
X17100000Y-7308000D02*
X16700000Y-7308000D01*
X17500000Y-7308000D02*
X17100000Y-7308000D01*
X17500000Y-7308000D02*
X18108000Y-7308000D01*
X18420000Y-7380000D02*
X18600000Y-7200000D01*
X18180000Y-7380000D02*
X18420000Y-7380000D01*
X18108000Y-7308000D02*
X18180000Y-7380000D01*
X18600000Y-7200000D02*
X18600000Y-6600000D01*
X13419000Y-2646000D02*
X14181000Y-2646000D01*
X13300000Y-3500000D02*
X13300000Y-2765000D01*
X13300000Y-2765000D02*
X13419000Y-2646000D01*
X13800000Y-5411000D02*
X13869000Y-5411000D01*
X13500000Y-7308000D02*
X13428000Y-7308000D01*
X13280000Y-5600000D02*
X13469000Y-5411000D01*
X13469000Y-5411000D02*
X13800000Y-5411000D01*
X16425000Y-4960000D02*
X16360000Y-4960000D01*
X15575000Y-5040000D02*
X15360000Y-5040000D01*
X15360000Y-5040000D02*
X15240000Y-4920000D01*
X15575000Y-5040000D02*
X15978500Y-5040000D01*
X15978500Y-5040000D02*
X16058500Y-4960000D01*
X16058500Y-4960000D02*
X16360000Y-4960000D01*
X17950000Y-3100000D02*
X18100000Y-3100000D01*
X18350000Y-3350000D02*
X18350000Y-3400000D01*
X18100000Y-3100000D02*
X18350000Y-3350000D01*
X18300000Y-2700000D02*
X18300000Y-3350000D01*
X18300000Y-3350000D02*
X18350000Y-3400000D01*
X15240000Y-4920000D02*
X15020000Y-4920000D01*
X15020000Y-4920000D02*
X14960000Y-4980000D01*
X14960000Y-4980000D02*
X14960000Y-5191000D01*
X14700000Y-7308000D02*
X14300000Y-7308000D01*
X14960000Y-5191000D02*
X15113000Y-5344000D01*
X15100000Y-7308000D02*
X14700000Y-7308000D01*
X16760000Y-4650000D02*
X16760000Y-4880000D01*
X16760000Y-4880000D02*
X16600000Y-5040000D01*
X16425000Y-5040000D02*
X16600000Y-5040000D01*
X15240000Y-3460000D02*
X15240000Y-3800000D01*
X15960000Y-4575000D02*
X15960000Y-4460000D01*
X14181000Y-3154000D02*
X14181000Y-3159000D01*
X14181000Y-3159000D02*
X14046000Y-3294000D01*
X14046000Y-3294000D02*
X14046000Y-3480000D01*
X13419000Y-3154000D02*
X14181000Y-3154000D01*
X20707000Y-3428500D02*
X20478500Y-3428500D01*
X20478500Y-3428500D02*
X20450000Y-3400000D01*
X20196000Y-3400000D02*
X19904000Y-3400000D01*
X20450000Y-4200000D02*
X20450000Y-3750000D01*
X20531500Y-3668500D02*
X20707000Y-3668500D01*
X20450000Y-3750000D02*
X20531500Y-3668500D01*
X19904000Y-4200000D02*
X20196000Y-4200000D01*
X15880000Y-4575000D02*
X15880000Y-4440000D01*
X18800000Y-6350000D02*
X18440000Y-6350000D01*
X18346000Y-6444000D02*
X18346000Y-6600000D01*
X18440000Y-6350000D02*
X18346000Y-6444000D01*
X18150000Y-7000000D02*
X18150000Y-7004000D01*
X18150000Y-7004000D02*
X18346000Y-7200000D01*
X17900000Y-6800000D02*
X18096000Y-6800000D01*
X18096000Y-6800000D02*
X18150000Y-6746000D01*
X17900000Y-6800000D02*
X17900000Y-6454000D01*
X17550000Y-5300000D02*
X17550000Y-5700000D01*
X17550000Y-5700000D02*
X17350000Y-5900000D01*
X17350000Y-5900000D02*
X17050000Y-5900000D01*
X17050000Y-5900000D02*
X16950000Y-6000000D01*
X16950000Y-6000000D02*
X16950000Y-6200000D01*
X16950000Y-6200000D02*
X17150000Y-6400000D01*
X17150000Y-6400000D02*
X17846000Y-6400000D01*
X17550000Y-5300000D02*
X17342000Y-5092000D01*
X17900000Y-6454000D02*
X17846000Y-6400000D01*
X17300000Y-5092000D02*
X17342000Y-5092000D01*
X16425000Y-5280000D02*
X16540000Y-5280000D01*
X16425000Y-5280000D02*
X17135500Y-5280000D01*
X17323500Y-5092000D02*
X17300000Y-5092000D01*
X17135500Y-5280000D02*
X17323500Y-5092000D01*
X15800000Y-4575000D02*
X15800000Y-4460000D01*
X18500000Y-3900000D02*
X18500000Y-4800000D01*
X18843500Y-5143500D02*
X19113500Y-5143500D01*
X18500000Y-4800000D02*
X18843500Y-5143500D01*
X17754000Y-3400000D02*
X17754000Y-3600000D01*
X17754000Y-3600000D02*
X18360000Y-3600000D01*
X18360000Y-3600000D02*
X18500000Y-3740000D01*
X18500000Y-3740000D02*
X18500000Y-3900000D01*
X16200000Y-4575000D02*
X16200000Y-4400000D01*
X16380000Y-4220000D02*
X16380000Y-3910000D01*
X16200000Y-4400000D02*
X16380000Y-4220000D01*
X17454000Y-2800000D02*
X17454000Y-3100000D01*
X15854000Y-6040000D02*
X15854000Y-6280000D01*
X16375000Y-4575000D02*
X16280000Y-4575000D01*
X16380000Y-4580000D02*
X16375000Y-4575000D01*
X15113000Y-5100000D02*
X15300000Y-5100000D01*
X15400000Y-5200000D02*
X15575000Y-5200000D01*
X15300000Y-5100000D02*
X15400000Y-5200000D01*
X15113000Y-5100000D02*
X15125000Y-5100000D01*
X18600000Y-3400000D02*
X18700000Y-3400000D01*
X18900000Y-3600000D02*
X18900000Y-3900000D01*
X18700000Y-3400000D02*
X18900000Y-3600000D01*
X18554000Y-2700000D02*
X18554000Y-3354000D01*
X18554000Y-3354000D02*
X18600000Y-3400000D01*
X15720000Y-4575000D02*
X14989000Y-4575000D01*
X13500000Y-6820000D02*
X13500000Y-6800000D01*
X14732000Y-5588000D02*
X13500000Y-6820000D01*
X14732000Y-4832000D02*
X14732000Y-5588000D01*
X14989000Y-4575000D02*
X14732000Y-4832000D01*
X14300000Y-6800000D02*
X14300000Y-6280194D01*
X14310096Y-6270098D02*
X14860000Y-5720000D01*
X14859000Y-4953000D02*
X14860000Y-5720000D01*
X15012000Y-4800000D02*
X14859000Y-4953000D01*
X15012000Y-4800000D02*
X15575000Y-4800000D01*
X14300000Y-6280194D02*
X14310096Y-6270098D01*
X15880000Y-5600000D02*
X15470000Y-6010000D01*
X15880000Y-5425000D02*
X15880000Y-5600000D01*
X15500000Y-6650000D02*
X15500000Y-6800000D01*
X15470000Y-6620000D02*
X15500000Y-6650000D01*
X15470000Y-6010000D02*
X15470000Y-6620000D01*
X15500000Y-6741500D02*
X15500000Y-6800000D01*
X15960000Y-5425000D02*
X15960000Y-6390000D01*
X15900000Y-6450000D02*
X15900000Y-6800000D01*
X15960000Y-6390000D02*
X15900000Y-6450000D01*
X16040000Y-5425000D02*
X16040000Y-6390000D01*
X16300000Y-6650000D02*
X16300000Y-6800000D01*
X16040000Y-6390000D02*
X16300000Y-6650000D01*
X16700000Y-6800000D02*
X16620000Y-6800000D01*
X16620000Y-6800000D02*
X16120000Y-6300000D01*
X16120000Y-6300000D02*
X16120000Y-5425000D01*
X16280000Y-5425000D02*
X16863500Y-5425000D01*
X17400000Y-6800000D02*
X17500000Y-6800000D01*
X17300000Y-5346000D02*
X17396000Y-5346000D01*
X16850000Y-6250000D02*
X17400000Y-6800000D01*
X17400000Y-6800000D02*
X17425000Y-6825000D01*
X16850000Y-6000000D02*
X16850000Y-6250000D01*
X17050000Y-5800000D02*
X16850000Y-6000000D01*
X17350000Y-5800000D02*
X17050000Y-5800000D01*
X17450000Y-5700000D02*
X17350000Y-5800000D01*
X17450000Y-5400000D02*
X17450000Y-5700000D01*
X17396000Y-5346000D02*
X17450000Y-5400000D01*
X17450000Y-6800000D02*
X17500000Y-6800000D01*
X16942500Y-5346000D02*
X17300000Y-5346000D01*
X16863500Y-5425000D02*
X16942500Y-5346000D01*
X16540000Y-4800000D02*
X16425000Y-4800000D01*
X16560000Y-4720000D02*
X16425000Y-4720000D01*
X13900000Y-6800000D02*
X13900000Y-6550000D01*
X13900000Y-6550000D02*
X14795500Y-5654500D01*
X15575000Y-4720000D02*
X14965000Y-4720000D01*
X14795500Y-4889500D02*
X14795500Y-5654500D01*
X14965000Y-4720000D02*
X14795500Y-4889500D01*
X15115000Y-5715000D02*
X14975937Y-5715000D01*
X15240000Y-5715000D02*
X15530000Y-5425000D01*
X15720000Y-5425000D02*
X15530000Y-5425000D01*
X15115000Y-5715000D02*
X15240000Y-5715000D01*
X14970000Y-5720000D02*
X14970000Y-5721064D01*
X14970937Y-5720000D02*
X14970000Y-5720000D01*
X14975937Y-5715000D02*
X14970937Y-5720000D01*
X14700000Y-6800000D02*
X14700000Y-6520000D01*
X14630000Y-6068298D02*
X14970000Y-5721064D01*
X14630000Y-6450000D02*
X14630000Y-6068298D01*
X14700000Y-6520000D02*
X14630000Y-6450000D01*
X15800000Y-5425000D02*
X15800000Y-5580000D01*
X15130000Y-6250000D02*
X15130000Y-6770000D01*
X15800000Y-5580000D02*
X15130000Y-6250000D01*
X15113000Y-6787000D02*
X15130000Y-6770000D01*
X17300000Y-5600000D02*
X16240000Y-5600000D01*
X16240000Y-5600000D02*
X16200000Y-5560000D01*
X17140000Y-5680000D02*
X17070000Y-5680000D01*
X17100000Y-6700000D02*
X17100000Y-6800000D01*
X16750000Y-6350000D02*
X17100000Y-6700000D01*
X16750000Y-6000000D02*
X16750000Y-6350000D01*
X17070000Y-5680000D02*
X16750000Y-6000000D01*
X17140000Y-5680000D02*
X17220000Y-5600000D01*
X17220000Y-5600000D02*
X17300000Y-5600000D01*
X16200000Y-5425000D02*
X16200000Y-5560000D01*
X14280000Y-3746000D02*
X14786000Y-3746000D01*
X16120000Y-4420000D02*
X16120000Y-4575000D01*
X16000000Y-4300000D02*
X16120000Y-4420000D01*
X15340000Y-4300000D02*
X16000000Y-4300000D01*
X14786000Y-3746000D02*
X15340000Y-4300000D01*
X13300000Y-3900000D02*
X12800000Y-3900000D01*
X14280000Y-3746000D02*
X14280000Y-3720000D01*
X14280000Y-3720000D02*
X14180000Y-3620000D01*
X14180000Y-3620000D02*
X13820000Y-3620000D01*
X13820000Y-3620000D02*
X13540000Y-3900000D01*
X13540000Y-3900000D02*
X13300000Y-3900000D01*
X16040000Y-4575000D02*
X16040000Y-4420000D01*
X14200000Y-3880000D02*
X14830000Y-3880000D01*
X14830000Y-3880000D02*
X15320000Y-4370000D01*
X15320000Y-4370000D02*
X15990000Y-4370000D01*
X15990000Y-4370000D02*
X16040000Y-4420000D01*
X14200000Y-3880000D02*
X14066000Y-3746000D01*
X14060000Y-3746000D02*
X14066000Y-3746000D01*
X12800000Y-4100000D02*
X13300000Y-4100000D01*
X13300000Y-4100000D02*
X13580000Y-4100000D01*
X13580000Y-4100000D02*
X13934000Y-3746000D01*
X13934000Y-3746000D02*
X14060000Y-3746000D01*
X17300000Y-6100000D02*
X17300000Y-6020000D01*
X17300000Y-6020000D02*
X17350000Y-5970000D01*
X17350000Y-5970000D02*
X18010000Y-5970000D01*
X18010000Y-5970000D02*
X18100000Y-6060000D01*
X18100000Y-6060000D02*
X18100000Y-6100000D01*
X19700000Y-6800000D02*
X19700000Y-6350000D01*
X15575000Y-5120000D02*
X15440000Y-5120000D01*
X13500000Y-6354000D02*
X13496000Y-6354000D01*
X13496000Y-6354000D02*
X13220000Y-6630000D01*
X13220000Y-6630000D02*
X12800000Y-6630000D01*
X20825000Y-5400000D02*
X20825000Y-5500000D01*
X20800000Y-5525000D02*
X20800000Y-5650000D01*
X20825000Y-5500000D02*
X20800000Y-5525000D01*
X20650000Y-5650000D02*
X20650000Y-5479000D01*
X20650000Y-5479000D02*
X20571000Y-5400000D01*
X20650000Y-5650000D02*
X20650000Y-5550000D01*
X21100000Y-7150000D02*
X21100000Y-7275000D01*
X21100000Y-7275000D02*
X20975000Y-7400000D01*
X20300000Y-7400000D02*
X20200000Y-7300000D01*
X20975000Y-7400000D02*
X20300000Y-7400000D01*
X22300000Y-7150000D02*
X22300000Y-7350000D01*
X21200000Y-7375000D02*
X21100000Y-7275000D01*
X22275000Y-7375000D02*
X21200000Y-7375000D01*
X22300000Y-7350000D02*
X22275000Y-7375000D01*
X21777000Y-4278500D02*
X21777000Y-4423000D01*
X20687000Y-4387000D02*
X20687000Y-4303500D01*
X20750000Y-4450000D02*
X20687000Y-4387000D01*
X21750000Y-4450000D02*
X20750000Y-4450000D01*
X21777000Y-4423000D02*
X21750000Y-4450000D01*
X20687000Y-4303500D02*
X20687000Y-4313000D01*
X20687000Y-4313000D02*
X20550000Y-4450000D01*
X20550000Y-4450000D02*
X19900000Y-4450000D01*
X19900000Y-4450000D02*
X19650000Y-4200000D01*
X21777000Y-3178500D02*
X21777000Y-4278500D01*
X20937000Y-3178500D02*
X20937000Y-3237000D01*
X20687000Y-3153500D02*
X20753500Y-3153500D01*
X20778500Y-3178500D02*
X20937000Y-3178500D01*
X20753500Y-3153500D02*
X20778500Y-3178500D01*
X19650000Y-3400000D02*
X19900000Y-3150000D01*
X19900000Y-3150000D02*
X20683500Y-3150000D01*
X20683500Y-3150000D02*
X20687000Y-3153500D01*
X19650000Y-3400000D02*
X19650000Y-4200000D01*
X19650000Y-2650000D02*
X19650000Y-3400000D01*
X16460000Y-3320000D02*
X16460000Y-3440000D01*
X16640000Y-3620000D02*
X16640000Y-4340000D01*
X16460000Y-3440000D02*
X16640000Y-3620000D01*
X16425000Y-4880000D02*
X16600000Y-4880000D01*
X16640000Y-4840000D02*
X16640000Y-4340000D01*
X16600000Y-4880000D02*
X16640000Y-4840000D01*
X16660000Y-3320000D02*
X16660000Y-3500000D01*
X16950000Y-3790000D02*
X16950000Y-4990000D01*
X16660000Y-3500000D02*
X16950000Y-3790000D01*
X16425000Y-5120000D02*
X16820000Y-5120000D01*
X16820000Y-5120000D02*
X16950000Y-4990000D01*
X21450000Y-2650000D02*
X21450000Y-2850000D01*
X21057000Y-2957000D02*
X21057000Y-3178500D01*
X21050000Y-2950000D02*
X21057000Y-2957000D01*
X20707000Y-4028500D02*
X20821500Y-4028500D01*
X21057000Y-3793000D02*
X21057000Y-3178500D01*
X20821500Y-4028500D02*
X21057000Y-3793000D01*
X21657000Y-4278500D02*
X21657000Y-4157000D01*
X21528500Y-4028500D02*
X20707000Y-4028500D01*
X21657000Y-4157000D02*
X21528500Y-4028500D01*
X21250000Y-2650000D02*
X21250000Y-2800000D01*
X21297000Y-2847000D02*
X21297000Y-3178500D01*
X21250000Y-2800000D02*
X21297000Y-2847000D01*
X21177000Y-3178500D02*
X21177000Y-2927000D01*
X21050000Y-2800000D02*
X21050000Y-2650000D01*
X21177000Y-2927000D02*
X21050000Y-2800000D01*
X20025000Y-5900000D02*
X19950000Y-5975000D01*
X19950000Y-5975000D02*
X19950000Y-6346000D01*
X19950000Y-6346000D02*
X19954000Y-6350000D01*
X19954000Y-6350000D02*
X19954000Y-6221000D01*
X20500000Y-5650000D02*
X20275000Y-5650000D01*
X20275000Y-5650000D02*
X20025000Y-5900000D01*
X20325000Y-6925000D02*
X20425000Y-6925000D01*
X20425000Y-6925000D02*
X20500000Y-6850000D01*
X20500000Y-5825000D02*
X20500000Y-5650000D01*
X20575000Y-5900000D02*
X20500000Y-5825000D01*
X20575000Y-6775000D02*
X20575000Y-5900000D01*
X20500000Y-6850000D02*
X20575000Y-6775000D01*
X20500000Y-7150000D02*
X20500000Y-7000000D01*
X20500000Y-7000000D02*
X20425000Y-6925000D01*
X15440000Y-4880000D02*
X15575000Y-4880000D01*
X13800000Y-6354000D02*
X13800000Y-6350000D01*
X13800000Y-6350000D02*
X13675000Y-6225000D01*
X13675000Y-6225000D02*
X13275000Y-6225000D01*
X13275000Y-6225000D02*
X13070000Y-6430000D01*
X13070000Y-6430000D02*
X12800000Y-6430000D01*
X15575000Y-5280000D02*
X15484500Y-5280000D01*
X15484500Y-5280000D02*
X15176500Y-5588000D01*
X15176500Y-5588000D02*
X15113000Y-5588000D01*
D34*
X16400000Y-2700000D02*
X16300000Y-2700000D01*
X16200000Y-2800000D02*
X15954000Y-2800000D01*
X16300000Y-2700000D02*
X16200000Y-2800000D01*
X16900000Y-2800000D02*
X16800000Y-2800000D01*
X16700000Y-2700000D02*
X16400000Y-2700000D01*
X16800000Y-2800000D02*
X16700000Y-2700000D01*
X17200000Y-2800000D02*
X16900000Y-2800000D01*
D33*
X15748000Y-3800000D02*
X15748000Y-3968000D01*
X15748000Y-3968000D02*
X15960000Y-4180000D01*
X20800000Y-7150000D02*
X20800000Y-7250000D01*
X20800000Y-7250000D02*
X20725000Y-7325000D01*
X19954000Y-6904000D02*
X19954000Y-6800000D01*
X20125000Y-7075000D02*
X19954000Y-6904000D01*
X20275000Y-7075000D02*
X20125000Y-7075000D01*
X20350000Y-7150000D02*
X20275000Y-7075000D01*
X20350000Y-7250000D02*
X20350000Y-7150000D01*
X20425000Y-7325000D02*
X20350000Y-7250000D01*
X20725000Y-7325000D02*
X20425000Y-7325000D01*
X21850000Y-7150000D02*
X21850000Y-7000000D01*
X20800000Y-7025000D02*
X20800000Y-7150000D01*
X20925000Y-6900000D02*
X20800000Y-7025000D01*
X21750000Y-6900000D02*
X20925000Y-6900000D01*
X21850000Y-7000000D02*
X21750000Y-6900000D01*
X22150000Y-5500000D02*
X22150000Y-5650000D01*
X21900000Y-5250000D02*
X22150000Y-5500000D01*
X20525000Y-5250000D02*
X21900000Y-5250000D01*
X19750000Y-6025000D02*
X20525000Y-5250000D01*
X19750000Y-6100000D02*
X19750000Y-6025000D01*
X19700000Y-5796000D02*
X19704000Y-5796000D01*
X19704000Y-5796000D02*
X19875000Y-5625000D01*
X19875000Y-5625000D02*
X19875000Y-5625000D01*
X22300000Y-5450000D02*
X22300000Y-5650000D01*
X20325000Y-5175000D02*
X22025000Y-5175000D01*
X19875000Y-5625000D02*
X20325000Y-5175000D01*
X22025000Y-5175000D02*
X22300000Y-5450000D01*
D35*
G36*
X13322738Y-2574204D02*
X13299729Y-2580729D01*
X13283830Y-2631340D01*
X13288509Y-2684183D01*
X13299729Y-2711271D01*
X13322738Y-2717796D01*
X13394534Y-2646000D01*
X13393120Y-2644586D01*
X13417586Y-2620120D01*
X13419000Y-2621534D01*
X13420414Y-2620120D01*
X13444880Y-2644586D01*
X13443466Y-2646000D01*
X13515262Y-2717796D01*
X13538271Y-2711271D01*
X13554170Y-2660660D01*
X13549491Y-2607817D01*
X13538271Y-2580729D01*
X13515262Y-2574204D01*
X13518466Y-2571000D01*
X14081534Y-2571000D01*
X14084738Y-2574204D01*
X14061729Y-2580729D01*
X14045830Y-2631340D01*
X14050509Y-2684183D01*
X14061729Y-2711271D01*
X14084738Y-2717796D01*
X14156534Y-2646000D01*
X14155120Y-2644586D01*
X14179586Y-2620120D01*
X14181000Y-2621534D01*
X14182414Y-2620120D01*
X14206880Y-2644586D01*
X14205466Y-2646000D01*
X14277262Y-2717796D01*
X14300271Y-2711271D01*
X14316170Y-2660660D01*
X14311491Y-2607817D01*
X14300271Y-2580729D01*
X14277262Y-2574204D01*
X14280466Y-2571000D01*
X16336429Y-2571000D01*
X16318820Y-2578276D01*
X16310581Y-2586500D01*
X16300000Y-2586500D01*
X16256565Y-2595140D01*
X16219743Y-2619743D01*
X16152987Y-2686500D01*
X16092376Y-2686500D01*
X16070743Y-2654125D01*
X16017181Y-2618335D01*
X15954000Y-2605768D01*
X15890819Y-2618335D01*
X15837257Y-2654125D01*
X15825654Y-2671489D01*
X15803845Y-2645450D01*
X15746517Y-2615541D01*
X15742772Y-2615137D01*
X15717300Y-2626381D01*
X15717300Y-2782700D01*
X15719300Y-2782700D01*
X15719300Y-2817300D01*
X15717300Y-2817300D01*
X15717300Y-2973619D01*
X15742772Y-2984863D01*
X15746517Y-2984459D01*
X15803845Y-2954550D01*
X15825654Y-2928511D01*
X15837257Y-2945875D01*
X15890819Y-2981665D01*
X15954000Y-2994232D01*
X16017181Y-2981665D01*
X16070743Y-2945875D01*
X16092376Y-2913500D01*
X16200000Y-2913500D01*
X16243435Y-2904860D01*
X16269406Y-2887507D01*
X16254691Y-2932906D01*
X16259210Y-2989815D01*
X16272293Y-3021400D01*
X16296349Y-3029185D01*
X16375534Y-2950000D01*
X16424466Y-2950000D01*
X16503650Y-3029185D01*
X16527707Y-3021400D01*
X16545309Y-2967094D01*
X16540790Y-2910185D01*
X16527707Y-2878600D01*
X16503650Y-2870815D01*
X16424466Y-2950000D01*
X16375534Y-2950000D01*
X16374120Y-2948586D01*
X16398586Y-2924120D01*
X16400000Y-2925534D01*
X16479185Y-2846349D01*
X16472391Y-2825356D01*
X16481180Y-2821724D01*
X16489419Y-2813500D01*
X16652987Y-2813500D01*
X16719743Y-2880257D01*
X16753623Y-2902894D01*
X16754684Y-2908532D01*
X16768591Y-2930144D01*
X16789811Y-2944643D01*
X16800103Y-2946727D01*
X16770509Y-2981303D01*
X16757033Y-3013841D01*
X16768508Y-3036700D01*
X16882700Y-3036700D01*
X16882700Y-3034700D01*
X16917300Y-3034700D01*
X16917300Y-3036700D01*
X17031492Y-3036700D01*
X17042967Y-3013841D01*
X17038737Y-3003629D01*
X17128095Y-3003629D01*
X17200000Y-3075534D01*
X17271905Y-3003629D01*
X17265362Y-2980605D01*
X17214696Y-2964680D01*
X17161793Y-2969357D01*
X17134638Y-2980605D01*
X17128095Y-3003629D01*
X17038737Y-3003629D01*
X17029491Y-2981303D01*
X17000055Y-2946911D01*
X17008532Y-2945316D01*
X17030144Y-2931409D01*
X17042381Y-2913500D01*
X17125219Y-2913500D01*
X17173329Y-2933477D01*
X17226438Y-2933523D01*
X17275523Y-2913242D01*
X17313110Y-2875720D01*
X17326522Y-2843421D01*
X17328047Y-2851088D01*
X17356986Y-2894399D01*
X17378000Y-2908440D01*
X17378000Y-2991560D01*
X17356986Y-3005601D01*
X17328047Y-3048912D01*
X17327158Y-3053379D01*
X17319395Y-3034638D01*
X17296371Y-3028095D01*
X17224466Y-3100000D01*
X17296371Y-3171905D01*
X17319395Y-3165362D01*
X17326432Y-3142972D01*
X17328047Y-3151088D01*
X17356986Y-3194399D01*
X17400296Y-3223338D01*
X17451385Y-3233500D01*
X17456615Y-3233500D01*
X17507704Y-3223338D01*
X17551014Y-3194399D01*
X17571234Y-3164138D01*
X17578276Y-3181180D01*
X17618608Y-3221582D01*
X17671331Y-3243475D01*
X17728419Y-3243525D01*
X17781180Y-3221724D01*
X17799285Y-3203650D01*
X17870815Y-3203650D01*
X17878600Y-3227707D01*
X17932906Y-3245309D01*
X17989815Y-3240790D01*
X18021400Y-3227707D01*
X18029185Y-3203650D01*
X17950000Y-3124466D01*
X17870815Y-3203650D01*
X17799285Y-3203650D01*
X17821582Y-3181392D01*
X17825324Y-3172381D01*
X17846350Y-3179185D01*
X17925534Y-3100000D01*
X17974466Y-3100000D01*
X18053651Y-3179185D01*
X18077707Y-3171400D01*
X18095309Y-3117094D01*
X18090790Y-3060185D01*
X18077707Y-3028600D01*
X18053651Y-3020815D01*
X17974466Y-3100000D01*
X17925534Y-3100000D01*
X17924120Y-3098586D01*
X17948586Y-3074120D01*
X17950000Y-3075534D01*
X18029185Y-2996349D01*
X18021400Y-2972293D01*
X17967094Y-2954691D01*
X17951556Y-2955925D01*
X18063965Y-2843516D01*
X18074419Y-2843525D01*
X18127180Y-2821724D01*
X18145285Y-2803650D01*
X18220815Y-2803650D01*
X18228600Y-2827707D01*
X18282906Y-2845309D01*
X18339815Y-2840790D01*
X18371400Y-2827707D01*
X18379185Y-2803650D01*
X18300000Y-2724466D01*
X18220815Y-2803650D01*
X18145285Y-2803650D01*
X18167582Y-2781392D01*
X18172013Y-2770723D01*
X18172293Y-2771400D01*
X18196350Y-2779185D01*
X18275534Y-2700000D01*
X18196350Y-2620815D01*
X18172293Y-2628600D01*
X18172061Y-2629316D01*
X18167724Y-2618820D01*
X18127392Y-2578418D01*
X18109529Y-2571000D01*
X18231722Y-2571000D01*
X18228600Y-2572293D01*
X18220815Y-2596350D01*
X18300000Y-2675534D01*
X18379185Y-2596350D01*
X18371400Y-2572293D01*
X18367410Y-2571000D01*
X18490429Y-2571000D01*
X18472820Y-2578276D01*
X18432418Y-2618608D01*
X18427987Y-2629277D01*
X18427707Y-2628600D01*
X18403651Y-2620815D01*
X18324466Y-2700000D01*
X18403651Y-2779185D01*
X18427707Y-2771400D01*
X18427939Y-2770684D01*
X18432276Y-2781180D01*
X18472608Y-2821582D01*
X18478000Y-2823821D01*
X18478000Y-3271568D01*
X18474856Y-3273591D01*
X18460357Y-3294811D01*
X18455256Y-3320000D01*
X18455256Y-3321335D01*
X18453651Y-3320815D01*
X18374466Y-3400000D01*
X18453651Y-3479185D01*
X18455256Y-3478665D01*
X18455256Y-3480000D01*
X18459684Y-3503532D01*
X18473591Y-3525144D01*
X18494811Y-3539643D01*
X18520000Y-3544744D01*
X18680000Y-3544744D01*
X18703532Y-3540316D01*
X18721362Y-3528842D01*
X18824000Y-3631480D01*
X18824000Y-3776135D01*
X18818820Y-3778276D01*
X18800003Y-3797060D01*
X18781392Y-3778418D01*
X18728669Y-3756525D01*
X18671581Y-3756475D01*
X18618820Y-3778276D01*
X18600003Y-3797060D01*
X18581392Y-3778418D01*
X18576000Y-3776178D01*
X18576000Y-3740000D01*
X18570215Y-3710916D01*
X18553740Y-3686260D01*
X18413740Y-3546260D01*
X18399531Y-3536765D01*
X18421400Y-3527707D01*
X18429185Y-3503650D01*
X18350000Y-3424466D01*
X18270815Y-3503650D01*
X18277400Y-3524000D01*
X17863308Y-3524000D01*
X17851014Y-3505601D01*
X17842631Y-3500000D01*
X17851014Y-3494399D01*
X17879953Y-3451088D01*
X17890115Y-3400000D01*
X17886715Y-3382906D01*
X18204691Y-3382906D01*
X18209210Y-3439815D01*
X18222293Y-3471400D01*
X18246350Y-3479185D01*
X18325534Y-3400000D01*
X18246350Y-3320815D01*
X18222293Y-3328600D01*
X18204691Y-3382906D01*
X17886715Y-3382906D01*
X17879953Y-3348912D01*
X17851014Y-3305601D01*
X17837168Y-3296349D01*
X18270815Y-3296349D01*
X18350000Y-3375534D01*
X18429185Y-3296349D01*
X18421400Y-3272293D01*
X18367094Y-3254691D01*
X18310185Y-3259210D01*
X18278600Y-3272293D01*
X18270815Y-3296349D01*
X17837168Y-3296349D01*
X17807704Y-3276662D01*
X17756615Y-3266500D01*
X17751385Y-3266500D01*
X17700296Y-3276662D01*
X17656986Y-3305601D01*
X17628047Y-3348912D01*
X17627158Y-3353379D01*
X17619395Y-3334638D01*
X17596371Y-3328095D01*
X17524466Y-3400000D01*
X17596371Y-3471905D01*
X17619395Y-3465362D01*
X17626432Y-3442972D01*
X17628047Y-3451088D01*
X17656986Y-3494399D01*
X17665369Y-3500000D01*
X17656986Y-3505601D01*
X17628047Y-3548912D01*
X17626517Y-3556604D01*
X17613242Y-3524477D01*
X17575720Y-3486890D01*
X17552983Y-3477449D01*
X17500000Y-3424466D01*
X17447024Y-3477442D01*
X17424477Y-3486758D01*
X17386890Y-3524280D01*
X17366523Y-3573329D01*
X17366477Y-3626438D01*
X17386758Y-3675523D01*
X17424280Y-3713110D01*
X17473329Y-3733477D01*
X17526438Y-3733523D01*
X17575523Y-3713242D01*
X17613110Y-3675720D01*
X17626522Y-3643421D01*
X17628047Y-3651088D01*
X17656986Y-3694399D01*
X17700296Y-3723338D01*
X17751385Y-3733500D01*
X17756615Y-3733500D01*
X17807704Y-3723338D01*
X17851014Y-3694399D01*
X17863308Y-3676000D01*
X18328520Y-3676000D01*
X18424000Y-3771480D01*
X18424000Y-3776135D01*
X18418820Y-3778276D01*
X18400003Y-3797060D01*
X18381392Y-3778418D01*
X18328669Y-3756525D01*
X18271581Y-3756475D01*
X18218820Y-3778276D01*
X18200003Y-3797060D01*
X18181392Y-3778418D01*
X18128669Y-3756525D01*
X18071581Y-3756475D01*
X18018820Y-3778276D01*
X18000003Y-3797060D01*
X17981392Y-3778418D01*
X17928669Y-3756525D01*
X17871581Y-3756475D01*
X17818820Y-3778276D01*
X17800003Y-3797060D01*
X17781392Y-3778418D01*
X17728669Y-3756525D01*
X17671581Y-3756475D01*
X17618820Y-3778276D01*
X17600003Y-3797060D01*
X17581392Y-3778418D01*
X17528669Y-3756525D01*
X17471581Y-3756475D01*
X17418820Y-3778276D01*
X17400003Y-3797060D01*
X17381392Y-3778418D01*
X17328669Y-3756525D01*
X17271581Y-3756475D01*
X17218820Y-3778276D01*
X17201815Y-3795251D01*
X17191049Y-3784485D01*
X17179185Y-3796349D01*
X17171400Y-3772293D01*
X17117094Y-3754691D01*
X17060185Y-3759210D01*
X17028600Y-3772293D01*
X17024808Y-3784010D01*
X17020215Y-3760916D01*
X17003740Y-3736260D01*
X16736000Y-3468520D01*
X16736000Y-3426310D01*
X16752631Y-3415197D01*
X16772605Y-3385304D01*
X17364680Y-3385304D01*
X17369357Y-3438207D01*
X17380605Y-3465362D01*
X17403629Y-3471905D01*
X17475534Y-3400000D01*
X17403629Y-3328095D01*
X17380605Y-3334638D01*
X17364680Y-3385304D01*
X16772605Y-3385304D01*
X16781028Y-3372698D01*
X16791000Y-3322566D01*
X16791000Y-3317434D01*
X16788254Y-3303629D01*
X17428095Y-3303629D01*
X17500000Y-3375534D01*
X17571905Y-3303629D01*
X17565362Y-3280605D01*
X17514696Y-3264680D01*
X17461793Y-3269357D01*
X17434638Y-3280605D01*
X17428095Y-3303629D01*
X16788254Y-3303629D01*
X16781028Y-3267302D01*
X16752631Y-3224803D01*
X16710131Y-3196405D01*
X16660000Y-3186434D01*
X16609868Y-3196405D01*
X16567369Y-3224803D01*
X16560000Y-3235831D01*
X16552631Y-3224803D01*
X16510131Y-3196405D01*
X16460000Y-3186434D01*
X16409868Y-3196405D01*
X16367369Y-3224803D01*
X16360000Y-3235831D01*
X16352631Y-3224803D01*
X16310131Y-3196405D01*
X16260000Y-3186434D01*
X16209868Y-3196405D01*
X16180699Y-3215896D01*
X16163470Y-3198667D01*
X16140131Y-3189000D01*
X16093175Y-3189000D01*
X16077300Y-3204875D01*
X16077300Y-3302700D01*
X16079300Y-3302700D01*
X16079300Y-3337300D01*
X16077300Y-3337300D01*
X16077300Y-3339300D01*
X16042700Y-3339300D01*
X16042700Y-3337300D01*
X15944875Y-3337300D01*
X15929000Y-3353175D01*
X15929000Y-3400131D01*
X15938667Y-3423470D01*
X15956530Y-3441333D01*
X15979869Y-3451000D01*
X16021520Y-3451000D01*
X15990000Y-3482520D01*
X15747349Y-3239869D01*
X15929000Y-3239869D01*
X15929000Y-3286825D01*
X15944875Y-3302700D01*
X16042700Y-3302700D01*
X16042700Y-3204875D01*
X16026825Y-3189000D01*
X15979869Y-3189000D01*
X15956530Y-3198667D01*
X15938667Y-3216530D01*
X15929000Y-3239869D01*
X15747349Y-3239869D01*
X15561131Y-3053650D01*
X16320815Y-3053650D01*
X16328600Y-3077707D01*
X16382906Y-3095309D01*
X16397387Y-3094159D01*
X16757033Y-3094159D01*
X16770509Y-3126696D01*
X16808186Y-3170717D01*
X16859840Y-3196968D01*
X16882700Y-3185615D01*
X16882700Y-3071300D01*
X16917300Y-3071300D01*
X16917300Y-3185615D01*
X16940160Y-3196968D01*
X16941334Y-3196371D01*
X17128095Y-3196371D01*
X17134638Y-3219395D01*
X17185304Y-3235320D01*
X17238208Y-3230643D01*
X17265362Y-3219395D01*
X17271905Y-3196371D01*
X17200000Y-3124466D01*
X17128095Y-3196371D01*
X16941334Y-3196371D01*
X16991814Y-3170717D01*
X17029491Y-3126696D01*
X17042967Y-3094159D01*
X17038522Y-3085304D01*
X17064680Y-3085304D01*
X17069357Y-3138207D01*
X17080605Y-3165362D01*
X17103629Y-3171905D01*
X17175534Y-3100000D01*
X17103629Y-3028095D01*
X17080605Y-3034638D01*
X17064680Y-3085304D01*
X17038522Y-3085304D01*
X17031492Y-3071300D01*
X16917300Y-3071300D01*
X16882700Y-3071300D01*
X16768508Y-3071300D01*
X16757033Y-3094159D01*
X16397387Y-3094159D01*
X16439815Y-3090790D01*
X16471400Y-3077707D01*
X16479185Y-3053650D01*
X16400000Y-2974466D01*
X16320815Y-3053650D01*
X15561131Y-3053650D01*
X15522000Y-3014520D01*
X15522000Y-2973099D01*
X15562743Y-2945875D01*
X15574346Y-2928511D01*
X15596155Y-2954550D01*
X15653483Y-2984459D01*
X15657228Y-2984863D01*
X15682700Y-2973619D01*
X15682700Y-2817300D01*
X15680700Y-2817300D01*
X15680700Y-2782700D01*
X15682700Y-2782700D01*
X15682700Y-2626381D01*
X15657228Y-2615137D01*
X15653483Y-2615541D01*
X15596155Y-2645450D01*
X15574346Y-2671489D01*
X15562743Y-2654125D01*
X15509181Y-2618335D01*
X15446000Y-2605768D01*
X15382819Y-2618335D01*
X15329257Y-2654125D01*
X15307624Y-2686500D01*
X15300000Y-2686500D01*
X15256565Y-2695140D01*
X15219743Y-2719743D01*
X14952987Y-2986500D01*
X14833902Y-2986500D01*
X14826409Y-2974856D01*
X14805189Y-2960357D01*
X14780000Y-2955256D01*
X14778665Y-2955256D01*
X14779185Y-2953650D01*
X14700000Y-2874466D01*
X14620815Y-2953650D01*
X14621335Y-2955256D01*
X14620000Y-2955256D01*
X14596468Y-2959684D01*
X14574856Y-2973591D01*
X14560357Y-2994811D01*
X14555256Y-3020000D01*
X14555256Y-3064231D01*
X14272621Y-3346865D01*
X14224477Y-3366758D01*
X14186890Y-3404280D01*
X14173478Y-3436579D01*
X14171953Y-3428912D01*
X14143014Y-3385601D01*
X14122000Y-3371560D01*
X14122000Y-3325480D01*
X14160148Y-3287332D01*
X14207409Y-3287373D01*
X14256438Y-3267115D01*
X14293983Y-3229635D01*
X14314327Y-3180641D01*
X14314373Y-3127591D01*
X14294115Y-3078562D01*
X14256635Y-3041017D01*
X14207641Y-3020673D01*
X14154591Y-3020627D01*
X14105562Y-3040885D01*
X14068383Y-3078000D01*
X13531554Y-3078000D01*
X13494635Y-3041017D01*
X13445641Y-3020673D01*
X13392591Y-3020627D01*
X13343562Y-3040885D01*
X13306017Y-3078365D01*
X13285673Y-3127359D01*
X13285627Y-3180409D01*
X13305885Y-3229438D01*
X13343365Y-3266983D01*
X13392359Y-3287327D01*
X13445409Y-3287373D01*
X13494438Y-3267115D01*
X13531617Y-3230000D01*
X14002520Y-3230000D01*
X13992260Y-3240260D01*
X13975785Y-3264916D01*
X13970000Y-3294000D01*
X13970000Y-3371560D01*
X13948986Y-3385601D01*
X13920047Y-3428912D01*
X13909885Y-3480000D01*
X13920047Y-3531088D01*
X13928674Y-3544000D01*
X13820000Y-3544000D01*
X13790916Y-3549785D01*
X13766260Y-3566260D01*
X13508520Y-3824000D01*
X13406310Y-3824000D01*
X13395197Y-3807369D01*
X13384169Y-3800000D01*
X13395197Y-3792631D01*
X13423595Y-3750131D01*
X13433566Y-3700000D01*
X13423595Y-3649868D01*
X13404104Y-3620699D01*
X13421333Y-3603470D01*
X13431000Y-3580131D01*
X13431000Y-3533175D01*
X13415125Y-3517300D01*
X13317300Y-3517300D01*
X13317300Y-3519300D01*
X13282700Y-3519300D01*
X13282700Y-3517300D01*
X13184875Y-3517300D01*
X13169000Y-3533175D01*
X13169000Y-3580131D01*
X13178667Y-3603470D01*
X13195896Y-3620699D01*
X13176405Y-3649868D01*
X13166434Y-3700000D01*
X13176405Y-3750131D01*
X13204803Y-3792631D01*
X13215831Y-3800000D01*
X13204803Y-3807369D01*
X13193690Y-3824000D01*
X12906310Y-3824000D01*
X12895197Y-3807369D01*
X12884169Y-3800000D01*
X12895197Y-3792631D01*
X12923595Y-3750131D01*
X12933566Y-3700000D01*
X12923595Y-3649868D01*
X12904104Y-3620699D01*
X12921333Y-3603470D01*
X12931000Y-3580131D01*
X12931000Y-3533175D01*
X12915125Y-3517300D01*
X12817300Y-3517300D01*
X12817300Y-3519300D01*
X12782700Y-3519300D01*
X12782700Y-3517300D01*
X12684875Y-3517300D01*
X12669000Y-3533175D01*
X12669000Y-3580131D01*
X12678667Y-3603470D01*
X12695896Y-3620699D01*
X12676405Y-3649868D01*
X12666434Y-3700000D01*
X12676405Y-3750131D01*
X12704803Y-3792631D01*
X12715831Y-3800000D01*
X12704803Y-3807369D01*
X12676405Y-3849868D01*
X12666434Y-3900000D01*
X12676405Y-3950131D01*
X12704803Y-3992631D01*
X12715831Y-4000000D01*
X12704803Y-4007369D01*
X12676405Y-4049868D01*
X12666434Y-4100000D01*
X12676405Y-4150131D01*
X12704803Y-4192631D01*
X12747302Y-4221028D01*
X12797434Y-4231000D01*
X12802566Y-4231000D01*
X12852698Y-4221028D01*
X12895197Y-4192631D01*
X12906310Y-4176000D01*
X13193690Y-4176000D01*
X13204803Y-4192631D01*
X13247302Y-4221028D01*
X13297434Y-4231000D01*
X13302566Y-4231000D01*
X13352698Y-4221028D01*
X13356600Y-4218421D01*
X13352109Y-4222904D01*
X13319537Y-4301346D01*
X13319463Y-4386282D01*
X13351898Y-4464780D01*
X13411904Y-4524891D01*
X13490346Y-4557463D01*
X13575281Y-4557537D01*
X13653780Y-4525102D01*
X13713891Y-4465096D01*
X13737638Y-4407906D01*
X14804691Y-4407906D01*
X14809210Y-4464815D01*
X14822293Y-4496400D01*
X14846349Y-4504185D01*
X14925534Y-4425000D01*
X14846349Y-4345815D01*
X14822293Y-4353600D01*
X14804691Y-4407906D01*
X13737638Y-4407906D01*
X13746463Y-4386654D01*
X13746520Y-4321350D01*
X14870815Y-4321350D01*
X14950000Y-4400534D01*
X15029185Y-4321350D01*
X15021400Y-4297293D01*
X14967094Y-4279691D01*
X14910185Y-4284210D01*
X14878600Y-4297293D01*
X14870815Y-4321350D01*
X13746520Y-4321350D01*
X13746537Y-4301719D01*
X13714102Y-4223220D01*
X13654096Y-4163109D01*
X13632894Y-4154305D01*
X13633740Y-4153740D01*
X13957136Y-3830345D01*
X13965601Y-3843014D01*
X14008912Y-3871953D01*
X14016604Y-3873483D01*
X13984477Y-3886758D01*
X13946890Y-3924280D01*
X13926523Y-3973329D01*
X13926477Y-4026438D01*
X13946758Y-4075523D01*
X13984280Y-4113110D01*
X14033329Y-4133477D01*
X14086438Y-4133523D01*
X14135523Y-4113242D01*
X14170027Y-4078798D01*
X14204280Y-4113110D01*
X14253329Y-4133477D01*
X14306438Y-4133523D01*
X14355523Y-4113242D01*
X14393110Y-4075720D01*
X14413477Y-4026671D01*
X14413523Y-3973562D01*
X14406267Y-3956000D01*
X14798520Y-3956000D01*
X15137908Y-4295389D01*
X15118820Y-4303276D01*
X15078418Y-4343608D01*
X15074676Y-4352619D01*
X15053650Y-4345815D01*
X14974466Y-4425000D01*
X14975880Y-4426414D01*
X14951414Y-4450880D01*
X14950000Y-4449466D01*
X14870815Y-4528651D01*
X14878600Y-4552707D01*
X14897641Y-4558879D01*
X14678260Y-4778260D01*
X14661785Y-4802916D01*
X14656000Y-4832000D01*
X14656000Y-4991583D01*
X14622892Y-4958418D01*
X14570169Y-4936525D01*
X14513081Y-4936475D01*
X14460320Y-4958276D01*
X14419918Y-4998608D01*
X14416176Y-5007619D01*
X14395150Y-5000815D01*
X14315966Y-5080000D01*
X14395150Y-5159185D01*
X14416144Y-5152391D01*
X14419776Y-5161180D01*
X14460108Y-5201582D01*
X14512831Y-5223475D01*
X14569919Y-5223525D01*
X14622680Y-5201724D01*
X14656000Y-5168462D01*
X14656000Y-5499583D01*
X14622892Y-5466418D01*
X14570169Y-5444525D01*
X14513081Y-5444475D01*
X14460320Y-5466276D01*
X14419918Y-5506608D01*
X14416176Y-5515619D01*
X14395150Y-5508815D01*
X14315966Y-5588000D01*
X14395150Y-5667185D01*
X14416144Y-5660391D01*
X14419776Y-5669180D01*
X14460108Y-5709582D01*
X14490371Y-5722149D01*
X13918886Y-6293634D01*
X13894399Y-6256986D01*
X13851088Y-6228047D01*
X13843395Y-6226516D01*
X13875523Y-6213242D01*
X13913110Y-6175720D01*
X13933477Y-6126671D01*
X13933523Y-6073562D01*
X13913242Y-6024477D01*
X13875720Y-5986890D01*
X13826671Y-5966523D01*
X13773562Y-5966477D01*
X13724477Y-5986758D01*
X13686890Y-6024280D01*
X13666523Y-6073329D01*
X13666477Y-6126438D01*
X13675871Y-6149173D01*
X13675000Y-6149000D01*
X13624205Y-6149000D01*
X13633477Y-6126671D01*
X13633523Y-6073562D01*
X13613242Y-6024477D01*
X13575720Y-5986890D01*
X13526671Y-5966523D01*
X13473562Y-5966477D01*
X13424477Y-5986758D01*
X13386890Y-6024280D01*
X13366523Y-6073329D01*
X13366477Y-6126438D01*
X13375799Y-6149000D01*
X13275000Y-6149000D01*
X13245916Y-6154785D01*
X13221260Y-6171260D01*
X13038520Y-6354000D01*
X12906310Y-6354000D01*
X12895197Y-6337369D01*
X12884169Y-6330000D01*
X12895197Y-6322631D01*
X12923595Y-6280131D01*
X12933566Y-6230000D01*
X12923595Y-6179868D01*
X12904104Y-6150699D01*
X12921333Y-6133470D01*
X12931000Y-6110131D01*
X12931000Y-6063175D01*
X12915125Y-6047300D01*
X12817300Y-6047300D01*
X12817300Y-6049300D01*
X12782700Y-6049300D01*
X12782700Y-6047300D01*
X12684875Y-6047300D01*
X12669000Y-6063175D01*
X12669000Y-6110131D01*
X12678667Y-6133470D01*
X12695896Y-6150699D01*
X12676405Y-6179868D01*
X12666434Y-6230000D01*
X12676405Y-6280131D01*
X12704803Y-6322631D01*
X12715831Y-6330000D01*
X12704803Y-6337369D01*
X12676405Y-6379868D01*
X12666434Y-6430000D01*
X12676405Y-6480131D01*
X12704803Y-6522631D01*
X12715831Y-6530000D01*
X12704803Y-6537369D01*
X12676405Y-6579868D01*
X12666434Y-6630000D01*
X12676405Y-6680131D01*
X12704803Y-6722631D01*
X12747302Y-6751028D01*
X12797434Y-6761000D01*
X12802566Y-6761000D01*
X12852698Y-6751028D01*
X12895197Y-6722631D01*
X12906310Y-6706000D01*
X13220000Y-6706000D01*
X13249084Y-6700215D01*
X13273740Y-6683740D01*
X13472779Y-6484701D01*
X13500000Y-6490115D01*
X13551088Y-6479953D01*
X13594399Y-6451014D01*
X13623338Y-6407704D01*
X13633500Y-6356615D01*
X13633500Y-6351385D01*
X13623478Y-6301000D01*
X13643520Y-6301000D01*
X13671047Y-6328527D01*
X13666500Y-6351385D01*
X13666500Y-6356615D01*
X13676662Y-6407704D01*
X13705601Y-6451014D01*
X13739113Y-6473406D01*
X13562264Y-6650256D01*
X13415000Y-6650256D01*
X13391468Y-6654684D01*
X13369856Y-6668591D01*
X13355357Y-6689811D01*
X13350256Y-6715000D01*
X13350256Y-6885000D01*
X13354684Y-6908532D01*
X13368591Y-6930144D01*
X13389811Y-6944643D01*
X13396554Y-6946009D01*
X13392085Y-6948995D01*
X13359895Y-6997171D01*
X13348591Y-7054000D01*
X13359895Y-7110828D01*
X13392085Y-7159005D01*
X13426479Y-7181986D01*
X13408186Y-7191283D01*
X13370509Y-7235303D01*
X13357033Y-7267841D01*
X13368508Y-7290700D01*
X13482700Y-7290700D01*
X13482700Y-7288700D01*
X13517300Y-7288700D01*
X13517300Y-7290700D01*
X13631492Y-7290700D01*
X13642967Y-7267841D01*
X13629491Y-7235303D01*
X13591814Y-7191283D01*
X13573521Y-7181986D01*
X13595202Y-7167500D01*
X13804798Y-7167500D01*
X13826479Y-7181986D01*
X13808186Y-7191283D01*
X13770509Y-7235303D01*
X13757033Y-7267841D01*
X13768508Y-7290700D01*
X13882700Y-7290700D01*
X13882700Y-7288700D01*
X13917300Y-7288700D01*
X13917300Y-7290700D01*
X14031492Y-7290700D01*
X14042967Y-7267841D01*
X14029491Y-7235303D01*
X13991814Y-7191283D01*
X13973521Y-7181986D01*
X13995202Y-7167500D01*
X14204798Y-7167500D01*
X14226479Y-7181986D01*
X14208186Y-7191283D01*
X14170509Y-7235303D01*
X14157033Y-7267841D01*
X14168508Y-7290700D01*
X14282700Y-7290700D01*
X14282700Y-7288700D01*
X14317300Y-7288700D01*
X14317300Y-7290700D01*
X14431492Y-7290700D01*
X14442967Y-7267841D01*
X14429491Y-7235303D01*
X14391814Y-7191283D01*
X14373521Y-7181986D01*
X14395202Y-7167500D01*
X14604798Y-7167500D01*
X14626479Y-7181986D01*
X14608186Y-7191283D01*
X14570509Y-7235303D01*
X14557033Y-7267841D01*
X14568508Y-7290700D01*
X14682700Y-7290700D01*
X14682700Y-7288700D01*
X14717300Y-7288700D01*
X14717300Y-7290700D01*
X14831492Y-7290700D01*
X14842967Y-7267841D01*
X14829491Y-7235303D01*
X14791814Y-7191283D01*
X14773521Y-7181986D01*
X14795202Y-7167500D01*
X15004798Y-7167500D01*
X15026479Y-7181986D01*
X15008186Y-7191283D01*
X14970509Y-7235303D01*
X14957033Y-7267841D01*
X14968508Y-7290700D01*
X15082700Y-7290700D01*
X15082700Y-7288700D01*
X15117300Y-7288700D01*
X15117300Y-7290700D01*
X15231492Y-7290700D01*
X15242967Y-7267841D01*
X15229491Y-7235303D01*
X15191814Y-7191283D01*
X15173521Y-7181986D01*
X15195202Y-7167500D01*
X15404798Y-7167500D01*
X15426479Y-7181986D01*
X15408186Y-7191283D01*
X15370509Y-7235303D01*
X15357033Y-7267841D01*
X15368508Y-7290700D01*
X15482700Y-7290700D01*
X15482700Y-7288700D01*
X15517300Y-7288700D01*
X15517300Y-7290700D01*
X15631492Y-7290700D01*
X15642967Y-7267841D01*
X15629491Y-7235303D01*
X15591814Y-7191283D01*
X15573521Y-7181986D01*
X15595202Y-7167500D01*
X15804798Y-7167500D01*
X15826479Y-7181986D01*
X15808186Y-7191283D01*
X15770509Y-7235303D01*
X15757033Y-7267841D01*
X15768508Y-7290700D01*
X15882700Y-7290700D01*
X15882700Y-7288700D01*
X15917300Y-7288700D01*
X15917300Y-7290700D01*
X16031492Y-7290700D01*
X16042967Y-7267841D01*
X16029491Y-7235303D01*
X15991814Y-7191283D01*
X15973521Y-7181986D01*
X15995202Y-7167500D01*
X16204798Y-7167500D01*
X16226479Y-7181986D01*
X16208186Y-7191283D01*
X16170509Y-7235303D01*
X16157033Y-7267841D01*
X16168508Y-7290700D01*
X16282700Y-7290700D01*
X16282700Y-7288700D01*
X16317300Y-7288700D01*
X16317300Y-7290700D01*
X16431492Y-7290700D01*
X16442967Y-7267841D01*
X16429491Y-7235303D01*
X16391814Y-7191283D01*
X16373521Y-7181986D01*
X16395202Y-7167500D01*
X16604798Y-7167500D01*
X16626479Y-7181986D01*
X16608186Y-7191283D01*
X16570509Y-7235303D01*
X16557033Y-7267841D01*
X16568508Y-7290700D01*
X16682700Y-7290700D01*
X16682700Y-7288700D01*
X16717300Y-7288700D01*
X16717300Y-7290700D01*
X16831492Y-7290700D01*
X16842967Y-7267841D01*
X16829491Y-7235303D01*
X16791814Y-7191283D01*
X16773521Y-7181986D01*
X16795202Y-7167500D01*
X17004798Y-7167500D01*
X17026479Y-7181986D01*
X17008186Y-7191283D01*
X16970509Y-7235303D01*
X16957033Y-7267841D01*
X16968508Y-7290700D01*
X17082700Y-7290700D01*
X17082700Y-7288700D01*
X17117300Y-7288700D01*
X17117300Y-7290700D01*
X17231492Y-7290700D01*
X17242967Y-7267841D01*
X17229491Y-7235303D01*
X17191814Y-7191283D01*
X17173521Y-7181986D01*
X17195202Y-7167500D01*
X17404798Y-7167500D01*
X17426479Y-7181986D01*
X17408186Y-7191283D01*
X17370509Y-7235303D01*
X17357033Y-7267841D01*
X17368508Y-7290700D01*
X17482700Y-7290700D01*
X17482700Y-7288700D01*
X17517300Y-7288700D01*
X17517300Y-7290700D01*
X17631492Y-7290700D01*
X17642967Y-7267841D01*
X17629491Y-7235303D01*
X17591814Y-7191283D01*
X17573521Y-7181986D01*
X17595202Y-7167500D01*
X17804798Y-7167500D01*
X17826479Y-7181986D01*
X17808186Y-7191283D01*
X17770509Y-7235303D01*
X17757033Y-7267841D01*
X17768508Y-7290700D01*
X17882700Y-7290700D01*
X17882700Y-7288700D01*
X17917300Y-7288700D01*
X17917300Y-7290700D01*
X18031492Y-7290700D01*
X18042967Y-7267841D01*
X18029491Y-7235303D01*
X17991814Y-7191283D01*
X17973521Y-7181986D01*
X18007915Y-7159005D01*
X18040105Y-7110828D01*
X18045405Y-7084185D01*
X18074280Y-7113110D01*
X18123329Y-7133477D01*
X18172039Y-7133519D01*
X18197023Y-7158504D01*
X18192527Y-7169333D01*
X18192474Y-7230399D01*
X18215793Y-7286837D01*
X18258936Y-7330055D01*
X18315333Y-7353473D01*
X18376399Y-7353526D01*
X18432837Y-7330207D01*
X18450584Y-7312491D01*
X18456167Y-7325970D01*
X18474030Y-7343833D01*
X18497369Y-7353500D01*
X18566825Y-7353500D01*
X18582700Y-7337625D01*
X18582700Y-7217300D01*
X18617300Y-7217300D01*
X18617300Y-7337625D01*
X18633175Y-7353500D01*
X18702631Y-7353500D01*
X18725970Y-7343833D01*
X18743833Y-7325970D01*
X18753500Y-7302631D01*
X18753500Y-7233175D01*
X18737625Y-7217300D01*
X18617300Y-7217300D01*
X18582700Y-7217300D01*
X18580700Y-7217300D01*
X18580700Y-7182700D01*
X18582700Y-7182700D01*
X18582700Y-7062375D01*
X18617300Y-7062375D01*
X18617300Y-7182700D01*
X18737625Y-7182700D01*
X18753500Y-7166825D01*
X18753500Y-7097369D01*
X18743833Y-7074030D01*
X18725970Y-7056167D01*
X18702631Y-7046500D01*
X18633175Y-7046500D01*
X18617300Y-7062375D01*
X18582700Y-7062375D01*
X18566825Y-7046500D01*
X18497369Y-7046500D01*
X18474030Y-7056167D01*
X18456167Y-7074030D01*
X18450588Y-7087499D01*
X18433064Y-7069945D01*
X18376667Y-7046527D01*
X18315601Y-7046473D01*
X18304529Y-7051048D01*
X18297742Y-7044262D01*
X18776461Y-7044262D01*
X18810416Y-7126437D01*
X18873232Y-7189364D01*
X18955348Y-7223461D01*
X19044262Y-7223539D01*
X19126437Y-7189584D01*
X19189364Y-7126768D01*
X19223461Y-7044652D01*
X19223539Y-6955738D01*
X19189585Y-6873563D01*
X19126768Y-6810636D01*
X19044652Y-6776539D01*
X18955738Y-6776461D01*
X18873563Y-6810415D01*
X18810636Y-6873232D01*
X18776539Y-6955348D01*
X18776461Y-7044262D01*
X18297742Y-7044262D01*
X18282501Y-7029021D01*
X18283477Y-7026671D01*
X18283523Y-6973562D01*
X18263242Y-6924477D01*
X18225720Y-6886890D01*
X18193421Y-6873478D01*
X18201088Y-6871953D01*
X18244399Y-6843014D01*
X18273338Y-6799704D01*
X18283500Y-6748615D01*
X18283500Y-6743385D01*
X18282822Y-6739973D01*
X18315333Y-6753473D01*
X18376399Y-6753526D01*
X18432837Y-6730207D01*
X18450584Y-6712491D01*
X18456167Y-6725970D01*
X18474030Y-6743833D01*
X18497369Y-6753500D01*
X18566825Y-6753500D01*
X18582700Y-6737625D01*
X18582700Y-6617300D01*
X18617300Y-6617300D01*
X18617300Y-6737625D01*
X18633175Y-6753500D01*
X18702631Y-6753500D01*
X18725970Y-6743833D01*
X18743833Y-6725970D01*
X18753500Y-6702631D01*
X18753500Y-6633175D01*
X18737625Y-6617300D01*
X18617300Y-6617300D01*
X18582700Y-6617300D01*
X18580700Y-6617300D01*
X18580700Y-6582700D01*
X18582700Y-6582700D01*
X18582700Y-6462375D01*
X18566825Y-6446500D01*
X18497369Y-6446500D01*
X18474030Y-6456167D01*
X18456167Y-6474030D01*
X18450588Y-6487499D01*
X18433064Y-6469945D01*
X18429158Y-6468323D01*
X18471480Y-6426000D01*
X18687235Y-6426000D01*
X18711272Y-6450079D01*
X18702631Y-6446500D01*
X18633175Y-6446500D01*
X18617300Y-6462375D01*
X18617300Y-6582700D01*
X18737625Y-6582700D01*
X18753500Y-6566825D01*
X18753500Y-6497369D01*
X18743833Y-6474030D01*
X18739043Y-6469240D01*
X18773329Y-6483477D01*
X18826438Y-6483523D01*
X18875523Y-6463242D01*
X18913110Y-6425720D01*
X18926522Y-6393421D01*
X18928047Y-6401088D01*
X18956986Y-6444399D01*
X19000296Y-6473338D01*
X19051385Y-6483500D01*
X19056615Y-6483500D01*
X19107704Y-6473338D01*
X19151014Y-6444399D01*
X19179953Y-6401088D01*
X19190115Y-6350000D01*
X19183890Y-6318703D01*
X19189500Y-6290500D01*
X19189500Y-6031830D01*
X19218130Y-6012700D01*
X19287300Y-6012700D01*
X19287300Y-6075445D01*
X19286520Y-6077324D01*
X19286480Y-6122477D01*
X19287300Y-6124461D01*
X19287300Y-6225445D01*
X19286520Y-6227324D01*
X19286480Y-6272477D01*
X19287300Y-6274461D01*
X19287300Y-6375445D01*
X19286520Y-6377324D01*
X19286480Y-6422477D01*
X19287300Y-6424461D01*
X19287300Y-6525445D01*
X19286520Y-6527324D01*
X19286480Y-6572477D01*
X19287300Y-6574461D01*
X19287300Y-6675445D01*
X19286520Y-6677324D01*
X19286480Y-6722477D01*
X19287300Y-6724461D01*
X19287300Y-6825445D01*
X19286520Y-6827324D01*
X19286480Y-6872477D01*
X19287300Y-6874461D01*
X19287300Y-6975445D01*
X19286520Y-6977324D01*
X19286480Y-7022477D01*
X19287300Y-7024461D01*
X19287300Y-7125445D01*
X19286520Y-7127324D01*
X19286480Y-7172477D01*
X19287300Y-7174461D01*
X19287300Y-7275445D01*
X19286520Y-7277324D01*
X19286480Y-7322477D01*
X19287300Y-7324461D01*
X19287300Y-7425445D01*
X19286520Y-7427324D01*
X19286518Y-7429000D01*
X17983386Y-7429000D01*
X17991814Y-7424717D01*
X18029491Y-7380696D01*
X18042967Y-7348159D01*
X18031492Y-7325300D01*
X17917300Y-7325300D01*
X17917300Y-7327300D01*
X17882700Y-7327300D01*
X17882700Y-7325300D01*
X17768508Y-7325300D01*
X17757033Y-7348159D01*
X17770509Y-7380696D01*
X17808186Y-7424717D01*
X17816614Y-7429000D01*
X17583386Y-7429000D01*
X17591814Y-7424717D01*
X17629491Y-7380696D01*
X17642967Y-7348159D01*
X17631492Y-7325300D01*
X17517300Y-7325300D01*
X17517300Y-7327300D01*
X17482700Y-7327300D01*
X17482700Y-7325300D01*
X17368508Y-7325300D01*
X17357033Y-7348159D01*
X17370509Y-7380696D01*
X17408186Y-7424717D01*
X17416614Y-7429000D01*
X17183386Y-7429000D01*
X17191814Y-7424717D01*
X17229491Y-7380696D01*
X17242967Y-7348159D01*
X17231492Y-7325300D01*
X17117300Y-7325300D01*
X17117300Y-7327300D01*
X17082700Y-7327300D01*
X17082700Y-7325300D01*
X16968508Y-7325300D01*
X16957033Y-7348159D01*
X16970509Y-7380696D01*
X17008186Y-7424717D01*
X17016614Y-7429000D01*
X16783386Y-7429000D01*
X16791814Y-7424717D01*
X16829491Y-7380696D01*
X16842967Y-7348159D01*
X16831492Y-7325300D01*
X16717300Y-7325300D01*
X16717300Y-7327300D01*
X16682700Y-7327300D01*
X16682700Y-7325300D01*
X16568508Y-7325300D01*
X16557033Y-7348159D01*
X16570509Y-7380696D01*
X16608186Y-7424717D01*
X16616614Y-7429000D01*
X16383386Y-7429000D01*
X16391814Y-7424717D01*
X16429491Y-7380696D01*
X16442967Y-7348159D01*
X16431492Y-7325300D01*
X16317300Y-7325300D01*
X16317300Y-7327300D01*
X16282700Y-7327300D01*
X16282700Y-7325300D01*
X16168508Y-7325300D01*
X16157033Y-7348159D01*
X16170509Y-7380696D01*
X16208186Y-7424717D01*
X16216614Y-7429000D01*
X15983386Y-7429000D01*
X15991814Y-7424717D01*
X16029491Y-7380696D01*
X16042967Y-7348159D01*
X16031492Y-7325300D01*
X15917300Y-7325300D01*
X15917300Y-7327300D01*
X15882700Y-7327300D01*
X15882700Y-7325300D01*
X15768508Y-7325300D01*
X15757033Y-7348159D01*
X15770509Y-7380696D01*
X15808186Y-7424717D01*
X15816614Y-7429000D01*
X15583386Y-7429000D01*
X15591814Y-7424717D01*
X15629491Y-7380696D01*
X15642967Y-7348159D01*
X15631492Y-7325300D01*
X15517300Y-7325300D01*
X15517300Y-7327300D01*
X15482700Y-7327300D01*
X15482700Y-7325300D01*
X15368508Y-7325300D01*
X15357033Y-7348159D01*
X15370509Y-7380696D01*
X15408186Y-7424717D01*
X15416614Y-7429000D01*
X15183386Y-7429000D01*
X15191814Y-7424717D01*
X15229491Y-7380696D01*
X15242967Y-7348159D01*
X15231492Y-7325300D01*
X15117300Y-7325300D01*
X15117300Y-7327300D01*
X15082700Y-7327300D01*
X15082700Y-7325300D01*
X14968508Y-7325300D01*
X14957033Y-7348159D01*
X14970509Y-7380696D01*
X15008186Y-7424717D01*
X15016614Y-7429000D01*
X14783386Y-7429000D01*
X14791814Y-7424717D01*
X14829491Y-7380696D01*
X14842967Y-7348159D01*
X14831492Y-7325300D01*
X14717300Y-7325300D01*
X14717300Y-7327300D01*
X14682700Y-7327300D01*
X14682700Y-7325300D01*
X14568508Y-7325300D01*
X14557033Y-7348159D01*
X14570509Y-7380696D01*
X14608186Y-7424717D01*
X14616614Y-7429000D01*
X14383386Y-7429000D01*
X14391814Y-7424717D01*
X14429491Y-7380696D01*
X14442967Y-7348159D01*
X14431492Y-7325300D01*
X14317300Y-7325300D01*
X14317300Y-7327300D01*
X14282700Y-7327300D01*
X14282700Y-7325300D01*
X14168508Y-7325300D01*
X14157033Y-7348159D01*
X14170509Y-7380696D01*
X14208186Y-7424717D01*
X14216614Y-7429000D01*
X13983386Y-7429000D01*
X13991814Y-7424717D01*
X14029491Y-7380696D01*
X14042967Y-7348159D01*
X14031492Y-7325300D01*
X13917300Y-7325300D01*
X13917300Y-7327300D01*
X13882700Y-7327300D01*
X13882700Y-7325300D01*
X13768508Y-7325300D01*
X13757033Y-7348159D01*
X13770509Y-7380696D01*
X13808186Y-7424717D01*
X13816614Y-7429000D01*
X13583386Y-7429000D01*
X13591814Y-7424717D01*
X13629491Y-7380696D01*
X13642967Y-7348159D01*
X13631492Y-7325300D01*
X13517300Y-7325300D01*
X13517300Y-7327300D01*
X13482700Y-7327300D01*
X13482700Y-7325300D01*
X13368508Y-7325300D01*
X13357033Y-7348159D01*
X13370509Y-7380696D01*
X13408186Y-7424717D01*
X13416614Y-7429000D01*
X12571000Y-7429000D01*
X12571000Y-7044262D01*
X12776461Y-7044262D01*
X12810415Y-7126437D01*
X12873232Y-7189364D01*
X12955348Y-7223461D01*
X13044262Y-7223539D01*
X13126437Y-7189584D01*
X13189364Y-7126768D01*
X13223461Y-7044652D01*
X13223539Y-6955738D01*
X13189584Y-6873563D01*
X13126768Y-6810636D01*
X13044652Y-6776539D01*
X12955738Y-6776461D01*
X12873563Y-6810415D01*
X12810636Y-6873232D01*
X12776539Y-6955348D01*
X12776461Y-7044262D01*
X12571000Y-7044262D01*
X12571000Y-5949869D01*
X12669000Y-5949869D01*
X12669000Y-5996825D01*
X12684875Y-6012700D01*
X12782700Y-6012700D01*
X12782700Y-5914875D01*
X12817300Y-5914875D01*
X12817300Y-6012700D01*
X12915125Y-6012700D01*
X12931000Y-5996825D01*
X12931000Y-5949869D01*
X12921333Y-5926530D01*
X12903470Y-5908667D01*
X12880131Y-5899000D01*
X12833175Y-5899000D01*
X12817300Y-5914875D01*
X12782700Y-5914875D01*
X12766825Y-5899000D01*
X12719869Y-5899000D01*
X12696530Y-5908667D01*
X12678667Y-5926530D01*
X12669000Y-5949869D01*
X12571000Y-5949869D01*
X12571000Y-5758281D01*
X13319463Y-5758281D01*
X13351898Y-5836780D01*
X13411904Y-5896891D01*
X13490346Y-5929463D01*
X13575281Y-5929537D01*
X13653780Y-5897102D01*
X13713891Y-5837096D01*
X13746463Y-5758654D01*
X13746521Y-5691650D01*
X14212315Y-5691650D01*
X14220100Y-5715707D01*
X14274406Y-5733309D01*
X14331315Y-5728790D01*
X14362900Y-5715707D01*
X14370685Y-5691650D01*
X14291500Y-5612466D01*
X14212315Y-5691650D01*
X13746521Y-5691650D01*
X13746537Y-5673718D01*
X13714102Y-5595220D01*
X13689830Y-5570906D01*
X14146191Y-5570906D01*
X14150710Y-5627815D01*
X14163793Y-5659400D01*
X14187849Y-5667185D01*
X14267034Y-5588000D01*
X14187849Y-5508815D01*
X14163793Y-5516600D01*
X14146191Y-5570906D01*
X13689830Y-5570906D01*
X13654096Y-5535109D01*
X13596064Y-5511012D01*
X13724454Y-5511012D01*
X13731618Y-5534552D01*
X13784105Y-5551316D01*
X13839011Y-5546718D01*
X13868382Y-5534552D01*
X13875546Y-5511012D01*
X13800000Y-5435466D01*
X13724454Y-5511012D01*
X13596064Y-5511012D01*
X13575654Y-5502537D01*
X13490718Y-5502463D01*
X13412220Y-5534898D01*
X13352109Y-5594904D01*
X13319537Y-5673346D01*
X13319463Y-5758281D01*
X12571000Y-5758281D01*
X12571000Y-5395105D01*
X13659684Y-5395105D01*
X13664282Y-5450011D01*
X13676448Y-5479382D01*
X13699988Y-5486546D01*
X13775534Y-5411000D01*
X13824466Y-5411000D01*
X13900012Y-5486546D01*
X13907230Y-5484350D01*
X14212315Y-5484350D01*
X14291500Y-5563534D01*
X14370685Y-5484350D01*
X14362900Y-5460293D01*
X14308594Y-5442691D01*
X14251685Y-5447210D01*
X14220100Y-5460293D01*
X14212315Y-5484350D01*
X13907230Y-5484350D01*
X13923552Y-5479382D01*
X13940316Y-5426895D01*
X13935718Y-5371989D01*
X13923552Y-5342618D01*
X13900012Y-5335454D01*
X13824466Y-5411000D01*
X13775534Y-5411000D01*
X13699988Y-5335454D01*
X13676448Y-5342618D01*
X13659684Y-5395105D01*
X12571000Y-5395105D01*
X12571000Y-4727429D01*
X13661476Y-4727429D01*
X13682517Y-4778352D01*
X13721444Y-4817346D01*
X13744687Y-4826998D01*
X13721648Y-4836517D01*
X13682654Y-4875444D01*
X13661524Y-4926330D01*
X13661476Y-4981429D01*
X13682517Y-5032352D01*
X13705631Y-5055506D01*
X13682654Y-5078444D01*
X13661524Y-5129330D01*
X13661476Y-5184429D01*
X13682517Y-5235352D01*
X13721444Y-5274346D01*
X13742320Y-5283015D01*
X13731618Y-5287448D01*
X13724454Y-5310988D01*
X13800000Y-5386534D01*
X13875546Y-5310988D01*
X13868382Y-5287448D01*
X13856308Y-5283591D01*
X13878351Y-5274483D01*
X13917346Y-5235556D01*
X13938476Y-5184670D01*
X13938477Y-5183651D01*
X14212315Y-5183651D01*
X14220100Y-5207707D01*
X14274406Y-5225309D01*
X14331315Y-5220790D01*
X14362900Y-5207707D01*
X14370685Y-5183651D01*
X14291500Y-5104466D01*
X14212315Y-5183651D01*
X13938477Y-5183651D01*
X13938524Y-5129572D01*
X13917483Y-5078649D01*
X13901768Y-5062906D01*
X14146191Y-5062906D01*
X14150710Y-5119815D01*
X14163793Y-5151400D01*
X14187849Y-5159185D01*
X14267034Y-5080000D01*
X14187849Y-5000815D01*
X14163793Y-5008600D01*
X14146191Y-5062906D01*
X13901768Y-5062906D01*
X13894369Y-5055494D01*
X13917346Y-5032556D01*
X13938476Y-4981670D01*
X13938480Y-4976350D01*
X14212315Y-4976350D01*
X14291500Y-5055534D01*
X14370685Y-4976350D01*
X14362900Y-4952293D01*
X14308594Y-4934691D01*
X14251685Y-4939210D01*
X14220100Y-4952293D01*
X14212315Y-4976350D01*
X13938480Y-4976350D01*
X13938524Y-4926572D01*
X13917483Y-4875649D01*
X13878556Y-4836654D01*
X13855313Y-4827002D01*
X13878351Y-4817483D01*
X13917346Y-4778556D01*
X13938476Y-4727670D01*
X13938524Y-4672572D01*
X13917483Y-4621649D01*
X13878556Y-4582654D01*
X13827670Y-4561524D01*
X13772571Y-4561476D01*
X13721648Y-4582517D01*
X13682654Y-4621444D01*
X13661524Y-4672330D01*
X13661476Y-4727429D01*
X12571000Y-4727429D01*
X12571000Y-3419869D01*
X12669000Y-3419869D01*
X12669000Y-3466825D01*
X12684875Y-3482700D01*
X12782700Y-3482700D01*
X12782700Y-3384875D01*
X12817300Y-3384875D01*
X12817300Y-3482700D01*
X12915125Y-3482700D01*
X12931000Y-3466825D01*
X12931000Y-3419869D01*
X13169000Y-3419869D01*
X13169000Y-3466825D01*
X13184875Y-3482700D01*
X13282700Y-3482700D01*
X13282700Y-3384875D01*
X13317300Y-3384875D01*
X13317300Y-3482700D01*
X13415125Y-3482700D01*
X13431000Y-3466825D01*
X13431000Y-3419869D01*
X13421333Y-3396530D01*
X13403470Y-3378667D01*
X13380131Y-3369000D01*
X13333175Y-3369000D01*
X13317300Y-3384875D01*
X13282700Y-3384875D01*
X13266825Y-3369000D01*
X13219869Y-3369000D01*
X13196530Y-3378667D01*
X13178667Y-3396530D01*
X13169000Y-3419869D01*
X12931000Y-3419869D01*
X12921333Y-3396530D01*
X12903470Y-3378667D01*
X12880131Y-3369000D01*
X12833175Y-3369000D01*
X12817300Y-3384875D01*
X12782700Y-3384875D01*
X12766825Y-3369000D01*
X12719869Y-3369000D01*
X12696530Y-3378667D01*
X12678667Y-3396530D01*
X12669000Y-3419869D01*
X12571000Y-3419869D01*
X12571000Y-3044262D01*
X12776461Y-3044262D01*
X12810415Y-3126437D01*
X12873232Y-3189364D01*
X12955348Y-3223461D01*
X13044262Y-3223539D01*
X13126437Y-3189584D01*
X13189364Y-3126768D01*
X13223461Y-3044652D01*
X13223539Y-2955738D01*
X13189584Y-2873563D01*
X13148999Y-2832906D01*
X14554691Y-2832906D01*
X14559210Y-2889815D01*
X14572293Y-2921400D01*
X14596349Y-2929185D01*
X14675534Y-2850000D01*
X14724466Y-2850000D01*
X14803650Y-2929185D01*
X14827707Y-2921400D01*
X14845309Y-2867094D01*
X14840790Y-2810185D01*
X14827707Y-2778600D01*
X14803650Y-2770815D01*
X14724466Y-2850000D01*
X14675534Y-2850000D01*
X14596349Y-2770815D01*
X14572293Y-2778600D01*
X14554691Y-2832906D01*
X13148999Y-2832906D01*
X13126768Y-2810636D01*
X13044652Y-2776539D01*
X12955738Y-2776461D01*
X12873563Y-2810415D01*
X12810636Y-2873232D01*
X12776539Y-2955348D01*
X12776461Y-3044262D01*
X12571000Y-3044262D01*
X12571000Y-2742262D01*
X13347204Y-2742262D01*
X13353729Y-2765271D01*
X13404340Y-2781170D01*
X13457183Y-2776491D01*
X13484271Y-2765271D01*
X13490796Y-2742262D01*
X14109204Y-2742262D01*
X14115729Y-2765271D01*
X14166340Y-2781170D01*
X14219183Y-2776491D01*
X14246271Y-2765271D01*
X14251637Y-2746350D01*
X14620815Y-2746350D01*
X14700000Y-2825534D01*
X14779185Y-2746350D01*
X14771400Y-2722293D01*
X14717094Y-2704691D01*
X14660185Y-2709210D01*
X14628600Y-2722293D01*
X14620815Y-2746350D01*
X14251637Y-2746350D01*
X14252796Y-2742262D01*
X14181000Y-2670466D01*
X14109204Y-2742262D01*
X13490796Y-2742262D01*
X13419000Y-2670466D01*
X13347204Y-2742262D01*
X12571000Y-2742262D01*
X12571000Y-2571000D01*
X13319534Y-2571000D01*
X13322738Y-2574204D01*
X13322738Y-2574204D01*
G37*
X13322738Y-2574204D02*
X13299729Y-2580729D01*
X13283830Y-2631340D01*
X13288509Y-2684183D01*
X13299729Y-2711271D01*
X13322738Y-2717796D01*
X13394534Y-2646000D01*
X13393120Y-2644586D01*
X13417586Y-2620120D01*
X13419000Y-2621534D01*
X13420414Y-2620120D01*
X13444880Y-2644586D01*
X13443466Y-2646000D01*
X13515262Y-2717796D01*
X13538271Y-2711271D01*
X13554170Y-2660660D01*
X13549491Y-2607817D01*
X13538271Y-2580729D01*
X13515262Y-2574204D01*
X13518466Y-2571000D01*
X14081534Y-2571000D01*
X14084738Y-2574204D01*
X14061729Y-2580729D01*
X14045830Y-2631340D01*
X14050509Y-2684183D01*
X14061729Y-2711271D01*
X14084738Y-2717796D01*
X14156534Y-2646000D01*
X14155120Y-2644586D01*
X14179586Y-2620120D01*
X14181000Y-2621534D01*
X14182414Y-2620120D01*
X14206880Y-2644586D01*
X14205466Y-2646000D01*
X14277262Y-2717796D01*
X14300271Y-2711271D01*
X14316170Y-2660660D01*
X14311491Y-2607817D01*
X14300271Y-2580729D01*
X14277262Y-2574204D01*
X14280466Y-2571000D01*
X16336429Y-2571000D01*
X16318820Y-2578276D01*
X16310581Y-2586500D01*
X16300000Y-2586500D01*
X16256565Y-2595140D01*
X16219743Y-2619743D01*
X16152987Y-2686500D01*
X16092376Y-2686500D01*
X16070743Y-2654125D01*
X16017181Y-2618335D01*
X15954000Y-2605768D01*
X15890819Y-2618335D01*
X15837257Y-2654125D01*
X15825654Y-2671489D01*
X15803845Y-2645450D01*
X15746517Y-2615541D01*
X15742772Y-2615137D01*
X15717300Y-2626381D01*
X15717300Y-2782700D01*
X15719300Y-2782700D01*
X15719300Y-2817300D01*
X15717300Y-2817300D01*
X15717300Y-2973619D01*
X15742772Y-2984863D01*
X15746517Y-2984459D01*
X15803845Y-2954550D01*
X15825654Y-2928511D01*
X15837257Y-2945875D01*
X15890819Y-2981665D01*
X15954000Y-2994232D01*
X16017181Y-2981665D01*
X16070743Y-2945875D01*
X16092376Y-2913500D01*
X16200000Y-2913500D01*
X16243435Y-2904860D01*
X16269406Y-2887507D01*
X16254691Y-2932906D01*
X16259210Y-2989815D01*
X16272293Y-3021400D01*
X16296349Y-3029185D01*
X16375534Y-2950000D01*
X16424466Y-2950000D01*
X16503650Y-3029185D01*
X16527707Y-3021400D01*
X16545309Y-2967094D01*
X16540790Y-2910185D01*
X16527707Y-2878600D01*
X16503650Y-2870815D01*
X16424466Y-2950000D01*
X16375534Y-2950000D01*
X16374120Y-2948586D01*
X16398586Y-2924120D01*
X16400000Y-2925534D01*
X16479185Y-2846349D01*
X16472391Y-2825356D01*
X16481180Y-2821724D01*
X16489419Y-2813500D01*
X16652987Y-2813500D01*
X16719743Y-2880257D01*
X16753623Y-2902894D01*
X16754684Y-2908532D01*
X16768591Y-2930144D01*
X16789811Y-2944643D01*
X16800103Y-2946727D01*
X16770509Y-2981303D01*
X16757033Y-3013841D01*
X16768508Y-3036700D01*
X16882700Y-3036700D01*
X16882700Y-3034700D01*
X16917300Y-3034700D01*
X16917300Y-3036700D01*
X17031492Y-3036700D01*
X17042967Y-3013841D01*
X17038737Y-3003629D01*
X17128095Y-3003629D01*
X17200000Y-3075534D01*
X17271905Y-3003629D01*
X17265362Y-2980605D01*
X17214696Y-2964680D01*
X17161793Y-2969357D01*
X17134638Y-2980605D01*
X17128095Y-3003629D01*
X17038737Y-3003629D01*
X17029491Y-2981303D01*
X17000055Y-2946911D01*
X17008532Y-2945316D01*
X17030144Y-2931409D01*
X17042381Y-2913500D01*
X17125219Y-2913500D01*
X17173329Y-2933477D01*
X17226438Y-2933523D01*
X17275523Y-2913242D01*
X17313110Y-2875720D01*
X17326522Y-2843421D01*
X17328047Y-2851088D01*
X17356986Y-2894399D01*
X17378000Y-2908440D01*
X17378000Y-2991560D01*
X17356986Y-3005601D01*
X17328047Y-3048912D01*
X17327158Y-3053379D01*
X17319395Y-3034638D01*
X17296371Y-3028095D01*
X17224466Y-3100000D01*
X17296371Y-3171905D01*
X17319395Y-3165362D01*
X17326432Y-3142972D01*
X17328047Y-3151088D01*
X17356986Y-3194399D01*
X17400296Y-3223338D01*
X17451385Y-3233500D01*
X17456615Y-3233500D01*
X17507704Y-3223338D01*
X17551014Y-3194399D01*
X17571234Y-3164138D01*
X17578276Y-3181180D01*
X17618608Y-3221582D01*
X17671331Y-3243475D01*
X17728419Y-3243525D01*
X17781180Y-3221724D01*
X17799285Y-3203650D01*
X17870815Y-3203650D01*
X17878600Y-3227707D01*
X17932906Y-3245309D01*
X17989815Y-3240790D01*
X18021400Y-3227707D01*
X18029185Y-3203650D01*
X17950000Y-3124466D01*
X17870815Y-3203650D01*
X17799285Y-3203650D01*
X17821582Y-3181392D01*
X17825324Y-3172381D01*
X17846350Y-3179185D01*
X17925534Y-3100000D01*
X17974466Y-3100000D01*
X18053651Y-3179185D01*
X18077707Y-3171400D01*
X18095309Y-3117094D01*
X18090790Y-3060185D01*
X18077707Y-3028600D01*
X18053651Y-3020815D01*
X17974466Y-3100000D01*
X17925534Y-3100000D01*
X17924120Y-3098586D01*
X17948586Y-3074120D01*
X17950000Y-3075534D01*
X18029185Y-2996349D01*
X18021400Y-2972293D01*
X17967094Y-2954691D01*
X17951556Y-2955925D01*
X18063965Y-2843516D01*
X18074419Y-2843525D01*
X18127180Y-2821724D01*
X18145285Y-2803650D01*
X18220815Y-2803650D01*
X18228600Y-2827707D01*
X18282906Y-2845309D01*
X18339815Y-2840790D01*
X18371400Y-2827707D01*
X18379185Y-2803650D01*
X18300000Y-2724466D01*
X18220815Y-2803650D01*
X18145285Y-2803650D01*
X18167582Y-2781392D01*
X18172013Y-2770723D01*
X18172293Y-2771400D01*
X18196350Y-2779185D01*
X18275534Y-2700000D01*
X18196350Y-2620815D01*
X18172293Y-2628600D01*
X18172061Y-2629316D01*
X18167724Y-2618820D01*
X18127392Y-2578418D01*
X18109529Y-2571000D01*
X18231722Y-2571000D01*
X18228600Y-2572293D01*
X18220815Y-2596350D01*
X18300000Y-2675534D01*
X18379185Y-2596350D01*
X18371400Y-2572293D01*
X18367410Y-2571000D01*
X18490429Y-2571000D01*
X18472820Y-2578276D01*
X18432418Y-2618608D01*
X18427987Y-2629277D01*
X18427707Y-2628600D01*
X18403651Y-2620815D01*
X18324466Y-2700000D01*
X18403651Y-2779185D01*
X18427707Y-2771400D01*
X18427939Y-2770684D01*
X18432276Y-2781180D01*
X18472608Y-2821582D01*
X18478000Y-2823821D01*
X18478000Y-3271568D01*
X18474856Y-3273591D01*
X18460357Y-3294811D01*
X18455256Y-3320000D01*
X18455256Y-3321335D01*
X18453651Y-3320815D01*
X18374466Y-3400000D01*
X18453651Y-3479185D01*
X18455256Y-3478665D01*
X18455256Y-3480000D01*
X18459684Y-3503532D01*
X18473591Y-3525144D01*
X18494811Y-3539643D01*
X18520000Y-3544744D01*
X18680000Y-3544744D01*
X18703532Y-3540316D01*
X18721362Y-3528842D01*
X18824000Y-3631480D01*
X18824000Y-3776135D01*
X18818820Y-3778276D01*
X18800003Y-3797060D01*
X18781392Y-3778418D01*
X18728669Y-3756525D01*
X18671581Y-3756475D01*
X18618820Y-3778276D01*
X18600003Y-3797060D01*
X18581392Y-3778418D01*
X18576000Y-3776178D01*
X18576000Y-3740000D01*
X18570215Y-3710916D01*
X18553740Y-3686260D01*
X18413740Y-3546260D01*
X18399531Y-3536765D01*
X18421400Y-3527707D01*
X18429185Y-3503650D01*
X18350000Y-3424466D01*
X18270815Y-3503650D01*
X18277400Y-3524000D01*
X17863308Y-3524000D01*
X17851014Y-3505601D01*
X17842631Y-3500000D01*
X17851014Y-3494399D01*
X17879953Y-3451088D01*
X17890115Y-3400000D01*
X17886715Y-3382906D01*
X18204691Y-3382906D01*
X18209210Y-3439815D01*
X18222293Y-3471400D01*
X18246350Y-3479185D01*
X18325534Y-3400000D01*
X18246350Y-3320815D01*
X18222293Y-3328600D01*
X18204691Y-3382906D01*
X17886715Y-3382906D01*
X17879953Y-3348912D01*
X17851014Y-3305601D01*
X17837168Y-3296349D01*
X18270815Y-3296349D01*
X18350000Y-3375534D01*
X18429185Y-3296349D01*
X18421400Y-3272293D01*
X18367094Y-3254691D01*
X18310185Y-3259210D01*
X18278600Y-3272293D01*
X18270815Y-3296349D01*
X17837168Y-3296349D01*
X17807704Y-3276662D01*
X17756615Y-3266500D01*
X17751385Y-3266500D01*
X17700296Y-3276662D01*
X17656986Y-3305601D01*
X17628047Y-3348912D01*
X17627158Y-3353379D01*
X17619395Y-3334638D01*
X17596371Y-3328095D01*
X17524466Y-3400000D01*
X17596371Y-3471905D01*
X17619395Y-3465362D01*
X17626432Y-3442972D01*
X17628047Y-3451088D01*
X17656986Y-3494399D01*
X17665369Y-3500000D01*
X17656986Y-3505601D01*
X17628047Y-3548912D01*
X17626517Y-3556604D01*
X17613242Y-3524477D01*
X17575720Y-3486890D01*
X17552983Y-3477449D01*
X17500000Y-3424466D01*
X17447024Y-3477442D01*
X17424477Y-3486758D01*
X17386890Y-3524280D01*
X17366523Y-3573329D01*
X17366477Y-3626438D01*
X17386758Y-3675523D01*
X17424280Y-3713110D01*
X17473329Y-3733477D01*
X17526438Y-3733523D01*
X17575523Y-3713242D01*
X17613110Y-3675720D01*
X17626522Y-3643421D01*
X17628047Y-3651088D01*
X17656986Y-3694399D01*
X17700296Y-3723338D01*
X17751385Y-3733500D01*
X17756615Y-3733500D01*
X17807704Y-3723338D01*
X17851014Y-3694399D01*
X17863308Y-3676000D01*
X18328520Y-3676000D01*
X18424000Y-3771480D01*
X18424000Y-3776135D01*
X18418820Y-3778276D01*
X18400003Y-3797060D01*
X18381392Y-3778418D01*
X18328669Y-3756525D01*
X18271581Y-3756475D01*
X18218820Y-3778276D01*
X18200003Y-3797060D01*
X18181392Y-3778418D01*
X18128669Y-3756525D01*
X18071581Y-3756475D01*
X18018820Y-3778276D01*
X18000003Y-3797060D01*
X17981392Y-3778418D01*
X17928669Y-3756525D01*
X17871581Y-3756475D01*
X17818820Y-3778276D01*
X17800003Y-3797060D01*
X17781392Y-3778418D01*
X17728669Y-3756525D01*
X17671581Y-3756475D01*
X17618820Y-3778276D01*
X17600003Y-3797060D01*
X17581392Y-3778418D01*
X17528669Y-3756525D01*
X17471581Y-3756475D01*
X17418820Y-3778276D01*
X17400003Y-3797060D01*
X17381392Y-3778418D01*
X17328669Y-3756525D01*
X17271581Y-3756475D01*
X17218820Y-3778276D01*
X17201815Y-3795251D01*
X17191049Y-3784485D01*
X17179185Y-3796349D01*
X17171400Y-3772293D01*
X17117094Y-3754691D01*
X17060185Y-3759210D01*
X17028600Y-3772293D01*
X17024808Y-3784010D01*
X17020215Y-3760916D01*
X17003740Y-3736260D01*
X16736000Y-3468520D01*
X16736000Y-3426310D01*
X16752631Y-3415197D01*
X16772605Y-3385304D01*
X17364680Y-3385304D01*
X17369357Y-3438207D01*
X17380605Y-3465362D01*
X17403629Y-3471905D01*
X17475534Y-3400000D01*
X17403629Y-3328095D01*
X17380605Y-3334638D01*
X17364680Y-3385304D01*
X16772605Y-3385304D01*
X16781028Y-3372698D01*
X16791000Y-3322566D01*
X16791000Y-3317434D01*
X16788254Y-3303629D01*
X17428095Y-3303629D01*
X17500000Y-3375534D01*
X17571905Y-3303629D01*
X17565362Y-3280605D01*
X17514696Y-3264680D01*
X17461793Y-3269357D01*
X17434638Y-3280605D01*
X17428095Y-3303629D01*
X16788254Y-3303629D01*
X16781028Y-3267302D01*
X16752631Y-3224803D01*
X16710131Y-3196405D01*
X16660000Y-3186434D01*
X16609868Y-3196405D01*
X16567369Y-3224803D01*
X16560000Y-3235831D01*
X16552631Y-3224803D01*
X16510131Y-3196405D01*
X16460000Y-3186434D01*
X16409868Y-3196405D01*
X16367369Y-3224803D01*
X16360000Y-3235831D01*
X16352631Y-3224803D01*
X16310131Y-3196405D01*
X16260000Y-3186434D01*
X16209868Y-3196405D01*
X16180699Y-3215896D01*
X16163470Y-3198667D01*
X16140131Y-3189000D01*
X16093175Y-3189000D01*
X16077300Y-3204875D01*
X16077300Y-3302700D01*
X16079300Y-3302700D01*
X16079300Y-3337300D01*
X16077300Y-3337300D01*
X16077300Y-3339300D01*
X16042700Y-3339300D01*
X16042700Y-3337300D01*
X15944875Y-3337300D01*
X15929000Y-3353175D01*
X15929000Y-3400131D01*
X15938667Y-3423470D01*
X15956530Y-3441333D01*
X15979869Y-3451000D01*
X16021520Y-3451000D01*
X15990000Y-3482520D01*
X15747349Y-3239869D01*
X15929000Y-3239869D01*
X15929000Y-3286825D01*
X15944875Y-3302700D01*
X16042700Y-3302700D01*
X16042700Y-3204875D01*
X16026825Y-3189000D01*
X15979869Y-3189000D01*
X15956530Y-3198667D01*
X15938667Y-3216530D01*
X15929000Y-3239869D01*
X15747349Y-3239869D01*
X15561131Y-3053650D01*
X16320815Y-3053650D01*
X16328600Y-3077707D01*
X16382906Y-3095309D01*
X16397387Y-3094159D01*
X16757033Y-3094159D01*
X16770509Y-3126696D01*
X16808186Y-3170717D01*
X16859840Y-3196968D01*
X16882700Y-3185615D01*
X16882700Y-3071300D01*
X16917300Y-3071300D01*
X16917300Y-3185615D01*
X16940160Y-3196968D01*
X16941334Y-3196371D01*
X17128095Y-3196371D01*
X17134638Y-3219395D01*
X17185304Y-3235320D01*
X17238208Y-3230643D01*
X17265362Y-3219395D01*
X17271905Y-3196371D01*
X17200000Y-3124466D01*
X17128095Y-3196371D01*
X16941334Y-3196371D01*
X16991814Y-3170717D01*
X17029491Y-3126696D01*
X17042967Y-3094159D01*
X17038522Y-3085304D01*
X17064680Y-3085304D01*
X17069357Y-3138207D01*
X17080605Y-3165362D01*
X17103629Y-3171905D01*
X17175534Y-3100000D01*
X17103629Y-3028095D01*
X17080605Y-3034638D01*
X17064680Y-3085304D01*
X17038522Y-3085304D01*
X17031492Y-3071300D01*
X16917300Y-3071300D01*
X16882700Y-3071300D01*
X16768508Y-3071300D01*
X16757033Y-3094159D01*
X16397387Y-3094159D01*
X16439815Y-3090790D01*
X16471400Y-3077707D01*
X16479185Y-3053650D01*
X16400000Y-2974466D01*
X16320815Y-3053650D01*
X15561131Y-3053650D01*
X15522000Y-3014520D01*
X15522000Y-2973099D01*
X15562743Y-2945875D01*
X15574346Y-2928511D01*
X15596155Y-2954550D01*
X15653483Y-2984459D01*
X15657228Y-2984863D01*
X15682700Y-2973619D01*
X15682700Y-2817300D01*
X15680700Y-2817300D01*
X15680700Y-2782700D01*
X15682700Y-2782700D01*
X15682700Y-2626381D01*
X15657228Y-2615137D01*
X15653483Y-2615541D01*
X15596155Y-2645450D01*
X15574346Y-2671489D01*
X15562743Y-2654125D01*
X15509181Y-2618335D01*
X15446000Y-2605768D01*
X15382819Y-2618335D01*
X15329257Y-2654125D01*
X15307624Y-2686500D01*
X15300000Y-2686500D01*
X15256565Y-2695140D01*
X15219743Y-2719743D01*
X14952987Y-2986500D01*
X14833902Y-2986500D01*
X14826409Y-2974856D01*
X14805189Y-2960357D01*
X14780000Y-2955256D01*
X14778665Y-2955256D01*
X14779185Y-2953650D01*
X14700000Y-2874466D01*
X14620815Y-2953650D01*
X14621335Y-2955256D01*
X14620000Y-2955256D01*
X14596468Y-2959684D01*
X14574856Y-2973591D01*
X14560357Y-2994811D01*
X14555256Y-3020000D01*
X14555256Y-3064231D01*
X14272621Y-3346865D01*
X14224477Y-3366758D01*
X14186890Y-3404280D01*
X14173478Y-3436579D01*
X14171953Y-3428912D01*
X14143014Y-3385601D01*
X14122000Y-3371560D01*
X14122000Y-3325480D01*
X14160148Y-3287332D01*
X14207409Y-3287373D01*
X14256438Y-3267115D01*
X14293983Y-3229635D01*
X14314327Y-3180641D01*
X14314373Y-3127591D01*
X14294115Y-3078562D01*
X14256635Y-3041017D01*
X14207641Y-3020673D01*
X14154591Y-3020627D01*
X14105562Y-3040885D01*
X14068383Y-3078000D01*
X13531554Y-3078000D01*
X13494635Y-3041017D01*
X13445641Y-3020673D01*
X13392591Y-3020627D01*
X13343562Y-3040885D01*
X13306017Y-3078365D01*
X13285673Y-3127359D01*
X13285627Y-3180409D01*
X13305885Y-3229438D01*
X13343365Y-3266983D01*
X13392359Y-3287327D01*
X13445409Y-3287373D01*
X13494438Y-3267115D01*
X13531617Y-3230000D01*
X14002520Y-3230000D01*
X13992260Y-3240260D01*
X13975785Y-3264916D01*
X13970000Y-3294000D01*
X13970000Y-3371560D01*
X13948986Y-3385601D01*
X13920047Y-3428912D01*
X13909885Y-3480000D01*
X13920047Y-3531088D01*
X13928674Y-3544000D01*
X13820000Y-3544000D01*
X13790916Y-3549785D01*
X13766260Y-3566260D01*
X13508520Y-3824000D01*
X13406310Y-3824000D01*
X13395197Y-3807369D01*
X13384169Y-3800000D01*
X13395197Y-3792631D01*
X13423595Y-3750131D01*
X13433566Y-3700000D01*
X13423595Y-3649868D01*
X13404104Y-3620699D01*
X13421333Y-3603470D01*
X13431000Y-3580131D01*
X13431000Y-3533175D01*
X13415125Y-3517300D01*
X13317300Y-3517300D01*
X13317300Y-3519300D01*
X13282700Y-3519300D01*
X13282700Y-3517300D01*
X13184875Y-3517300D01*
X13169000Y-3533175D01*
X13169000Y-3580131D01*
X13178667Y-3603470D01*
X13195896Y-3620699D01*
X13176405Y-3649868D01*
X13166434Y-3700000D01*
X13176405Y-3750131D01*
X13204803Y-3792631D01*
X13215831Y-3800000D01*
X13204803Y-3807369D01*
X13193690Y-3824000D01*
X12906310Y-3824000D01*
X12895197Y-3807369D01*
X12884169Y-3800000D01*
X12895197Y-3792631D01*
X12923595Y-3750131D01*
X12933566Y-3700000D01*
X12923595Y-3649868D01*
X12904104Y-3620699D01*
X12921333Y-3603470D01*
X12931000Y-3580131D01*
X12931000Y-3533175D01*
X12915125Y-3517300D01*
X12817300Y-3517300D01*
X12817300Y-3519300D01*
X12782700Y-3519300D01*
X12782700Y-3517300D01*
X12684875Y-3517300D01*
X12669000Y-3533175D01*
X12669000Y-3580131D01*
X12678667Y-3603470D01*
X12695896Y-3620699D01*
X12676405Y-3649868D01*
X12666434Y-3700000D01*
X12676405Y-3750131D01*
X12704803Y-3792631D01*
X12715831Y-3800000D01*
X12704803Y-3807369D01*
X12676405Y-3849868D01*
X12666434Y-3900000D01*
X12676405Y-3950131D01*
X12704803Y-3992631D01*
X12715831Y-4000000D01*
X12704803Y-4007369D01*
X12676405Y-4049868D01*
X12666434Y-4100000D01*
X12676405Y-4150131D01*
X12704803Y-4192631D01*
X12747302Y-4221028D01*
X12797434Y-4231000D01*
X12802566Y-4231000D01*
X12852698Y-4221028D01*
X12895197Y-4192631D01*
X12906310Y-4176000D01*
X13193690Y-4176000D01*
X13204803Y-4192631D01*
X13247302Y-4221028D01*
X13297434Y-4231000D01*
X13302566Y-4231000D01*
X13352698Y-4221028D01*
X13356600Y-4218421D01*
X13352109Y-4222904D01*
X13319537Y-4301346D01*
X13319463Y-4386282D01*
X13351898Y-4464780D01*
X13411904Y-4524891D01*
X13490346Y-4557463D01*
X13575281Y-4557537D01*
X13653780Y-4525102D01*
X13713891Y-4465096D01*
X13737638Y-4407906D01*
X14804691Y-4407906D01*
X14809210Y-4464815D01*
X14822293Y-4496400D01*
X14846349Y-4504185D01*
X14925534Y-4425000D01*
X14846349Y-4345815D01*
X14822293Y-4353600D01*
X14804691Y-4407906D01*
X13737638Y-4407906D01*
X13746463Y-4386654D01*
X13746520Y-4321350D01*
X14870815Y-4321350D01*
X14950000Y-4400534D01*
X15029185Y-4321350D01*
X15021400Y-4297293D01*
X14967094Y-4279691D01*
X14910185Y-4284210D01*
X14878600Y-4297293D01*
X14870815Y-4321350D01*
X13746520Y-4321350D01*
X13746537Y-4301719D01*
X13714102Y-4223220D01*
X13654096Y-4163109D01*
X13632894Y-4154305D01*
X13633740Y-4153740D01*
X13957136Y-3830345D01*
X13965601Y-3843014D01*
X14008912Y-3871953D01*
X14016604Y-3873483D01*
X13984477Y-3886758D01*
X13946890Y-3924280D01*
X13926523Y-3973329D01*
X13926477Y-4026438D01*
X13946758Y-4075523D01*
X13984280Y-4113110D01*
X14033329Y-4133477D01*
X14086438Y-4133523D01*
X14135523Y-4113242D01*
X14170027Y-4078798D01*
X14204280Y-4113110D01*
X14253329Y-4133477D01*
X14306438Y-4133523D01*
X14355523Y-4113242D01*
X14393110Y-4075720D01*
X14413477Y-4026671D01*
X14413523Y-3973562D01*
X14406267Y-3956000D01*
X14798520Y-3956000D01*
X15137908Y-4295389D01*
X15118820Y-4303276D01*
X15078418Y-4343608D01*
X15074676Y-4352619D01*
X15053650Y-4345815D01*
X14974466Y-4425000D01*
X14975880Y-4426414D01*
X14951414Y-4450880D01*
X14950000Y-4449466D01*
X14870815Y-4528651D01*
X14878600Y-4552707D01*
X14897641Y-4558879D01*
X14678260Y-4778260D01*
X14661785Y-4802916D01*
X14656000Y-4832000D01*
X14656000Y-4991583D01*
X14622892Y-4958418D01*
X14570169Y-4936525D01*
X14513081Y-4936475D01*
X14460320Y-4958276D01*
X14419918Y-4998608D01*
X14416176Y-5007619D01*
X14395150Y-5000815D01*
X14315966Y-5080000D01*
X14395150Y-5159185D01*
X14416144Y-5152391D01*
X14419776Y-5161180D01*
X14460108Y-5201582D01*
X14512831Y-5223475D01*
X14569919Y-5223525D01*
X14622680Y-5201724D01*
X14656000Y-5168462D01*
X14656000Y-5499583D01*
X14622892Y-5466418D01*
X14570169Y-5444525D01*
X14513081Y-5444475D01*
X14460320Y-5466276D01*
X14419918Y-5506608D01*
X14416176Y-5515619D01*
X14395150Y-5508815D01*
X14315966Y-5588000D01*
X14395150Y-5667185D01*
X14416144Y-5660391D01*
X14419776Y-5669180D01*
X14460108Y-5709582D01*
X14490371Y-5722149D01*
X13918886Y-6293634D01*
X13894399Y-6256986D01*
X13851088Y-6228047D01*
X13843395Y-6226516D01*
X13875523Y-6213242D01*
X13913110Y-6175720D01*
X13933477Y-6126671D01*
X13933523Y-6073562D01*
X13913242Y-6024477D01*
X13875720Y-5986890D01*
X13826671Y-5966523D01*
X13773562Y-5966477D01*
X13724477Y-5986758D01*
X13686890Y-6024280D01*
X13666523Y-6073329D01*
X13666477Y-6126438D01*
X13675871Y-6149173D01*
X13675000Y-6149000D01*
X13624205Y-6149000D01*
X13633477Y-6126671D01*
X13633523Y-6073562D01*
X13613242Y-6024477D01*
X13575720Y-5986890D01*
X13526671Y-5966523D01*
X13473562Y-5966477D01*
X13424477Y-5986758D01*
X13386890Y-6024280D01*
X13366523Y-6073329D01*
X13366477Y-6126438D01*
X13375799Y-6149000D01*
X13275000Y-6149000D01*
X13245916Y-6154785D01*
X13221260Y-6171260D01*
X13038520Y-6354000D01*
X12906310Y-6354000D01*
X12895197Y-6337369D01*
X12884169Y-6330000D01*
X12895197Y-6322631D01*
X12923595Y-6280131D01*
X12933566Y-6230000D01*
X12923595Y-6179868D01*
X12904104Y-6150699D01*
X12921333Y-6133470D01*
X12931000Y-6110131D01*
X12931000Y-6063175D01*
X12915125Y-6047300D01*
X12817300Y-6047300D01*
X12817300Y-6049300D01*
X12782700Y-6049300D01*
X12782700Y-6047300D01*
X12684875Y-6047300D01*
X12669000Y-6063175D01*
X12669000Y-6110131D01*
X12678667Y-6133470D01*
X12695896Y-6150699D01*
X12676405Y-6179868D01*
X12666434Y-6230000D01*
X12676405Y-6280131D01*
X12704803Y-6322631D01*
X12715831Y-6330000D01*
X12704803Y-6337369D01*
X12676405Y-6379868D01*
X12666434Y-6430000D01*
X12676405Y-6480131D01*
X12704803Y-6522631D01*
X12715831Y-6530000D01*
X12704803Y-6537369D01*
X12676405Y-6579868D01*
X12666434Y-6630000D01*
X12676405Y-6680131D01*
X12704803Y-6722631D01*
X12747302Y-6751028D01*
X12797434Y-6761000D01*
X12802566Y-6761000D01*
X12852698Y-6751028D01*
X12895197Y-6722631D01*
X12906310Y-6706000D01*
X13220000Y-6706000D01*
X13249084Y-6700215D01*
X13273740Y-6683740D01*
X13472779Y-6484701D01*
X13500000Y-6490115D01*
X13551088Y-6479953D01*
X13594399Y-6451014D01*
X13623338Y-6407704D01*
X13633500Y-6356615D01*
X13633500Y-6351385D01*
X13623478Y-6301000D01*
X13643520Y-6301000D01*
X13671047Y-6328527D01*
X13666500Y-6351385D01*
X13666500Y-6356615D01*
X13676662Y-6407704D01*
X13705601Y-6451014D01*
X13739113Y-6473406D01*
X13562264Y-6650256D01*
X13415000Y-6650256D01*
X13391468Y-6654684D01*
X13369856Y-6668591D01*
X13355357Y-6689811D01*
X13350256Y-6715000D01*
X13350256Y-6885000D01*
X13354684Y-6908532D01*
X13368591Y-6930144D01*
X13389811Y-6944643D01*
X13396554Y-6946009D01*
X13392085Y-6948995D01*
X13359895Y-6997171D01*
X13348591Y-7054000D01*
X13359895Y-7110828D01*
X13392085Y-7159005D01*
X13426479Y-7181986D01*
X13408186Y-7191283D01*
X13370509Y-7235303D01*
X13357033Y-7267841D01*
X13368508Y-7290700D01*
X13482700Y-7290700D01*
X13482700Y-7288700D01*
X13517300Y-7288700D01*
X13517300Y-7290700D01*
X13631492Y-7290700D01*
X13642967Y-7267841D01*
X13629491Y-7235303D01*
X13591814Y-7191283D01*
X13573521Y-7181986D01*
X13595202Y-7167500D01*
X13804798Y-7167500D01*
X13826479Y-7181986D01*
X13808186Y-7191283D01*
X13770509Y-7235303D01*
X13757033Y-7267841D01*
X13768508Y-7290700D01*
X13882700Y-7290700D01*
X13882700Y-7288700D01*
X13917300Y-7288700D01*
X13917300Y-7290700D01*
X14031492Y-7290700D01*
X14042967Y-7267841D01*
X14029491Y-7235303D01*
X13991814Y-7191283D01*
X13973521Y-7181986D01*
X13995202Y-7167500D01*
X14204798Y-7167500D01*
X14226479Y-7181986D01*
X14208186Y-7191283D01*
X14170509Y-7235303D01*
X14157033Y-7267841D01*
X14168508Y-7290700D01*
X14282700Y-7290700D01*
X14282700Y-7288700D01*
X14317300Y-7288700D01*
X14317300Y-7290700D01*
X14431492Y-7290700D01*
X14442967Y-7267841D01*
X14429491Y-7235303D01*
X14391814Y-7191283D01*
X14373521Y-7181986D01*
X14395202Y-7167500D01*
X14604798Y-7167500D01*
X14626479Y-7181986D01*
X14608186Y-7191283D01*
X14570509Y-7235303D01*
X14557033Y-7267841D01*
X14568508Y-7290700D01*
X14682700Y-7290700D01*
X14682700Y-7288700D01*
X14717300Y-7288700D01*
X14717300Y-7290700D01*
X14831492Y-7290700D01*
X14842967Y-7267841D01*
X14829491Y-7235303D01*
X14791814Y-7191283D01*
X14773521Y-7181986D01*
X14795202Y-7167500D01*
X15004798Y-7167500D01*
X15026479Y-7181986D01*
X15008186Y-7191283D01*
X14970509Y-7235303D01*
X14957033Y-7267841D01*
X14968508Y-7290700D01*
X15082700Y-7290700D01*
X15082700Y-7288700D01*
X15117300Y-7288700D01*
X15117300Y-7290700D01*
X15231492Y-7290700D01*
X15242967Y-7267841D01*
X15229491Y-7235303D01*
X15191814Y-7191283D01*
X15173521Y-7181986D01*
X15195202Y-7167500D01*
X15404798Y-7167500D01*
X15426479Y-7181986D01*
X15408186Y-7191283D01*
X15370509Y-7235303D01*
X15357033Y-7267841D01*
X15368508Y-7290700D01*
X15482700Y-7290700D01*
X15482700Y-7288700D01*
X15517300Y-7288700D01*
X15517300Y-7290700D01*
X15631492Y-7290700D01*
X15642967Y-7267841D01*
X15629491Y-7235303D01*
X15591814Y-7191283D01*
X15573521Y-7181986D01*
X15595202Y-7167500D01*
X15804798Y-7167500D01*
X15826479Y-7181986D01*
X15808186Y-7191283D01*
X15770509Y-7235303D01*
X15757033Y-7267841D01*
X15768508Y-7290700D01*
X15882700Y-7290700D01*
X15882700Y-7288700D01*
X15917300Y-7288700D01*
X15917300Y-7290700D01*
X16031492Y-7290700D01*
X16042967Y-7267841D01*
X16029491Y-7235303D01*
X15991814Y-7191283D01*
X15973521Y-7181986D01*
X15995202Y-7167500D01*
X16204798Y-7167500D01*
X16226479Y-7181986D01*
X16208186Y-7191283D01*
X16170509Y-7235303D01*
X16157033Y-7267841D01*
X16168508Y-7290700D01*
X16282700Y-7290700D01*
X16282700Y-7288700D01*
X16317300Y-7288700D01*
X16317300Y-7290700D01*
X16431492Y-7290700D01*
X16442967Y-7267841D01*
X16429491Y-7235303D01*
X16391814Y-7191283D01*
X16373521Y-7181986D01*
X16395202Y-7167500D01*
X16604798Y-7167500D01*
X16626479Y-7181986D01*
X16608186Y-7191283D01*
X16570509Y-7235303D01*
X16557033Y-7267841D01*
X16568508Y-7290700D01*
X16682700Y-7290700D01*
X16682700Y-7288700D01*
X16717300Y-7288700D01*
X16717300Y-7290700D01*
X16831492Y-7290700D01*
X16842967Y-7267841D01*
X16829491Y-7235303D01*
X16791814Y-7191283D01*
X16773521Y-7181986D01*
X16795202Y-7167500D01*
X17004798Y-7167500D01*
X17026479Y-7181986D01*
X17008186Y-7191283D01*
X16970509Y-7235303D01*
X16957033Y-7267841D01*
X16968508Y-7290700D01*
X17082700Y-7290700D01*
X17082700Y-7288700D01*
X17117300Y-7288700D01*
X17117300Y-7290700D01*
X17231492Y-7290700D01*
X17242967Y-7267841D01*
X17229491Y-7235303D01*
X17191814Y-7191283D01*
X17173521Y-7181986D01*
X17195202Y-7167500D01*
X17404798Y-7167500D01*
X17426479Y-7181986D01*
X17408186Y-7191283D01*
X17370509Y-7235303D01*
X17357033Y-7267841D01*
X17368508Y-7290700D01*
X17482700Y-7290700D01*
X17482700Y-7288700D01*
X17517300Y-7288700D01*
X17517300Y-7290700D01*
X17631492Y-7290700D01*
X17642967Y-7267841D01*
X17629491Y-7235303D01*
X17591814Y-7191283D01*
X17573521Y-7181986D01*
X17595202Y-7167500D01*
X17804798Y-7167500D01*
X17826479Y-7181986D01*
X17808186Y-7191283D01*
X17770509Y-7235303D01*
X17757033Y-7267841D01*
X17768508Y-7290700D01*
X17882700Y-7290700D01*
X17882700Y-7288700D01*
X17917300Y-7288700D01*
X17917300Y-7290700D01*
X18031492Y-7290700D01*
X18042967Y-7267841D01*
X18029491Y-7235303D01*
X17991814Y-7191283D01*
X17973521Y-7181986D01*
X18007915Y-7159005D01*
X18040105Y-7110828D01*
X18045405Y-7084185D01*
X18074280Y-7113110D01*
X18123329Y-7133477D01*
X18172039Y-7133519D01*
X18197023Y-7158504D01*
X18192527Y-7169333D01*
X18192474Y-7230399D01*
X18215793Y-7286837D01*
X18258936Y-7330055D01*
X18315333Y-7353473D01*
X18376399Y-7353526D01*
X18432837Y-7330207D01*
X18450584Y-7312491D01*
X18456167Y-7325970D01*
X18474030Y-7343833D01*
X18497369Y-7353500D01*
X18566825Y-7353500D01*
X18582700Y-7337625D01*
X18582700Y-7217300D01*
X18617300Y-7217300D01*
X18617300Y-7337625D01*
X18633175Y-7353500D01*
X18702631Y-7353500D01*
X18725970Y-7343833D01*
X18743833Y-7325970D01*
X18753500Y-7302631D01*
X18753500Y-7233175D01*
X18737625Y-7217300D01*
X18617300Y-7217300D01*
X18582700Y-7217300D01*
X18580700Y-7217300D01*
X18580700Y-7182700D01*
X18582700Y-7182700D01*
X18582700Y-7062375D01*
X18617300Y-7062375D01*
X18617300Y-7182700D01*
X18737625Y-7182700D01*
X18753500Y-7166825D01*
X18753500Y-7097369D01*
X18743833Y-7074030D01*
X18725970Y-7056167D01*
X18702631Y-7046500D01*
X18633175Y-7046500D01*
X18617300Y-7062375D01*
X18582700Y-7062375D01*
X18566825Y-7046500D01*
X18497369Y-7046500D01*
X18474030Y-7056167D01*
X18456167Y-7074030D01*
X18450588Y-7087499D01*
X18433064Y-7069945D01*
X18376667Y-7046527D01*
X18315601Y-7046473D01*
X18304529Y-7051048D01*
X18297742Y-7044262D01*
X18776461Y-7044262D01*
X18810416Y-7126437D01*
X18873232Y-7189364D01*
X18955348Y-7223461D01*
X19044262Y-7223539D01*
X19126437Y-7189584D01*
X19189364Y-7126768D01*
X19223461Y-7044652D01*
X19223539Y-6955738D01*
X19189585Y-6873563D01*
X19126768Y-6810636D01*
X19044652Y-6776539D01*
X18955738Y-6776461D01*
X18873563Y-6810415D01*
X18810636Y-6873232D01*
X18776539Y-6955348D01*
X18776461Y-7044262D01*
X18297742Y-7044262D01*
X18282501Y-7029021D01*
X18283477Y-7026671D01*
X18283523Y-6973562D01*
X18263242Y-6924477D01*
X18225720Y-6886890D01*
X18193421Y-6873478D01*
X18201088Y-6871953D01*
X18244399Y-6843014D01*
X18273338Y-6799704D01*
X18283500Y-6748615D01*
X18283500Y-6743385D01*
X18282822Y-6739973D01*
X18315333Y-6753473D01*
X18376399Y-6753526D01*
X18432837Y-6730207D01*
X18450584Y-6712491D01*
X18456167Y-6725970D01*
X18474030Y-6743833D01*
X18497369Y-6753500D01*
X18566825Y-6753500D01*
X18582700Y-6737625D01*
X18582700Y-6617300D01*
X18617300Y-6617300D01*
X18617300Y-6737625D01*
X18633175Y-6753500D01*
X18702631Y-6753500D01*
X18725970Y-6743833D01*
X18743833Y-6725970D01*
X18753500Y-6702631D01*
X18753500Y-6633175D01*
X18737625Y-6617300D01*
X18617300Y-6617300D01*
X18582700Y-6617300D01*
X18580700Y-6617300D01*
X18580700Y-6582700D01*
X18582700Y-6582700D01*
X18582700Y-6462375D01*
X18566825Y-6446500D01*
X18497369Y-6446500D01*
X18474030Y-6456167D01*
X18456167Y-6474030D01*
X18450588Y-6487499D01*
X18433064Y-6469945D01*
X18429158Y-6468323D01*
X18471480Y-6426000D01*
X18687235Y-6426000D01*
X18711272Y-6450079D01*
X18702631Y-6446500D01*
X18633175Y-6446500D01*
X18617300Y-6462375D01*
X18617300Y-6582700D01*
X18737625Y-6582700D01*
X18753500Y-6566825D01*
X18753500Y-6497369D01*
X18743833Y-6474030D01*
X18739043Y-6469240D01*
X18773329Y-6483477D01*
X18826438Y-6483523D01*
X18875523Y-6463242D01*
X18913110Y-6425720D01*
X18926522Y-6393421D01*
X18928047Y-6401088D01*
X18956986Y-6444399D01*
X19000296Y-6473338D01*
X19051385Y-6483500D01*
X19056615Y-6483500D01*
X19107704Y-6473338D01*
X19151014Y-6444399D01*
X19179953Y-6401088D01*
X19190115Y-6350000D01*
X19183890Y-6318703D01*
X19189500Y-6290500D01*
X19189500Y-6031830D01*
X19218130Y-6012700D01*
X19287300Y-6012700D01*
X19287300Y-6075445D01*
X19286520Y-6077324D01*
X19286480Y-6122477D01*
X19287300Y-6124461D01*
X19287300Y-6225445D01*
X19286520Y-6227324D01*
X19286480Y-6272477D01*
X19287300Y-6274461D01*
X19287300Y-6375445D01*
X19286520Y-6377324D01*
X19286480Y-6422477D01*
X19287300Y-6424461D01*
X19287300Y-6525445D01*
X19286520Y-6527324D01*
X19286480Y-6572477D01*
X19287300Y-6574461D01*
X19287300Y-6675445D01*
X19286520Y-6677324D01*
X19286480Y-6722477D01*
X19287300Y-6724461D01*
X19287300Y-6825445D01*
X19286520Y-6827324D01*
X19286480Y-6872477D01*
X19287300Y-6874461D01*
X19287300Y-6975445D01*
X19286520Y-6977324D01*
X19286480Y-7022477D01*
X19287300Y-7024461D01*
X19287300Y-7125445D01*
X19286520Y-7127324D01*
X19286480Y-7172477D01*
X19287300Y-7174461D01*
X19287300Y-7275445D01*
X19286520Y-7277324D01*
X19286480Y-7322477D01*
X19287300Y-7324461D01*
X19287300Y-7425445D01*
X19286520Y-7427324D01*
X19286518Y-7429000D01*
X17983386Y-7429000D01*
X17991814Y-7424717D01*
X18029491Y-7380696D01*
X18042967Y-7348159D01*
X18031492Y-7325300D01*
X17917300Y-7325300D01*
X17917300Y-7327300D01*
X17882700Y-7327300D01*
X17882700Y-7325300D01*
X17768508Y-7325300D01*
X17757033Y-7348159D01*
X17770509Y-7380696D01*
X17808186Y-7424717D01*
X17816614Y-7429000D01*
X17583386Y-7429000D01*
X17591814Y-7424717D01*
X17629491Y-7380696D01*
X17642967Y-7348159D01*
X17631492Y-7325300D01*
X17517300Y-7325300D01*
X17517300Y-7327300D01*
X17482700Y-7327300D01*
X17482700Y-7325300D01*
X17368508Y-7325300D01*
X17357033Y-7348159D01*
X17370509Y-7380696D01*
X17408186Y-7424717D01*
X17416614Y-7429000D01*
X17183386Y-7429000D01*
X17191814Y-7424717D01*
X17229491Y-7380696D01*
X17242967Y-7348159D01*
X17231492Y-7325300D01*
X17117300Y-7325300D01*
X17117300Y-7327300D01*
X17082700Y-7327300D01*
X17082700Y-7325300D01*
X16968508Y-7325300D01*
X16957033Y-7348159D01*
X16970509Y-7380696D01*
X17008186Y-7424717D01*
X17016614Y-7429000D01*
X16783386Y-7429000D01*
X16791814Y-7424717D01*
X16829491Y-7380696D01*
X16842967Y-7348159D01*
X16831492Y-7325300D01*
X16717300Y-7325300D01*
X16717300Y-7327300D01*
X16682700Y-7327300D01*
X16682700Y-7325300D01*
X16568508Y-7325300D01*
X16557033Y-7348159D01*
X16570509Y-7380696D01*
X16608186Y-7424717D01*
X16616614Y-7429000D01*
X16383386Y-7429000D01*
X16391814Y-7424717D01*
X16429491Y-7380696D01*
X16442967Y-7348159D01*
X16431492Y-7325300D01*
X16317300Y-7325300D01*
X16317300Y-7327300D01*
X16282700Y-7327300D01*
X16282700Y-7325300D01*
X16168508Y-7325300D01*
X16157033Y-7348159D01*
X16170509Y-7380696D01*
X16208186Y-7424717D01*
X16216614Y-7429000D01*
X15983386Y-7429000D01*
X15991814Y-7424717D01*
X16029491Y-7380696D01*
X16042967Y-7348159D01*
X16031492Y-7325300D01*
X15917300Y-7325300D01*
X15917300Y-7327300D01*
X15882700Y-7327300D01*
X15882700Y-7325300D01*
X15768508Y-7325300D01*
X15757033Y-7348159D01*
X15770509Y-7380696D01*
X15808186Y-7424717D01*
X15816614Y-7429000D01*
X15583386Y-7429000D01*
X15591814Y-7424717D01*
X15629491Y-7380696D01*
X15642967Y-7348159D01*
X15631492Y-7325300D01*
X15517300Y-7325300D01*
X15517300Y-7327300D01*
X15482700Y-7327300D01*
X15482700Y-7325300D01*
X15368508Y-7325300D01*
X15357033Y-7348159D01*
X15370509Y-7380696D01*
X15408186Y-7424717D01*
X15416614Y-7429000D01*
X15183386Y-7429000D01*
X15191814Y-7424717D01*
X15229491Y-7380696D01*
X15242967Y-7348159D01*
X15231492Y-7325300D01*
X15117300Y-7325300D01*
X15117300Y-7327300D01*
X15082700Y-7327300D01*
X15082700Y-7325300D01*
X14968508Y-7325300D01*
X14957033Y-7348159D01*
X14970509Y-7380696D01*
X15008186Y-7424717D01*
X15016614Y-7429000D01*
X14783386Y-7429000D01*
X14791814Y-7424717D01*
X14829491Y-7380696D01*
X14842967Y-7348159D01*
X14831492Y-7325300D01*
X14717300Y-7325300D01*
X14717300Y-7327300D01*
X14682700Y-7327300D01*
X14682700Y-7325300D01*
X14568508Y-7325300D01*
X14557033Y-7348159D01*
X14570509Y-7380696D01*
X14608186Y-7424717D01*
X14616614Y-7429000D01*
X14383386Y-7429000D01*
X14391814Y-7424717D01*
X14429491Y-7380696D01*
X14442967Y-7348159D01*
X14431492Y-7325300D01*
X14317300Y-7325300D01*
X14317300Y-7327300D01*
X14282700Y-7327300D01*
X14282700Y-7325300D01*
X14168508Y-7325300D01*
X14157033Y-7348159D01*
X14170509Y-7380696D01*
X14208186Y-7424717D01*
X14216614Y-7429000D01*
X13983386Y-7429000D01*
X13991814Y-7424717D01*
X14029491Y-7380696D01*
X14042967Y-7348159D01*
X14031492Y-7325300D01*
X13917300Y-7325300D01*
X13917300Y-7327300D01*
X13882700Y-7327300D01*
X13882700Y-7325300D01*
X13768508Y-7325300D01*
X13757033Y-7348159D01*
X13770509Y-7380696D01*
X13808186Y-7424717D01*
X13816614Y-7429000D01*
X13583386Y-7429000D01*
X13591814Y-7424717D01*
X13629491Y-7380696D01*
X13642967Y-7348159D01*
X13631492Y-7325300D01*
X13517300Y-7325300D01*
X13517300Y-7327300D01*
X13482700Y-7327300D01*
X13482700Y-7325300D01*
X13368508Y-7325300D01*
X13357033Y-7348159D01*
X13370509Y-7380696D01*
X13408186Y-7424717D01*
X13416614Y-7429000D01*
X12571000Y-7429000D01*
X12571000Y-7044262D01*
X12776461Y-7044262D01*
X12810415Y-7126437D01*
X12873232Y-7189364D01*
X12955348Y-7223461D01*
X13044262Y-7223539D01*
X13126437Y-7189584D01*
X13189364Y-7126768D01*
X13223461Y-7044652D01*
X13223539Y-6955738D01*
X13189584Y-6873563D01*
X13126768Y-6810636D01*
X13044652Y-6776539D01*
X12955738Y-6776461D01*
X12873563Y-6810415D01*
X12810636Y-6873232D01*
X12776539Y-6955348D01*
X12776461Y-7044262D01*
X12571000Y-7044262D01*
X12571000Y-5949869D01*
X12669000Y-5949869D01*
X12669000Y-5996825D01*
X12684875Y-6012700D01*
X12782700Y-6012700D01*
X12782700Y-5914875D01*
X12817300Y-5914875D01*
X12817300Y-6012700D01*
X12915125Y-6012700D01*
X12931000Y-5996825D01*
X12931000Y-5949869D01*
X12921333Y-5926530D01*
X12903470Y-5908667D01*
X12880131Y-5899000D01*
X12833175Y-5899000D01*
X12817300Y-5914875D01*
X12782700Y-5914875D01*
X12766825Y-5899000D01*
X12719869Y-5899000D01*
X12696530Y-5908667D01*
X12678667Y-5926530D01*
X12669000Y-5949869D01*
X12571000Y-5949869D01*
X12571000Y-5758281D01*
X13319463Y-5758281D01*
X13351898Y-5836780D01*
X13411904Y-5896891D01*
X13490346Y-5929463D01*
X13575281Y-5929537D01*
X13653780Y-5897102D01*
X13713891Y-5837096D01*
X13746463Y-5758654D01*
X13746521Y-5691650D01*
X14212315Y-5691650D01*
X14220100Y-5715707D01*
X14274406Y-5733309D01*
X14331315Y-5728790D01*
X14362900Y-5715707D01*
X14370685Y-5691650D01*
X14291500Y-5612466D01*
X14212315Y-5691650D01*
X13746521Y-5691650D01*
X13746537Y-5673718D01*
X13714102Y-5595220D01*
X13689830Y-5570906D01*
X14146191Y-5570906D01*
X14150710Y-5627815D01*
X14163793Y-5659400D01*
X14187849Y-5667185D01*
X14267034Y-5588000D01*
X14187849Y-5508815D01*
X14163793Y-5516600D01*
X14146191Y-5570906D01*
X13689830Y-5570906D01*
X13654096Y-5535109D01*
X13596064Y-5511012D01*
X13724454Y-5511012D01*
X13731618Y-5534552D01*
X13784105Y-5551316D01*
X13839011Y-5546718D01*
X13868382Y-5534552D01*
X13875546Y-5511012D01*
X13800000Y-5435466D01*
X13724454Y-5511012D01*
X13596064Y-5511012D01*
X13575654Y-5502537D01*
X13490718Y-5502463D01*
X13412220Y-5534898D01*
X13352109Y-5594904D01*
X13319537Y-5673346D01*
X13319463Y-5758281D01*
X12571000Y-5758281D01*
X12571000Y-5395105D01*
X13659684Y-5395105D01*
X13664282Y-5450011D01*
X13676448Y-5479382D01*
X13699988Y-5486546D01*
X13775534Y-5411000D01*
X13824466Y-5411000D01*
X13900012Y-5486546D01*
X13907230Y-5484350D01*
X14212315Y-5484350D01*
X14291500Y-5563534D01*
X14370685Y-5484350D01*
X14362900Y-5460293D01*
X14308594Y-5442691D01*
X14251685Y-5447210D01*
X14220100Y-5460293D01*
X14212315Y-5484350D01*
X13907230Y-5484350D01*
X13923552Y-5479382D01*
X13940316Y-5426895D01*
X13935718Y-5371989D01*
X13923552Y-5342618D01*
X13900012Y-5335454D01*
X13824466Y-5411000D01*
X13775534Y-5411000D01*
X13699988Y-5335454D01*
X13676448Y-5342618D01*
X13659684Y-5395105D01*
X12571000Y-5395105D01*
X12571000Y-4727429D01*
X13661476Y-4727429D01*
X13682517Y-4778352D01*
X13721444Y-4817346D01*
X13744687Y-4826998D01*
X13721648Y-4836517D01*
X13682654Y-4875444D01*
X13661524Y-4926330D01*
X13661476Y-4981429D01*
X13682517Y-5032352D01*
X13705631Y-5055506D01*
X13682654Y-5078444D01*
X13661524Y-5129330D01*
X13661476Y-5184429D01*
X13682517Y-5235352D01*
X13721444Y-5274346D01*
X13742320Y-5283015D01*
X13731618Y-5287448D01*
X13724454Y-5310988D01*
X13800000Y-5386534D01*
X13875546Y-5310988D01*
X13868382Y-5287448D01*
X13856308Y-5283591D01*
X13878351Y-5274483D01*
X13917346Y-5235556D01*
X13938476Y-5184670D01*
X13938477Y-5183651D01*
X14212315Y-5183651D01*
X14220100Y-5207707D01*
X14274406Y-5225309D01*
X14331315Y-5220790D01*
X14362900Y-5207707D01*
X14370685Y-5183651D01*
X14291500Y-5104466D01*
X14212315Y-5183651D01*
X13938477Y-5183651D01*
X13938524Y-5129572D01*
X13917483Y-5078649D01*
X13901768Y-5062906D01*
X14146191Y-5062906D01*
X14150710Y-5119815D01*
X14163793Y-5151400D01*
X14187849Y-5159185D01*
X14267034Y-5080000D01*
X14187849Y-5000815D01*
X14163793Y-5008600D01*
X14146191Y-5062906D01*
X13901768Y-5062906D01*
X13894369Y-5055494D01*
X13917346Y-5032556D01*
X13938476Y-4981670D01*
X13938480Y-4976350D01*
X14212315Y-4976350D01*
X14291500Y-5055534D01*
X14370685Y-4976350D01*
X14362900Y-4952293D01*
X14308594Y-4934691D01*
X14251685Y-4939210D01*
X14220100Y-4952293D01*
X14212315Y-4976350D01*
X13938480Y-4976350D01*
X13938524Y-4926572D01*
X13917483Y-4875649D01*
X13878556Y-4836654D01*
X13855313Y-4827002D01*
X13878351Y-4817483D01*
X13917346Y-4778556D01*
X13938476Y-4727670D01*
X13938524Y-4672572D01*
X13917483Y-4621649D01*
X13878556Y-4582654D01*
X13827670Y-4561524D01*
X13772571Y-4561476D01*
X13721648Y-4582517D01*
X13682654Y-4621444D01*
X13661524Y-4672330D01*
X13661476Y-4727429D01*
X12571000Y-4727429D01*
X12571000Y-3419869D01*
X12669000Y-3419869D01*
X12669000Y-3466825D01*
X12684875Y-3482700D01*
X12782700Y-3482700D01*
X12782700Y-3384875D01*
X12817300Y-3384875D01*
X12817300Y-3482700D01*
X12915125Y-3482700D01*
X12931000Y-3466825D01*
X12931000Y-3419869D01*
X13169000Y-3419869D01*
X13169000Y-3466825D01*
X13184875Y-3482700D01*
X13282700Y-3482700D01*
X13282700Y-3384875D01*
X13317300Y-3384875D01*
X13317300Y-3482700D01*
X13415125Y-3482700D01*
X13431000Y-3466825D01*
X13431000Y-3419869D01*
X13421333Y-3396530D01*
X13403470Y-3378667D01*
X13380131Y-3369000D01*
X13333175Y-3369000D01*
X13317300Y-3384875D01*
X13282700Y-3384875D01*
X13266825Y-3369000D01*
X13219869Y-3369000D01*
X13196530Y-3378667D01*
X13178667Y-3396530D01*
X13169000Y-3419869D01*
X12931000Y-3419869D01*
X12921333Y-3396530D01*
X12903470Y-3378667D01*
X12880131Y-3369000D01*
X12833175Y-3369000D01*
X12817300Y-3384875D01*
X12782700Y-3384875D01*
X12766825Y-3369000D01*
X12719869Y-3369000D01*
X12696530Y-3378667D01*
X12678667Y-3396530D01*
X12669000Y-3419869D01*
X12571000Y-3419869D01*
X12571000Y-3044262D01*
X12776461Y-3044262D01*
X12810415Y-3126437D01*
X12873232Y-3189364D01*
X12955348Y-3223461D01*
X13044262Y-3223539D01*
X13126437Y-3189584D01*
X13189364Y-3126768D01*
X13223461Y-3044652D01*
X13223539Y-2955738D01*
X13189584Y-2873563D01*
X13148999Y-2832906D01*
X14554691Y-2832906D01*
X14559210Y-2889815D01*
X14572293Y-2921400D01*
X14596349Y-2929185D01*
X14675534Y-2850000D01*
X14724466Y-2850000D01*
X14803650Y-2929185D01*
X14827707Y-2921400D01*
X14845309Y-2867094D01*
X14840790Y-2810185D01*
X14827707Y-2778600D01*
X14803650Y-2770815D01*
X14724466Y-2850000D01*
X14675534Y-2850000D01*
X14596349Y-2770815D01*
X14572293Y-2778600D01*
X14554691Y-2832906D01*
X13148999Y-2832906D01*
X13126768Y-2810636D01*
X13044652Y-2776539D01*
X12955738Y-2776461D01*
X12873563Y-2810415D01*
X12810636Y-2873232D01*
X12776539Y-2955348D01*
X12776461Y-3044262D01*
X12571000Y-3044262D01*
X12571000Y-2742262D01*
X13347204Y-2742262D01*
X13353729Y-2765271D01*
X13404340Y-2781170D01*
X13457183Y-2776491D01*
X13484271Y-2765271D01*
X13490796Y-2742262D01*
X14109204Y-2742262D01*
X14115729Y-2765271D01*
X14166340Y-2781170D01*
X14219183Y-2776491D01*
X14246271Y-2765271D01*
X14251637Y-2746350D01*
X14620815Y-2746350D01*
X14700000Y-2825534D01*
X14779185Y-2746350D01*
X14771400Y-2722293D01*
X14717094Y-2704691D01*
X14660185Y-2709210D01*
X14628600Y-2722293D01*
X14620815Y-2746350D01*
X14251637Y-2746350D01*
X14252796Y-2742262D01*
X14181000Y-2670466D01*
X14109204Y-2742262D01*
X13490796Y-2742262D01*
X13419000Y-2670466D01*
X13347204Y-2742262D01*
X12571000Y-2742262D01*
X12571000Y-2571000D01*
X13319534Y-2571000D01*
X13322738Y-2574204D01*
G36*
X14849885Y-5980000D02*
X14860047Y-6031088D01*
X14888986Y-6074399D01*
X14932296Y-6103338D01*
X14983385Y-6113500D01*
X14988615Y-6113500D01*
X15039704Y-6103338D01*
X15083014Y-6074399D01*
X15111953Y-6031088D01*
X15113483Y-6023395D01*
X15126758Y-6055523D01*
X15164280Y-6093110D01*
X15174971Y-6097549D01*
X15092181Y-6180339D01*
X15080696Y-6170509D01*
X15048159Y-6157033D01*
X15025300Y-6168508D01*
X15025300Y-6282700D01*
X15027300Y-6282700D01*
X15027300Y-6317300D01*
X15025300Y-6317300D01*
X15025300Y-6431492D01*
X15048159Y-6442967D01*
X15054000Y-6440548D01*
X15054000Y-6650256D01*
X15015000Y-6650256D01*
X14991468Y-6654684D01*
X14969856Y-6668591D01*
X14955357Y-6689811D01*
X14950256Y-6715000D01*
X14950256Y-6885000D01*
X14954684Y-6908532D01*
X14968591Y-6930144D01*
X14983747Y-6940500D01*
X14816016Y-6940500D01*
X14830144Y-6931409D01*
X14844643Y-6910189D01*
X14849744Y-6885000D01*
X14849744Y-6715000D01*
X14845316Y-6691468D01*
X14831409Y-6669856D01*
X14810189Y-6655357D01*
X14785000Y-6650256D01*
X14776000Y-6650256D01*
X14776000Y-6520000D01*
X14770215Y-6490916D01*
X14758469Y-6473338D01*
X14753740Y-6466260D01*
X14735138Y-6447657D01*
X14754000Y-6451409D01*
X14810828Y-6440105D01*
X14859005Y-6407915D01*
X14881986Y-6373521D01*
X14891283Y-6391814D01*
X14935303Y-6429491D01*
X14967841Y-6442967D01*
X14990700Y-6431492D01*
X14990700Y-6317300D01*
X14988700Y-6317300D01*
X14988700Y-6282700D01*
X14990700Y-6282700D01*
X14990700Y-6168508D01*
X14967841Y-6157033D01*
X14935303Y-6170509D01*
X14891283Y-6208186D01*
X14881986Y-6226479D01*
X14859005Y-6192085D01*
X14810828Y-6159895D01*
X14754000Y-6148591D01*
X14706000Y-6158138D01*
X14706000Y-6099310D01*
X14856783Y-5945319D01*
X14849885Y-5980000D01*
X14849885Y-5980000D01*
G37*
X14849885Y-5980000D02*
X14860047Y-6031088D01*
X14888986Y-6074399D01*
X14932296Y-6103338D01*
X14983385Y-6113500D01*
X14988615Y-6113500D01*
X15039704Y-6103338D01*
X15083014Y-6074399D01*
X15111953Y-6031088D01*
X15113483Y-6023395D01*
X15126758Y-6055523D01*
X15164280Y-6093110D01*
X15174971Y-6097549D01*
X15092181Y-6180339D01*
X15080696Y-6170509D01*
X15048159Y-6157033D01*
X15025300Y-6168508D01*
X15025300Y-6282700D01*
X15027300Y-6282700D01*
X15027300Y-6317300D01*
X15025300Y-6317300D01*
X15025300Y-6431492D01*
X15048159Y-6442967D01*
X15054000Y-6440548D01*
X15054000Y-6650256D01*
X15015000Y-6650256D01*
X14991468Y-6654684D01*
X14969856Y-6668591D01*
X14955357Y-6689811D01*
X14950256Y-6715000D01*
X14950256Y-6885000D01*
X14954684Y-6908532D01*
X14968591Y-6930144D01*
X14983747Y-6940500D01*
X14816016Y-6940500D01*
X14830144Y-6931409D01*
X14844643Y-6910189D01*
X14849744Y-6885000D01*
X14849744Y-6715000D01*
X14845316Y-6691468D01*
X14831409Y-6669856D01*
X14810189Y-6655357D01*
X14785000Y-6650256D01*
X14776000Y-6650256D01*
X14776000Y-6520000D01*
X14770215Y-6490916D01*
X14758469Y-6473338D01*
X14753740Y-6466260D01*
X14735138Y-6447657D01*
X14754000Y-6451409D01*
X14810828Y-6440105D01*
X14859005Y-6407915D01*
X14881986Y-6373521D01*
X14891283Y-6391814D01*
X14935303Y-6429491D01*
X14967841Y-6442967D01*
X14990700Y-6431492D01*
X14990700Y-6317300D01*
X14988700Y-6317300D01*
X14988700Y-6282700D01*
X14990700Y-6282700D01*
X14990700Y-6168508D01*
X14967841Y-6157033D01*
X14935303Y-6170509D01*
X14891283Y-6208186D01*
X14881986Y-6226479D01*
X14859005Y-6192085D01*
X14810828Y-6159895D01*
X14754000Y-6148591D01*
X14706000Y-6158138D01*
X14706000Y-6099310D01*
X14856783Y-5945319D01*
X14849885Y-5980000D01*
G36*
X16327300Y-6280700D02*
X16329300Y-6280700D01*
X16329300Y-6315300D01*
X16327300Y-6315300D01*
X16327300Y-6317300D01*
X16292700Y-6317300D01*
X16292700Y-6315300D01*
X16290700Y-6315300D01*
X16290700Y-6280700D01*
X16292700Y-6280700D01*
X16292700Y-6278700D01*
X16327300Y-6278700D01*
X16327300Y-6280700D01*
X16327300Y-6280700D01*
G37*
X16327300Y-6280700D02*
X16329300Y-6280700D01*
X16329300Y-6315300D01*
X16327300Y-6315300D01*
X16327300Y-6317300D01*
X16292700Y-6317300D01*
X16292700Y-6315300D01*
X16290700Y-6315300D01*
X16290700Y-6280700D01*
X16292700Y-6280700D01*
X16292700Y-6278700D01*
X16327300Y-6278700D01*
X16327300Y-6280700D01*
G36*
X15884000Y-5911947D02*
X15856615Y-5906500D01*
X15851385Y-5906500D01*
X15800296Y-5916662D01*
X15756986Y-5945601D01*
X15728047Y-5988912D01*
X15727158Y-5993379D01*
X15719395Y-5974638D01*
X15696371Y-5968095D01*
X15624466Y-6040000D01*
X15696371Y-6111905D01*
X15719395Y-6105362D01*
X15726432Y-6082972D01*
X15728047Y-6091088D01*
X15756986Y-6134399D01*
X15778000Y-6148440D01*
X15778000Y-6171560D01*
X15756986Y-6185601D01*
X15728047Y-6228912D01*
X15726516Y-6236604D01*
X15713242Y-6204477D01*
X15675720Y-6166890D01*
X15661511Y-6160990D01*
X15665362Y-6159395D01*
X15671905Y-6136371D01*
X15600000Y-6064466D01*
X15598586Y-6065880D01*
X15574120Y-6041414D01*
X15575534Y-6040000D01*
X15574120Y-6038586D01*
X15598586Y-6014120D01*
X15600000Y-6015534D01*
X15671905Y-5943629D01*
X15665697Y-5921783D01*
X15884000Y-5703480D01*
X15884000Y-5911947D01*
X15884000Y-5911947D01*
G37*
X15884000Y-5911947D02*
X15856615Y-5906500D01*
X15851385Y-5906500D01*
X15800296Y-5916662D01*
X15756986Y-5945601D01*
X15728047Y-5988912D01*
X15727158Y-5993379D01*
X15719395Y-5974638D01*
X15696371Y-5968095D01*
X15624466Y-6040000D01*
X15696371Y-6111905D01*
X15719395Y-6105362D01*
X15726432Y-6082972D01*
X15728047Y-6091088D01*
X15756986Y-6134399D01*
X15778000Y-6148440D01*
X15778000Y-6171560D01*
X15756986Y-6185601D01*
X15728047Y-6228912D01*
X15726516Y-6236604D01*
X15713242Y-6204477D01*
X15675720Y-6166890D01*
X15661511Y-6160990D01*
X15665362Y-6159395D01*
X15671905Y-6136371D01*
X15600000Y-6064466D01*
X15598586Y-6065880D01*
X15574120Y-6041414D01*
X15575534Y-6040000D01*
X15574120Y-6038586D01*
X15598586Y-6014120D01*
X15600000Y-6015534D01*
X15671905Y-5943629D01*
X15665697Y-5921783D01*
X15884000Y-5703480D01*
X15884000Y-5911947D01*
G36*
X15346484Y-4898517D02*
X15360688Y-4932894D01*
X15386967Y-4959219D01*
X15421320Y-4973484D01*
X15450256Y-4973509D01*
X15450256Y-4990000D01*
X15451598Y-4997132D01*
X15451500Y-4997369D01*
X15451500Y-5009125D01*
X15454400Y-5012025D01*
X15454684Y-5013532D01*
X15460583Y-5022700D01*
X15451500Y-5022700D01*
X15451500Y-5026510D01*
X15421483Y-5026484D01*
X15387106Y-5040688D01*
X15367620Y-5060140D01*
X15353740Y-5046260D01*
X15329084Y-5029785D01*
X15300000Y-5024000D01*
X15231455Y-5024000D01*
X15230483Y-5021649D01*
X15191556Y-4982654D01*
X15140670Y-4961524D01*
X15085571Y-4961476D01*
X15034648Y-4982517D01*
X14995654Y-5021444D01*
X14974524Y-5072330D01*
X14974476Y-5127429D01*
X14995517Y-5178352D01*
X15034444Y-5217346D01*
X15044315Y-5221445D01*
X15037454Y-5243988D01*
X15113000Y-5319534D01*
X15188546Y-5243988D01*
X15181694Y-5221474D01*
X15191351Y-5217483D01*
X15230346Y-5178556D01*
X15231408Y-5176000D01*
X15268520Y-5176000D01*
X15346260Y-5253740D01*
X15370916Y-5270215D01*
X15384169Y-5272851D01*
X15187889Y-5469131D01*
X15181685Y-5466555D01*
X15188546Y-5444012D01*
X15113000Y-5368466D01*
X15037454Y-5444012D01*
X15044306Y-5466527D01*
X15034648Y-5470517D01*
X14995654Y-5509444D01*
X14974524Y-5560330D01*
X14974476Y-5615428D01*
X14984215Y-5639000D01*
X14975937Y-5639000D01*
X14946854Y-5644785D01*
X14935911Y-5652096D01*
X14935489Y-5328105D01*
X14972684Y-5328105D01*
X14977282Y-5383011D01*
X14989448Y-5412382D01*
X15012988Y-5419546D01*
X15088534Y-5344000D01*
X15137466Y-5344000D01*
X15213012Y-5419546D01*
X15236552Y-5412382D01*
X15253316Y-5359895D01*
X15248718Y-5304989D01*
X15236552Y-5275618D01*
X15213012Y-5268454D01*
X15137466Y-5344000D01*
X15088534Y-5344000D01*
X15012988Y-5268454D01*
X14989448Y-5275618D01*
X14972684Y-5328105D01*
X14935489Y-5328105D01*
X14935041Y-4984439D01*
X15043480Y-4876000D01*
X15346503Y-4876000D01*
X15346484Y-4898517D01*
X15346484Y-4898517D01*
G37*
X15346484Y-4898517D02*
X15360688Y-4932894D01*
X15386967Y-4959219D01*
X15421320Y-4973484D01*
X15450256Y-4973509D01*
X15450256Y-4990000D01*
X15451598Y-4997132D01*
X15451500Y-4997369D01*
X15451500Y-5009125D01*
X15454400Y-5012025D01*
X15454684Y-5013532D01*
X15460583Y-5022700D01*
X15451500Y-5022700D01*
X15451500Y-5026510D01*
X15421483Y-5026484D01*
X15387106Y-5040688D01*
X15367620Y-5060140D01*
X15353740Y-5046260D01*
X15329084Y-5029785D01*
X15300000Y-5024000D01*
X15231455Y-5024000D01*
X15230483Y-5021649D01*
X15191556Y-4982654D01*
X15140670Y-4961524D01*
X15085571Y-4961476D01*
X15034648Y-4982517D01*
X14995654Y-5021444D01*
X14974524Y-5072330D01*
X14974476Y-5127429D01*
X14995517Y-5178352D01*
X15034444Y-5217346D01*
X15044315Y-5221445D01*
X15037454Y-5243988D01*
X15113000Y-5319534D01*
X15188546Y-5243988D01*
X15181694Y-5221474D01*
X15191351Y-5217483D01*
X15230346Y-5178556D01*
X15231408Y-5176000D01*
X15268520Y-5176000D01*
X15346260Y-5253740D01*
X15370916Y-5270215D01*
X15384169Y-5272851D01*
X15187889Y-5469131D01*
X15181685Y-5466555D01*
X15188546Y-5444012D01*
X15113000Y-5368466D01*
X15037454Y-5444012D01*
X15044306Y-5466527D01*
X15034648Y-5470517D01*
X14995654Y-5509444D01*
X14974524Y-5560330D01*
X14974476Y-5615428D01*
X14984215Y-5639000D01*
X14975937Y-5639000D01*
X14946854Y-5644785D01*
X14935911Y-5652096D01*
X14935489Y-5328105D01*
X14972684Y-5328105D01*
X14977282Y-5383011D01*
X14989448Y-5412382D01*
X15012988Y-5419546D01*
X15088534Y-5344000D01*
X15137466Y-5344000D01*
X15213012Y-5419546D01*
X15236552Y-5412382D01*
X15253316Y-5359895D01*
X15248718Y-5304989D01*
X15236552Y-5275618D01*
X15213012Y-5268454D01*
X15137466Y-5344000D01*
X15088534Y-5344000D01*
X15012988Y-5268454D01*
X14989448Y-5275618D01*
X14972684Y-5328105D01*
X14935489Y-5328105D01*
X14935041Y-4984439D01*
X15043480Y-4876000D01*
X15346503Y-4876000D01*
X15346484Y-4898517D01*
G36*
X16250000Y-4699744D02*
X16300256Y-4699744D01*
X16300256Y-4750000D01*
X16302207Y-4760367D01*
X16300256Y-4770000D01*
X16300256Y-4830000D01*
X16302207Y-4840367D01*
X16300256Y-4850000D01*
X16300256Y-4910000D01*
X16301598Y-4917132D01*
X16301500Y-4917369D01*
X16301500Y-4929125D01*
X16304400Y-4932025D01*
X16304684Y-4933532D01*
X16318591Y-4955144D01*
X16325571Y-4959913D01*
X16319856Y-4963591D01*
X16305357Y-4984811D01*
X16304796Y-4987579D01*
X16301500Y-4990875D01*
X16301500Y-5002631D01*
X16301667Y-5003034D01*
X16300256Y-5010000D01*
X16300256Y-5070000D01*
X16302207Y-5080367D01*
X16300256Y-5090000D01*
X16300256Y-5106500D01*
X16281483Y-5106484D01*
X16247106Y-5120688D01*
X16220781Y-5146967D01*
X16206516Y-5181320D01*
X16206484Y-5218517D01*
X16220688Y-5252894D01*
X16246967Y-5279219D01*
X16281320Y-5293484D01*
X16300256Y-5293500D01*
X16300256Y-5300256D01*
X16250000Y-5300256D01*
X16239633Y-5302207D01*
X16230000Y-5300256D01*
X16170000Y-5300256D01*
X16159633Y-5302207D01*
X16150000Y-5300256D01*
X16090000Y-5300256D01*
X16079633Y-5302207D01*
X16070000Y-5300256D01*
X16010000Y-5300256D01*
X15999633Y-5302207D01*
X15990000Y-5300256D01*
X15930000Y-5300256D01*
X15919633Y-5302207D01*
X15910000Y-5300256D01*
X15850000Y-5300256D01*
X15839633Y-5302207D01*
X15830000Y-5300256D01*
X15770000Y-5300256D01*
X15759633Y-5302207D01*
X15750000Y-5300256D01*
X15699744Y-5300256D01*
X15699744Y-5250000D01*
X15697793Y-5239633D01*
X15699744Y-5230000D01*
X15699744Y-5170000D01*
X15697793Y-5159633D01*
X15699744Y-5150000D01*
X15699744Y-5090000D01*
X15698402Y-5082868D01*
X15698500Y-5082631D01*
X15698500Y-5070875D01*
X15695600Y-5067975D01*
X15695316Y-5066468D01*
X15689417Y-5057300D01*
X15698500Y-5057300D01*
X15698500Y-5052313D01*
X15701320Y-5053484D01*
X15738517Y-5053516D01*
X15772894Y-5039312D01*
X15799219Y-5013033D01*
X15813484Y-4978680D01*
X15813516Y-4941483D01*
X15799312Y-4907106D01*
X15773033Y-4880781D01*
X15738680Y-4866516D01*
X15701483Y-4866484D01*
X15699744Y-4867203D01*
X15699744Y-4850000D01*
X15697793Y-4839633D01*
X15699744Y-4830000D01*
X15699744Y-4770000D01*
X15697793Y-4759633D01*
X15699744Y-4750000D01*
X15699744Y-4699744D01*
X15750000Y-4699744D01*
X15760367Y-4697793D01*
X15770000Y-4699744D01*
X15830000Y-4699744D01*
X15840367Y-4697793D01*
X15850000Y-4699744D01*
X15910000Y-4699744D01*
X15920367Y-4697793D01*
X15930000Y-4699744D01*
X15990000Y-4699744D01*
X16000367Y-4697793D01*
X16010000Y-4699744D01*
X16070000Y-4699744D01*
X16080367Y-4697793D01*
X16090000Y-4699744D01*
X16150000Y-4699744D01*
X16160367Y-4697793D01*
X16170000Y-4699744D01*
X16230000Y-4699744D01*
X16240367Y-4697793D01*
X16250000Y-4699744D01*
X16250000Y-4699744D01*
G37*
X16250000Y-4699744D02*
X16300256Y-4699744D01*
X16300256Y-4750000D01*
X16302207Y-4760367D01*
X16300256Y-4770000D01*
X16300256Y-4830000D01*
X16302207Y-4840367D01*
X16300256Y-4850000D01*
X16300256Y-4910000D01*
X16301598Y-4917132D01*
X16301500Y-4917369D01*
X16301500Y-4929125D01*
X16304400Y-4932025D01*
X16304684Y-4933532D01*
X16318591Y-4955144D01*
X16325571Y-4959913D01*
X16319856Y-4963591D01*
X16305357Y-4984811D01*
X16304796Y-4987579D01*
X16301500Y-4990875D01*
X16301500Y-5002631D01*
X16301667Y-5003034D01*
X16300256Y-5010000D01*
X16300256Y-5070000D01*
X16302207Y-5080367D01*
X16300256Y-5090000D01*
X16300256Y-5106500D01*
X16281483Y-5106484D01*
X16247106Y-5120688D01*
X16220781Y-5146967D01*
X16206516Y-5181320D01*
X16206484Y-5218517D01*
X16220688Y-5252894D01*
X16246967Y-5279219D01*
X16281320Y-5293484D01*
X16300256Y-5293500D01*
X16300256Y-5300256D01*
X16250000Y-5300256D01*
X16239633Y-5302207D01*
X16230000Y-5300256D01*
X16170000Y-5300256D01*
X16159633Y-5302207D01*
X16150000Y-5300256D01*
X16090000Y-5300256D01*
X16079633Y-5302207D01*
X16070000Y-5300256D01*
X16010000Y-5300256D01*
X15999633Y-5302207D01*
X15990000Y-5300256D01*
X15930000Y-5300256D01*
X15919633Y-5302207D01*
X15910000Y-5300256D01*
X15850000Y-5300256D01*
X15839633Y-5302207D01*
X15830000Y-5300256D01*
X15770000Y-5300256D01*
X15759633Y-5302207D01*
X15750000Y-5300256D01*
X15699744Y-5300256D01*
X15699744Y-5250000D01*
X15697793Y-5239633D01*
X15699744Y-5230000D01*
X15699744Y-5170000D01*
X15697793Y-5159633D01*
X15699744Y-5150000D01*
X15699744Y-5090000D01*
X15698402Y-5082868D01*
X15698500Y-5082631D01*
X15698500Y-5070875D01*
X15695600Y-5067975D01*
X15695316Y-5066468D01*
X15689417Y-5057300D01*
X15698500Y-5057300D01*
X15698500Y-5052313D01*
X15701320Y-5053484D01*
X15738517Y-5053516D01*
X15772894Y-5039312D01*
X15799219Y-5013033D01*
X15813484Y-4978680D01*
X15813516Y-4941483D01*
X15799312Y-4907106D01*
X15773033Y-4880781D01*
X15738680Y-4866516D01*
X15701483Y-4866484D01*
X15699744Y-4867203D01*
X15699744Y-4850000D01*
X15697793Y-4839633D01*
X15699744Y-4830000D01*
X15699744Y-4770000D01*
X15697793Y-4759633D01*
X15699744Y-4750000D01*
X15699744Y-4699744D01*
X15750000Y-4699744D01*
X15760367Y-4697793D01*
X15770000Y-4699744D01*
X15830000Y-4699744D01*
X15840367Y-4697793D01*
X15850000Y-4699744D01*
X15910000Y-4699744D01*
X15920367Y-4697793D01*
X15930000Y-4699744D01*
X15990000Y-4699744D01*
X16000367Y-4697793D01*
X16010000Y-4699744D01*
X16070000Y-4699744D01*
X16080367Y-4697793D01*
X16090000Y-4699744D01*
X16150000Y-4699744D01*
X16160367Y-4697793D01*
X16170000Y-4699744D01*
X16230000Y-4699744D01*
X16240367Y-4697793D01*
X16250000Y-4699744D01*
G36*
X17418608Y-4021582D02*
X17471331Y-4043475D01*
X17487300Y-4043489D01*
X17487300Y-5129820D01*
X17451089Y-5093609D01*
X17451409Y-5092000D01*
X17440105Y-5035172D01*
X17407915Y-4986995D01*
X17374997Y-4965000D01*
X17407915Y-4943005D01*
X17440105Y-4894829D01*
X17451409Y-4838000D01*
X17440105Y-4781172D01*
X17407915Y-4732995D01*
X17374997Y-4711000D01*
X17407915Y-4689005D01*
X17440105Y-4640829D01*
X17451409Y-4584000D01*
X17440105Y-4527172D01*
X17407915Y-4478995D01*
X17373521Y-4456014D01*
X17391814Y-4446717D01*
X17429491Y-4402697D01*
X17442967Y-4370159D01*
X17431492Y-4347300D01*
X17317300Y-4347300D01*
X17317300Y-4349300D01*
X17282700Y-4349300D01*
X17282700Y-4347300D01*
X17168508Y-4347300D01*
X17157033Y-4370159D01*
X17170509Y-4402697D01*
X17208186Y-4446717D01*
X17226479Y-4456014D01*
X17192085Y-4478995D01*
X17159895Y-4527172D01*
X17148591Y-4584000D01*
X17159778Y-4640242D01*
X17091260Y-4708760D01*
X17074785Y-4733416D01*
X17069000Y-4762500D01*
X17069000Y-5112020D01*
X17057020Y-5124000D01*
X16923480Y-5124000D01*
X17003740Y-5043740D01*
X17020215Y-5019084D01*
X17026000Y-4990000D01*
X17026000Y-4289841D01*
X17157033Y-4289841D01*
X17168508Y-4312700D01*
X17282700Y-4312700D01*
X17282700Y-4198385D01*
X17317300Y-4198385D01*
X17317300Y-4312700D01*
X17431492Y-4312700D01*
X17442967Y-4289841D01*
X17429491Y-4257304D01*
X17391814Y-4213283D01*
X17340160Y-4187032D01*
X17317300Y-4198385D01*
X17282700Y-4198385D01*
X17259840Y-4187032D01*
X17208186Y-4213283D01*
X17170509Y-4257304D01*
X17157033Y-4289841D01*
X17026000Y-4289841D01*
X17026000Y-4019673D01*
X17028600Y-4027707D01*
X17082906Y-4045309D01*
X17139815Y-4040790D01*
X17171400Y-4027707D01*
X17179185Y-4003651D01*
X17191049Y-4015515D01*
X17201809Y-4004754D01*
X17218608Y-4021582D01*
X17271331Y-4043475D01*
X17328419Y-4043525D01*
X17381180Y-4021724D01*
X17399997Y-4002940D01*
X17418608Y-4021582D01*
X17418608Y-4021582D01*
G37*
X17418608Y-4021582D02*
X17471331Y-4043475D01*
X17487300Y-4043489D01*
X17487300Y-5129820D01*
X17451089Y-5093609D01*
X17451409Y-5092000D01*
X17440105Y-5035172D01*
X17407915Y-4986995D01*
X17374997Y-4965000D01*
X17407915Y-4943005D01*
X17440105Y-4894829D01*
X17451409Y-4838000D01*
X17440105Y-4781172D01*
X17407915Y-4732995D01*
X17374997Y-4711000D01*
X17407915Y-4689005D01*
X17440105Y-4640829D01*
X17451409Y-4584000D01*
X17440105Y-4527172D01*
X17407915Y-4478995D01*
X17373521Y-4456014D01*
X17391814Y-4446717D01*
X17429491Y-4402697D01*
X17442967Y-4370159D01*
X17431492Y-4347300D01*
X17317300Y-4347300D01*
X17317300Y-4349300D01*
X17282700Y-4349300D01*
X17282700Y-4347300D01*
X17168508Y-4347300D01*
X17157033Y-4370159D01*
X17170509Y-4402697D01*
X17208186Y-4446717D01*
X17226479Y-4456014D01*
X17192085Y-4478995D01*
X17159895Y-4527172D01*
X17148591Y-4584000D01*
X17159778Y-4640242D01*
X17091260Y-4708760D01*
X17074785Y-4733416D01*
X17069000Y-4762500D01*
X17069000Y-5112020D01*
X17057020Y-5124000D01*
X16923480Y-5124000D01*
X17003740Y-5043740D01*
X17020215Y-5019084D01*
X17026000Y-4990000D01*
X17026000Y-4289841D01*
X17157033Y-4289841D01*
X17168508Y-4312700D01*
X17282700Y-4312700D01*
X17282700Y-4198385D01*
X17317300Y-4198385D01*
X17317300Y-4312700D01*
X17431492Y-4312700D01*
X17442967Y-4289841D01*
X17429491Y-4257304D01*
X17391814Y-4213283D01*
X17340160Y-4187032D01*
X17317300Y-4198385D01*
X17282700Y-4198385D01*
X17259840Y-4187032D01*
X17208186Y-4213283D01*
X17170509Y-4257304D01*
X17157033Y-4289841D01*
X17026000Y-4289841D01*
X17026000Y-4019673D01*
X17028600Y-4027707D01*
X17082906Y-4045309D01*
X17139815Y-4040790D01*
X17171400Y-4027707D01*
X17179185Y-4003651D01*
X17191049Y-4015515D01*
X17201809Y-4004754D01*
X17218608Y-4021582D01*
X17271331Y-4043475D01*
X17328419Y-4043525D01*
X17381180Y-4021724D01*
X17399997Y-4002940D01*
X17418608Y-4021582D01*
G36*
X16367369Y-3415197D02*
X16384000Y-3426310D01*
X16384000Y-3440000D01*
X16389785Y-3469084D01*
X16406260Y-3493740D01*
X16564000Y-3651480D01*
X16564000Y-3662766D01*
X16550159Y-3657033D01*
X16527300Y-3668508D01*
X16527300Y-3782700D01*
X16529300Y-3782700D01*
X16529300Y-3817300D01*
X16527300Y-3817300D01*
X16527300Y-3931492D01*
X16550159Y-3942967D01*
X16564000Y-3937234D01*
X16564000Y-4626503D01*
X16541483Y-4626484D01*
X16518450Y-4636001D01*
X16510189Y-4630357D01*
X16485000Y-4625256D01*
X16462448Y-4625256D01*
X16473484Y-4598680D01*
X16473516Y-4561483D01*
X16459312Y-4527106D01*
X16433033Y-4500781D01*
X16398680Y-4486516D01*
X16367112Y-4486489D01*
X16356409Y-4469856D01*
X16335189Y-4455357D01*
X16310000Y-4450256D01*
X16276000Y-4450256D01*
X16276000Y-4431480D01*
X16433740Y-4273740D01*
X16450215Y-4249084D01*
X16451175Y-4244259D01*
X16456000Y-4220000D01*
X16456000Y-3966246D01*
X16459219Y-3963033D01*
X16467887Y-3942158D01*
X16469841Y-3942967D01*
X16492700Y-3931492D01*
X16492700Y-3817300D01*
X16400567Y-3817300D01*
X16398680Y-3816516D01*
X16361483Y-3816484D01*
X16359508Y-3817300D01*
X16273300Y-3817300D01*
X16273300Y-3931492D01*
X16291485Y-3940620D01*
X16300688Y-3962894D01*
X16304000Y-3966212D01*
X16304000Y-4080914D01*
X16267704Y-4056662D01*
X16216615Y-4046500D01*
X16211385Y-4046500D01*
X16160296Y-4056662D01*
X16116986Y-4085601D01*
X16088047Y-4128912D01*
X16086516Y-4136604D01*
X16073242Y-4104477D01*
X16035720Y-4066890D01*
X15986671Y-4046523D01*
X15933957Y-4046477D01*
X15824000Y-3936520D01*
X15824000Y-3927295D01*
X15853005Y-3907915D01*
X15875000Y-3874997D01*
X15896995Y-3907915D01*
X15945171Y-3940105D01*
X16002000Y-3951409D01*
X16058828Y-3940105D01*
X16107005Y-3907915D01*
X16129986Y-3873521D01*
X16139283Y-3891814D01*
X16183303Y-3929491D01*
X16215841Y-3942967D01*
X16238700Y-3931492D01*
X16238700Y-3817300D01*
X16236700Y-3817300D01*
X16236700Y-3782700D01*
X16238700Y-3782700D01*
X16238700Y-3668508D01*
X16273300Y-3668508D01*
X16273300Y-3782700D01*
X16492700Y-3782700D01*
X16492700Y-3668508D01*
X16469841Y-3657033D01*
X16437303Y-3670509D01*
X16393283Y-3708186D01*
X16383000Y-3728420D01*
X16372717Y-3708186D01*
X16328696Y-3670509D01*
X16296159Y-3657033D01*
X16273300Y-3668508D01*
X16238700Y-3668508D01*
X16215841Y-3657033D01*
X16183303Y-3670509D01*
X16139283Y-3708186D01*
X16129986Y-3726479D01*
X16107005Y-3692085D01*
X16078000Y-3672705D01*
X16078000Y-3609480D01*
X16238242Y-3449238D01*
X16260000Y-3453566D01*
X16310131Y-3443595D01*
X16352631Y-3415197D01*
X16360000Y-3404169D01*
X16367369Y-3415197D01*
X16367369Y-3415197D01*
G37*
X16367369Y-3415197D02*
X16384000Y-3426310D01*
X16384000Y-3440000D01*
X16389785Y-3469084D01*
X16406260Y-3493740D01*
X16564000Y-3651480D01*
X16564000Y-3662766D01*
X16550159Y-3657033D01*
X16527300Y-3668508D01*
X16527300Y-3782700D01*
X16529300Y-3782700D01*
X16529300Y-3817300D01*
X16527300Y-3817300D01*
X16527300Y-3931492D01*
X16550159Y-3942967D01*
X16564000Y-3937234D01*
X16564000Y-4626503D01*
X16541483Y-4626484D01*
X16518450Y-4636001D01*
X16510189Y-4630357D01*
X16485000Y-4625256D01*
X16462448Y-4625256D01*
X16473484Y-4598680D01*
X16473516Y-4561483D01*
X16459312Y-4527106D01*
X16433033Y-4500781D01*
X16398680Y-4486516D01*
X16367112Y-4486489D01*
X16356409Y-4469856D01*
X16335189Y-4455357D01*
X16310000Y-4450256D01*
X16276000Y-4450256D01*
X16276000Y-4431480D01*
X16433740Y-4273740D01*
X16450215Y-4249084D01*
X16451175Y-4244259D01*
X16456000Y-4220000D01*
X16456000Y-3966246D01*
X16459219Y-3963033D01*
X16467887Y-3942158D01*
X16469841Y-3942967D01*
X16492700Y-3931492D01*
X16492700Y-3817300D01*
X16400567Y-3817300D01*
X16398680Y-3816516D01*
X16361483Y-3816484D01*
X16359508Y-3817300D01*
X16273300Y-3817300D01*
X16273300Y-3931492D01*
X16291485Y-3940620D01*
X16300688Y-3962894D01*
X16304000Y-3966212D01*
X16304000Y-4080914D01*
X16267704Y-4056662D01*
X16216615Y-4046500D01*
X16211385Y-4046500D01*
X16160296Y-4056662D01*
X16116986Y-4085601D01*
X16088047Y-4128912D01*
X16086516Y-4136604D01*
X16073242Y-4104477D01*
X16035720Y-4066890D01*
X15986671Y-4046523D01*
X15933957Y-4046477D01*
X15824000Y-3936520D01*
X15824000Y-3927295D01*
X15853005Y-3907915D01*
X15875000Y-3874997D01*
X15896995Y-3907915D01*
X15945171Y-3940105D01*
X16002000Y-3951409D01*
X16058828Y-3940105D01*
X16107005Y-3907915D01*
X16129986Y-3873521D01*
X16139283Y-3891814D01*
X16183303Y-3929491D01*
X16215841Y-3942967D01*
X16238700Y-3931492D01*
X16238700Y-3817300D01*
X16236700Y-3817300D01*
X16236700Y-3782700D01*
X16238700Y-3782700D01*
X16238700Y-3668508D01*
X16273300Y-3668508D01*
X16273300Y-3782700D01*
X16492700Y-3782700D01*
X16492700Y-3668508D01*
X16469841Y-3657033D01*
X16437303Y-3670509D01*
X16393283Y-3708186D01*
X16383000Y-3728420D01*
X16372717Y-3708186D01*
X16328696Y-3670509D01*
X16296159Y-3657033D01*
X16273300Y-3668508D01*
X16238700Y-3668508D01*
X16215841Y-3657033D01*
X16183303Y-3670509D01*
X16139283Y-3708186D01*
X16129986Y-3726479D01*
X16107005Y-3692085D01*
X16078000Y-3672705D01*
X16078000Y-3609480D01*
X16238242Y-3449238D01*
X16260000Y-3453566D01*
X16310131Y-3443595D01*
X16352631Y-3415197D01*
X16360000Y-3404169D01*
X16367369Y-3415197D01*
G36*
X16874000Y-3821480D02*
X16874000Y-4324164D01*
X16863651Y-4320815D01*
X16784466Y-4400000D01*
X16863651Y-4479185D01*
X16874000Y-4475836D01*
X16874000Y-4561082D01*
X16841392Y-4528418D01*
X16832381Y-4524676D01*
X16839185Y-4503651D01*
X16760000Y-4424466D01*
X16758586Y-4425880D01*
X16734120Y-4401414D01*
X16735534Y-4400000D01*
X16734120Y-4398586D01*
X16758586Y-4374120D01*
X16760000Y-4375534D01*
X16839185Y-4296350D01*
X16831400Y-4272293D01*
X16777094Y-4254691D01*
X16720185Y-4259210D01*
X16716000Y-4260944D01*
X16716000Y-3663480D01*
X16874000Y-3821480D01*
X16874000Y-3821480D01*
G37*
X16874000Y-3821480D02*
X16874000Y-4324164D01*
X16863651Y-4320815D01*
X16784466Y-4400000D01*
X16863651Y-4479185D01*
X16874000Y-4475836D01*
X16874000Y-4561082D01*
X16841392Y-4528418D01*
X16832381Y-4524676D01*
X16839185Y-4503651D01*
X16760000Y-4424466D01*
X16758586Y-4425880D01*
X16734120Y-4401414D01*
X16735534Y-4400000D01*
X16734120Y-4398586D01*
X16758586Y-4374120D01*
X16760000Y-4375534D01*
X16839185Y-4296350D01*
X16831400Y-4272293D01*
X16777094Y-4254691D01*
X16720185Y-4259210D01*
X16716000Y-4260944D01*
X16716000Y-3663480D01*
X16874000Y-3821480D01*
G36*
X17125880Y-3898586D02*
X17124466Y-3900000D01*
X17125880Y-3901414D01*
X17101414Y-3925880D01*
X17100000Y-3924466D01*
X17098586Y-3925880D01*
X17074120Y-3901414D01*
X17075534Y-3900000D01*
X17074120Y-3898586D01*
X17098586Y-3874120D01*
X17100000Y-3875534D01*
X17101414Y-3874120D01*
X17125880Y-3898586D01*
X17125880Y-3898586D01*
G37*
X17125880Y-3898586D02*
X17124466Y-3900000D01*
X17125880Y-3901414D01*
X17101414Y-3925880D01*
X17100000Y-3924466D01*
X17098586Y-3925880D01*
X17074120Y-3901414D01*
X17075534Y-3900000D01*
X17074120Y-3898586D01*
X17098586Y-3874120D01*
X17100000Y-3875534D01*
X17101414Y-3874120D01*
X17125880Y-3898586D01*
M02*
