M48
;DRILL file {KiCad 4.0.5} date 02/17/17 17:54:01
;FORMAT={-:-/ absolute / metric / decimal}
FMAT,2
METRIC,TZ
T1C0.400
T2C0.700
T3C0.800
T4C0.813
T5C0.900
T6C1.000
T7C1.143
T8C2.300
T9C3.200
%
G90
G05
M71
T1
X154.4Y-48.8
X154.4Y-51.2
X157.2Y-49.6
X158.Y-44.6
X158.8Y-44.4
X159.6Y-44.6
X163.Y-52.
X163.8Y-39.1
X163.8Y-45.8
X165.4Y-48.
X165.6Y-47.2
X210.5Y-29.5
X214.5Y-28.5
T2
X135.Y-61.
X135.Y-63.54
X138.Y-61.
X138.Y-63.54
X140.46Y-34.8
X140.6Y-37.46
X140.6Y-40.
X142.8Y-37.46
X142.8Y-40.
X143.Y-34.8
X149.86Y-59.8
X152.4Y-59.8
X155.Y-41.8
X156.Y-60.4
X156.Y-62.8
X157.54Y-41.8
X158.54Y-60.4
X158.54Y-62.8
X159.6Y-41.8
X162.14Y-41.8
X172.Y-28.
X172.Y-31.
X174.54Y-28.
X174.54Y-31.
X175.Y-34.
X175.Y-36.
X177.54Y-34.
X177.54Y-36.
X181.5Y-67.46
X181.5Y-70.
X188.Y-63.5
X190.54Y-63.5
X197.Y-63.5
X199.54Y-63.5
X201.96Y-34.
X201.96Y-42.
X204.5Y-34.
X204.5Y-42.
X205.71Y-54.
X208.25Y-54.
T3
X128.Y-35.
X128.Y-37.
X128.Y-39.
X128.Y-41.
X128.Y-60.3
X128.Y-62.3
X128.Y-64.3
X128.Y-66.3
X133.Y-35.
X133.Y-37.
X133.Y-39.
X133.Y-41.
X142.915Y-50.8
X142.915Y-55.88
X145.415Y-50.8
X145.415Y-55.88
X147.Y-28.5
X147.Y-31.
X149.5Y-44.25
X151.13Y-51.
X151.13Y-53.44
X151.13Y-55.88
X152.Y-44.25
X152.4Y-34.6
X154.9Y-34.6
X160.6Y-33.2
X162.6Y-33.2
X164.Y-27.
X164.Y-29.5
X164.6Y-33.2
X166.6Y-33.2
X167.6Y-44.
X167.6Y-46.5
X171.Y-39.
X171.Y-61.
X173.Y-39.
X173.Y-61.
X175.Y-39.
X175.Y-61.
X177.Y-31.
X177.Y-39.
X177.Y-61.
X179.Y-39.
X179.Y-61.
X179.5Y-31.
X180.46Y-27.
X181.Y-39.
X181.Y-61.
X183.Y-27.
X183.Y-39.
X183.Y-61.
X183.5Y-34.
X185.Y-39.
X185.Y-61.
X185.54Y-27.
X186.Y-34.
X187.Y-39.
X187.Y-61.
X189.Y-39.
X189.Y-61.
X196.5Y-26.5
X196.5Y-48.5
X198.5Y-26.5
X198.5Y-48.5
X200.5Y-26.5
X200.5Y-48.5
X202.5Y-26.5
X202.5Y-48.5
X204.5Y-26.5
X204.5Y-48.5
X206.5Y-26.5
X206.5Y-48.5
X208.5Y-26.5
X208.5Y-48.5
X210.5Y-26.5
X210.5Y-48.5
X212.5Y-26.5
X212.5Y-48.5
X214.5Y-26.5
X214.5Y-48.5
T4
X134.19Y-26.46
X134.19Y-31.54
X141.81Y-26.46
X141.81Y-31.54
T5
X183.46Y-66.
X183.46Y-72.
X186.Y-66.
X186.Y-72.
X196.5Y-34.
X196.5Y-42.
X197.Y-68.
X199.04Y-34.
X199.04Y-42.
X199.54Y-68.
T6
X135.Y-68.
X135.Y-70.54
X135.Y-73.08
X138.Y-47.
X138.Y-49.54
X138.Y-51.57
X138.Y-54.11
X139.Y-68.
X139.Y-70.54
X139.Y-73.08
X143.Y-68.
X143.Y-70.54
X143.Y-73.08
X145.Y-63.
X147.Y-68.
X147.Y-70.54
X147.Y-73.08
X147.54Y-63.
X150.08Y-63.
X151.Y-68.
X151.Y-70.54
X151.Y-73.08
X152.4Y-38.
X152.62Y-63.
X154.94Y-38.
X155.Y-68.
X155.Y-70.54
X155.Y-73.08
X157.48Y-38.
X159.Y-68.
X159.Y-70.54
X159.Y-73.08
X160.02Y-38.
X162.56Y-38.
X163.Y-68.
X163.Y-70.54
X163.Y-73.08
X163.1Y-57.9
X163.1Y-60.44
X163.1Y-62.98
X165.1Y-38.
X167.Y-68.
X167.Y-70.54
X167.Y-73.08
X169.Y-28.
X169.Y-30.54
X171.Y-68.
X171.Y-70.54
X171.Y-73.08
X173.Y-43.3
X173.Y-45.84
X173.Y-48.38
X173.Y-50.92
X173.Y-53.46
X173.Y-56.
X175.Y-68.
X175.Y-70.54
X175.Y-73.08
X179.Y-68.
X179.Y-70.54
X179.Y-73.08
X191.135Y-51.435
X191.135Y-53.975
X191.135Y-56.515
X191.135Y-59.055
X197.Y-52.88
X197.Y-55.42
X197.Y-57.96
X197.Y-60.5
X199.46Y-73.
X202.Y-73.
T7
X154.46Y-28.
X157.Y-28.
X159.54Y-28.
T8
X135.33Y-43.44
X135.33Y-57.16
T9
X130.Y-30.
X130.Y-70.
X190.Y-30.
X190.Y-70.
T0
M30
