G04 #@! TF.FileFunction,Legend,Top*
%FSLAX45Y45*%
G04 Gerber Fmt 4.5, Leading zero omitted, Abs format (unit mm)*
G04 Created by KiCad (PCBNEW 4.0.2-stable) date 2017/02/21 9:17:19*
%MOMM*%
G01*
G04 APERTURE LIST*
%ADD10C,0.100000*%
%ADD11C,0.200000*%
%ADD12C,0.300000*%
%ADD13C,0.120000*%
%ADD14C,0.150000*%
G04 APERTURE END LIST*
D10*
D11*
X12967679Y-6199048D02*
X12958155Y-6275238D01*
X12979583Y-6256190D02*
X12958155Y-6275238D01*
X12941488Y-6256190D01*
X13043869Y-6275238D02*
X13056369Y-6175238D01*
X13101012Y-6275238D01*
X13113512Y-6175238D01*
X13162917Y-6275238D02*
X13153988Y-6270476D01*
X13149821Y-6265714D01*
X13146250Y-6256190D01*
X13149821Y-6227619D01*
X13155774Y-6218095D01*
X13161131Y-6213333D01*
X13171250Y-6208571D01*
X13185536Y-6208571D01*
X13194464Y-6213333D01*
X13198631Y-6218095D01*
X13202202Y-6227619D01*
X13198631Y-6256190D01*
X13192679Y-6265714D01*
X13187321Y-6270476D01*
X13177202Y-6275238D01*
X13162917Y-6275238D01*
X13233155Y-6208571D02*
X13271250Y-6208571D01*
X13251607Y-6175238D02*
X13240893Y-6260952D01*
X13244464Y-6270476D01*
X13253393Y-6275238D01*
X13262917Y-6275238D01*
X13296250Y-6275238D02*
X13308750Y-6175238D01*
X13346845Y-6175238D01*
X13355774Y-6180000D01*
X13359941Y-6184762D01*
X13363512Y-6194286D01*
X13361726Y-6208571D01*
X13355774Y-6218095D01*
X13350417Y-6222857D01*
X13340298Y-6227619D01*
X13302202Y-6227619D01*
X13436131Y-6222857D02*
X13449821Y-6227619D01*
X13453988Y-6232381D01*
X13457560Y-6241905D01*
X13455774Y-6256190D01*
X13449821Y-6265714D01*
X13444464Y-6270476D01*
X13434345Y-6275238D01*
X13396250Y-6275238D01*
X13408750Y-6175238D01*
X13442083Y-6175238D01*
X13451012Y-6180000D01*
X13455179Y-6184762D01*
X13458750Y-6194286D01*
X13457560Y-6203809D01*
X13451607Y-6213333D01*
X13446250Y-6218095D01*
X13436131Y-6222857D01*
X13402798Y-6222857D01*
X12984107Y-6598571D02*
X13056726Y-6627143D01*
X12976964Y-6655714D01*
X13159702Y-6565238D02*
X13112083Y-6565238D01*
X13101369Y-6612857D01*
X13106726Y-6608095D01*
X13116845Y-6603333D01*
X13140655Y-6603333D01*
X13149583Y-6608095D01*
X13153750Y-6612857D01*
X13157321Y-6622381D01*
X13154345Y-6646190D01*
X13148393Y-6655714D01*
X13143036Y-6660476D01*
X13132917Y-6665238D01*
X13109107Y-6665238D01*
X13100179Y-6660476D01*
X13096012Y-6655714D01*
X13193036Y-6565238D02*
X13213869Y-6665238D01*
X13259702Y-6565238D01*
X13300000Y-6480000D02*
X14100000Y-6480000D01*
X13300000Y-6780000D02*
X13300000Y-6480000D01*
X13130000Y-6780000D02*
X13300000Y-6780000D01*
X12994107Y-6368571D02*
X13066726Y-6397143D01*
X12986964Y-6425714D01*
X13173869Y-6340000D02*
X13164940Y-6335238D01*
X13150655Y-6335238D01*
X13135774Y-6340000D01*
X13125059Y-6349524D01*
X13119107Y-6359048D01*
X13111964Y-6378095D01*
X13110179Y-6392381D01*
X13112559Y-6411429D01*
X13116131Y-6420952D01*
X13124464Y-6430476D01*
X13138155Y-6435238D01*
X13147679Y-6435238D01*
X13162560Y-6430476D01*
X13167917Y-6425714D01*
X13172083Y-6392381D01*
X13153036Y-6392381D01*
X13217917Y-6368571D02*
X13209583Y-6435238D01*
X13216726Y-6378095D02*
X13222083Y-6373333D01*
X13232202Y-6368571D01*
X13246488Y-6368571D01*
X13255417Y-6373333D01*
X13258988Y-6382857D01*
X13252440Y-6435238D01*
X13342917Y-6435238D02*
X13355417Y-6335238D01*
X13343512Y-6430476D02*
X13333393Y-6435238D01*
X13314345Y-6435238D01*
X13305417Y-6430476D01*
X13301250Y-6425714D01*
X13297679Y-6416190D01*
X13301250Y-6387619D01*
X13307202Y-6378095D01*
X13312559Y-6373333D01*
X13322679Y-6368571D01*
X13341726Y-6368571D01*
X13350655Y-6373333D01*
X14100000Y-5880000D02*
X14100000Y-5940000D01*
X13780000Y-5880000D02*
X14100000Y-5880000D01*
X12540000Y-5890000D02*
X12540000Y-5940000D01*
X12930000Y-5890000D02*
X12540000Y-5890000D01*
X12560000Y-6780000D02*
X12560000Y-6750000D01*
X13130000Y-6780000D02*
X12560000Y-6780000D01*
X14100000Y-6450000D02*
X14100000Y-6480000D01*
X14100000Y-5940000D02*
X14100000Y-6450000D01*
X12994940Y-5895238D02*
X13013988Y-5895238D01*
X13022917Y-5900000D01*
X13031250Y-5909524D01*
X13033631Y-5928571D01*
X13029464Y-5961905D01*
X13022321Y-5980952D01*
X13011607Y-5990476D01*
X13001488Y-5995238D01*
X12982440Y-5995238D01*
X12973512Y-5990476D01*
X12965179Y-5980952D01*
X12962798Y-5961905D01*
X12966964Y-5928571D01*
X12974107Y-5909524D01*
X12984821Y-5900000D01*
X12994940Y-5895238D01*
X13076488Y-5928571D02*
X13068155Y-5995238D01*
X13075298Y-5938095D02*
X13080655Y-5933333D01*
X13090774Y-5928571D01*
X13105060Y-5928571D01*
X13113988Y-5933333D01*
X13117560Y-5942857D01*
X13111012Y-5995238D01*
X13172917Y-5995238D02*
X13163988Y-5990476D01*
X13160417Y-5980952D01*
X13171131Y-5895238D01*
X13209821Y-5928571D02*
X13225298Y-5995238D01*
X13257441Y-5928571D02*
X13225298Y-5995238D01*
X13212798Y-6019048D01*
X13207440Y-6023809D01*
X13197321Y-6028571D01*
X13290179Y-5895238D02*
X13352083Y-5895238D01*
X13313988Y-5933333D01*
X13328274Y-5933333D01*
X13337202Y-5938095D01*
X13341369Y-5942857D01*
X13344941Y-5952381D01*
X13341964Y-5976190D01*
X13336012Y-5985714D01*
X13330655Y-5990476D01*
X13320536Y-5995238D01*
X13291964Y-5995238D01*
X13283036Y-5990476D01*
X13278869Y-5985714D01*
X13388988Y-5904762D02*
X13394345Y-5900000D01*
X13404464Y-5895238D01*
X13428274Y-5895238D01*
X13437202Y-5900000D01*
X13441369Y-5904762D01*
X13444941Y-5914286D01*
X13443750Y-5923809D01*
X13437202Y-5938095D01*
X13372917Y-5995238D01*
X13434821Y-5995238D01*
X13499107Y-5938095D02*
X13490179Y-5933333D01*
X13486012Y-5928571D01*
X13482441Y-5919048D01*
X13483036Y-5914286D01*
X13488988Y-5904762D01*
X13494345Y-5900000D01*
X13504464Y-5895238D01*
X13523512Y-5895238D01*
X13532441Y-5900000D01*
X13536607Y-5904762D01*
X13540179Y-5914286D01*
X13539583Y-5919048D01*
X13533631Y-5928571D01*
X13528274Y-5933333D01*
X13518155Y-5938095D01*
X13499107Y-5938095D01*
X13488988Y-5942857D01*
X13483631Y-5947619D01*
X13477679Y-5957143D01*
X13475298Y-5976190D01*
X13478869Y-5985714D01*
X13483036Y-5990476D01*
X13491964Y-5995238D01*
X13511012Y-5995238D01*
X13521131Y-5990476D01*
X13526488Y-5985714D01*
X13532441Y-5976190D01*
X13534821Y-5957143D01*
X13531250Y-5947619D01*
X13527083Y-5942857D01*
X13518155Y-5938095D01*
X13572917Y-5995238D02*
X13585417Y-5895238D01*
X13623512Y-5895238D01*
X13632441Y-5900000D01*
X13636607Y-5904762D01*
X13640179Y-5914286D01*
X13638393Y-5928571D01*
X13632441Y-5938095D01*
X13627083Y-5942857D01*
X13616964Y-5947619D01*
X13578869Y-5947619D01*
X13712798Y-5942857D02*
X13726488Y-5947619D01*
X13730655Y-5952381D01*
X13734226Y-5961905D01*
X13732441Y-5976190D01*
X13726488Y-5985714D01*
X13721131Y-5990476D01*
X13711012Y-5995238D01*
X13672917Y-5995238D01*
X13685417Y-5895238D01*
X13718750Y-5895238D01*
X13727679Y-5900000D01*
X13731845Y-5904762D01*
X13735417Y-5914286D01*
X13734226Y-5923809D01*
X13728274Y-5933333D01*
X13722917Y-5938095D01*
X13712798Y-5942857D01*
X13679464Y-5942857D01*
D12*
X12985714Y-7325000D02*
X12971429Y-7317857D01*
X12950000Y-7317857D01*
X12928571Y-7325000D01*
X12914286Y-7339286D01*
X12907143Y-7353571D01*
X12900000Y-7382143D01*
X12900000Y-7403571D01*
X12907143Y-7432143D01*
X12914286Y-7446429D01*
X12928571Y-7460714D01*
X12950000Y-7467857D01*
X12964286Y-7467857D01*
X12985714Y-7460714D01*
X12992857Y-7453571D01*
X12992857Y-7403571D01*
X12964286Y-7403571D01*
X13057143Y-7467857D02*
X13057143Y-7317857D01*
X13142857Y-7467857D01*
X13142857Y-7317857D01*
X13214286Y-7467857D02*
X13214286Y-7317857D01*
X13250000Y-7317857D01*
X13271429Y-7325000D01*
X13285714Y-7339286D01*
X13292857Y-7353571D01*
X13300000Y-7382143D01*
X13300000Y-7403571D01*
X13292857Y-7432143D01*
X13285714Y-7446429D01*
X13271429Y-7460714D01*
X13250000Y-7467857D01*
X13214286Y-7467857D01*
D11*
X13375000Y-7425000D02*
X17625000Y-7425000D01*
X22450000Y-3750000D02*
X21700000Y-3750000D01*
D10*
X16900000Y-3800000D02*
X19000000Y-3800000D01*
X16900000Y-6200000D02*
X19000000Y-6200000D01*
X16900000Y-3800000D02*
X16900000Y-6200000D01*
D13*
X19839000Y-5923000D02*
X19839000Y-5149000D01*
X19839000Y-5149000D02*
X19561000Y-5149000D01*
X19561000Y-5149000D02*
X19561000Y-5923000D01*
X19561000Y-5923000D02*
X19839000Y-5923000D01*
X19839000Y-6050000D02*
X19839000Y-6189000D01*
X19839000Y-6189000D02*
X19700000Y-6189000D01*
X13361000Y-6927000D02*
X13361000Y-7447000D01*
X13361000Y-7447000D02*
X13639000Y-7447000D01*
X13639000Y-7447000D02*
X13639000Y-6927000D01*
X13639000Y-6927000D02*
X13361000Y-6927000D01*
X13361000Y-6800000D02*
X13361000Y-6661000D01*
X13361000Y-6661000D02*
X13500000Y-6661000D01*
X14161000Y-6927000D02*
X14161000Y-7447000D01*
X14161000Y-7447000D02*
X14439000Y-7447000D01*
X14439000Y-7447000D02*
X14439000Y-6927000D01*
X14439000Y-6927000D02*
X14161000Y-6927000D01*
X14161000Y-6800000D02*
X14161000Y-6661000D01*
X14161000Y-6661000D02*
X14300000Y-6661000D01*
X15361000Y-6927000D02*
X15361000Y-7447000D01*
X15361000Y-7447000D02*
X15639000Y-7447000D01*
X15639000Y-7447000D02*
X15639000Y-6927000D01*
X15639000Y-6927000D02*
X15361000Y-6927000D01*
X15361000Y-6800000D02*
X15361000Y-6661000D01*
X15361000Y-6661000D02*
X15500000Y-6661000D01*
X15761000Y-6927000D02*
X15761000Y-7447000D01*
X15761000Y-7447000D02*
X16039000Y-7447000D01*
X16039000Y-7447000D02*
X16039000Y-6927000D01*
X16039000Y-6927000D02*
X15761000Y-6927000D01*
X15761000Y-6800000D02*
X15761000Y-6661000D01*
X15761000Y-6661000D02*
X15900000Y-6661000D01*
X16161000Y-6927000D02*
X16161000Y-7447000D01*
X16161000Y-7447000D02*
X16439000Y-7447000D01*
X16439000Y-7447000D02*
X16439000Y-6927000D01*
X16439000Y-6927000D02*
X16161000Y-6927000D01*
X16161000Y-6800000D02*
X16161000Y-6661000D01*
X16161000Y-6661000D02*
X16300000Y-6661000D01*
X16561000Y-6927000D02*
X16561000Y-7447000D01*
X16561000Y-7447000D02*
X16839000Y-7447000D01*
X16839000Y-7447000D02*
X16839000Y-6927000D01*
X16839000Y-6927000D02*
X16561000Y-6927000D01*
X16561000Y-6800000D02*
X16561000Y-6661000D01*
X16561000Y-6661000D02*
X16700000Y-6661000D01*
X17361000Y-6927000D02*
X17361000Y-7447000D01*
X17361000Y-7447000D02*
X17639000Y-7447000D01*
X17639000Y-7447000D02*
X17639000Y-6927000D01*
X17639000Y-6927000D02*
X17361000Y-6927000D01*
X17361000Y-6800000D02*
X17361000Y-6661000D01*
X17361000Y-6661000D02*
X17500000Y-6661000D01*
X17761000Y-6927000D02*
X17761000Y-7447000D01*
X17761000Y-7447000D02*
X18039000Y-7447000D01*
X18039000Y-7447000D02*
X18039000Y-6927000D01*
X18039000Y-6927000D02*
X17761000Y-6927000D01*
X17761000Y-6800000D02*
X17761000Y-6661000D01*
X17761000Y-6661000D02*
X17900000Y-6661000D01*
D14*
X15637500Y-4637500D02*
X15637500Y-4667500D01*
X16362500Y-4637500D02*
X16362500Y-4667500D01*
X16362500Y-5362500D02*
X16362500Y-5332500D01*
X15637500Y-5362500D02*
X15637500Y-5332500D01*
X15637500Y-4637500D02*
X15667500Y-4637500D01*
X15637500Y-5362500D02*
X15667500Y-5362500D01*
X16362500Y-5362500D02*
X16332500Y-5362500D01*
X16362500Y-4637500D02*
X16332500Y-4637500D01*
X15637500Y-4667500D02*
X15515000Y-4667500D01*
D13*
X13914000Y-5805000D02*
X13681000Y-5805000D01*
X13914000Y-4306000D02*
X13702000Y-4306000D01*
X13914000Y-5805000D02*
X13914000Y-4306000D01*
X12505000Y-5805000D02*
X12505000Y-4306000D01*
X13385000Y-5805000D02*
X12505000Y-5805000D01*
X13365000Y-4306000D02*
X12505000Y-4306000D01*
D14*
X14054000Y-2900000D02*
G75*
G03X14054000Y-2900000I-254000J0D01*
G01*
X13419000Y-2519000D02*
X14181000Y-2519000D01*
X14181000Y-2519000D02*
X14181000Y-3281000D01*
X14181000Y-3281000D02*
X13419000Y-3281000D01*
X13419000Y-2519000D02*
X13419000Y-3281000D01*
D13*
X20073000Y-7161000D02*
X19807000Y-7161000D01*
X19807000Y-7161000D02*
X19807000Y-7439000D01*
X19807000Y-7439000D02*
X20073000Y-7439000D01*
X20073000Y-7439000D02*
X20073000Y-7161000D01*
X20200000Y-7161000D02*
X20339000Y-7161000D01*
X20339000Y-7161000D02*
X20339000Y-7300000D01*
X18974500Y-5270500D02*
X18974500Y-6044500D01*
X18974500Y-6044500D02*
X19252500Y-6044500D01*
X19252500Y-6044500D02*
X19252500Y-5270500D01*
X19252500Y-5270500D02*
X18974500Y-5270500D01*
X18974500Y-5143500D02*
X18974500Y-5004500D01*
X18974500Y-5004500D02*
X19113500Y-5004500D01*
X20076000Y-3400046D02*
G75*
G03X19521000Y-3245517I-299000J46D01*
G01*
X20076000Y-3399954D02*
G75*
G02X19521000Y-3554483I-299000J-46D01*
G01*
X20027000Y-3400000D02*
G75*
G03X20027000Y-3400000I-250000J0D01*
G01*
X19521000Y-3245500D02*
X19521000Y-3554500D01*
X12688000Y-6130000D02*
X12688000Y-6742000D01*
X12688000Y-6742000D02*
X12912000Y-6742000D01*
X12912000Y-6742000D02*
X12912000Y-6130000D01*
X12912000Y-6130000D02*
X12688000Y-6130000D01*
X12688000Y-6030000D02*
X12688000Y-5918000D01*
X12688000Y-5918000D02*
X12800000Y-5918000D01*
X13188000Y-3600000D02*
X13188000Y-4212000D01*
X13188000Y-4212000D02*
X13412000Y-4212000D01*
X13412000Y-4212000D02*
X13412000Y-3600000D01*
X13412000Y-3600000D02*
X13188000Y-3600000D01*
X13188000Y-3500000D02*
X13188000Y-3388000D01*
X13188000Y-3388000D02*
X13300000Y-3388000D01*
X12688000Y-3600000D02*
X12688000Y-4212000D01*
X12688000Y-4212000D02*
X12912000Y-4212000D01*
X12912000Y-4212000D02*
X12912000Y-3600000D01*
X12912000Y-3600000D02*
X12688000Y-3600000D01*
X12688000Y-3500000D02*
X12688000Y-3388000D01*
X12688000Y-3388000D02*
X12800000Y-3388000D01*
X16160000Y-3432000D02*
X16772000Y-3432000D01*
X16772000Y-3432000D02*
X16772000Y-3208000D01*
X16772000Y-3208000D02*
X16160000Y-3208000D01*
X16160000Y-3208000D02*
X16160000Y-3432000D01*
X16060000Y-3432000D02*
X15948000Y-3432000D01*
X15948000Y-3432000D02*
X15948000Y-3320000D01*
X17439000Y-5473000D02*
X17439000Y-4191000D01*
X17439000Y-4191000D02*
X17161000Y-4191000D01*
X17161000Y-4191000D02*
X17161000Y-5473000D01*
X17161000Y-5473000D02*
X17439000Y-5473000D01*
X17439000Y-5600000D02*
X17439000Y-5739000D01*
X17439000Y-5739000D02*
X17300000Y-5739000D01*
X18174000Y-7199954D02*
G75*
G03X18729000Y-7354483I299000J-46D01*
G01*
X18174000Y-7200046D02*
G75*
G02X18729000Y-7045517I299000J46D01*
G01*
X18723000Y-7200000D02*
G75*
G03X18723000Y-7200000I-250000J0D01*
G01*
X18729000Y-7354500D02*
X18729000Y-7045500D01*
X18174000Y-6599954D02*
G75*
G03X18729000Y-6754483I299000J-46D01*
G01*
X18174000Y-6600046D02*
G75*
G02X18729000Y-6445517I299000J46D01*
G01*
X18723000Y-6600000D02*
G75*
G03X18723000Y-6600000I-250000J0D01*
G01*
X18729000Y-6754500D02*
X18729000Y-6445500D01*
D10*
X19450000Y-2550000D02*
X21550000Y-2550000D01*
X19450000Y-4950000D02*
X21550000Y-4950000D01*
X19450000Y-2550000D02*
X19450000Y-4950000D01*
D13*
X20126000Y-6800046D02*
G75*
G03X19571000Y-6645517I-299000J46D01*
G01*
X20126000Y-6799954D02*
G75*
G02X19571000Y-6954483I-299000J-46D01*
G01*
X20077000Y-6800000D02*
G75*
G03X20077000Y-6800000I-250000J0D01*
G01*
X19571000Y-6645500D02*
X19571000Y-6954500D01*
D14*
X22400000Y-5650000D02*
X22400000Y-7150000D01*
D13*
X15367000Y-3939000D02*
X16649000Y-3939000D01*
X16649000Y-3939000D02*
X16649000Y-3661000D01*
X16649000Y-3661000D02*
X15367000Y-3661000D01*
X15367000Y-3661000D02*
X15367000Y-3939000D01*
X15240000Y-3939000D02*
X15101000Y-3939000D01*
X15101000Y-3939000D02*
X15101000Y-3800000D01*
X20076000Y-4200046D02*
G75*
G03X19521000Y-4045517I-299000J46D01*
G01*
X20076000Y-4199954D02*
G75*
G02X19521000Y-4354483I-299000J-46D01*
G01*
X20027000Y-4200000D02*
G75*
G03X20027000Y-4200000I-250000J0D01*
G01*
X19521000Y-4045500D02*
X19521000Y-4354500D01*
X16761000Y-2927000D02*
X16761000Y-3193000D01*
X16761000Y-3193000D02*
X17039000Y-3193000D01*
X17039000Y-3193000D02*
X17039000Y-2927000D01*
X17039000Y-2927000D02*
X16761000Y-2927000D01*
X16761000Y-2800000D02*
X16761000Y-2661000D01*
X16761000Y-2661000D02*
X16900000Y-2661000D01*
D14*
X18550000Y-2575000D02*
X18050000Y-2575000D01*
X18047583Y-2820045D02*
G75*
G03X18550000Y-2825000I252417J120045D01*
G01*
D13*
X17619000Y-2969000D02*
X18031000Y-2969000D01*
X17619000Y-3231000D02*
X18031000Y-3231000D01*
X17619000Y-2969000D02*
X17619000Y-3025000D01*
X17619000Y-3175000D02*
X17619000Y-3231000D01*
X18031000Y-2969000D02*
X18031000Y-3025000D01*
X18031000Y-3175000D02*
X18031000Y-3231000D01*
X16891000Y-4319000D02*
X16891000Y-4731000D01*
X16629000Y-4319000D02*
X16629000Y-4731000D01*
X16891000Y-4319000D02*
X16835000Y-4319000D01*
X16685000Y-4319000D02*
X16629000Y-4319000D01*
X16891000Y-4731000D02*
X16835000Y-4731000D01*
X16685000Y-4731000D02*
X16629000Y-4731000D01*
X16531000Y-2619000D02*
X16531000Y-3031000D01*
X16269000Y-2619000D02*
X16269000Y-3031000D01*
X16531000Y-2619000D02*
X16475000Y-2619000D01*
X16325000Y-2619000D02*
X16269000Y-2619000D01*
X16531000Y-3031000D02*
X16475000Y-3031000D01*
X16325000Y-3031000D02*
X16269000Y-3031000D01*
X15159000Y-3329000D02*
X15571000Y-3329000D01*
X15159000Y-3591000D02*
X15571000Y-3591000D01*
X15159000Y-3329000D02*
X15159000Y-3385000D01*
X15159000Y-3535000D02*
X15159000Y-3591000D01*
X15571000Y-3329000D02*
X15571000Y-3385000D01*
X15571000Y-3535000D02*
X15571000Y-3591000D01*
X15281000Y-4556000D02*
X14869000Y-4556000D01*
X15281000Y-4294000D02*
X14869000Y-4294000D01*
X15281000Y-4556000D02*
X15281000Y-4500000D01*
X15281000Y-4350000D02*
X15281000Y-4294000D01*
X14869000Y-4556000D02*
X14869000Y-4500000D01*
X14869000Y-4350000D02*
X14869000Y-4294000D01*
X20536000Y-3400000D02*
G75*
G03X20536000Y-3400000I-86000J0D01*
G01*
X20364000Y-3400000D02*
X20296000Y-3400000D01*
X20536000Y-4200000D02*
G75*
G03X20536000Y-4200000I-86000J0D01*
G01*
X20364000Y-4200000D02*
X20296000Y-4200000D01*
X16046000Y-4180000D02*
G75*
G03X16046000Y-4180000I-86000J0D01*
G01*
X16046000Y-4180000D02*
X16114000Y-4180000D01*
X18886000Y-6350000D02*
G75*
G03X18886000Y-6350000I-86000J0D01*
G01*
X18886000Y-6350000D02*
X18954000Y-6350000D01*
X18236000Y-7000000D02*
G75*
G03X18236000Y-7000000I-86000J0D01*
G01*
X18150000Y-6914000D02*
X18150000Y-6846000D01*
X15586000Y-4180000D02*
G75*
G03X15586000Y-4180000I-86000J0D01*
G01*
X15586000Y-4180000D02*
X15654000Y-4180000D01*
X19786000Y-6350000D02*
G75*
G03X19786000Y-6350000I-86000J0D01*
G01*
X19786000Y-6350000D02*
X19854000Y-6350000D01*
X17586000Y-3600000D02*
G75*
G03X17586000Y-3600000I-86000J0D01*
G01*
X17586000Y-3600000D02*
X17654000Y-3600000D01*
X13586000Y-6100000D02*
G75*
G03X13586000Y-6100000I-86000J0D01*
G01*
X13500000Y-6186000D02*
X13500000Y-6254000D01*
X13886000Y-6100000D02*
G75*
G03X13886000Y-6100000I-86000J0D01*
G01*
X13800000Y-6186000D02*
X13800000Y-6254000D01*
X14366000Y-4000000D02*
G75*
G03X14366000Y-4000000I-86000J0D01*
G01*
X14280000Y-3914000D02*
X14280000Y-3846000D01*
X14146000Y-4000000D02*
G75*
G03X14146000Y-4000000I-86000J0D01*
G01*
X14060000Y-3914000D02*
X14060000Y-3846000D01*
X17586000Y-3400000D02*
G75*
G03X17586000Y-3400000I-86000J0D01*
G01*
X17586000Y-3400000D02*
X17654000Y-3400000D01*
X17286000Y-3100000D02*
G75*
G03X17286000Y-3100000I-86000J0D01*
G01*
X17286000Y-3100000D02*
X17354000Y-3100000D01*
X14386000Y-3480000D02*
G75*
G03X14386000Y-3480000I-86000J0D01*
G01*
X14214000Y-3480000D02*
X14146000Y-3480000D01*
X17286000Y-2800000D02*
G75*
G03X17286000Y-2800000I-86000J0D01*
G01*
X17286000Y-2800000D02*
X17354000Y-2800000D01*
X20911000Y-5400000D02*
G75*
G03X20911000Y-5400000I-86000J0D01*
G01*
X20739000Y-5400000D02*
X20671000Y-5400000D01*
X14622500Y-5211000D02*
X14210500Y-5211000D01*
X14622500Y-4949000D02*
X14210500Y-4949000D01*
X14622500Y-5211000D02*
X14622500Y-5155000D01*
X14622500Y-5005000D02*
X14622500Y-4949000D01*
X14210500Y-5211000D02*
X14210500Y-5155000D01*
X14210500Y-5005000D02*
X14210500Y-4949000D01*
X14622500Y-5719000D02*
X14210500Y-5719000D01*
X14622500Y-5457000D02*
X14210500Y-5457000D01*
X14622500Y-5719000D02*
X14622500Y-5663000D01*
X14622500Y-5513000D02*
X14622500Y-5457000D01*
X14210500Y-5719000D02*
X14210500Y-5663000D01*
X14210500Y-5513000D02*
X14210500Y-5457000D01*
X18884000Y-3400000D02*
G75*
G03X18884000Y-3400000I-409000J0D01*
G01*
X18475000Y-3805000D02*
X18475000Y-2995000D01*
X18471000Y-3805000D02*
X18471000Y-2995000D01*
X18467000Y-3805000D02*
X18467000Y-2995000D01*
X18463000Y-3804900D02*
X18463000Y-2995100D01*
X18459000Y-3804700D02*
X18459000Y-2995300D01*
X18455000Y-3804600D02*
X18455000Y-2995400D01*
X18451000Y-3804300D02*
X18451000Y-2995700D01*
X18447000Y-3804100D02*
X18447000Y-3498000D01*
X18447000Y-3302000D02*
X18447000Y-2995900D01*
X18443000Y-3803800D02*
X18443000Y-3498000D01*
X18443000Y-3302000D02*
X18443000Y-2996200D01*
X18439000Y-3803500D02*
X18439000Y-3498000D01*
X18439000Y-3302000D02*
X18439000Y-2996500D01*
X18435000Y-3803100D02*
X18435000Y-3498000D01*
X18435000Y-3302000D02*
X18435000Y-2996900D01*
X18431000Y-3802700D02*
X18431000Y-3498000D01*
X18431000Y-3302000D02*
X18431000Y-2997300D01*
X18427000Y-3802200D02*
X18427000Y-3498000D01*
X18427000Y-3302000D02*
X18427000Y-2997800D01*
X18423000Y-3801700D02*
X18423000Y-3498000D01*
X18423000Y-3302000D02*
X18423000Y-2998300D01*
X18419000Y-3801200D02*
X18419000Y-3498000D01*
X18419000Y-3302000D02*
X18419000Y-2998800D01*
X18415000Y-3800600D02*
X18415000Y-3498000D01*
X18415000Y-3302000D02*
X18415000Y-2999400D01*
X18411000Y-3800000D02*
X18411000Y-3498000D01*
X18411000Y-3302000D02*
X18411000Y-3000000D01*
X18407000Y-3799400D02*
X18407000Y-3498000D01*
X18407000Y-3302000D02*
X18407000Y-3000600D01*
X18402900Y-3798700D02*
X18402900Y-3498000D01*
X18402900Y-3302000D02*
X18402900Y-3001300D01*
X18398900Y-3797900D02*
X18398900Y-3498000D01*
X18398900Y-3302000D02*
X18398900Y-3002100D01*
X18394900Y-3797100D02*
X18394900Y-3498000D01*
X18394900Y-3302000D02*
X18394900Y-3002900D01*
X18390900Y-3796300D02*
X18390900Y-3498000D01*
X18390900Y-3302000D02*
X18390900Y-3003700D01*
X18386900Y-3795500D02*
X18386900Y-3498000D01*
X18386900Y-3302000D02*
X18386900Y-3004500D01*
X18382900Y-3794600D02*
X18382900Y-3498000D01*
X18382900Y-3302000D02*
X18382900Y-3005400D01*
X18378900Y-3793600D02*
X18378900Y-3498000D01*
X18378900Y-3302000D02*
X18378900Y-3006400D01*
X18374900Y-3792600D02*
X18374900Y-3498000D01*
X18374900Y-3302000D02*
X18374900Y-3007400D01*
X18370900Y-3791600D02*
X18370900Y-3498000D01*
X18370900Y-3302000D02*
X18370900Y-3008400D01*
X18366900Y-3790500D02*
X18366900Y-3498000D01*
X18366900Y-3302000D02*
X18366900Y-3009500D01*
X18362900Y-3789400D02*
X18362900Y-3498000D01*
X18362900Y-3302000D02*
X18362900Y-3010600D01*
X18358900Y-3788300D02*
X18358900Y-3498000D01*
X18358900Y-3302000D02*
X18358900Y-3011700D01*
X18354900Y-3787000D02*
X18354900Y-3498000D01*
X18354900Y-3302000D02*
X18354900Y-3013000D01*
X18350900Y-3785800D02*
X18350900Y-3498000D01*
X18350900Y-3302000D02*
X18350900Y-3014200D01*
X18346900Y-3784500D02*
X18346900Y-3498000D01*
X18346900Y-3302000D02*
X18346900Y-3015500D01*
X18342900Y-3783200D02*
X18342900Y-3498000D01*
X18342900Y-3302000D02*
X18342900Y-3016800D01*
X18338900Y-3781800D02*
X18338900Y-3498000D01*
X18338900Y-3302000D02*
X18338900Y-3018200D01*
X18334900Y-3780300D02*
X18334900Y-3498000D01*
X18334900Y-3302000D02*
X18334900Y-3019700D01*
X18330900Y-3778900D02*
X18330900Y-3498000D01*
X18330900Y-3302000D02*
X18330900Y-3021100D01*
X18326900Y-3777300D02*
X18326900Y-3498000D01*
X18326900Y-3302000D02*
X18326900Y-3022700D01*
X18322900Y-3775800D02*
X18322900Y-3498000D01*
X18322900Y-3302000D02*
X18322900Y-3024200D01*
X18318900Y-3774100D02*
X18318900Y-3498000D01*
X18318900Y-3302000D02*
X18318900Y-3025900D01*
X18314900Y-3772500D02*
X18314900Y-3498000D01*
X18314900Y-3302000D02*
X18314900Y-3027500D01*
X18310900Y-3770700D02*
X18310900Y-3498000D01*
X18310900Y-3302000D02*
X18310900Y-3029300D01*
X18306900Y-3769000D02*
X18306900Y-3498000D01*
X18306900Y-3302000D02*
X18306900Y-3031000D01*
X18302900Y-3767100D02*
X18302900Y-3498000D01*
X18302900Y-3302000D02*
X18302900Y-3032900D01*
X18298900Y-3765200D02*
X18298900Y-3498000D01*
X18298900Y-3302000D02*
X18298900Y-3034800D01*
X18294900Y-3763300D02*
X18294900Y-3498000D01*
X18294900Y-3302000D02*
X18294900Y-3036700D01*
X18290900Y-3761300D02*
X18290900Y-3498000D01*
X18290900Y-3302000D02*
X18290900Y-3038700D01*
X18286900Y-3759300D02*
X18286900Y-3498000D01*
X18286900Y-3302000D02*
X18286900Y-3040700D01*
X18282900Y-3757200D02*
X18282900Y-3498000D01*
X18282900Y-3302000D02*
X18282900Y-3042800D01*
X18278900Y-3755000D02*
X18278900Y-3498000D01*
X18278900Y-3302000D02*
X18278900Y-3045000D01*
X18274900Y-3752800D02*
X18274900Y-3498000D01*
X18274900Y-3302000D02*
X18274900Y-3047200D01*
X18270900Y-3750500D02*
X18270900Y-3498000D01*
X18270900Y-3302000D02*
X18270900Y-3049500D01*
X18266900Y-3748200D02*
X18266900Y-3498000D01*
X18266900Y-3302000D02*
X18266900Y-3051800D01*
X18262900Y-3745800D02*
X18262900Y-3498000D01*
X18262900Y-3302000D02*
X18262900Y-3054200D01*
X18258900Y-3743400D02*
X18258900Y-3498000D01*
X18258900Y-3302000D02*
X18258900Y-3056600D01*
X18254900Y-3740800D02*
X18254900Y-3498000D01*
X18254900Y-3302000D02*
X18254900Y-3059200D01*
X18250900Y-3738300D02*
X18250900Y-3061700D01*
X18246900Y-3735600D02*
X18246900Y-3064400D01*
X18242900Y-3732900D02*
X18242900Y-3067100D01*
X18238900Y-3730100D02*
X18238900Y-3069900D01*
X18234900Y-3727200D02*
X18234900Y-3072800D01*
X18230900Y-3724300D02*
X18230900Y-3075700D01*
X18226900Y-3721300D02*
X18226900Y-3078700D01*
X18222900Y-3718200D02*
X18222900Y-3081800D01*
X18218900Y-3715000D02*
X18218900Y-3085000D01*
X18214900Y-3711800D02*
X18214900Y-3088200D01*
X18210900Y-3708400D02*
X18210900Y-3091600D01*
X18206900Y-3705000D02*
X18206900Y-3095000D01*
X18202900Y-3701500D02*
X18202900Y-3098500D01*
X18198900Y-3697900D02*
X18198900Y-3102100D01*
X18194900Y-3694200D02*
X18194900Y-3105800D01*
X18190900Y-3690400D02*
X18190900Y-3109600D01*
X18186900Y-3686500D02*
X18186900Y-3113500D01*
X18182900Y-3682400D02*
X18182900Y-3117600D01*
X18178900Y-3678300D02*
X18178900Y-3121700D01*
X18174900Y-3674000D02*
X18174900Y-3126000D01*
X18170900Y-3669700D02*
X18170900Y-3130300D01*
X18166900Y-3665200D02*
X18166900Y-3134800D01*
X18162900Y-3660500D02*
X18162900Y-3139500D01*
X18158900Y-3655700D02*
X18158900Y-3144300D01*
X18154900Y-3650800D02*
X18154900Y-3149200D01*
X18150900Y-3645700D02*
X18150900Y-3154300D01*
X18146900Y-3640400D02*
X18146900Y-3159600D01*
X18142900Y-3634900D02*
X18142900Y-3165100D01*
X18138900Y-3629300D02*
X18138900Y-3170700D01*
X18134900Y-3623400D02*
X18134900Y-3176600D01*
X18130900Y-3617300D02*
X18130900Y-3182700D01*
X18126900Y-3610900D02*
X18126900Y-3189100D01*
X18122900Y-3604300D02*
X18122900Y-3195700D01*
X18118900Y-3597400D02*
X18118900Y-3202600D01*
X18114900Y-3590200D02*
X18114900Y-3209800D01*
X18110900Y-3582600D02*
X18110900Y-3217400D01*
X18106900Y-3574500D02*
X18106900Y-3225500D01*
X18102900Y-3566000D02*
X18102900Y-3234000D01*
X18098900Y-3557000D02*
X18098900Y-3243000D01*
X18094900Y-3547300D02*
X18094900Y-3252700D01*
X18090900Y-3536900D02*
X18090900Y-3263100D01*
X18086900Y-3525400D02*
X18086900Y-3274600D01*
X18082900Y-3512700D02*
X18082900Y-3287300D01*
X18078900Y-3498300D02*
X18078900Y-3301700D01*
X18074900Y-3481400D02*
X18074900Y-3318600D01*
X18070900Y-3459800D02*
X18070900Y-3340200D01*
X18066900Y-3424600D02*
X18066900Y-3375400D01*
X18820000Y-3400000D02*
X18700000Y-3400000D01*
X18760000Y-3465000D02*
X18760000Y-3335000D01*
X15109000Y-2975000D02*
G75*
G03X15109000Y-2975000I-409000J0D01*
G01*
X14295000Y-2975000D02*
X15105000Y-2975000D01*
X14295000Y-2971000D02*
X15105000Y-2971000D01*
X14295000Y-2967000D02*
X15105000Y-2967000D01*
X14295100Y-2963000D02*
X15104900Y-2963000D01*
X14295300Y-2959000D02*
X15104700Y-2959000D01*
X14295400Y-2955000D02*
X15104600Y-2955000D01*
X14295700Y-2951000D02*
X15104300Y-2951000D01*
X14295900Y-2947000D02*
X14602000Y-2947000D01*
X14798000Y-2947000D02*
X15104100Y-2947000D01*
X14296200Y-2943000D02*
X14602000Y-2943000D01*
X14798000Y-2943000D02*
X15103800Y-2943000D01*
X14296500Y-2939000D02*
X14602000Y-2939000D01*
X14798000Y-2939000D02*
X15103500Y-2939000D01*
X14296900Y-2935000D02*
X14602000Y-2935000D01*
X14798000Y-2935000D02*
X15103100Y-2935000D01*
X14297300Y-2931000D02*
X14602000Y-2931000D01*
X14798000Y-2931000D02*
X15102700Y-2931000D01*
X14297800Y-2927000D02*
X14602000Y-2927000D01*
X14798000Y-2927000D02*
X15102200Y-2927000D01*
X14298300Y-2923000D02*
X14602000Y-2923000D01*
X14798000Y-2923000D02*
X15101700Y-2923000D01*
X14298800Y-2919000D02*
X14602000Y-2919000D01*
X14798000Y-2919000D02*
X15101200Y-2919000D01*
X14299400Y-2915000D02*
X14602000Y-2915000D01*
X14798000Y-2915000D02*
X15100600Y-2915000D01*
X14300000Y-2911000D02*
X14602000Y-2911000D01*
X14798000Y-2911000D02*
X15100000Y-2911000D01*
X14300600Y-2907000D02*
X14602000Y-2907000D01*
X14798000Y-2907000D02*
X15099400Y-2907000D01*
X14301300Y-2902900D02*
X14602000Y-2902900D01*
X14798000Y-2902900D02*
X15098700Y-2902900D01*
X14302100Y-2898900D02*
X14602000Y-2898900D01*
X14798000Y-2898900D02*
X15097900Y-2898900D01*
X14302900Y-2894900D02*
X14602000Y-2894900D01*
X14798000Y-2894900D02*
X15097100Y-2894900D01*
X14303700Y-2890900D02*
X14602000Y-2890900D01*
X14798000Y-2890900D02*
X15096300Y-2890900D01*
X14304500Y-2886900D02*
X14602000Y-2886900D01*
X14798000Y-2886900D02*
X15095500Y-2886900D01*
X14305400Y-2882900D02*
X14602000Y-2882900D01*
X14798000Y-2882900D02*
X15094600Y-2882900D01*
X14306400Y-2878900D02*
X14602000Y-2878900D01*
X14798000Y-2878900D02*
X15093600Y-2878900D01*
X14307400Y-2874900D02*
X14602000Y-2874900D01*
X14798000Y-2874900D02*
X15092600Y-2874900D01*
X14308400Y-2870900D02*
X14602000Y-2870900D01*
X14798000Y-2870900D02*
X15091600Y-2870900D01*
X14309500Y-2866900D02*
X14602000Y-2866900D01*
X14798000Y-2866900D02*
X15090500Y-2866900D01*
X14310600Y-2862900D02*
X14602000Y-2862900D01*
X14798000Y-2862900D02*
X15089400Y-2862900D01*
X14311700Y-2858900D02*
X14602000Y-2858900D01*
X14798000Y-2858900D02*
X15088300Y-2858900D01*
X14313000Y-2854900D02*
X14602000Y-2854900D01*
X14798000Y-2854900D02*
X15087000Y-2854900D01*
X14314200Y-2850900D02*
X14602000Y-2850900D01*
X14798000Y-2850900D02*
X15085800Y-2850900D01*
X14315500Y-2846900D02*
X14602000Y-2846900D01*
X14798000Y-2846900D02*
X15084500Y-2846900D01*
X14316800Y-2842900D02*
X14602000Y-2842900D01*
X14798000Y-2842900D02*
X15083200Y-2842900D01*
X14318200Y-2838900D02*
X14602000Y-2838900D01*
X14798000Y-2838900D02*
X15081800Y-2838900D01*
X14319700Y-2834900D02*
X14602000Y-2834900D01*
X14798000Y-2834900D02*
X15080300Y-2834900D01*
X14321100Y-2830900D02*
X14602000Y-2830900D01*
X14798000Y-2830900D02*
X15078900Y-2830900D01*
X14322700Y-2826900D02*
X14602000Y-2826900D01*
X14798000Y-2826900D02*
X15077300Y-2826900D01*
X14324200Y-2822900D02*
X14602000Y-2822900D01*
X14798000Y-2822900D02*
X15075800Y-2822900D01*
X14325900Y-2818900D02*
X14602000Y-2818900D01*
X14798000Y-2818900D02*
X15074100Y-2818900D01*
X14327500Y-2814900D02*
X14602000Y-2814900D01*
X14798000Y-2814900D02*
X15072500Y-2814900D01*
X14329300Y-2810900D02*
X14602000Y-2810900D01*
X14798000Y-2810900D02*
X15070700Y-2810900D01*
X14331000Y-2806900D02*
X14602000Y-2806900D01*
X14798000Y-2806900D02*
X15069000Y-2806900D01*
X14332900Y-2802900D02*
X14602000Y-2802900D01*
X14798000Y-2802900D02*
X15067100Y-2802900D01*
X14334800Y-2798900D02*
X14602000Y-2798900D01*
X14798000Y-2798900D02*
X15065200Y-2798900D01*
X14336700Y-2794900D02*
X14602000Y-2794900D01*
X14798000Y-2794900D02*
X15063300Y-2794900D01*
X14338700Y-2790900D02*
X14602000Y-2790900D01*
X14798000Y-2790900D02*
X15061300Y-2790900D01*
X14340700Y-2786900D02*
X14602000Y-2786900D01*
X14798000Y-2786900D02*
X15059300Y-2786900D01*
X14342800Y-2782900D02*
X14602000Y-2782900D01*
X14798000Y-2782900D02*
X15057200Y-2782900D01*
X14345000Y-2778900D02*
X14602000Y-2778900D01*
X14798000Y-2778900D02*
X15055000Y-2778900D01*
X14347200Y-2774900D02*
X14602000Y-2774900D01*
X14798000Y-2774900D02*
X15052800Y-2774900D01*
X14349500Y-2770900D02*
X14602000Y-2770900D01*
X14798000Y-2770900D02*
X15050500Y-2770900D01*
X14351800Y-2766900D02*
X14602000Y-2766900D01*
X14798000Y-2766900D02*
X15048200Y-2766900D01*
X14354200Y-2762900D02*
X14602000Y-2762900D01*
X14798000Y-2762900D02*
X15045800Y-2762900D01*
X14356600Y-2758900D02*
X14602000Y-2758900D01*
X14798000Y-2758900D02*
X15043400Y-2758900D01*
X14359200Y-2754900D02*
X14602000Y-2754900D01*
X14798000Y-2754900D02*
X15040800Y-2754900D01*
X14361700Y-2750900D02*
X15038300Y-2750900D01*
X14364400Y-2746900D02*
X15035600Y-2746900D01*
X14367100Y-2742900D02*
X15032900Y-2742900D01*
X14369900Y-2738900D02*
X15030100Y-2738900D01*
X14372800Y-2734900D02*
X15027200Y-2734900D01*
X14375700Y-2730900D02*
X15024300Y-2730900D01*
X14378700Y-2726900D02*
X15021300Y-2726900D01*
X14381800Y-2722900D02*
X15018200Y-2722900D01*
X14385000Y-2718900D02*
X15015000Y-2718900D01*
X14388200Y-2714900D02*
X15011800Y-2714900D01*
X14391600Y-2710900D02*
X15008400Y-2710900D01*
X14395000Y-2706900D02*
X15005000Y-2706900D01*
X14398500Y-2702900D02*
X15001500Y-2702900D01*
X14402100Y-2698900D02*
X14997900Y-2698900D01*
X14405800Y-2694900D02*
X14994200Y-2694900D01*
X14409600Y-2690900D02*
X14990400Y-2690900D01*
X14413500Y-2686900D02*
X14986500Y-2686900D01*
X14417600Y-2682900D02*
X14982400Y-2682900D01*
X14421700Y-2678900D02*
X14978300Y-2678900D01*
X14426000Y-2674900D02*
X14974000Y-2674900D01*
X14430300Y-2670900D02*
X14969700Y-2670900D01*
X14434800Y-2666900D02*
X14965200Y-2666900D01*
X14439500Y-2662900D02*
X14960500Y-2662900D01*
X14444300Y-2658900D02*
X14955700Y-2658900D01*
X14449200Y-2654900D02*
X14950800Y-2654900D01*
X14454300Y-2650900D02*
X14945700Y-2650900D01*
X14459600Y-2646900D02*
X14940400Y-2646900D01*
X14465100Y-2642900D02*
X14934900Y-2642900D01*
X14470700Y-2638900D02*
X14929300Y-2638900D01*
X14476600Y-2634900D02*
X14923400Y-2634900D01*
X14482700Y-2630900D02*
X14917300Y-2630900D01*
X14489100Y-2626900D02*
X14910900Y-2626900D01*
X14495700Y-2622900D02*
X14904300Y-2622900D01*
X14502600Y-2618900D02*
X14897400Y-2618900D01*
X14509800Y-2614900D02*
X14890200Y-2614900D01*
X14517400Y-2610900D02*
X14882600Y-2610900D01*
X14525500Y-2606900D02*
X14874500Y-2606900D01*
X14534000Y-2602900D02*
X14866000Y-2602900D01*
X14543000Y-2598900D02*
X14857000Y-2598900D01*
X14552700Y-2594900D02*
X14847300Y-2594900D01*
X14563100Y-2590900D02*
X14836900Y-2590900D01*
X14574600Y-2586900D02*
X14825400Y-2586900D01*
X14587300Y-2582900D02*
X14812700Y-2582900D01*
X14601700Y-2578900D02*
X14798300Y-2578900D01*
X14618600Y-2574900D02*
X14781400Y-2574900D01*
X14640200Y-2570900D02*
X14759800Y-2570900D01*
X14675400Y-2566900D02*
X14724600Y-2566900D01*
X14700000Y-3320000D02*
X14700000Y-3200000D01*
X14635000Y-3260000D02*
X14765000Y-3260000D01*
D14*
X15217400Y-2965100D02*
X15217400Y-2622200D01*
X16182600Y-2965100D02*
X16182600Y-2622200D01*
X15166600Y-3079400D02*
X16233400Y-3079400D01*
X15522200Y-2977800D02*
X15522200Y-3104800D01*
X15877800Y-2977800D02*
X15877800Y-3104800D01*
X16233400Y-2965100D02*
X15166600Y-2965100D01*
X15166600Y-2622200D02*
X16233400Y-2622200D01*
X16233400Y-3104800D02*
X16233400Y-2622200D01*
X15166600Y-3104800D02*
X15166600Y-2622200D01*
X15166600Y-3104800D02*
X16233400Y-3104800D01*
D13*
X16171000Y-5917000D02*
X16171000Y-6437000D01*
X16171000Y-6437000D02*
X16449000Y-6437000D01*
X16449000Y-6437000D02*
X16449000Y-5917000D01*
X16449000Y-5917000D02*
X16171000Y-5917000D01*
X16171000Y-5790000D02*
X16171000Y-5651000D01*
X16171000Y-5651000D02*
X16310000Y-5651000D01*
X15326000Y-5980000D02*
G75*
G03X15326000Y-5980000I-86000J0D01*
G01*
X15154000Y-5980000D02*
X15086000Y-5980000D01*
X15686000Y-6280000D02*
G75*
G03X15686000Y-6280000I-86000J0D01*
G01*
X15686000Y-6280000D02*
X15754000Y-6280000D01*
X15686000Y-6040000D02*
G75*
G03X15686000Y-6040000I-86000J0D01*
G01*
X15686000Y-6040000D02*
X15754000Y-6040000D01*
X14627000Y-6439000D02*
X15401000Y-6439000D01*
X15401000Y-6439000D02*
X15401000Y-6161000D01*
X15401000Y-6161000D02*
X14627000Y-6161000D01*
X14627000Y-6161000D02*
X14627000Y-6439000D01*
X14500000Y-6439000D02*
X14361000Y-6439000D01*
X14361000Y-6439000D02*
X14361000Y-6300000D01*
X13761000Y-6927000D02*
X13761000Y-7447000D01*
X13761000Y-7447000D02*
X14039000Y-7447000D01*
X14039000Y-7447000D02*
X14039000Y-6927000D01*
X14039000Y-6927000D02*
X13761000Y-6927000D01*
X13761000Y-6800000D02*
X13761000Y-6661000D01*
X13761000Y-6661000D02*
X13900000Y-6661000D01*
X14561000Y-6927000D02*
X14561000Y-7447000D01*
X14561000Y-7447000D02*
X14839000Y-7447000D01*
X14839000Y-7447000D02*
X14839000Y-6927000D01*
X14839000Y-6927000D02*
X14561000Y-6927000D01*
X14561000Y-6800000D02*
X14561000Y-6661000D01*
X14561000Y-6661000D02*
X14700000Y-6661000D01*
X14961000Y-6927000D02*
X14961000Y-7447000D01*
X14961000Y-7447000D02*
X15239000Y-7447000D01*
X15239000Y-7447000D02*
X15239000Y-6927000D01*
X15239000Y-6927000D02*
X14961000Y-6927000D01*
X14961000Y-6800000D02*
X14961000Y-6661000D01*
X14961000Y-6661000D02*
X15100000Y-6661000D01*
X16961000Y-6927000D02*
X16961000Y-7447000D01*
X16961000Y-7447000D02*
X17239000Y-7447000D01*
X17239000Y-7447000D02*
X17239000Y-6927000D01*
X17239000Y-6927000D02*
X16961000Y-6927000D01*
X16961000Y-6800000D02*
X16961000Y-6661000D01*
X16961000Y-6661000D02*
X17100000Y-6661000D01*
X15365500Y-5656500D02*
G75*
G02X14860500Y-5656500I-252500J0D01*
G01*
X15365500Y-5031500D02*
G75*
G03X14860500Y-5031500I-252500J0D01*
G01*
X14860500Y-5656500D02*
X14860500Y-5031500D01*
X15365500Y-5656500D02*
X15365500Y-5031500D01*
D10*
X20777000Y-3153500D02*
X20857000Y-3153500D01*
X20687000Y-3248500D02*
X20687000Y-3348500D01*
X20687000Y-4208500D02*
X20687000Y-4108500D01*
X20777000Y-4303500D02*
X20857000Y-4303500D01*
X20857000Y-4303500D02*
X20852000Y-4303500D01*
D14*
X16921238Y-6315238D02*
X16887905Y-6267619D01*
X16864095Y-6315238D02*
X16864095Y-6215238D01*
X16902191Y-6215238D01*
X16911714Y-6220000D01*
X16916476Y-6224762D01*
X16921238Y-6234286D01*
X16921238Y-6248571D01*
X16916476Y-6258095D01*
X16911714Y-6262857D01*
X16902191Y-6267619D01*
X16864095Y-6267619D01*
X16964095Y-6315238D02*
X16964095Y-6215238D01*
X17021238Y-6315238D01*
X17021238Y-6215238D01*
X17111714Y-6248571D02*
X17111714Y-6315238D01*
X17087905Y-6210476D02*
X17064095Y-6281905D01*
X17126000Y-6281905D01*
X17159333Y-6224762D02*
X17164095Y-6220000D01*
X17173619Y-6215238D01*
X17197429Y-6215238D01*
X17206952Y-6220000D01*
X17211714Y-6224762D01*
X17216476Y-6234286D01*
X17216476Y-6243809D01*
X17211714Y-6258095D01*
X17154571Y-6315238D01*
X17216476Y-6315238D01*
X17249810Y-6215238D02*
X17316476Y-6315238D01*
X17316476Y-6215238D02*
X17249810Y-6315238D01*
X17340286Y-6215238D02*
X17373619Y-6315238D01*
X17406952Y-6215238D01*
X17492667Y-6315238D02*
X17435524Y-6315238D01*
X17464095Y-6315238D02*
X17464095Y-6215238D01*
X17454571Y-6229524D01*
X17445048Y-6239048D01*
X17435524Y-6243809D01*
X19970238Y-6067857D02*
X19922619Y-6101191D01*
X19970238Y-6125000D02*
X19870238Y-6125000D01*
X19870238Y-6086905D01*
X19875000Y-6077381D01*
X19879762Y-6072619D01*
X19889286Y-6067857D01*
X19903571Y-6067857D01*
X19913095Y-6072619D01*
X19917857Y-6077381D01*
X19922619Y-6086905D01*
X19922619Y-6125000D01*
X19970238Y-6034524D02*
X19903571Y-5982143D01*
X19903571Y-6034524D02*
X19970238Y-5982143D01*
X19979762Y-5967857D02*
X19979762Y-5891667D01*
X19870238Y-5882143D02*
X19870238Y-5825000D01*
X19970238Y-5853571D02*
X19870238Y-5853571D01*
X19970238Y-5801190D02*
X19903571Y-5748809D01*
X19903571Y-5801190D02*
X19970238Y-5748809D01*
X19979762Y-5734524D02*
X19979762Y-5658333D01*
X19875000Y-5582143D02*
X19870238Y-5591667D01*
X19870238Y-5605952D01*
X19875000Y-5620238D01*
X19884524Y-5629762D01*
X19894048Y-5634524D01*
X19913095Y-5639286D01*
X19927381Y-5639286D01*
X19946429Y-5634524D01*
X19955952Y-5629762D01*
X19965476Y-5620238D01*
X19970238Y-5605952D01*
X19970238Y-5596428D01*
X19965476Y-5582143D01*
X19960714Y-5577381D01*
X19927381Y-5577381D01*
X19927381Y-5596428D01*
X19903571Y-5534524D02*
X19970238Y-5534524D01*
X19913095Y-5534524D02*
X19908333Y-5529762D01*
X19903571Y-5520238D01*
X19903571Y-5505952D01*
X19908333Y-5496429D01*
X19917857Y-5491667D01*
X19970238Y-5491667D01*
X19970238Y-5401190D02*
X19870238Y-5401190D01*
X19965476Y-5401190D02*
X19970238Y-5410714D01*
X19970238Y-5429762D01*
X19965476Y-5439286D01*
X19960714Y-5444048D01*
X19951191Y-5448810D01*
X19922619Y-5448810D01*
X19913095Y-5444048D01*
X19908333Y-5439286D01*
X19903571Y-5429762D01*
X19903571Y-5410714D01*
X19908333Y-5401190D01*
X19870238Y-5305952D02*
X19870238Y-5353571D01*
X19917857Y-5358333D01*
X19913095Y-5353571D01*
X19908333Y-5344048D01*
X19908333Y-5320238D01*
X19913095Y-5310714D01*
X19917857Y-5305952D01*
X19927381Y-5301190D01*
X19951191Y-5301190D01*
X19960714Y-5305952D01*
X19965476Y-5310714D01*
X19970238Y-5320238D01*
X19970238Y-5344048D01*
X19965476Y-5353571D01*
X19960714Y-5358333D01*
X19870238Y-5272619D02*
X19970238Y-5239286D01*
X19870238Y-5205952D01*
X19970238Y-5120238D02*
X19970238Y-5177381D01*
X19970238Y-5148810D02*
X19870238Y-5148810D01*
X19884524Y-5158333D01*
X19894048Y-5167857D01*
X19898810Y-5177381D01*
X13426190Y-6606238D02*
X13426190Y-6506238D01*
X13450000Y-6506238D01*
X13464286Y-6511000D01*
X13473810Y-6520524D01*
X13478571Y-6530048D01*
X13483333Y-6549095D01*
X13483333Y-6563381D01*
X13478571Y-6582429D01*
X13473810Y-6591952D01*
X13464286Y-6601476D01*
X13450000Y-6606238D01*
X13426190Y-6606238D01*
X13521429Y-6515762D02*
X13526190Y-6511000D01*
X13535714Y-6506238D01*
X13559524Y-6506238D01*
X13569048Y-6511000D01*
X13573810Y-6515762D01*
X13578571Y-6525286D01*
X13578571Y-6534809D01*
X13573810Y-6549095D01*
X13516667Y-6606238D01*
X13578571Y-6606238D01*
X14226190Y-6606238D02*
X14226190Y-6506238D01*
X14250000Y-6506238D01*
X14264286Y-6511000D01*
X14273810Y-6520524D01*
X14278571Y-6530048D01*
X14283333Y-6549095D01*
X14283333Y-6563381D01*
X14278571Y-6582429D01*
X14273810Y-6591952D01*
X14264286Y-6601476D01*
X14250000Y-6606238D01*
X14226190Y-6606238D01*
X14369048Y-6539571D02*
X14369048Y-6606238D01*
X14345238Y-6501476D02*
X14321429Y-6572905D01*
X14383333Y-6572905D01*
X15426190Y-6606238D02*
X15426190Y-6506238D01*
X15450000Y-6506238D01*
X15464286Y-6511000D01*
X15473810Y-6520524D01*
X15478571Y-6530048D01*
X15483333Y-6549095D01*
X15483333Y-6563381D01*
X15478571Y-6582429D01*
X15473810Y-6591952D01*
X15464286Y-6601476D01*
X15450000Y-6606238D01*
X15426190Y-6606238D01*
X15516667Y-6506238D02*
X15583333Y-6506238D01*
X15540476Y-6606238D01*
X15826190Y-6606238D02*
X15826190Y-6506238D01*
X15850000Y-6506238D01*
X15864286Y-6511000D01*
X15873810Y-6520524D01*
X15878571Y-6530048D01*
X15883333Y-6549095D01*
X15883333Y-6563381D01*
X15878571Y-6582429D01*
X15873810Y-6591952D01*
X15864286Y-6601476D01*
X15850000Y-6606238D01*
X15826190Y-6606238D01*
X15940476Y-6549095D02*
X15930952Y-6544333D01*
X15926190Y-6539571D01*
X15921429Y-6530048D01*
X15921429Y-6525286D01*
X15926190Y-6515762D01*
X15930952Y-6511000D01*
X15940476Y-6506238D01*
X15959524Y-6506238D01*
X15969048Y-6511000D01*
X15973810Y-6515762D01*
X15978571Y-6525286D01*
X15978571Y-6530048D01*
X15973810Y-6539571D01*
X15969048Y-6544333D01*
X15959524Y-6549095D01*
X15940476Y-6549095D01*
X15930952Y-6553857D01*
X15926190Y-6558619D01*
X15921429Y-6568143D01*
X15921429Y-6587190D01*
X15926190Y-6596714D01*
X15930952Y-6601476D01*
X15940476Y-6606238D01*
X15959524Y-6606238D01*
X15969048Y-6601476D01*
X15973810Y-6596714D01*
X15978571Y-6587190D01*
X15978571Y-6568143D01*
X15973810Y-6558619D01*
X15969048Y-6553857D01*
X15959524Y-6549095D01*
X16226190Y-6606238D02*
X16226190Y-6506238D01*
X16250000Y-6506238D01*
X16264286Y-6511000D01*
X16273810Y-6520524D01*
X16278571Y-6530048D01*
X16283333Y-6549095D01*
X16283333Y-6563381D01*
X16278571Y-6582429D01*
X16273810Y-6591952D01*
X16264286Y-6601476D01*
X16250000Y-6606238D01*
X16226190Y-6606238D01*
X16330952Y-6606238D02*
X16350000Y-6606238D01*
X16359524Y-6601476D01*
X16364286Y-6596714D01*
X16373810Y-6582429D01*
X16378571Y-6563381D01*
X16378571Y-6525286D01*
X16373810Y-6515762D01*
X16369048Y-6511000D01*
X16359524Y-6506238D01*
X16340476Y-6506238D01*
X16330952Y-6511000D01*
X16326190Y-6515762D01*
X16321429Y-6525286D01*
X16321429Y-6549095D01*
X16326190Y-6558619D01*
X16330952Y-6563381D01*
X16340476Y-6568143D01*
X16359524Y-6568143D01*
X16369048Y-6563381D01*
X16373810Y-6558619D01*
X16378571Y-6549095D01*
X16578571Y-6606238D02*
X16578571Y-6506238D01*
X16602381Y-6506238D01*
X16616667Y-6511000D01*
X16626190Y-6520524D01*
X16630952Y-6530048D01*
X16635714Y-6549095D01*
X16635714Y-6563381D01*
X16630952Y-6582429D01*
X16626190Y-6591952D01*
X16616667Y-6601476D01*
X16602381Y-6606238D01*
X16578571Y-6606238D01*
X16730952Y-6606238D02*
X16673809Y-6606238D01*
X16702381Y-6606238D02*
X16702381Y-6506238D01*
X16692857Y-6520524D01*
X16683333Y-6530048D01*
X16673809Y-6534809D01*
X16792857Y-6506238D02*
X16802381Y-6506238D01*
X16811905Y-6511000D01*
X16816667Y-6515762D01*
X16821429Y-6525286D01*
X16826191Y-6544333D01*
X16826191Y-6568143D01*
X16821429Y-6587190D01*
X16816667Y-6596714D01*
X16811905Y-6601476D01*
X16802381Y-6606238D01*
X16792857Y-6606238D01*
X16783333Y-6601476D01*
X16778571Y-6596714D01*
X16773809Y-6587190D01*
X16769048Y-6568143D01*
X16769048Y-6544333D01*
X16773809Y-6525286D01*
X16778571Y-6515762D01*
X16783333Y-6511000D01*
X16792857Y-6506238D01*
X17378571Y-6606238D02*
X17378571Y-6506238D01*
X17402381Y-6506238D01*
X17416667Y-6511000D01*
X17426191Y-6520524D01*
X17430952Y-6530048D01*
X17435714Y-6549095D01*
X17435714Y-6563381D01*
X17430952Y-6582429D01*
X17426191Y-6591952D01*
X17416667Y-6601476D01*
X17402381Y-6606238D01*
X17378571Y-6606238D01*
X17530952Y-6606238D02*
X17473810Y-6606238D01*
X17502381Y-6606238D02*
X17502381Y-6506238D01*
X17492857Y-6520524D01*
X17483333Y-6530048D01*
X17473810Y-6534809D01*
X17569048Y-6515762D02*
X17573810Y-6511000D01*
X17583333Y-6506238D01*
X17607143Y-6506238D01*
X17616667Y-6511000D01*
X17621429Y-6515762D01*
X17626191Y-6525286D01*
X17626191Y-6534809D01*
X17621429Y-6549095D01*
X17564286Y-6606238D01*
X17626191Y-6606238D01*
X17778571Y-6606238D02*
X17778571Y-6506238D01*
X17802381Y-6506238D01*
X17816667Y-6511000D01*
X17826191Y-6520524D01*
X17830952Y-6530048D01*
X17835714Y-6549095D01*
X17835714Y-6563381D01*
X17830952Y-6582429D01*
X17826191Y-6591952D01*
X17816667Y-6601476D01*
X17802381Y-6606238D01*
X17778571Y-6606238D01*
X17930952Y-6606238D02*
X17873810Y-6606238D01*
X17902381Y-6606238D02*
X17902381Y-6506238D01*
X17892857Y-6520524D01*
X17883333Y-6530048D01*
X17873810Y-6534809D01*
X17964286Y-6506238D02*
X18026191Y-6506238D01*
X17992857Y-6544333D01*
X18007143Y-6544333D01*
X18016667Y-6549095D01*
X18021429Y-6553857D01*
X18026191Y-6563381D01*
X18026191Y-6587190D01*
X18021429Y-6596714D01*
X18016667Y-6601476D01*
X18007143Y-6606238D01*
X17978571Y-6606238D01*
X17969048Y-6601476D01*
X17964286Y-6596714D01*
X14045238Y-5123810D02*
X13945238Y-5123810D01*
X13945238Y-5085714D01*
X13950000Y-5076190D01*
X13954762Y-5071429D01*
X13964286Y-5066667D01*
X13978571Y-5066667D01*
X13988095Y-5071429D01*
X13992857Y-5076190D01*
X13997619Y-5085714D01*
X13997619Y-5123810D01*
X14045238Y-4971429D02*
X14045238Y-5028571D01*
X14045238Y-5000000D02*
X13945238Y-5000000D01*
X13959524Y-5009524D01*
X13969048Y-5019048D01*
X13973809Y-5028571D01*
X12898571Y-2655238D02*
X12865238Y-2607619D01*
X12841428Y-2655238D02*
X12841428Y-2555238D01*
X12879524Y-2555238D01*
X12889048Y-2560000D01*
X12893809Y-2564762D01*
X12898571Y-2574286D01*
X12898571Y-2588571D01*
X12893809Y-2598095D01*
X12889048Y-2602857D01*
X12879524Y-2607619D01*
X12841428Y-2607619D01*
X12979524Y-2650476D02*
X12970000Y-2655238D01*
X12950952Y-2655238D01*
X12941428Y-2650476D01*
X12936667Y-2640952D01*
X12936667Y-2602857D01*
X12941428Y-2593333D01*
X12950952Y-2588571D01*
X12970000Y-2588571D01*
X12979524Y-2593333D01*
X12984286Y-2602857D01*
X12984286Y-2612381D01*
X12936667Y-2621905D01*
X13022381Y-2650476D02*
X13031905Y-2655238D01*
X13050952Y-2655238D01*
X13060476Y-2650476D01*
X13065238Y-2640952D01*
X13065238Y-2636191D01*
X13060476Y-2626667D01*
X13050952Y-2621905D01*
X13036667Y-2621905D01*
X13027143Y-2617143D01*
X13022381Y-2607619D01*
X13022381Y-2602857D01*
X13027143Y-2593333D01*
X13036667Y-2588571D01*
X13050952Y-2588571D01*
X13060476Y-2593333D01*
X13146190Y-2650476D02*
X13136667Y-2655238D01*
X13117619Y-2655238D01*
X13108095Y-2650476D01*
X13103333Y-2640952D01*
X13103333Y-2602857D01*
X13108095Y-2593333D01*
X13117619Y-2588571D01*
X13136667Y-2588571D01*
X13146190Y-2593333D01*
X13150952Y-2602857D01*
X13150952Y-2612381D01*
X13103333Y-2621905D01*
X13179524Y-2588571D02*
X13217619Y-2588571D01*
X13193809Y-2555238D02*
X13193809Y-2640952D01*
X13198571Y-2650476D01*
X13208095Y-2655238D01*
X13217619Y-2655238D01*
X13303333Y-2655238D02*
X13246190Y-2655238D01*
X13274762Y-2655238D02*
X13274762Y-2555238D01*
X13265238Y-2569524D01*
X13255714Y-2579048D01*
X13246190Y-2583810D01*
X20397619Y-7416667D02*
X20445238Y-7416667D01*
X20388095Y-7445238D02*
X20421429Y-7345238D01*
X20454762Y-7445238D01*
X20473810Y-7345238D02*
X20530952Y-7345238D01*
X20502381Y-7445238D02*
X20502381Y-7345238D01*
X20564286Y-7407143D02*
X20640476Y-7407143D01*
X20688095Y-7445238D02*
X20688095Y-7345238D01*
X20745238Y-7445238D02*
X20702381Y-7388095D01*
X20745238Y-7345238D02*
X20688095Y-7402381D01*
X20826191Y-7440476D02*
X20816667Y-7445238D01*
X20797619Y-7445238D01*
X20788095Y-7440476D01*
X20783333Y-7430952D01*
X20783333Y-7392857D01*
X20788095Y-7383333D01*
X20797619Y-7378571D01*
X20816667Y-7378571D01*
X20826191Y-7383333D01*
X20830952Y-7392857D01*
X20830952Y-7402381D01*
X20783333Y-7411905D01*
X20864286Y-7378571D02*
X20888095Y-7445238D01*
X20911905Y-7378571D02*
X20888095Y-7445238D01*
X20878571Y-7469048D01*
X20873810Y-7473809D01*
X20864286Y-7478571D01*
X21002381Y-7445238D02*
X20945238Y-7445238D01*
X20973810Y-7445238D02*
X20973810Y-7345238D01*
X20964286Y-7359524D01*
X20954762Y-7369048D01*
X20945238Y-7373809D01*
X18835238Y-5922381D02*
X18835238Y-5970000D01*
X18882857Y-5974762D01*
X18878095Y-5970000D01*
X18873333Y-5960476D01*
X18873333Y-5936667D01*
X18878095Y-5927143D01*
X18882857Y-5922381D01*
X18892381Y-5917619D01*
X18916191Y-5917619D01*
X18925714Y-5922381D01*
X18930476Y-5927143D01*
X18935238Y-5936667D01*
X18935238Y-5960476D01*
X18930476Y-5970000D01*
X18925714Y-5974762D01*
X18835238Y-5889048D02*
X18935238Y-5855714D01*
X18835238Y-5822381D01*
X18840000Y-5736667D02*
X18835238Y-5746190D01*
X18835238Y-5760476D01*
X18840000Y-5774762D01*
X18849524Y-5784286D01*
X18859048Y-5789048D01*
X18878095Y-5793810D01*
X18892381Y-5793810D01*
X18911429Y-5789048D01*
X18920952Y-5784286D01*
X18930476Y-5774762D01*
X18935238Y-5760476D01*
X18935238Y-5750952D01*
X18930476Y-5736667D01*
X18925714Y-5731905D01*
X18892381Y-5731905D01*
X18892381Y-5750952D01*
X18868571Y-5689048D02*
X18935238Y-5689048D01*
X18878095Y-5689048D02*
X18873333Y-5684286D01*
X18868571Y-5674762D01*
X18868571Y-5660476D01*
X18873333Y-5650952D01*
X18882857Y-5646190D01*
X18935238Y-5646190D01*
X18935238Y-5555714D02*
X18835238Y-5555714D01*
X18930476Y-5555714D02*
X18935238Y-5565238D01*
X18935238Y-5584286D01*
X18930476Y-5593810D01*
X18925714Y-5598571D01*
X18916191Y-5603333D01*
X18887619Y-5603333D01*
X18878095Y-5598571D01*
X18873333Y-5593810D01*
X18868571Y-5584286D01*
X18868571Y-5565238D01*
X18873333Y-5555714D01*
X18944762Y-5531905D02*
X18944762Y-5455714D01*
X18935238Y-5374762D02*
X18887619Y-5408095D01*
X18935238Y-5431905D02*
X18835238Y-5431905D01*
X18835238Y-5393810D01*
X18840000Y-5384286D01*
X18844762Y-5379524D01*
X18854286Y-5374762D01*
X18868571Y-5374762D01*
X18878095Y-5379524D01*
X18882857Y-5384286D01*
X18887619Y-5393810D01*
X18887619Y-5431905D01*
X18935238Y-5341429D02*
X18868571Y-5289048D01*
X18868571Y-5341429D02*
X18935238Y-5289048D01*
X18944762Y-5274762D02*
X18944762Y-5198571D01*
X18835238Y-5189048D02*
X18835238Y-5131905D01*
X18935238Y-5160476D02*
X18835238Y-5160476D01*
X18935238Y-5108095D02*
X18868571Y-5055714D01*
X18868571Y-5108095D02*
X18935238Y-5055714D01*
X18935238Y-4965238D02*
X18935238Y-5022381D01*
X18935238Y-4993810D02*
X18835238Y-4993810D01*
X18849524Y-5003333D01*
X18859048Y-5012857D01*
X18863810Y-5022381D01*
X19624619Y-3039714D02*
X19619857Y-3044476D01*
X19605572Y-3049238D01*
X19596048Y-3049238D01*
X19581762Y-3044476D01*
X19572238Y-3034952D01*
X19567476Y-3025429D01*
X19562714Y-3006381D01*
X19562714Y-2992095D01*
X19567476Y-2973048D01*
X19572238Y-2963524D01*
X19581762Y-2954000D01*
X19596048Y-2949238D01*
X19605572Y-2949238D01*
X19619857Y-2954000D01*
X19624619Y-2958762D01*
X19681762Y-3049238D02*
X19672238Y-3044476D01*
X19667476Y-3039714D01*
X19662714Y-3030190D01*
X19662714Y-3001619D01*
X19667476Y-2992095D01*
X19672238Y-2987333D01*
X19681762Y-2982571D01*
X19696048Y-2982571D01*
X19705572Y-2987333D01*
X19710333Y-2992095D01*
X19715095Y-3001619D01*
X19715095Y-3030190D01*
X19710333Y-3039714D01*
X19705572Y-3044476D01*
X19696048Y-3049238D01*
X19681762Y-3049238D01*
X19757952Y-2982571D02*
X19757952Y-3049238D01*
X19757952Y-2992095D02*
X19762714Y-2987333D01*
X19772238Y-2982571D01*
X19786524Y-2982571D01*
X19796048Y-2987333D01*
X19800810Y-2996857D01*
X19800810Y-3049238D01*
X19848429Y-2982571D02*
X19848429Y-3049238D01*
X19848429Y-2992095D02*
X19853191Y-2987333D01*
X19862714Y-2982571D01*
X19877000Y-2982571D01*
X19886524Y-2987333D01*
X19891286Y-2996857D01*
X19891286Y-3049238D01*
X19991286Y-3049238D02*
X19934143Y-3049238D01*
X19962714Y-3049238D02*
X19962714Y-2949238D01*
X19953191Y-2963524D01*
X19943667Y-2973048D01*
X19934143Y-2977809D01*
X12550000Y-6613333D02*
X12545238Y-6622857D01*
X12545238Y-6637143D01*
X12550000Y-6651429D01*
X12559524Y-6660952D01*
X12569048Y-6665714D01*
X12588095Y-6670476D01*
X12602381Y-6670476D01*
X12621429Y-6665714D01*
X12630952Y-6660952D01*
X12640476Y-6651429D01*
X12645238Y-6637143D01*
X12645238Y-6627619D01*
X12640476Y-6613333D01*
X12635714Y-6608571D01*
X12602381Y-6608571D01*
X12602381Y-6627619D01*
X12645238Y-6565714D02*
X12578571Y-6565714D01*
X12597619Y-6565714D02*
X12588095Y-6560952D01*
X12583333Y-6556190D01*
X12578571Y-6546667D01*
X12578571Y-6537143D01*
X12645238Y-6503809D02*
X12545238Y-6503809D01*
X12554762Y-6460952D02*
X12550000Y-6456190D01*
X12545238Y-6446667D01*
X12545238Y-6422857D01*
X12550000Y-6413333D01*
X12554762Y-6408571D01*
X12564286Y-6403809D01*
X12573809Y-6403809D01*
X12588095Y-6408571D01*
X12645238Y-6465714D01*
X12645238Y-6403809D01*
X12635714Y-6303809D02*
X12640476Y-6308571D01*
X12645238Y-6322857D01*
X12645238Y-6332381D01*
X12640476Y-6346667D01*
X12630952Y-6356190D01*
X12621429Y-6360952D01*
X12602381Y-6365714D01*
X12588095Y-6365714D01*
X12569048Y-6360952D01*
X12559524Y-6356190D01*
X12550000Y-6346667D01*
X12545238Y-6332381D01*
X12545238Y-6322857D01*
X12550000Y-6308571D01*
X12554762Y-6303809D01*
X12607143Y-6260952D02*
X12607143Y-6184762D01*
X12640476Y-6141905D02*
X12645238Y-6127619D01*
X12645238Y-6103809D01*
X12640476Y-6094286D01*
X12635714Y-6089524D01*
X12626190Y-6084762D01*
X12616667Y-6084762D01*
X12607143Y-6089524D01*
X12602381Y-6094286D01*
X12597619Y-6103809D01*
X12592857Y-6122857D01*
X12588095Y-6132381D01*
X12583333Y-6137143D01*
X12573809Y-6141905D01*
X12564286Y-6141905D01*
X12554762Y-6137143D01*
X12550000Y-6132381D01*
X12545238Y-6122857D01*
X12545238Y-6099048D01*
X12550000Y-6084762D01*
X12645238Y-5989524D02*
X12645238Y-6046667D01*
X12645238Y-6018095D02*
X12545238Y-6018095D01*
X12559524Y-6027619D01*
X12569048Y-6037143D01*
X12573809Y-6046667D01*
X13050000Y-4073809D02*
X13045238Y-4083333D01*
X13045238Y-4097619D01*
X13050000Y-4111905D01*
X13059524Y-4121429D01*
X13069048Y-4126190D01*
X13088095Y-4130952D01*
X13102381Y-4130952D01*
X13121429Y-4126190D01*
X13130952Y-4121429D01*
X13140476Y-4111905D01*
X13145238Y-4097619D01*
X13145238Y-4088095D01*
X13140476Y-4073809D01*
X13135714Y-4069048D01*
X13102381Y-4069048D01*
X13102381Y-4088095D01*
X13145238Y-4026190D02*
X13078571Y-4026190D01*
X13097619Y-4026190D02*
X13088095Y-4021429D01*
X13083333Y-4016667D01*
X13078571Y-4007143D01*
X13078571Y-3997619D01*
X13145238Y-3964286D02*
X13045238Y-3964286D01*
X13054762Y-3921429D02*
X13050000Y-3916667D01*
X13045238Y-3907143D01*
X13045238Y-3883333D01*
X13050000Y-3873809D01*
X13054762Y-3869048D01*
X13064286Y-3864286D01*
X13073809Y-3864286D01*
X13088095Y-3869048D01*
X13145238Y-3926190D01*
X13145238Y-3864286D01*
X13135714Y-3764286D02*
X13140476Y-3769048D01*
X13145238Y-3783333D01*
X13145238Y-3792857D01*
X13140476Y-3807143D01*
X13130952Y-3816667D01*
X13121429Y-3821429D01*
X13102381Y-3826190D01*
X13088095Y-3826190D01*
X13069048Y-3821429D01*
X13059524Y-3816667D01*
X13050000Y-3807143D01*
X13045238Y-3792857D01*
X13045238Y-3783333D01*
X13050000Y-3769048D01*
X13054762Y-3764286D01*
X13145238Y-3669048D02*
X13145238Y-3726190D01*
X13145238Y-3697619D02*
X13045238Y-3697619D01*
X13059524Y-3707143D01*
X13069048Y-3716667D01*
X13073809Y-3726190D01*
X12550000Y-4073809D02*
X12545238Y-4083333D01*
X12545238Y-4097619D01*
X12550000Y-4111905D01*
X12559524Y-4121429D01*
X12569048Y-4126190D01*
X12588095Y-4130952D01*
X12602381Y-4130952D01*
X12621429Y-4126190D01*
X12630952Y-4121429D01*
X12640476Y-4111905D01*
X12645238Y-4097619D01*
X12645238Y-4088095D01*
X12640476Y-4073809D01*
X12635714Y-4069048D01*
X12602381Y-4069048D01*
X12602381Y-4088095D01*
X12645238Y-4026190D02*
X12578571Y-4026190D01*
X12597619Y-4026190D02*
X12588095Y-4021429D01*
X12583333Y-4016667D01*
X12578571Y-4007143D01*
X12578571Y-3997619D01*
X12645238Y-3964286D02*
X12545238Y-3964286D01*
X12554762Y-3921429D02*
X12550000Y-3916667D01*
X12545238Y-3907143D01*
X12545238Y-3883333D01*
X12550000Y-3873809D01*
X12554762Y-3869048D01*
X12564286Y-3864286D01*
X12573809Y-3864286D01*
X12588095Y-3869048D01*
X12645238Y-3926190D01*
X12645238Y-3864286D01*
X12635714Y-3764286D02*
X12640476Y-3769048D01*
X12645238Y-3783333D01*
X12645238Y-3792857D01*
X12640476Y-3807143D01*
X12630952Y-3816667D01*
X12621429Y-3821429D01*
X12602381Y-3826190D01*
X12588095Y-3826190D01*
X12569048Y-3821429D01*
X12559524Y-3816667D01*
X12550000Y-3807143D01*
X12545238Y-3792857D01*
X12545238Y-3783333D01*
X12550000Y-3769048D01*
X12554762Y-3764286D01*
X12554762Y-3726190D02*
X12550000Y-3721429D01*
X12545238Y-3711905D01*
X12545238Y-3688095D01*
X12550000Y-3678571D01*
X12554762Y-3673809D01*
X12564286Y-3669048D01*
X12573809Y-3669048D01*
X12588095Y-3673809D01*
X12645238Y-3730952D01*
X12645238Y-3669048D01*
X16028095Y-3460000D02*
X16018571Y-3455238D01*
X16004286Y-3455238D01*
X15990000Y-3460000D01*
X15980476Y-3469524D01*
X15975714Y-3479048D01*
X15970952Y-3498095D01*
X15970952Y-3512381D01*
X15975714Y-3531429D01*
X15980476Y-3540952D01*
X15990000Y-3550476D01*
X16004286Y-3555238D01*
X16013809Y-3555238D01*
X16028095Y-3550476D01*
X16032857Y-3545714D01*
X16032857Y-3512381D01*
X16013809Y-3512381D01*
X16075714Y-3555238D02*
X16075714Y-3488571D01*
X16075714Y-3507619D02*
X16080476Y-3498095D01*
X16085238Y-3493333D01*
X16094762Y-3488571D01*
X16104286Y-3488571D01*
X16151905Y-3555238D02*
X16142381Y-3550476D01*
X16137619Y-3545714D01*
X16132857Y-3536190D01*
X16132857Y-3507619D01*
X16137619Y-3498095D01*
X16142381Y-3493333D01*
X16151905Y-3488571D01*
X16166190Y-3488571D01*
X16175714Y-3493333D01*
X16180476Y-3498095D01*
X16185238Y-3507619D01*
X16185238Y-3536190D01*
X16180476Y-3545714D01*
X16175714Y-3550476D01*
X16166190Y-3555238D01*
X16151905Y-3555238D01*
X16218571Y-3488571D02*
X16242381Y-3555238D01*
X16266190Y-3488571D01*
X16342381Y-3550476D02*
X16332857Y-3555238D01*
X16313809Y-3555238D01*
X16304286Y-3550476D01*
X16299524Y-3540952D01*
X16299524Y-3502857D01*
X16304286Y-3493333D01*
X16313809Y-3488571D01*
X16332857Y-3488571D01*
X16342381Y-3493333D01*
X16347143Y-3502857D01*
X16347143Y-3512381D01*
X16299524Y-3521905D01*
X16385238Y-3526667D02*
X16432857Y-3526667D01*
X16375714Y-3555238D02*
X16409048Y-3455238D01*
X16442381Y-3555238D01*
X16475714Y-3488571D02*
X16475714Y-3555238D01*
X16475714Y-3498095D02*
X16480476Y-3493333D01*
X16490000Y-3488571D01*
X16504286Y-3488571D01*
X16513810Y-3493333D01*
X16518571Y-3502857D01*
X16518571Y-3555238D01*
X16609048Y-3555238D02*
X16609048Y-3502857D01*
X16604286Y-3493333D01*
X16594762Y-3488571D01*
X16575714Y-3488571D01*
X16566190Y-3493333D01*
X16609048Y-3550476D02*
X16599524Y-3555238D01*
X16575714Y-3555238D01*
X16566190Y-3550476D01*
X16561429Y-3540952D01*
X16561429Y-3531429D01*
X16566190Y-3521905D01*
X16575714Y-3517143D01*
X16599524Y-3517143D01*
X16609048Y-3512381D01*
X16709048Y-3555238D02*
X16651905Y-3555238D01*
X16680476Y-3555238D02*
X16680476Y-3455238D01*
X16670952Y-3469524D01*
X16661429Y-3479048D01*
X16651905Y-3483809D01*
X17565238Y-5947143D02*
X17465238Y-5947143D01*
X17560476Y-5912857D02*
X17565238Y-5901429D01*
X17565238Y-5882381D01*
X17560476Y-5874762D01*
X17555714Y-5870952D01*
X17546191Y-5867143D01*
X17536667Y-5867143D01*
X17527143Y-5870952D01*
X17522381Y-5874762D01*
X17517619Y-5882381D01*
X17512857Y-5897619D01*
X17508095Y-5905238D01*
X17503333Y-5909048D01*
X17493810Y-5912857D01*
X17484286Y-5912857D01*
X17474762Y-5909048D01*
X17470000Y-5905238D01*
X17465238Y-5897619D01*
X17465238Y-5878572D01*
X17470000Y-5867143D01*
X17565238Y-5832857D02*
X17465238Y-5832857D01*
X17465238Y-5802381D01*
X17470000Y-5794762D01*
X17474762Y-5790952D01*
X17484286Y-5787143D01*
X17498571Y-5787143D01*
X17508095Y-5790952D01*
X17512857Y-5794762D01*
X17517619Y-5802381D01*
X17517619Y-5832857D01*
X17574762Y-5771905D02*
X17574762Y-5710952D01*
X17565238Y-5691905D02*
X17465238Y-5691905D01*
X17465238Y-5672857D01*
X17470000Y-5661429D01*
X17479524Y-5653810D01*
X17489048Y-5650000D01*
X17508095Y-5646191D01*
X17522381Y-5646191D01*
X17541429Y-5650000D01*
X17550952Y-5653810D01*
X17560476Y-5661429D01*
X17565238Y-5672857D01*
X17565238Y-5691905D01*
X17565238Y-5570000D02*
X17565238Y-5615714D01*
X17565238Y-5592857D02*
X17465238Y-5592857D01*
X17479524Y-5600476D01*
X17489048Y-5608095D01*
X17493810Y-5615714D01*
X17565238Y-5493810D02*
X17565238Y-5539524D01*
X17565238Y-5516667D02*
X17465238Y-5516667D01*
X17479524Y-5524286D01*
X17489048Y-5531905D01*
X17493810Y-5539524D01*
X17574762Y-5478572D02*
X17574762Y-5417619D01*
X17565238Y-5398572D02*
X17465238Y-5398572D01*
X17465238Y-5379524D01*
X17470000Y-5368095D01*
X17479524Y-5360476D01*
X17489048Y-5356667D01*
X17508095Y-5352857D01*
X17522381Y-5352857D01*
X17541429Y-5356667D01*
X17550952Y-5360476D01*
X17560476Y-5368095D01*
X17565238Y-5379524D01*
X17565238Y-5398572D01*
X17565238Y-5276667D02*
X17565238Y-5322381D01*
X17565238Y-5299524D02*
X17465238Y-5299524D01*
X17479524Y-5307143D01*
X17489048Y-5314762D01*
X17493810Y-5322381D01*
X17474762Y-5246191D02*
X17470000Y-5242381D01*
X17465238Y-5234762D01*
X17465238Y-5215714D01*
X17470000Y-5208095D01*
X17474762Y-5204286D01*
X17484286Y-5200476D01*
X17493810Y-5200476D01*
X17508095Y-5204286D01*
X17565238Y-5250000D01*
X17565238Y-5200476D01*
X17574762Y-5185238D02*
X17574762Y-5124286D01*
X17565238Y-5105238D02*
X17465238Y-5105238D01*
X17465238Y-5086191D01*
X17470000Y-5074762D01*
X17479524Y-5067143D01*
X17489048Y-5063333D01*
X17508095Y-5059524D01*
X17522381Y-5059524D01*
X17541429Y-5063333D01*
X17550952Y-5067143D01*
X17560476Y-5074762D01*
X17565238Y-5086191D01*
X17565238Y-5105238D01*
X17565238Y-4983333D02*
X17565238Y-5029048D01*
X17565238Y-5006191D02*
X17465238Y-5006191D01*
X17479524Y-5013810D01*
X17489048Y-5021429D01*
X17493810Y-5029048D01*
X17465238Y-4956667D02*
X17465238Y-4907143D01*
X17503333Y-4933810D01*
X17503333Y-4922381D01*
X17508095Y-4914762D01*
X17512857Y-4910952D01*
X17522381Y-4907143D01*
X17546191Y-4907143D01*
X17555714Y-4910952D01*
X17560476Y-4914762D01*
X17565238Y-4922381D01*
X17565238Y-4945238D01*
X17560476Y-4952857D01*
X17555714Y-4956667D01*
X17565238Y-4827143D02*
X17517619Y-4853810D01*
X17565238Y-4872857D02*
X17465238Y-4872857D01*
X17465238Y-4842381D01*
X17470000Y-4834762D01*
X17474762Y-4830952D01*
X17484286Y-4827143D01*
X17498571Y-4827143D01*
X17508095Y-4830952D01*
X17512857Y-4834762D01*
X17517619Y-4842381D01*
X17517619Y-4872857D01*
X17560476Y-4796667D02*
X17565238Y-4789048D01*
X17565238Y-4773810D01*
X17560476Y-4766190D01*
X17550952Y-4762381D01*
X17546191Y-4762381D01*
X17536667Y-4766190D01*
X17531905Y-4773810D01*
X17531905Y-4785238D01*
X17527143Y-4792857D01*
X17517619Y-4796667D01*
X17512857Y-4796667D01*
X17503333Y-4792857D01*
X17498571Y-4785238D01*
X17498571Y-4773810D01*
X17503333Y-4766190D01*
X17498571Y-4739524D02*
X17498571Y-4709048D01*
X17465238Y-4728095D02*
X17550952Y-4728095D01*
X17560476Y-4724286D01*
X17565238Y-4716667D01*
X17565238Y-4709048D01*
X17574762Y-4701429D02*
X17574762Y-4640476D01*
X17465238Y-4583333D02*
X17465238Y-4621429D01*
X17512857Y-4625238D01*
X17508095Y-4621429D01*
X17503333Y-4613809D01*
X17503333Y-4594762D01*
X17508095Y-4587143D01*
X17512857Y-4583333D01*
X17522381Y-4579524D01*
X17546191Y-4579524D01*
X17555714Y-4583333D01*
X17560476Y-4587143D01*
X17565238Y-4594762D01*
X17565238Y-4613809D01*
X17560476Y-4621429D01*
X17555714Y-4625238D01*
X17465238Y-4556667D02*
X17565238Y-4530000D01*
X17465238Y-4503333D01*
X17574762Y-4495714D02*
X17574762Y-4434762D01*
X17470000Y-4373809D02*
X17465238Y-4381429D01*
X17465238Y-4392857D01*
X17470000Y-4404286D01*
X17479524Y-4411905D01*
X17489048Y-4415714D01*
X17508095Y-4419524D01*
X17522381Y-4419524D01*
X17541429Y-4415714D01*
X17550952Y-4411905D01*
X17560476Y-4404286D01*
X17565238Y-4392857D01*
X17565238Y-4385238D01*
X17560476Y-4373809D01*
X17555714Y-4370000D01*
X17522381Y-4370000D01*
X17522381Y-4385238D01*
X17498571Y-4335714D02*
X17565238Y-4335714D01*
X17508095Y-4335714D02*
X17503333Y-4331905D01*
X17498571Y-4324286D01*
X17498571Y-4312857D01*
X17503333Y-4305238D01*
X17512857Y-4301429D01*
X17565238Y-4301429D01*
X17565238Y-4229048D02*
X17465238Y-4229048D01*
X17560476Y-4229048D02*
X17565238Y-4236667D01*
X17565238Y-4251905D01*
X17560476Y-4259524D01*
X17555714Y-4263333D01*
X17546191Y-4267143D01*
X17517619Y-4267143D01*
X17508095Y-4263333D01*
X17503333Y-4259524D01*
X17498571Y-4251905D01*
X17498571Y-4236667D01*
X17503333Y-4229048D01*
X17565238Y-4149047D02*
X17565238Y-4194762D01*
X17565238Y-4171905D02*
X17465238Y-4171905D01*
X17479524Y-4179524D01*
X17489048Y-4187143D01*
X17493810Y-4194762D01*
X18823810Y-7445238D02*
X18776191Y-7445238D01*
X18776191Y-7345238D01*
X18857143Y-7407143D02*
X18933333Y-7407143D01*
X18980952Y-7445238D02*
X18980952Y-7345238D01*
X19004762Y-7345238D01*
X19019048Y-7350000D01*
X19028572Y-7359524D01*
X19033333Y-7369048D01*
X19038095Y-7388095D01*
X19038095Y-7402381D01*
X19033333Y-7421429D01*
X19028572Y-7430952D01*
X19019048Y-7440476D01*
X19004762Y-7445238D01*
X18980952Y-7445238D01*
X19133333Y-7445238D02*
X19076191Y-7445238D01*
X19104762Y-7445238D02*
X19104762Y-7345238D01*
X19095238Y-7359524D01*
X19085714Y-7369048D01*
X19076191Y-7373809D01*
X19166667Y-7345238D02*
X19228572Y-7345238D01*
X19195238Y-7383333D01*
X19209524Y-7383333D01*
X19219048Y-7388095D01*
X19223810Y-7392857D01*
X19228572Y-7402381D01*
X19228572Y-7426190D01*
X19223810Y-7435714D01*
X19219048Y-7440476D01*
X19209524Y-7445238D01*
X19180952Y-7445238D01*
X19171429Y-7440476D01*
X19166667Y-7435714D01*
X18778571Y-6635238D02*
X18778571Y-6535238D01*
X18816667Y-6535238D01*
X18826191Y-6540000D01*
X18830952Y-6544762D01*
X18835714Y-6554286D01*
X18835714Y-6568571D01*
X18830952Y-6578095D01*
X18826191Y-6582857D01*
X18816667Y-6587619D01*
X18778571Y-6587619D01*
X18892857Y-6635238D02*
X18883333Y-6630476D01*
X18878571Y-6625714D01*
X18873810Y-6616190D01*
X18873810Y-6587619D01*
X18878571Y-6578095D01*
X18883333Y-6573333D01*
X18892857Y-6568571D01*
X18907143Y-6568571D01*
X18916667Y-6573333D01*
X18921429Y-6578095D01*
X18926191Y-6587619D01*
X18926191Y-6616190D01*
X18921429Y-6625714D01*
X18916667Y-6630476D01*
X18907143Y-6635238D01*
X18892857Y-6635238D01*
X18959524Y-6568571D02*
X18978571Y-6635238D01*
X18997619Y-6587619D01*
X19016667Y-6635238D01*
X19035714Y-6568571D01*
X19126191Y-6635238D02*
X19069048Y-6635238D01*
X19097619Y-6635238D02*
X19097619Y-6535238D01*
X19088095Y-6549524D01*
X19078571Y-6559048D01*
X19069048Y-6563809D01*
X19620476Y-7471429D02*
X19625238Y-7457143D01*
X19625238Y-7433333D01*
X19620476Y-7423809D01*
X19615714Y-7419048D01*
X19606191Y-7414286D01*
X19596667Y-7414286D01*
X19587143Y-7419048D01*
X19582381Y-7423809D01*
X19577619Y-7433333D01*
X19572857Y-7452381D01*
X19568095Y-7461905D01*
X19563333Y-7466667D01*
X19553810Y-7471429D01*
X19544286Y-7471429D01*
X19534762Y-7466667D01*
X19530000Y-7461905D01*
X19525238Y-7452381D01*
X19525238Y-7428571D01*
X19530000Y-7414286D01*
X19558571Y-7385714D02*
X19558571Y-7347619D01*
X19525238Y-7371429D02*
X19610952Y-7371429D01*
X19620476Y-7366667D01*
X19625238Y-7357143D01*
X19625238Y-7347619D01*
X19625238Y-7271428D02*
X19572857Y-7271428D01*
X19563333Y-7276190D01*
X19558571Y-7285714D01*
X19558571Y-7304762D01*
X19563333Y-7314286D01*
X19620476Y-7271428D02*
X19625238Y-7280952D01*
X19625238Y-7304762D01*
X19620476Y-7314286D01*
X19610952Y-7319048D01*
X19601429Y-7319048D01*
X19591905Y-7314286D01*
X19587143Y-7304762D01*
X19587143Y-7280952D01*
X19582381Y-7271428D01*
X19558571Y-7238095D02*
X19558571Y-7200000D01*
X19525238Y-7223809D02*
X19610952Y-7223809D01*
X19620476Y-7219048D01*
X19625238Y-7209524D01*
X19625238Y-7200000D01*
X19620476Y-7128571D02*
X19625238Y-7138095D01*
X19625238Y-7157143D01*
X19620476Y-7166667D01*
X19610952Y-7171428D01*
X19572857Y-7171428D01*
X19563333Y-7166667D01*
X19558571Y-7157143D01*
X19558571Y-7138095D01*
X19563333Y-7128571D01*
X19572857Y-7123809D01*
X19582381Y-7123809D01*
X19591905Y-7171428D01*
X19625238Y-7028571D02*
X19625238Y-7085714D01*
X19625238Y-7057143D02*
X19525238Y-7057143D01*
X19539524Y-7066667D01*
X19549048Y-7076190D01*
X19553810Y-7085714D01*
X20645238Y-6866667D02*
X20545238Y-6866667D01*
X20592857Y-6866667D02*
X20592857Y-6809524D01*
X20645238Y-6809524D02*
X20545238Y-6809524D01*
X20635714Y-6704762D02*
X20640476Y-6709524D01*
X20645238Y-6723809D01*
X20645238Y-6733333D01*
X20640476Y-6747619D01*
X20630952Y-6757143D01*
X20621429Y-6761905D01*
X20602381Y-6766667D01*
X20588095Y-6766667D01*
X20569048Y-6761905D01*
X20559524Y-6757143D01*
X20550000Y-6747619D01*
X20545238Y-6733333D01*
X20545238Y-6723809D01*
X20550000Y-6709524D01*
X20554762Y-6704762D01*
X20545238Y-6642857D02*
X20545238Y-6633333D01*
X20550000Y-6623809D01*
X20554762Y-6619048D01*
X20564286Y-6614286D01*
X20583333Y-6609524D01*
X20607143Y-6609524D01*
X20626191Y-6614286D01*
X20635714Y-6619048D01*
X20640476Y-6623809D01*
X20645238Y-6633333D01*
X20645238Y-6642857D01*
X20640476Y-6652381D01*
X20635714Y-6657143D01*
X20626191Y-6661905D01*
X20607143Y-6666667D01*
X20583333Y-6666667D01*
X20564286Y-6661905D01*
X20554762Y-6657143D01*
X20550000Y-6652381D01*
X20545238Y-6642857D01*
X20545238Y-6519048D02*
X20545238Y-6566667D01*
X20592857Y-6571429D01*
X20588095Y-6566667D01*
X20583333Y-6557143D01*
X20583333Y-6533333D01*
X20588095Y-6523809D01*
X20592857Y-6519048D01*
X20602381Y-6514286D01*
X20626191Y-6514286D01*
X20635714Y-6519048D01*
X20640476Y-6523809D01*
X20645238Y-6533333D01*
X20645238Y-6557143D01*
X20640476Y-6566667D01*
X20635714Y-6571429D01*
X20607143Y-6471429D02*
X20607143Y-6395238D01*
X20545238Y-6328571D02*
X20545238Y-6319048D01*
X20550000Y-6309524D01*
X20554762Y-6304762D01*
X20564286Y-6300000D01*
X20583333Y-6295238D01*
X20607143Y-6295238D01*
X20626191Y-6300000D01*
X20635714Y-6304762D01*
X20640476Y-6309524D01*
X20645238Y-6319048D01*
X20645238Y-6328571D01*
X20640476Y-6338095D01*
X20635714Y-6342857D01*
X20626191Y-6347619D01*
X20607143Y-6352381D01*
X20583333Y-6352381D01*
X20564286Y-6347619D01*
X20554762Y-6342857D01*
X20550000Y-6338095D01*
X20545238Y-6328571D01*
X20545238Y-6209524D02*
X20545238Y-6228571D01*
X20550000Y-6238095D01*
X20554762Y-6242857D01*
X20569048Y-6252381D01*
X20588095Y-6257143D01*
X20626191Y-6257143D01*
X20635714Y-6252381D01*
X20640476Y-6247619D01*
X20645238Y-6238095D01*
X20645238Y-6219048D01*
X20640476Y-6209524D01*
X20635714Y-6204762D01*
X20626191Y-6200000D01*
X20602381Y-6200000D01*
X20592857Y-6204762D01*
X20588095Y-6209524D01*
X20583333Y-6219048D01*
X20583333Y-6238095D01*
X20588095Y-6247619D01*
X20592857Y-6252381D01*
X20602381Y-6257143D01*
X20592857Y-6123809D02*
X20597619Y-6109524D01*
X20602381Y-6104762D01*
X20611905Y-6100000D01*
X20626191Y-6100000D01*
X20635714Y-6104762D01*
X20640476Y-6109524D01*
X20645238Y-6119048D01*
X20645238Y-6157143D01*
X20545238Y-6157143D01*
X20545238Y-6123809D01*
X20550000Y-6114286D01*
X20554762Y-6109524D01*
X20564286Y-6104762D01*
X20573810Y-6104762D01*
X20583333Y-6109524D01*
X20588095Y-6114286D01*
X20592857Y-6123809D01*
X20592857Y-6157143D01*
X20545238Y-6071429D02*
X20545238Y-6014286D01*
X20645238Y-6042857D02*
X20545238Y-6042857D01*
X20645238Y-5928571D02*
X20645238Y-5985714D01*
X20645238Y-5957143D02*
X20545238Y-5957143D01*
X20559524Y-5966667D01*
X20569048Y-5976190D01*
X20573810Y-5985714D01*
X15150000Y-4070238D02*
X15116666Y-4022619D01*
X15092857Y-4070238D02*
X15092857Y-3970238D01*
X15130952Y-3970238D01*
X15140476Y-3975000D01*
X15145238Y-3979762D01*
X15150000Y-3989286D01*
X15150000Y-4003571D01*
X15145238Y-4013095D01*
X15140476Y-4017857D01*
X15130952Y-4022619D01*
X15092857Y-4022619D01*
X15188095Y-4065476D02*
X15197619Y-4070238D01*
X15216666Y-4070238D01*
X15226190Y-4065476D01*
X15230952Y-4055952D01*
X15230952Y-4051190D01*
X15226190Y-4041667D01*
X15216666Y-4036905D01*
X15202381Y-4036905D01*
X15192857Y-4032143D01*
X15188095Y-4022619D01*
X15188095Y-4017857D01*
X15192857Y-4008333D01*
X15202381Y-4003571D01*
X15216666Y-4003571D01*
X15226190Y-4008333D01*
X15259524Y-4003571D02*
X15297619Y-4003571D01*
X15273809Y-3970238D02*
X15273809Y-4055952D01*
X15278571Y-4065476D01*
X15288095Y-4070238D01*
X15297619Y-4070238D01*
X15307143Y-4079762D02*
X15383333Y-4079762D01*
X15392857Y-3970238D02*
X15450000Y-3970238D01*
X15421428Y-4070238D02*
X15421428Y-3970238D01*
X15473809Y-4070238D02*
X15526190Y-4003571D01*
X15473809Y-4003571D02*
X15526190Y-4070238D01*
X15540476Y-4079762D02*
X15616667Y-4079762D01*
X15697619Y-4070238D02*
X15664286Y-4022619D01*
X15640476Y-4070238D02*
X15640476Y-3970238D01*
X15678571Y-3970238D01*
X15688095Y-3975000D01*
X15692857Y-3979762D01*
X15697619Y-3989286D01*
X15697619Y-4003571D01*
X15692857Y-4013095D01*
X15688095Y-4017857D01*
X15678571Y-4022619D01*
X15640476Y-4022619D01*
X15730952Y-4070238D02*
X15783333Y-4003571D01*
X15730952Y-4003571D02*
X15783333Y-4070238D01*
X15797619Y-4079762D02*
X15873810Y-4079762D01*
X15945238Y-3970238D02*
X15897619Y-3970238D01*
X15892857Y-4017857D01*
X15897619Y-4013095D01*
X15907143Y-4008333D01*
X15930952Y-4008333D01*
X15940476Y-4013095D01*
X15945238Y-4017857D01*
X15950000Y-4027381D01*
X15950000Y-4051190D01*
X15945238Y-4060714D01*
X15940476Y-4065476D01*
X15930952Y-4070238D01*
X15907143Y-4070238D01*
X15897619Y-4065476D01*
X15892857Y-4060714D01*
X15978571Y-3970238D02*
X16011905Y-4070238D01*
X16045238Y-3970238D01*
X16054762Y-4079762D02*
X16130952Y-4079762D01*
X16154762Y-4032143D02*
X16230952Y-4032143D01*
X16254762Y-4079762D02*
X16330952Y-4079762D01*
X16407143Y-3975000D02*
X16397619Y-3970238D01*
X16383333Y-3970238D01*
X16369048Y-3975000D01*
X16359524Y-3984524D01*
X16354762Y-3994048D01*
X16350000Y-4013095D01*
X16350000Y-4027381D01*
X16354762Y-4046429D01*
X16359524Y-4055952D01*
X16369048Y-4065476D01*
X16383333Y-4070238D01*
X16392857Y-4070238D01*
X16407143Y-4065476D01*
X16411905Y-4060714D01*
X16411905Y-4027381D01*
X16392857Y-4027381D01*
X16454762Y-4070238D02*
X16454762Y-3970238D01*
X16511905Y-4070238D01*
X16511905Y-3970238D01*
X16559524Y-4070238D02*
X16559524Y-3970238D01*
X16583333Y-3970238D01*
X16597619Y-3975000D01*
X16607143Y-3984524D01*
X16611905Y-3994048D01*
X16616667Y-4013095D01*
X16616667Y-4027381D01*
X16611905Y-4046429D01*
X16607143Y-4055952D01*
X16597619Y-4065476D01*
X16583333Y-4070238D01*
X16559524Y-4070238D01*
X16711905Y-4070238D02*
X16654762Y-4070238D01*
X16683333Y-4070238D02*
X16683333Y-3970238D01*
X16673810Y-3984524D01*
X16664286Y-3994048D01*
X16654762Y-3998809D01*
X19533333Y-3745238D02*
X19557143Y-3845238D01*
X19576191Y-3773809D01*
X19595238Y-3845238D01*
X19619048Y-3745238D01*
X19700000Y-3845238D02*
X19700000Y-3792857D01*
X19695238Y-3783333D01*
X19685714Y-3778571D01*
X19666667Y-3778571D01*
X19657143Y-3783333D01*
X19700000Y-3840476D02*
X19690476Y-3845238D01*
X19666667Y-3845238D01*
X19657143Y-3840476D01*
X19652381Y-3830952D01*
X19652381Y-3821429D01*
X19657143Y-3811905D01*
X19666667Y-3807143D01*
X19690476Y-3807143D01*
X19700000Y-3802381D01*
X19747619Y-3845238D02*
X19747619Y-3745238D01*
X19757143Y-3807143D02*
X19785714Y-3845238D01*
X19785714Y-3778571D02*
X19747619Y-3816667D01*
X19866667Y-3840476D02*
X19857143Y-3845238D01*
X19838095Y-3845238D01*
X19828571Y-3840476D01*
X19823810Y-3830952D01*
X19823810Y-3792857D01*
X19828571Y-3783333D01*
X19838095Y-3778571D01*
X19857143Y-3778571D01*
X19866667Y-3783333D01*
X19871429Y-3792857D01*
X19871429Y-3802381D01*
X19823810Y-3811905D01*
X19914286Y-3745238D02*
X19914286Y-3826190D01*
X19919048Y-3835714D01*
X19923810Y-3840476D01*
X19933333Y-3845238D01*
X19952381Y-3845238D01*
X19961905Y-3840476D01*
X19966667Y-3835714D01*
X19971429Y-3826190D01*
X19971429Y-3745238D01*
X20019048Y-3778571D02*
X20019048Y-3878571D01*
X20019048Y-3783333D02*
X20028571Y-3778571D01*
X20047619Y-3778571D01*
X20057143Y-3783333D01*
X20061905Y-3788095D01*
X20066667Y-3797619D01*
X20066667Y-3826190D01*
X20061905Y-3835714D01*
X20057143Y-3840476D01*
X20047619Y-3845238D01*
X20028571Y-3845238D01*
X20019048Y-3840476D01*
X20161905Y-3845238D02*
X20104762Y-3845238D01*
X20133333Y-3845238D02*
X20133333Y-3745238D01*
X20123810Y-3759524D01*
X20114286Y-3769048D01*
X20104762Y-3773809D01*
X16845238Y-3709524D02*
X16845238Y-3728571D01*
X16850000Y-3738095D01*
X16854762Y-3742857D01*
X16869048Y-3752381D01*
X16888095Y-3757143D01*
X16926191Y-3757143D01*
X16935714Y-3752381D01*
X16940476Y-3747619D01*
X16945238Y-3738095D01*
X16945238Y-3719047D01*
X16940476Y-3709524D01*
X16935714Y-3704762D01*
X16926191Y-3700000D01*
X16902381Y-3700000D01*
X16892857Y-3704762D01*
X16888095Y-3709524D01*
X16883333Y-3719047D01*
X16883333Y-3738095D01*
X16888095Y-3747619D01*
X16892857Y-3752381D01*
X16902381Y-3757143D01*
X16845238Y-3671428D02*
X16945238Y-3638095D01*
X16845238Y-3604762D01*
X16907143Y-3571428D02*
X16907143Y-3495238D01*
X16945238Y-3447619D02*
X16845238Y-3447619D01*
X16945238Y-3400000D02*
X16845238Y-3400000D01*
X16945238Y-3342857D01*
X16845238Y-3342857D01*
X16945238Y-3242857D02*
X16945238Y-3300000D01*
X16945238Y-3271429D02*
X16845238Y-3271429D01*
X16859524Y-3280952D01*
X16869048Y-3290476D01*
X16873810Y-3300000D01*
X18713810Y-2585238D02*
X18713810Y-2666191D01*
X18718571Y-2675714D01*
X18723333Y-2680476D01*
X18732857Y-2685238D01*
X18751905Y-2685238D01*
X18761429Y-2680476D01*
X18766191Y-2675714D01*
X18770952Y-2666191D01*
X18770952Y-2585238D01*
X18861429Y-2618571D02*
X18861429Y-2685238D01*
X18837619Y-2580476D02*
X18813810Y-2651905D01*
X18875714Y-2651905D01*
X17613095Y-2814238D02*
X17622619Y-2814238D01*
X17632143Y-2819000D01*
X17636905Y-2823762D01*
X17641667Y-2833286D01*
X17646429Y-2852333D01*
X17646429Y-2876143D01*
X17641667Y-2895190D01*
X17636905Y-2904714D01*
X17632143Y-2909476D01*
X17622619Y-2914238D01*
X17613095Y-2914238D01*
X17603571Y-2909476D01*
X17598810Y-2904714D01*
X17594048Y-2895190D01*
X17589286Y-2876143D01*
X17589286Y-2852333D01*
X17594048Y-2833286D01*
X17598810Y-2823762D01*
X17603571Y-2819000D01*
X17613095Y-2814238D01*
X17689286Y-2904714D02*
X17694048Y-2909476D01*
X17689286Y-2914238D01*
X17684524Y-2909476D01*
X17689286Y-2904714D01*
X17689286Y-2914238D01*
X17789286Y-2914238D02*
X17732143Y-2914238D01*
X17760714Y-2914238D02*
X17760714Y-2814238D01*
X17751190Y-2828524D01*
X17741667Y-2838048D01*
X17732143Y-2842809D01*
X17875000Y-2847571D02*
X17875000Y-2914238D01*
X17832143Y-2847571D02*
X17832143Y-2899952D01*
X17836905Y-2909476D01*
X17846429Y-2914238D01*
X17860714Y-2914238D01*
X17870238Y-2909476D01*
X17875000Y-2904714D01*
X17955952Y-2861857D02*
X17922619Y-2861857D01*
X17922619Y-2914238D02*
X17922619Y-2814238D01*
X17970238Y-2814238D01*
X18060714Y-2914238D02*
X18003571Y-2914238D01*
X18032143Y-2914238D02*
X18032143Y-2814238D01*
X18022619Y-2828524D01*
X18013095Y-2838048D01*
X18003571Y-2842809D01*
X16428095Y-4175238D02*
X16437619Y-4175238D01*
X16447143Y-4180000D01*
X16451905Y-4184762D01*
X16456667Y-4194286D01*
X16461429Y-4213333D01*
X16461429Y-4237143D01*
X16456667Y-4256191D01*
X16451905Y-4265714D01*
X16447143Y-4270476D01*
X16437619Y-4275238D01*
X16428095Y-4275238D01*
X16418571Y-4270476D01*
X16413809Y-4265714D01*
X16409048Y-4256191D01*
X16404286Y-4237143D01*
X16404286Y-4213333D01*
X16409048Y-4194286D01*
X16413809Y-4184762D01*
X16418571Y-4180000D01*
X16428095Y-4175238D01*
X16504286Y-4265714D02*
X16509048Y-4270476D01*
X16504286Y-4275238D01*
X16499524Y-4270476D01*
X16504286Y-4265714D01*
X16504286Y-4275238D01*
X16604286Y-4275238D02*
X16547143Y-4275238D01*
X16575714Y-4275238D02*
X16575714Y-4175238D01*
X16566190Y-4189524D01*
X16556667Y-4199048D01*
X16547143Y-4203810D01*
X16690000Y-4208571D02*
X16690000Y-4275238D01*
X16647143Y-4208571D02*
X16647143Y-4260952D01*
X16651905Y-4270476D01*
X16661428Y-4275238D01*
X16675714Y-4275238D01*
X16685238Y-4270476D01*
X16690000Y-4265714D01*
X16770952Y-4222857D02*
X16737619Y-4222857D01*
X16737619Y-4275238D02*
X16737619Y-4175238D01*
X16785238Y-4175238D01*
X16818571Y-4184762D02*
X16823333Y-4180000D01*
X16832857Y-4175238D01*
X16856667Y-4175238D01*
X16866191Y-4180000D01*
X16870952Y-4184762D01*
X16875714Y-4194286D01*
X16875714Y-4203810D01*
X16870952Y-4218095D01*
X16813810Y-4275238D01*
X16875714Y-4275238D01*
X16545238Y-3011905D02*
X16545238Y-3002381D01*
X16550000Y-2992857D01*
X16554762Y-2988095D01*
X16564286Y-2983333D01*
X16583333Y-2978571D01*
X16607143Y-2978571D01*
X16626190Y-2983333D01*
X16635714Y-2988095D01*
X16640476Y-2992857D01*
X16645238Y-3002381D01*
X16645238Y-3011905D01*
X16640476Y-3021429D01*
X16635714Y-3026190D01*
X16626190Y-3030952D01*
X16607143Y-3035714D01*
X16583333Y-3035714D01*
X16564286Y-3030952D01*
X16554762Y-3026190D01*
X16550000Y-3021429D01*
X16545238Y-3011905D01*
X16635714Y-2935714D02*
X16640476Y-2930952D01*
X16645238Y-2935714D01*
X16640476Y-2940476D01*
X16635714Y-2935714D01*
X16645238Y-2935714D01*
X16645238Y-2835714D02*
X16645238Y-2892857D01*
X16645238Y-2864286D02*
X16545238Y-2864286D01*
X16559524Y-2873810D01*
X16569048Y-2883333D01*
X16573809Y-2892857D01*
X16578571Y-2750000D02*
X16645238Y-2750000D01*
X16578571Y-2792857D02*
X16630952Y-2792857D01*
X16640476Y-2788095D01*
X16645238Y-2778572D01*
X16645238Y-2764286D01*
X16640476Y-2754762D01*
X16635714Y-2750000D01*
X16592857Y-2669048D02*
X16592857Y-2702381D01*
X16645238Y-2702381D02*
X16545238Y-2702381D01*
X16545238Y-2654762D01*
X16545238Y-2626191D02*
X16545238Y-2564286D01*
X16583333Y-2597619D01*
X16583333Y-2583333D01*
X16588095Y-2573810D01*
X16592857Y-2569048D01*
X16602381Y-2564286D01*
X16626190Y-2564286D01*
X16635714Y-2569048D01*
X16640476Y-2573810D01*
X16645238Y-2583333D01*
X16645238Y-2611905D01*
X16640476Y-2621429D01*
X16635714Y-2626191D01*
X15153095Y-3174238D02*
X15162619Y-3174238D01*
X15172143Y-3179000D01*
X15176905Y-3183762D01*
X15181667Y-3193286D01*
X15186429Y-3212333D01*
X15186429Y-3236143D01*
X15181667Y-3255190D01*
X15176905Y-3264714D01*
X15172143Y-3269476D01*
X15162619Y-3274238D01*
X15153095Y-3274238D01*
X15143571Y-3269476D01*
X15138809Y-3264714D01*
X15134048Y-3255190D01*
X15129286Y-3236143D01*
X15129286Y-3212333D01*
X15134048Y-3193286D01*
X15138809Y-3183762D01*
X15143571Y-3179000D01*
X15153095Y-3174238D01*
X15229286Y-3264714D02*
X15234048Y-3269476D01*
X15229286Y-3274238D01*
X15224524Y-3269476D01*
X15229286Y-3264714D01*
X15229286Y-3274238D01*
X15329286Y-3274238D02*
X15272143Y-3274238D01*
X15300714Y-3274238D02*
X15300714Y-3174238D01*
X15291190Y-3188524D01*
X15281667Y-3198048D01*
X15272143Y-3202809D01*
X15415000Y-3207571D02*
X15415000Y-3274238D01*
X15372143Y-3207571D02*
X15372143Y-3259952D01*
X15376905Y-3269476D01*
X15386428Y-3274238D01*
X15400714Y-3274238D01*
X15410238Y-3269476D01*
X15415000Y-3264714D01*
X15495952Y-3221857D02*
X15462619Y-3221857D01*
X15462619Y-3274238D02*
X15462619Y-3174238D01*
X15510238Y-3174238D01*
X15595952Y-3174238D02*
X15548333Y-3174238D01*
X15543571Y-3221857D01*
X15548333Y-3217095D01*
X15557857Y-3212333D01*
X15581667Y-3212333D01*
X15591190Y-3217095D01*
X15595952Y-3221857D01*
X15600714Y-3231381D01*
X15600714Y-3255190D01*
X15595952Y-3264714D01*
X15591190Y-3269476D01*
X15581667Y-3274238D01*
X15557857Y-3274238D01*
X15548333Y-3269476D01*
X15543571Y-3264714D01*
X14863095Y-4601238D02*
X14872619Y-4601238D01*
X14882143Y-4606000D01*
X14886905Y-4610762D01*
X14891667Y-4620286D01*
X14896429Y-4639333D01*
X14896429Y-4663143D01*
X14891667Y-4682191D01*
X14886905Y-4691714D01*
X14882143Y-4696476D01*
X14872619Y-4701238D01*
X14863095Y-4701238D01*
X14853571Y-4696476D01*
X14848809Y-4691714D01*
X14844048Y-4682191D01*
X14839286Y-4663143D01*
X14839286Y-4639333D01*
X14844048Y-4620286D01*
X14848809Y-4610762D01*
X14853571Y-4606000D01*
X14863095Y-4601238D01*
X14939286Y-4691714D02*
X14944048Y-4696476D01*
X14939286Y-4701238D01*
X14934524Y-4696476D01*
X14939286Y-4691714D01*
X14939286Y-4701238D01*
X15039286Y-4701238D02*
X14982143Y-4701238D01*
X15010714Y-4701238D02*
X15010714Y-4601238D01*
X15001190Y-4615524D01*
X14991667Y-4625048D01*
X14982143Y-4629810D01*
X15125000Y-4634571D02*
X15125000Y-4701238D01*
X15082143Y-4634571D02*
X15082143Y-4686952D01*
X15086905Y-4696476D01*
X15096428Y-4701238D01*
X15110714Y-4701238D01*
X15120238Y-4696476D01*
X15125000Y-4691714D01*
X15205952Y-4648857D02*
X15172619Y-4648857D01*
X15172619Y-4701238D02*
X15172619Y-4601238D01*
X15220238Y-4601238D01*
X15301190Y-4601238D02*
X15282143Y-4601238D01*
X15272619Y-4606000D01*
X15267857Y-4610762D01*
X15258333Y-4625048D01*
X15253571Y-4644095D01*
X15253571Y-4682191D01*
X15258333Y-4691714D01*
X15263095Y-4696476D01*
X15272619Y-4701238D01*
X15291667Y-4701238D01*
X15301190Y-4696476D01*
X15305952Y-4691714D01*
X15310714Y-4682191D01*
X15310714Y-4658381D01*
X15305952Y-4648857D01*
X15301190Y-4644095D01*
X15291667Y-4639333D01*
X15272619Y-4639333D01*
X15263095Y-4644095D01*
X15258333Y-4648857D01*
X15253571Y-4658381D01*
X20263476Y-3631238D02*
X20206333Y-3631238D01*
X20234905Y-3631238D02*
X20234905Y-3531238D01*
X20225381Y-3545524D01*
X20215857Y-3555048D01*
X20206333Y-3559809D01*
X20306333Y-3631238D02*
X20306333Y-3531238D01*
X20315857Y-3593143D02*
X20344429Y-3631238D01*
X20344429Y-3564571D02*
X20306333Y-3602667D01*
X20439667Y-3631238D02*
X20382524Y-3631238D01*
X20411095Y-3631238D02*
X20411095Y-3531238D01*
X20401571Y-3545524D01*
X20392048Y-3555048D01*
X20382524Y-3559809D01*
X20263476Y-4431238D02*
X20206333Y-4431238D01*
X20234905Y-4431238D02*
X20234905Y-4331238D01*
X20225381Y-4345524D01*
X20215857Y-4355048D01*
X20206333Y-4359810D01*
X20306333Y-4431238D02*
X20306333Y-4331238D01*
X20315857Y-4393143D02*
X20344429Y-4431238D01*
X20344429Y-4364571D02*
X20306333Y-4402667D01*
X20382524Y-4340762D02*
X20387286Y-4336000D01*
X20396810Y-4331238D01*
X20420619Y-4331238D01*
X20430143Y-4336000D01*
X20434905Y-4340762D01*
X20439667Y-4350286D01*
X20439667Y-4359810D01*
X20434905Y-4374095D01*
X20377762Y-4431238D01*
X20439667Y-4431238D01*
X16020476Y-4385238D02*
X15963333Y-4385238D01*
X15991905Y-4385238D02*
X15991905Y-4285238D01*
X15982381Y-4299524D01*
X15972857Y-4309048D01*
X15963333Y-4313810D01*
X16063333Y-4385238D02*
X16063333Y-4285238D01*
X16072857Y-4347143D02*
X16101429Y-4385238D01*
X16101429Y-4318571D02*
X16063333Y-4356667D01*
X16134762Y-4285238D02*
X16196667Y-4285238D01*
X16163333Y-4323333D01*
X16177619Y-4323333D01*
X16187143Y-4328095D01*
X16191905Y-4332857D01*
X16196667Y-4342381D01*
X16196667Y-4366191D01*
X16191905Y-4375714D01*
X16187143Y-4380476D01*
X16177619Y-4385238D01*
X16149048Y-4385238D01*
X16139524Y-4380476D01*
X16134762Y-4375714D01*
X19265238Y-6429524D02*
X19265238Y-6486667D01*
X19265238Y-6458095D02*
X19165238Y-6458095D01*
X19179524Y-6467619D01*
X19189048Y-6477143D01*
X19193810Y-6486667D01*
X19265238Y-6386667D02*
X19165238Y-6386667D01*
X19227143Y-6377143D02*
X19265238Y-6348571D01*
X19198571Y-6348571D02*
X19236667Y-6386667D01*
X19198571Y-6262857D02*
X19265238Y-6262857D01*
X19160476Y-6286667D02*
X19231905Y-6310476D01*
X19231905Y-6248571D01*
X18165238Y-7289524D02*
X18165238Y-7346667D01*
X18165238Y-7318095D02*
X18065238Y-7318095D01*
X18079524Y-7327619D01*
X18089048Y-7337143D01*
X18093810Y-7346667D01*
X18165238Y-7246667D02*
X18065238Y-7246667D01*
X18127143Y-7237143D02*
X18165238Y-7208571D01*
X18098571Y-7208571D02*
X18136667Y-7246667D01*
X18065238Y-7118095D02*
X18065238Y-7165714D01*
X18112857Y-7170476D01*
X18108095Y-7165714D01*
X18103333Y-7156190D01*
X18103333Y-7132381D01*
X18108095Y-7122857D01*
X18112857Y-7118095D01*
X18122381Y-7113333D01*
X18146191Y-7113333D01*
X18155714Y-7118095D01*
X18160476Y-7122857D01*
X18165238Y-7132381D01*
X18165238Y-7156190D01*
X18160476Y-7165714D01*
X18155714Y-7170476D01*
X15560476Y-4385238D02*
X15503333Y-4385238D01*
X15531905Y-4385238D02*
X15531905Y-4285238D01*
X15522381Y-4299524D01*
X15512857Y-4309048D01*
X15503333Y-4313810D01*
X15603333Y-4385238D02*
X15603333Y-4285238D01*
X15612857Y-4347143D02*
X15641429Y-4385238D01*
X15641429Y-4318571D02*
X15603333Y-4356667D01*
X15727143Y-4285238D02*
X15708095Y-4285238D01*
X15698571Y-4290000D01*
X15693809Y-4294762D01*
X15684286Y-4309048D01*
X15679524Y-4328095D01*
X15679524Y-4366191D01*
X15684286Y-4375714D01*
X15689048Y-4380476D01*
X15698571Y-4385238D01*
X15717619Y-4385238D01*
X15727143Y-4380476D01*
X15731905Y-4375714D01*
X15736667Y-4366191D01*
X15736667Y-4342381D01*
X15731905Y-4332857D01*
X15727143Y-4328095D01*
X15717619Y-4323333D01*
X15698571Y-4323333D01*
X15689048Y-4328095D01*
X15684286Y-4332857D01*
X15679524Y-4342381D01*
X19570476Y-6545238D02*
X19513333Y-6545238D01*
X19541905Y-6545238D02*
X19541905Y-6445238D01*
X19532381Y-6459524D01*
X19522857Y-6469048D01*
X19513333Y-6473809D01*
X19613333Y-6545238D02*
X19613333Y-6445238D01*
X19622857Y-6507143D02*
X19651429Y-6545238D01*
X19651429Y-6478571D02*
X19613333Y-6516667D01*
X19684762Y-6445238D02*
X19751429Y-6445238D01*
X19708571Y-6545238D01*
X17001905Y-3554762D02*
X17006667Y-3550000D01*
X17016191Y-3545238D01*
X17040000Y-3545238D01*
X17049524Y-3550000D01*
X17054286Y-3554762D01*
X17059048Y-3564286D01*
X17059048Y-3573809D01*
X17054286Y-3588095D01*
X16997143Y-3645238D01*
X17059048Y-3645238D01*
X17101905Y-3635714D02*
X17106667Y-3640476D01*
X17101905Y-3645238D01*
X17097143Y-3640476D01*
X17101905Y-3635714D01*
X17101905Y-3645238D01*
X17144762Y-3554762D02*
X17149524Y-3550000D01*
X17159048Y-3545238D01*
X17182857Y-3545238D01*
X17192381Y-3550000D01*
X17197143Y-3554762D01*
X17201905Y-3564286D01*
X17201905Y-3573809D01*
X17197143Y-3588095D01*
X17140000Y-3645238D01*
X17201905Y-3645238D01*
X17244762Y-3645238D02*
X17244762Y-3545238D01*
X17254286Y-3607143D02*
X17282857Y-3645238D01*
X17282857Y-3578571D02*
X17244762Y-3616667D01*
X17378095Y-3645238D02*
X17320952Y-3645238D01*
X17349524Y-3645238D02*
X17349524Y-3545238D01*
X17340000Y-3559524D01*
X17330476Y-3569048D01*
X17320952Y-3573809D01*
X13604762Y-6458095D02*
X13600000Y-6453333D01*
X13595238Y-6443809D01*
X13595238Y-6420000D01*
X13600000Y-6410476D01*
X13604762Y-6405714D01*
X13614286Y-6400952D01*
X13623809Y-6400952D01*
X13638095Y-6405714D01*
X13695238Y-6462857D01*
X13695238Y-6400952D01*
X13685714Y-6358095D02*
X13690476Y-6353333D01*
X13695238Y-6358095D01*
X13690476Y-6362857D01*
X13685714Y-6358095D01*
X13695238Y-6358095D01*
X13604762Y-6315238D02*
X13600000Y-6310476D01*
X13595238Y-6300952D01*
X13595238Y-6277143D01*
X13600000Y-6267619D01*
X13604762Y-6262857D01*
X13614286Y-6258095D01*
X13623809Y-6258095D01*
X13638095Y-6262857D01*
X13695238Y-6320000D01*
X13695238Y-6258095D01*
X13695238Y-6215238D02*
X13595238Y-6215238D01*
X13657143Y-6205714D02*
X13695238Y-6177143D01*
X13628571Y-6177143D02*
X13666667Y-6215238D01*
X13604762Y-6139048D02*
X13600000Y-6134286D01*
X13595238Y-6124762D01*
X13595238Y-6100952D01*
X13600000Y-6091428D01*
X13604762Y-6086667D01*
X13614286Y-6081905D01*
X13623809Y-6081905D01*
X13638095Y-6086667D01*
X13695238Y-6143809D01*
X13695238Y-6081905D01*
X13940762Y-6415095D02*
X13936000Y-6410333D01*
X13931238Y-6400809D01*
X13931238Y-6377000D01*
X13936000Y-6367476D01*
X13940762Y-6362714D01*
X13950286Y-6357952D01*
X13959809Y-6357952D01*
X13974095Y-6362714D01*
X14031238Y-6419857D01*
X14031238Y-6357952D01*
X14021714Y-6315095D02*
X14026476Y-6310333D01*
X14031238Y-6315095D01*
X14026476Y-6319857D01*
X14021714Y-6315095D01*
X14031238Y-6315095D01*
X13940762Y-6272238D02*
X13936000Y-6267476D01*
X13931238Y-6257952D01*
X13931238Y-6234143D01*
X13936000Y-6224619D01*
X13940762Y-6219857D01*
X13950286Y-6215095D01*
X13959809Y-6215095D01*
X13974095Y-6219857D01*
X14031238Y-6277000D01*
X14031238Y-6215095D01*
X14031238Y-6172238D02*
X13931238Y-6172238D01*
X13993143Y-6162714D02*
X14031238Y-6134143D01*
X13964571Y-6134143D02*
X14002667Y-6172238D01*
X13931238Y-6100809D02*
X13931238Y-6038905D01*
X13969333Y-6072238D01*
X13969333Y-6057952D01*
X13974095Y-6048428D01*
X13978857Y-6043667D01*
X13988381Y-6038905D01*
X14012190Y-6038905D01*
X14021714Y-6043667D01*
X14026476Y-6048428D01*
X14031238Y-6057952D01*
X14031238Y-6086524D01*
X14026476Y-6096048D01*
X14021714Y-6100809D01*
X14424762Y-4068095D02*
X14420000Y-4063333D01*
X14415238Y-4053809D01*
X14415238Y-4030000D01*
X14420000Y-4020476D01*
X14424762Y-4015714D01*
X14434286Y-4010952D01*
X14443809Y-4010952D01*
X14458095Y-4015714D01*
X14515238Y-4072857D01*
X14515238Y-4010952D01*
X14505714Y-3968095D02*
X14510476Y-3963333D01*
X14515238Y-3968095D01*
X14510476Y-3972857D01*
X14505714Y-3968095D01*
X14515238Y-3968095D01*
X14424762Y-3925238D02*
X14420000Y-3920476D01*
X14415238Y-3910952D01*
X14415238Y-3887143D01*
X14420000Y-3877619D01*
X14424762Y-3872857D01*
X14434286Y-3868095D01*
X14443809Y-3868095D01*
X14458095Y-3872857D01*
X14515238Y-3930000D01*
X14515238Y-3868095D01*
X14515238Y-3825238D02*
X14415238Y-3825238D01*
X14477143Y-3815714D02*
X14515238Y-3787143D01*
X14448571Y-3787143D02*
X14486667Y-3825238D01*
X14448571Y-3701428D02*
X14515238Y-3701428D01*
X14410476Y-3725238D02*
X14481905Y-3749048D01*
X14481905Y-3687143D01*
X13828762Y-4061095D02*
X13824000Y-4056333D01*
X13819238Y-4046809D01*
X13819238Y-4023000D01*
X13824000Y-4013476D01*
X13828762Y-4008714D01*
X13838286Y-4003952D01*
X13847809Y-4003952D01*
X13862095Y-4008714D01*
X13919238Y-4065857D01*
X13919238Y-4003952D01*
X13909714Y-3961095D02*
X13914476Y-3956333D01*
X13919238Y-3961095D01*
X13914476Y-3965857D01*
X13909714Y-3961095D01*
X13919238Y-3961095D01*
X13828762Y-3918238D02*
X13824000Y-3913476D01*
X13819238Y-3903952D01*
X13819238Y-3880143D01*
X13824000Y-3870619D01*
X13828762Y-3865857D01*
X13838286Y-3861095D01*
X13847809Y-3861095D01*
X13862095Y-3865857D01*
X13919238Y-3923000D01*
X13919238Y-3861095D01*
X13919238Y-3818238D02*
X13819238Y-3818238D01*
X13881143Y-3808714D02*
X13919238Y-3780143D01*
X13852571Y-3780143D02*
X13890667Y-3818238D01*
X13819238Y-3689667D02*
X13819238Y-3737286D01*
X13866857Y-3742048D01*
X13862095Y-3737286D01*
X13857333Y-3727762D01*
X13857333Y-3703952D01*
X13862095Y-3694428D01*
X13866857Y-3689667D01*
X13876381Y-3684905D01*
X13900190Y-3684905D01*
X13909714Y-3689667D01*
X13914476Y-3694428D01*
X13919238Y-3703952D01*
X13919238Y-3727762D01*
X13914476Y-3737286D01*
X13909714Y-3742048D01*
X17017143Y-3335238D02*
X17079048Y-3335238D01*
X17045714Y-3373333D01*
X17060000Y-3373333D01*
X17069524Y-3378095D01*
X17074286Y-3382857D01*
X17079048Y-3392381D01*
X17079048Y-3416190D01*
X17074286Y-3425714D01*
X17069524Y-3430476D01*
X17060000Y-3435238D01*
X17031429Y-3435238D01*
X17021905Y-3430476D01*
X17017143Y-3425714D01*
X17121905Y-3425714D02*
X17126667Y-3430476D01*
X17121905Y-3435238D01*
X17117143Y-3430476D01*
X17121905Y-3425714D01*
X17121905Y-3435238D01*
X17160000Y-3335238D02*
X17221905Y-3335238D01*
X17188571Y-3373333D01*
X17202857Y-3373333D01*
X17212381Y-3378095D01*
X17217143Y-3382857D01*
X17221905Y-3392381D01*
X17221905Y-3416190D01*
X17217143Y-3425714D01*
X17212381Y-3430476D01*
X17202857Y-3435238D01*
X17174286Y-3435238D01*
X17164762Y-3430476D01*
X17160000Y-3425714D01*
X17264762Y-3435238D02*
X17264762Y-3335238D01*
X17274286Y-3397143D02*
X17302857Y-3435238D01*
X17302857Y-3368571D02*
X17264762Y-3406667D01*
X17398095Y-3435238D02*
X17340952Y-3435238D01*
X17369524Y-3435238D02*
X17369524Y-3335238D01*
X17360000Y-3349524D01*
X17350476Y-3359048D01*
X17340952Y-3363809D01*
X17272857Y-2995238D02*
X17215714Y-2995238D01*
X17244286Y-2995238D02*
X17244286Y-2895238D01*
X17234762Y-2909524D01*
X17225238Y-2919048D01*
X17215714Y-2923809D01*
X17334762Y-2895238D02*
X17344286Y-2895238D01*
X17353810Y-2900000D01*
X17358572Y-2904762D01*
X17363333Y-2914286D01*
X17368095Y-2933333D01*
X17368095Y-2957143D01*
X17363333Y-2976190D01*
X17358572Y-2985714D01*
X17353810Y-2990476D01*
X17344286Y-2995238D01*
X17334762Y-2995238D01*
X17325238Y-2990476D01*
X17320476Y-2985714D01*
X17315714Y-2976190D01*
X17310952Y-2957143D01*
X17310952Y-2933333D01*
X17315714Y-2914286D01*
X17320476Y-2904762D01*
X17325238Y-2900000D01*
X17334762Y-2895238D01*
X17410952Y-2995238D02*
X17410952Y-2895238D01*
X17420476Y-2957143D02*
X17449048Y-2995238D01*
X17449048Y-2928571D02*
X17410952Y-2966667D01*
X17544286Y-2995238D02*
X17487143Y-2995238D01*
X17515714Y-2995238D02*
X17515714Y-2895238D01*
X17506191Y-2909524D01*
X17496667Y-2919048D01*
X17487143Y-2923809D01*
X14472857Y-3525238D02*
X14415714Y-3525238D01*
X14444286Y-3525238D02*
X14444286Y-3425238D01*
X14434762Y-3439524D01*
X14425238Y-3449048D01*
X14415714Y-3453809D01*
X14534762Y-3425238D02*
X14544286Y-3425238D01*
X14553810Y-3430000D01*
X14558571Y-3434762D01*
X14563333Y-3444286D01*
X14568095Y-3463333D01*
X14568095Y-3487143D01*
X14563333Y-3506190D01*
X14558571Y-3515714D01*
X14553810Y-3520476D01*
X14544286Y-3525238D01*
X14534762Y-3525238D01*
X14525238Y-3520476D01*
X14520476Y-3515714D01*
X14515714Y-3506190D01*
X14510952Y-3487143D01*
X14510952Y-3463333D01*
X14515714Y-3444286D01*
X14520476Y-3434762D01*
X14525238Y-3430000D01*
X14534762Y-3425238D01*
X14610952Y-3525238D02*
X14610952Y-3425238D01*
X14620476Y-3487143D02*
X14649048Y-3525238D01*
X14649048Y-3458571D02*
X14610952Y-3496667D01*
X14687143Y-3434762D02*
X14691905Y-3430000D01*
X14701429Y-3425238D01*
X14725238Y-3425238D01*
X14734762Y-3430000D01*
X14739524Y-3434762D01*
X14744286Y-3444286D01*
X14744286Y-3453809D01*
X14739524Y-3468095D01*
X14682381Y-3525238D01*
X14744286Y-3525238D01*
X17292857Y-2685238D02*
X17235714Y-2685238D01*
X17264286Y-2685238D02*
X17264286Y-2585238D01*
X17254762Y-2599524D01*
X17245238Y-2609048D01*
X17235714Y-2613810D01*
X17354762Y-2585238D02*
X17364286Y-2585238D01*
X17373810Y-2590000D01*
X17378572Y-2594762D01*
X17383333Y-2604286D01*
X17388095Y-2623333D01*
X17388095Y-2647143D01*
X17383333Y-2666191D01*
X17378572Y-2675714D01*
X17373810Y-2680476D01*
X17364286Y-2685238D01*
X17354762Y-2685238D01*
X17345238Y-2680476D01*
X17340476Y-2675714D01*
X17335714Y-2666191D01*
X17330952Y-2647143D01*
X17330952Y-2623333D01*
X17335714Y-2604286D01*
X17340476Y-2594762D01*
X17345238Y-2590000D01*
X17354762Y-2585238D01*
X17430952Y-2685238D02*
X17430952Y-2585238D01*
X17440476Y-2647143D02*
X17469048Y-2685238D01*
X17469048Y-2618571D02*
X17430952Y-2656667D01*
X17502381Y-2585238D02*
X17564286Y-2585238D01*
X17530952Y-2623333D01*
X17545238Y-2623333D01*
X17554762Y-2628095D01*
X17559524Y-2632857D01*
X17564286Y-2642381D01*
X17564286Y-2666191D01*
X17559524Y-2675714D01*
X17554762Y-2680476D01*
X17545238Y-2685238D01*
X17516667Y-2685238D01*
X17507143Y-2680476D01*
X17502381Y-2675714D01*
X20590857Y-5631238D02*
X20533714Y-5631238D01*
X20562286Y-5631238D02*
X20562286Y-5531238D01*
X20552762Y-5545524D01*
X20543238Y-5555048D01*
X20533714Y-5559810D01*
X20652762Y-5531238D02*
X20662286Y-5531238D01*
X20671810Y-5536000D01*
X20676572Y-5540762D01*
X20681333Y-5550286D01*
X20686095Y-5569333D01*
X20686095Y-5593143D01*
X20681333Y-5612190D01*
X20676572Y-5621714D01*
X20671810Y-5626476D01*
X20662286Y-5631238D01*
X20652762Y-5631238D01*
X20643238Y-5626476D01*
X20638476Y-5621714D01*
X20633714Y-5612190D01*
X20628952Y-5593143D01*
X20628952Y-5569333D01*
X20633714Y-5550286D01*
X20638476Y-5540762D01*
X20643238Y-5536000D01*
X20652762Y-5531238D01*
X20728952Y-5631238D02*
X20728952Y-5531238D01*
X20738476Y-5593143D02*
X20767048Y-5631238D01*
X20767048Y-5564571D02*
X20728952Y-5602667D01*
X20857524Y-5531238D02*
X20809905Y-5531238D01*
X20805143Y-5578857D01*
X20809905Y-5574095D01*
X20819429Y-5569333D01*
X20843238Y-5569333D01*
X20852762Y-5574095D01*
X20857524Y-5578857D01*
X20862286Y-5588381D01*
X20862286Y-5612190D01*
X20857524Y-5621714D01*
X20852762Y-5626476D01*
X20843238Y-5631238D01*
X20819429Y-5631238D01*
X20809905Y-5626476D01*
X20805143Y-5621714D01*
X14204595Y-5265762D02*
X14209357Y-5261000D01*
X14218881Y-5256238D01*
X14242690Y-5256238D01*
X14252214Y-5261000D01*
X14256976Y-5265762D01*
X14261738Y-5275286D01*
X14261738Y-5284810D01*
X14256976Y-5299095D01*
X14199833Y-5356238D01*
X14261738Y-5356238D01*
X14299833Y-5265762D02*
X14304595Y-5261000D01*
X14314119Y-5256238D01*
X14337929Y-5256238D01*
X14347452Y-5261000D01*
X14352214Y-5265762D01*
X14356976Y-5275286D01*
X14356976Y-5284810D01*
X14352214Y-5299095D01*
X14295071Y-5356238D01*
X14356976Y-5356238D01*
X14399833Y-5289571D02*
X14399833Y-5389571D01*
X14399833Y-5294333D02*
X14409357Y-5289571D01*
X14428405Y-5289571D01*
X14437929Y-5294333D01*
X14442690Y-5299095D01*
X14447452Y-5308619D01*
X14447452Y-5337191D01*
X14442690Y-5346714D01*
X14437929Y-5351476D01*
X14428405Y-5356238D01*
X14409357Y-5356238D01*
X14399833Y-5351476D01*
X14523643Y-5303857D02*
X14490309Y-5303857D01*
X14490309Y-5356238D02*
X14490309Y-5256238D01*
X14537929Y-5256238D01*
X14628405Y-5356238D02*
X14571262Y-5356238D01*
X14599833Y-5356238D02*
X14599833Y-5256238D01*
X14590309Y-5270524D01*
X14580786Y-5280048D01*
X14571262Y-5284810D01*
X14204595Y-5773762D02*
X14209357Y-5769000D01*
X14218881Y-5764238D01*
X14242690Y-5764238D01*
X14252214Y-5769000D01*
X14256976Y-5773762D01*
X14261738Y-5783286D01*
X14261738Y-5792809D01*
X14256976Y-5807095D01*
X14199833Y-5864238D01*
X14261738Y-5864238D01*
X14299833Y-5773762D02*
X14304595Y-5769000D01*
X14314119Y-5764238D01*
X14337929Y-5764238D01*
X14347452Y-5769000D01*
X14352214Y-5773762D01*
X14356976Y-5783286D01*
X14356976Y-5792809D01*
X14352214Y-5807095D01*
X14295071Y-5864238D01*
X14356976Y-5864238D01*
X14399833Y-5797571D02*
X14399833Y-5897571D01*
X14399833Y-5802333D02*
X14409357Y-5797571D01*
X14428405Y-5797571D01*
X14437929Y-5802333D01*
X14442690Y-5807095D01*
X14447452Y-5816619D01*
X14447452Y-5845190D01*
X14442690Y-5854714D01*
X14437929Y-5859476D01*
X14428405Y-5864238D01*
X14409357Y-5864238D01*
X14399833Y-5859476D01*
X14523643Y-5811857D02*
X14490309Y-5811857D01*
X14490309Y-5864238D02*
X14490309Y-5764238D01*
X14537929Y-5764238D01*
X14571262Y-5773762D02*
X14576024Y-5769000D01*
X14585548Y-5764238D01*
X14609357Y-5764238D01*
X14618881Y-5769000D01*
X14623643Y-5773762D01*
X14628405Y-5783286D01*
X14628405Y-5792809D01*
X14623643Y-5807095D01*
X14566500Y-5864238D01*
X14628405Y-5864238D01*
X18597619Y-3628571D02*
X18597619Y-3695238D01*
X18573810Y-3590476D02*
X18550000Y-3661905D01*
X18611905Y-3661905D01*
X18640476Y-3595238D02*
X18707143Y-3595238D01*
X18664286Y-3695238D01*
X18788095Y-3628571D02*
X18788095Y-3695238D01*
X18745238Y-3628571D02*
X18745238Y-3680952D01*
X18750000Y-3690476D01*
X18759524Y-3695238D01*
X18773810Y-3695238D01*
X18783333Y-3690476D01*
X18788095Y-3685714D01*
X18869048Y-3642857D02*
X18835714Y-3642857D01*
X18835714Y-3695238D02*
X18835714Y-3595238D01*
X18883333Y-3595238D01*
X18973810Y-3695238D02*
X18916667Y-3695238D01*
X18945238Y-3695238D02*
X18945238Y-3595238D01*
X18935714Y-3609524D01*
X18926191Y-3619048D01*
X18916667Y-3623809D01*
X19035714Y-3595238D02*
X19045238Y-3595238D01*
X19054762Y-3600000D01*
X19059524Y-3604762D01*
X19064286Y-3614286D01*
X19069048Y-3633333D01*
X19069048Y-3657143D01*
X19064286Y-3676190D01*
X19059524Y-3685714D01*
X19054762Y-3690476D01*
X19045238Y-3695238D01*
X19035714Y-3695238D01*
X19026191Y-3690476D01*
X19021429Y-3685714D01*
X19016667Y-3676190D01*
X19011905Y-3657143D01*
X19011905Y-3633333D01*
X19016667Y-3614286D01*
X19021429Y-3604762D01*
X19026191Y-3600000D01*
X19035714Y-3595238D01*
X19097619Y-3595238D02*
X19130952Y-3695238D01*
X19164286Y-3595238D01*
X19250000Y-3695238D02*
X19192857Y-3695238D01*
X19221429Y-3695238D02*
X19221429Y-3595238D01*
X19211905Y-3609524D01*
X19202381Y-3619048D01*
X19192857Y-3623809D01*
X14938571Y-3792381D02*
X15005238Y-3792381D01*
X14900476Y-3816190D02*
X14971905Y-3840000D01*
X14971905Y-3778095D01*
X14905238Y-3749524D02*
X14905238Y-3682857D01*
X15005238Y-3725714D01*
X14938571Y-3601905D02*
X15005238Y-3601905D01*
X14938571Y-3644762D02*
X14990952Y-3644762D01*
X15000476Y-3640000D01*
X15005238Y-3630476D01*
X15005238Y-3616190D01*
X15000476Y-3606667D01*
X14995714Y-3601905D01*
X14952857Y-3520952D02*
X14952857Y-3554286D01*
X15005238Y-3554286D02*
X14905238Y-3554286D01*
X14905238Y-3506667D01*
X15005238Y-3416190D02*
X15005238Y-3473333D01*
X15005238Y-3444762D02*
X14905238Y-3444762D01*
X14919524Y-3454286D01*
X14929048Y-3463809D01*
X14933809Y-3473333D01*
X14905238Y-3354286D02*
X14905238Y-3344762D01*
X14910000Y-3335238D01*
X14914762Y-3330476D01*
X14924286Y-3325714D01*
X14943333Y-3320952D01*
X14967143Y-3320952D01*
X14986190Y-3325714D01*
X14995714Y-3330476D01*
X15000476Y-3335238D01*
X15005238Y-3344762D01*
X15005238Y-3354286D01*
X15000476Y-3363809D01*
X14995714Y-3368571D01*
X14986190Y-3373333D01*
X14967143Y-3378095D01*
X14943333Y-3378095D01*
X14924286Y-3373333D01*
X14914762Y-3368571D01*
X14910000Y-3363809D01*
X14905238Y-3354286D01*
X14905238Y-3292381D02*
X15005238Y-3259048D01*
X14905238Y-3225714D01*
X14914762Y-3197143D02*
X14910000Y-3192381D01*
X14905238Y-3182857D01*
X14905238Y-3159047D01*
X14910000Y-3149524D01*
X14914762Y-3144762D01*
X14924286Y-3140000D01*
X14933809Y-3140000D01*
X14948095Y-3144762D01*
X15005238Y-3201905D01*
X15005238Y-3140000D01*
X15723809Y-3145238D02*
X15723809Y-3226190D01*
X15728571Y-3235714D01*
X15733333Y-3240476D01*
X15742857Y-3245238D01*
X15761905Y-3245238D01*
X15771429Y-3240476D01*
X15776190Y-3235714D01*
X15780952Y-3226190D01*
X15780952Y-3145238D01*
X15880952Y-3245238D02*
X15823809Y-3245238D01*
X15852381Y-3245238D02*
X15852381Y-3145238D01*
X15842857Y-3159524D01*
X15833333Y-3169048D01*
X15823809Y-3173809D01*
X16643333Y-6295714D02*
X16638571Y-6300476D01*
X16624286Y-6310000D01*
X16614762Y-6314762D01*
X16600476Y-6319524D01*
X16576667Y-6324286D01*
X16557619Y-6324286D01*
X16533809Y-6319524D01*
X16519524Y-6314762D01*
X16510000Y-6310000D01*
X16495714Y-6300476D01*
X16490952Y-6295714D01*
X16605238Y-6257619D02*
X16505238Y-6257619D01*
X16605238Y-6210000D02*
X16505238Y-6210000D01*
X16605238Y-6152857D01*
X16505238Y-6152857D01*
X16643333Y-6114762D02*
X16638571Y-6110000D01*
X16624286Y-6100476D01*
X16614762Y-6095714D01*
X16600476Y-6090952D01*
X16576667Y-6086190D01*
X16557619Y-6086190D01*
X16533809Y-6090952D01*
X16519524Y-6095714D01*
X16510000Y-6100476D01*
X16495714Y-6110000D01*
X16490952Y-6114762D01*
X16605238Y-6038571D02*
X16505238Y-6038571D01*
X16505238Y-6014762D01*
X16510000Y-6000476D01*
X16519524Y-5990952D01*
X16529048Y-5986190D01*
X16548095Y-5981428D01*
X16562381Y-5981428D01*
X16581429Y-5986190D01*
X16590952Y-5990952D01*
X16600476Y-6000476D01*
X16605238Y-6014762D01*
X16605238Y-6038571D01*
X16605238Y-5886190D02*
X16605238Y-5943333D01*
X16605238Y-5914762D02*
X16505238Y-5914762D01*
X16519524Y-5924286D01*
X16529048Y-5933809D01*
X16533809Y-5943333D01*
X16538571Y-5800476D02*
X16605238Y-5800476D01*
X16500476Y-5824286D02*
X16571905Y-5848095D01*
X16571905Y-5786190D01*
X14680476Y-6015238D02*
X14623333Y-6015238D01*
X14651905Y-6015238D02*
X14651905Y-5915238D01*
X14642381Y-5929524D01*
X14632857Y-5939048D01*
X14623333Y-5943809D01*
X14723333Y-6015238D02*
X14723333Y-5915238D01*
X14732857Y-5977143D02*
X14761429Y-6015238D01*
X14761429Y-5948571D02*
X14723333Y-5986667D01*
X14818571Y-5958095D02*
X14809048Y-5953333D01*
X14804286Y-5948571D01*
X14799524Y-5939048D01*
X14799524Y-5934286D01*
X14804286Y-5924762D01*
X14809048Y-5920000D01*
X14818571Y-5915238D01*
X14837619Y-5915238D01*
X14847143Y-5920000D01*
X14851905Y-5924762D01*
X14856667Y-5934286D01*
X14856667Y-5939048D01*
X14851905Y-5948571D01*
X14847143Y-5953333D01*
X14837619Y-5958095D01*
X14818571Y-5958095D01*
X14809048Y-5962857D01*
X14804286Y-5967619D01*
X14799524Y-5977143D01*
X14799524Y-5996190D01*
X14804286Y-6005714D01*
X14809048Y-6010476D01*
X14818571Y-6015238D01*
X14837619Y-6015238D01*
X14847143Y-6010476D01*
X14851905Y-6005714D01*
X14856667Y-5996190D01*
X14856667Y-5977143D01*
X14851905Y-5967619D01*
X14847143Y-5962857D01*
X14837619Y-5958095D01*
X15551905Y-6394762D02*
X15556667Y-6390000D01*
X15566190Y-6385238D01*
X15590000Y-6385238D01*
X15599524Y-6390000D01*
X15604286Y-6394762D01*
X15609048Y-6404286D01*
X15609048Y-6413809D01*
X15604286Y-6428095D01*
X15547143Y-6485238D01*
X15609048Y-6485238D01*
X15651905Y-6475714D02*
X15656667Y-6480476D01*
X15651905Y-6485238D01*
X15647143Y-6480476D01*
X15651905Y-6475714D01*
X15651905Y-6485238D01*
X15694762Y-6394762D02*
X15699524Y-6390000D01*
X15709048Y-6385238D01*
X15732857Y-6385238D01*
X15742381Y-6390000D01*
X15747143Y-6394762D01*
X15751905Y-6404286D01*
X15751905Y-6413809D01*
X15747143Y-6428095D01*
X15690000Y-6485238D01*
X15751905Y-6485238D01*
X15794762Y-6485238D02*
X15794762Y-6385238D01*
X15804286Y-6447143D02*
X15832857Y-6485238D01*
X15832857Y-6418571D02*
X15794762Y-6456667D01*
X15918571Y-6385238D02*
X15899524Y-6385238D01*
X15890000Y-6390000D01*
X15885238Y-6394762D01*
X15875714Y-6409048D01*
X15870952Y-6428095D01*
X15870952Y-6466190D01*
X15875714Y-6475714D01*
X15880476Y-6480476D01*
X15890000Y-6485238D01*
X15909048Y-6485238D01*
X15918571Y-6480476D01*
X15923333Y-6475714D01*
X15928095Y-6466190D01*
X15928095Y-6442381D01*
X15923333Y-6432857D01*
X15918571Y-6428095D01*
X15909048Y-6423333D01*
X15890000Y-6423333D01*
X15880476Y-6428095D01*
X15875714Y-6432857D01*
X15870952Y-6442381D01*
X15557143Y-5815238D02*
X15619048Y-5815238D01*
X15585714Y-5853333D01*
X15600000Y-5853333D01*
X15609524Y-5858095D01*
X15614286Y-5862857D01*
X15619048Y-5872381D01*
X15619048Y-5896190D01*
X15614286Y-5905714D01*
X15609524Y-5910476D01*
X15600000Y-5915238D01*
X15571429Y-5915238D01*
X15561905Y-5910476D01*
X15557143Y-5905714D01*
X15661905Y-5905714D02*
X15666667Y-5910476D01*
X15661905Y-5915238D01*
X15657143Y-5910476D01*
X15661905Y-5905714D01*
X15661905Y-5915238D01*
X15700000Y-5815238D02*
X15761905Y-5815238D01*
X15728571Y-5853333D01*
X15742857Y-5853333D01*
X15752381Y-5858095D01*
X15757143Y-5862857D01*
X15761905Y-5872381D01*
X15761905Y-5896190D01*
X15757143Y-5905714D01*
X15752381Y-5910476D01*
X15742857Y-5915238D01*
X15714286Y-5915238D01*
X15704762Y-5910476D01*
X15700000Y-5905714D01*
X15804762Y-5915238D02*
X15804762Y-5815238D01*
X15814286Y-5877143D02*
X15842857Y-5915238D01*
X15842857Y-5848571D02*
X15804762Y-5886667D01*
X15880952Y-5824762D02*
X15885714Y-5820000D01*
X15895238Y-5815238D01*
X15919048Y-5815238D01*
X15928571Y-5820000D01*
X15933333Y-5824762D01*
X15938095Y-5834286D01*
X15938095Y-5843809D01*
X15933333Y-5858095D01*
X15876190Y-5915238D01*
X15938095Y-5915238D01*
X14487143Y-6165238D02*
X14453809Y-6117619D01*
X14430000Y-6165238D02*
X14430000Y-6065238D01*
X14468095Y-6065238D01*
X14477619Y-6070000D01*
X14482381Y-6074762D01*
X14487143Y-6084286D01*
X14487143Y-6098571D01*
X14482381Y-6108095D01*
X14477619Y-6112857D01*
X14468095Y-6117619D01*
X14430000Y-6117619D01*
X14520476Y-6165238D02*
X14572857Y-6098571D01*
X14520476Y-6098571D02*
X14572857Y-6165238D01*
X14587143Y-6174762D02*
X14663333Y-6174762D01*
X14672857Y-6065238D02*
X14730000Y-6065238D01*
X14701428Y-6165238D02*
X14701428Y-6065238D01*
X14753809Y-6165238D02*
X14806190Y-6098571D01*
X14753809Y-6098571D02*
X14806190Y-6165238D01*
X14820476Y-6174762D02*
X14896667Y-6174762D01*
X14972857Y-6070000D02*
X14963333Y-6065238D01*
X14949048Y-6065238D01*
X14934762Y-6070000D01*
X14925238Y-6079524D01*
X14920476Y-6089048D01*
X14915714Y-6108095D01*
X14915714Y-6122381D01*
X14920476Y-6141429D01*
X14925238Y-6150952D01*
X14934762Y-6160476D01*
X14949048Y-6165238D01*
X14958571Y-6165238D01*
X14972857Y-6160476D01*
X14977619Y-6155714D01*
X14977619Y-6122381D01*
X14958571Y-6122381D01*
X15020476Y-6098571D02*
X15020476Y-6165238D01*
X15020476Y-6108095D02*
X15025238Y-6103333D01*
X15034762Y-6098571D01*
X15049048Y-6098571D01*
X15058571Y-6103333D01*
X15063333Y-6112857D01*
X15063333Y-6165238D01*
X15153810Y-6165238D02*
X15153810Y-6065238D01*
X15153810Y-6160476D02*
X15144286Y-6165238D01*
X15125238Y-6165238D01*
X15115714Y-6160476D01*
X15110952Y-6155714D01*
X15106190Y-6146190D01*
X15106190Y-6117619D01*
X15110952Y-6108095D01*
X15115714Y-6103333D01*
X15125238Y-6098571D01*
X15144286Y-6098571D01*
X15153810Y-6103333D01*
X15249048Y-6065238D02*
X15201429Y-6065238D01*
X15196667Y-6112857D01*
X15201429Y-6108095D01*
X15210952Y-6103333D01*
X15234762Y-6103333D01*
X15244286Y-6108095D01*
X15249048Y-6112857D01*
X15253810Y-6122381D01*
X15253810Y-6146190D01*
X15249048Y-6155714D01*
X15244286Y-6160476D01*
X15234762Y-6165238D01*
X15210952Y-6165238D01*
X15201429Y-6160476D01*
X15196667Y-6155714D01*
X15282381Y-6065238D02*
X15315714Y-6165238D01*
X15349048Y-6065238D01*
X15434762Y-6165238D02*
X15377619Y-6165238D01*
X15406190Y-6165238D02*
X15406190Y-6065238D01*
X15396667Y-6079524D01*
X15387143Y-6089048D01*
X15377619Y-6093809D01*
X13826190Y-6606238D02*
X13826190Y-6506238D01*
X13850000Y-6506238D01*
X13864286Y-6511000D01*
X13873810Y-6520524D01*
X13878571Y-6530048D01*
X13883333Y-6549095D01*
X13883333Y-6563381D01*
X13878571Y-6582429D01*
X13873810Y-6591952D01*
X13864286Y-6601476D01*
X13850000Y-6606238D01*
X13826190Y-6606238D01*
X13916667Y-6506238D02*
X13978571Y-6506238D01*
X13945238Y-6544333D01*
X13959524Y-6544333D01*
X13969048Y-6549095D01*
X13973810Y-6553857D01*
X13978571Y-6563381D01*
X13978571Y-6587190D01*
X13973810Y-6596714D01*
X13969048Y-6601476D01*
X13959524Y-6606238D01*
X13930952Y-6606238D01*
X13921429Y-6601476D01*
X13916667Y-6596714D01*
X14626190Y-6606238D02*
X14626190Y-6506238D01*
X14650000Y-6506238D01*
X14664286Y-6511000D01*
X14673810Y-6520524D01*
X14678571Y-6530048D01*
X14683333Y-6549095D01*
X14683333Y-6563381D01*
X14678571Y-6582429D01*
X14673810Y-6591952D01*
X14664286Y-6601476D01*
X14650000Y-6606238D01*
X14626190Y-6606238D01*
X14773810Y-6506238D02*
X14726190Y-6506238D01*
X14721429Y-6553857D01*
X14726190Y-6549095D01*
X14735714Y-6544333D01*
X14759524Y-6544333D01*
X14769048Y-6549095D01*
X14773810Y-6553857D01*
X14778571Y-6563381D01*
X14778571Y-6587190D01*
X14773810Y-6596714D01*
X14769048Y-6601476D01*
X14759524Y-6606238D01*
X14735714Y-6606238D01*
X14726190Y-6601476D01*
X14721429Y-6596714D01*
X15026190Y-6606238D02*
X15026190Y-6506238D01*
X15050000Y-6506238D01*
X15064286Y-6511000D01*
X15073810Y-6520524D01*
X15078571Y-6530048D01*
X15083333Y-6549095D01*
X15083333Y-6563381D01*
X15078571Y-6582429D01*
X15073810Y-6591952D01*
X15064286Y-6601476D01*
X15050000Y-6606238D01*
X15026190Y-6606238D01*
X15169048Y-6506238D02*
X15150000Y-6506238D01*
X15140476Y-6511000D01*
X15135714Y-6515762D01*
X15126190Y-6530048D01*
X15121429Y-6549095D01*
X15121429Y-6587190D01*
X15126190Y-6596714D01*
X15130952Y-6601476D01*
X15140476Y-6606238D01*
X15159524Y-6606238D01*
X15169048Y-6601476D01*
X15173810Y-6596714D01*
X15178571Y-6587190D01*
X15178571Y-6563381D01*
X15173810Y-6553857D01*
X15169048Y-6549095D01*
X15159524Y-6544333D01*
X15140476Y-6544333D01*
X15130952Y-6549095D01*
X15126190Y-6553857D01*
X15121429Y-6563381D01*
X16978571Y-6606238D02*
X16978571Y-6506238D01*
X17002381Y-6506238D01*
X17016667Y-6511000D01*
X17026191Y-6520524D01*
X17030952Y-6530048D01*
X17035714Y-6549095D01*
X17035714Y-6563381D01*
X17030952Y-6582429D01*
X17026191Y-6591952D01*
X17016667Y-6601476D01*
X17002381Y-6606238D01*
X16978571Y-6606238D01*
X17130952Y-6606238D02*
X17073810Y-6606238D01*
X17102381Y-6606238D02*
X17102381Y-6506238D01*
X17092857Y-6520524D01*
X17083333Y-6530048D01*
X17073810Y-6534809D01*
X17226191Y-6606238D02*
X17169048Y-6606238D01*
X17197619Y-6606238D02*
X17197619Y-6506238D01*
X17188095Y-6520524D01*
X17178571Y-6530048D01*
X17169048Y-6534809D01*
X14758119Y-5391619D02*
X14805738Y-5391619D01*
X14705738Y-5424952D02*
X14758119Y-5391619D01*
X14705738Y-5358286D01*
X14805738Y-5272571D02*
X14805738Y-5329714D01*
X14805738Y-5301143D02*
X14705738Y-5301143D01*
X14720024Y-5310667D01*
X14729548Y-5320191D01*
X14734309Y-5329714D01*
X21088095Y-4545238D02*
X21054762Y-4497619D01*
X21030952Y-4545238D02*
X21030952Y-4445238D01*
X21069048Y-4445238D01*
X21078572Y-4450000D01*
X21083333Y-4454762D01*
X21088095Y-4464286D01*
X21088095Y-4478571D01*
X21083333Y-4488095D01*
X21078572Y-4492857D01*
X21069048Y-4497619D01*
X21030952Y-4497619D01*
X21130952Y-4545238D02*
X21130952Y-4445238D01*
X21188095Y-4545238D01*
X21188095Y-4445238D01*
X21278572Y-4478571D02*
X21278572Y-4545238D01*
X21254762Y-4440476D02*
X21230952Y-4511905D01*
X21292857Y-4511905D01*
X21350000Y-4445238D02*
X21359524Y-4445238D01*
X21369048Y-4450000D01*
X21373810Y-4454762D01*
X21378572Y-4464286D01*
X21383333Y-4483333D01*
X21383333Y-4507143D01*
X21378572Y-4526191D01*
X21373810Y-4535714D01*
X21369048Y-4540476D01*
X21359524Y-4545238D01*
X21350000Y-4545238D01*
X21340476Y-4540476D01*
X21335714Y-4535714D01*
X21330952Y-4526191D01*
X21326191Y-4507143D01*
X21326191Y-4483333D01*
X21330952Y-4464286D01*
X21335714Y-4454762D01*
X21340476Y-4450000D01*
X21350000Y-4445238D01*
X21421429Y-4454762D02*
X21426191Y-4450000D01*
X21435714Y-4445238D01*
X21459524Y-4445238D01*
X21469048Y-4450000D01*
X21473810Y-4454762D01*
X21478572Y-4464286D01*
X21478572Y-4473810D01*
X21473810Y-4488095D01*
X21416667Y-4545238D01*
X21478572Y-4545238D01*
X21540476Y-4445238D02*
X21550000Y-4445238D01*
X21559524Y-4450000D01*
X21564286Y-4454762D01*
X21569048Y-4464286D01*
X21573810Y-4483333D01*
X21573810Y-4507143D01*
X21569048Y-4526191D01*
X21564286Y-4535714D01*
X21559524Y-4540476D01*
X21550000Y-4545238D01*
X21540476Y-4545238D01*
X21530952Y-4540476D01*
X21526191Y-4535714D01*
X21521429Y-4526191D01*
X21516667Y-4507143D01*
X21516667Y-4483333D01*
X21521429Y-4464286D01*
X21526191Y-4454762D01*
X21530952Y-4450000D01*
X21540476Y-4445238D01*
M02*
